<?xml version="1.0" standalone="no"?>
<!DOCTYPE svg PUBLIC "-//W3C//DTD SVG 1.1//EN" "http://www.w3.org/Graphics/SVG/1.1/DTD/svg11.dtd" >
<svg xmlns="http://www.w3.org/2000/svg" xmlns:xlink="http://www.w3.org/1999/xlink" version="1.1">
<metadata>
Created by FontForge 20201107 at Mon Mar  4 20:12:32 2019
 By 
Copyright 2014-2019, Amazon.com, Inc. or its affiliates. Modification or redistribution of this file requires prior written permission from Amazon.com, Inc.
</metadata>
<defs>
<font id="AmazonEmberV2-Regular" horiz-adv-x="0" >
  <font-face 
    font-family="Amazon Ember V2"
    font-weight="400"
    font-stretch="normal"
    units-per-em="1000"
    panose-1="2 11 6 3 2 2 4 2 2 4"
    ascent="800"
    descent="-200"
    x-height="507"
    cap-height="693"
    bbox="-207 -434 1292 1080"
    underline-thickness="80"
    underline-position="-120"
    unicode-range="U+000D-FFFD"
  />
<missing-glyph horiz-adv-x="500" 
d="M450 0h-400v750h400v-750zM400 50v650h-300v-650h300z" />
    <glyph glyph-name="uniFEF5" unicode="&#xfedf;&#xfe82;" horiz-adv-x="521" arabic-form="isolated" 
d="M61 22l9 84q70 60 117.5 105.5t85.5 90.5q-51 51 -112.5 104.5t-120.5 99.5l41 82q71 -60 133 -115t110 -106q16 26 30 67.5t22 104t8 152.5l77 17q-1 -78 -8 -135t-19 -100t-29.5 -78.5t-40.5 -71.5q47 -54 73 -104.5t26 -95.5q0 -58 -47.5 -90.5t-160.5 -32.5
q-53 0 -103.5 4.5t-90.5 17.5zM401 125q0 21 -23.5 56t-62.5 77q-33 -37 -77 -78t-87 -80q32 -4 67 -5t52 -1q70 0 100.5 7.5t30.5 23.5zM220 752l32 -15q-13 -43 -33 -62t-46 -19q-14 0 -28 3.5t-36 10.5q-19 7 -33 10t-29 3q-7 0 -14 -4t-25 -30l-32 15q14 44 34 62.5
t45 18.5q16 0 29 -3t35 -11q36 -13 62 -13q7 0 14 4.5t25 29.5z" />
    <glyph glyph-name="uniFEF6" unicode="&#xfee0;&#xfe82;" horiz-adv-x="593" arabic-form="final" 
d="M593 0q-66 0 -113 23.5t-71 58.5q-39 -38 -111 -61t-159 -23q-16 0 -39.5 2t-35.5 4l-16 99q42 -5 74 -5q42 0 76 2t61 5q-30 78 -62 155t-63.5 145t-58.5 121l69 62q50 -101 94 -223.5t85 -247.5q32 9 45.5 19.5t13.5 18.5v536l79 17v-555q0 -22 36.5 -37.5t95.5 -15.5
l21 -7v-86zM220 752l32 -15q-13 -43 -33 -62t-46 -19q-14 0 -28 3.5t-36 10.5q-19 7 -33 10t-29 3q-7 0 -14 -4t-25 -30l-32 15q14 44 34 62.5t45 18.5q16 0 29 -3t35 -11q36 -13 62 -13q7 0 14 4.5t25 29.5z" />
    <glyph glyph-name="uniFEF7" unicode="&#xfedf;&#xfe84;" horiz-adv-x="521" arabic-form="isolated" 
d="M61 22l9 84q70 60 117.5 105.5t85.5 90.5q-51 51 -112.5 104.5t-120.5 99.5l41 82q71 -60 133 -115t110 -106q16 26 30 67.5t22 104t8 152.5l77 17q-1 -78 -8 -135t-19 -100t-29.5 -78.5t-40.5 -71.5q47 -54 73 -104.5t26 -95.5q0 -58 -47.5 -90.5t-160.5 -32.5
q-53 0 -103.5 4.5t-90.5 17.5zM401 125q0 21 -23.5 56t-62.5 77q-33 -37 -77 -78t-87 -80q32 -4 67 -5t52 -1q70 0 100.5 7.5t30.5 23.5zM208 730l-8 -53q-36 -5 -81.5 -14t-88.5 -20l-19 48q12 3 23 6t25 6q-13 10 -19 25.5t-6 29.5q0 37 25 62.5t63 25.5q32 0 63 -22
l-10 -36q-11 3 -24 4.5t-21 1.5q-25 0 -41 -8t-16 -22q0 -13 12 -23t29.5 -15.5t33.5 -5.5q17 0 32 3.5t28 6.5z" />
    <glyph glyph-name="uniFEF8" unicode="&#xfee0;&#xfe84;" horiz-adv-x="593" arabic-form="final" 
d="M593 0q-66 0 -113 23.5t-71 58.5q-39 -38 -111 -61t-159 -23q-16 0 -39.5 2t-35.5 4l-16 99q42 -5 74 -5q42 0 76 2t61 5q-30 78 -62 155t-63.5 145t-58.5 121l69 62q50 -101 94 -223.5t85 -247.5q32 9 45.5 19.5t13.5 18.5v536l79 17v-555q0 -22 36.5 -37.5t95.5 -15.5
l21 -7v-86zM208 730l-8 -53q-36 -5 -81.5 -14t-88.5 -20l-19 48q12 3 23 6t25 6q-13 10 -19 25.5t-6 29.5q0 37 25 62.5t63 25.5q32 0 63 -22l-10 -36q-11 3 -24 4.5t-21 1.5q-25 0 -41 -8t-16 -22q0 -13 12 -23t29.5 -15.5t33.5 -5.5q17 0 32 3.5t28 6.5z" />
    <glyph glyph-name="uniFEF9" unicode="&#xfedf;&#xfe88;" horiz-adv-x="521" arabic-form="isolated" 
d="M61 22l9 84q73 62 121.5 109t87.5 93q-59 72 -116.5 127t-120.5 103l41 82q57 -48 124 -111.5t124 -131.5q22 41 38 114.5t15 199.5l77 17q-1 -76 -7.5 -132t-18.5 -98.5t-28.5 -77.5t-38.5 -70q42 -56 68.5 -109t26.5 -98q0 -58 -47.5 -90.5t-160.5 -32.5
q-53 0 -103.5 4.5t-90.5 17.5zM401 125q0 6 -5.5 20t-23 41.5t-54.5 74.5q-33 -38 -78 -79.5t-89 -81.5q32 -4 67 -5t52 -1q70 0 100.5 7.5t30.5 23.5zM258 -191l-8 -53q-36 -5 -81.5 -14t-88.5 -20l-19 48q13 3 24 6t24 5q-13 11 -19 26.5t-6 29.5q0 37 25 62.5t63 25.5
q32 0 63 -22l-10 -36q-11 3 -24 4.5t-21 1.5q-25 0 -41 -8t-16 -22q0 -13 12 -23t29.5 -15.5t33.5 -5.5q17 0 32 3.5t28 6.5z" />
    <glyph glyph-name="uniFEFA" unicode="&#xfee0;&#xfe88;" horiz-adv-x="593" arabic-form="final" 
d="M593 0q-66 0 -113 23.5t-71 58.5q-39 -38 -111 -61t-159 -23q-16 0 -39.5 2t-35.5 4l-16 99q42 -5 74 -5q42 0 76 2t61 5q-23 59 -50.5 125t-56 131t-56 121t-49.5 96l70 63q28 -51 55.5 -115t54.5 -134.5t51 -141t45 -133.5q32 9 45.5 19.5t13.5 18.5v536l79 17v-555
q0 -22 36.5 -37.5t95.5 -15.5l21 -7v-86zM258 -191l-8 -53q-36 -5 -81.5 -14t-88.5 -20l-19 48q13 3 24 6t24 5q-13 11 -19 26.5t-6 29.5q0 37 25 62.5t63 25.5q32 0 63 -22l-10 -36q-11 3 -24 4.5t-21 1.5q-25 0 -41 -8t-16 -22q0 -13 12 -23t29.5 -15.5t33.5 -5.5
q17 0 32 3.5t28 6.5z" />
    <glyph glyph-name="uniFEFB" unicode="&#xfedf;&#xfe8e;" horiz-adv-x="521" arabic-form="isolated" 
d="M61 22l9 84q73 62 121.5 109t87.5 93q-59 72 -116.5 127t-120.5 103l41 82q57 -48 124 -111.5t124 -131.5q22 41 38 114.5t15 199.5l77 17q-1 -76 -7.5 -132t-18.5 -98.5t-28.5 -77.5t-38.5 -70q42 -56 68.5 -109t26.5 -98q0 -58 -47.5 -90.5t-160.5 -32.5
q-53 0 -103.5 4.5t-90.5 17.5zM401 125q0 6 -5.5 20t-23 41.5t-54.5 74.5q-33 -38 -78 -79.5t-89 -81.5q32 -4 67 -5t52 -1q70 0 100.5 7.5t30.5 23.5z" />
    <glyph glyph-name="uniFEFC" unicode="&#xfee0;&#xfe8e;" horiz-adv-x="593" arabic-form="final" 
d="M593 0q-66 0 -113 23.5t-71 58.5q-39 -38 -111 -61t-159 -23q-16 0 -39.5 2t-35.5 4l-16 99q42 -5 74 -5q42 0 76 2t61 5q-23 59 -50.5 125t-56 131t-56 121t-49.5 96l70 63q28 -51 55.5 -115t54.5 -134.5t51 -141t45 -133.5q32 9 45.5 19.5t13.5 18.5v536l79 17v-555
q0 -22 36.5 -37.5t95.5 -15.5l21 -7v-86z" />
    <glyph glyph-name="uniFEE0_uniFB51.rlig" unicode="&#xfee0;&#xfb51;" horiz-adv-x="593" 
d="M593 0q-66 0 -113 23.5t-71 58.5q-39 -38 -111 -61t-159 -23q-16 0 -39.5 2t-35.5 4l-16 99q42 -5 74 -5q42 0 76 2t61 5q-30 78 -62 155t-63.5 145t-58.5 121l69 62q50 -101 94 -223.5t85 -247.5q32 9 45.5 19.5t13.5 18.5v536l79 17v-555q0 -22 36.5 -37.5t95.5 -15.5
l21 -7v-86zM141 655q-23 0 -39.5 5.5t-30 11t-30.5 5.5q-5 0 -10.5 -5t-20.5 -25l-32 15q12 37 30.5 53.5t40.5 16.5h4q23 42 51 69.5t55 27.5q19 0 35 -14t26 -35t10 -42q0 -46 -26.5 -64.5t-62.5 -18.5zM155 773q-17 0 -33 -11t-35 -41q14 -5 30 -9.5t31 -4.5q23 0 35.5 7
t12.5 14q0 5 -5 16t-14 20t-22 9z" />
    <glyph glyph-name="uniFEDF_uniFB51.rlig" unicode="&#xfedf;&#xfb51;" horiz-adv-x="521" 
d="M61 22l9 84q70 60 117.5 105.5t85.5 90.5q-51 51 -112.5 104.5t-120.5 99.5l41 82q71 -60 133 -115t110 -106q16 26 30 67.5t22 104t8 152.5l77 17q-1 -78 -8 -135t-19 -100t-29.5 -78.5t-40.5 -71.5q47 -54 73 -104.5t26 -95.5q0 -58 -47.5 -90.5t-160.5 -32.5
q-53 0 -103.5 4.5t-90.5 17.5zM401 125q0 21 -23.5 56t-62.5 77q-33 -37 -77 -78t-87 -80q32 -4 67 -5t52 -1q70 0 100.5 7.5t30.5 23.5zM141 655q-23 0 -39.5 5.5t-30 11t-30.5 5.5q-5 0 -10.5 -5t-20.5 -25l-32 15q12 37 30.5 53.5t40.5 16.5h4q23 42 51 69.5t55 27.5
q19 0 35 -14t26 -35t10 -42q0 -46 -26.5 -64.5t-62.5 -18.5zM155 773q-17 0 -33 -11t-35 -41q14 -5 30 -9.5t31 -4.5q23 0 35.5 7t12.5 14q0 5 -5 16t-14 20t-22 9z" />
    <glyph glyph-name="uni066E.init" unicode="&#x66e;" horiz-adv-x="275" 
d="M-21 93l21 7h9q69 0 102.5 15.5t33.5 29.5q0 25 -9 67.5t-22.5 92t-27.5 94.5l85 31q17 -61 28.5 -124.5t11.5 -117.5q0 -88 -53.5 -138t-144.5 -50h-13l-21 7v86z" />
    <glyph glyph-name="uni066E.medi" unicode="&#x66e;" horiz-adv-x="355" 
d="M376 7l-21 -7q-65 0 -115.5 13.5t-83.5 34.5q-58 -48 -156 -48l-21 7v86l21 7q55 0 84.5 5.5t40.5 17t12 27.5l12 175l75 -3l-13 -200q28 -13 63.5 -17.5t80.5 -4.5l21 -7v-86z" />
    <glyph glyph-name="uni066E.fina" unicode="&#x66e;" horiz-adv-x="926" 
d="M719 325l75 -3l-13 -199q46 -23 145 -23l21 -7v-86l-21 -7q-121 0 -199 49q-32 -19 -72.5 -29.5t-98 -15t-141.5 -4.5q-135 0 -214 21t-113 69.5t-34 131.5q0 40 13 85t32 79l51 -18q-9 -25 -15.5 -61.5t-6.5 -62.5q0 -57 25.5 -88t90 -43.5t181.5 -12.5q105 0 166 5
t88 17t28 32z" />
    <glyph glyph-name="uni066F.fina" unicode="&#x66f;" horiz-adv-x="702" 
d="M327 -210q-150 0 -221.5 54t-71.5 166q0 42 15 91.5t38 86.5l47 -19q-12 -30 -20 -67t-8 -64q0 -80 52 -114t176 -34q69 0 122.5 11t84 30.5t30.5 44.5v24h-89q-197 0 -197 135q0 48 14 92.5t37.5 80t53 56t61.5 20.5q51 0 91 -36t65.5 -100t30.5 -148h64l21 -7v-86
l-21 -7h-65q-6 -67 -28 -101q-72 -109 -282 -109zM490 100h76q-3 52 -20 94.5t-43.5 67t-58.5 24.5q-26 0 -48 -19t-35.5 -50.5t-13.5 -68.5q0 -22 38 -35t105 -13z" />
    <glyph glyph-name="uni06A1.init" unicode="&#x6a1;" horiz-adv-x="460" 
d="M0 100h108q118 0 170.5 15.5t52.5 51.5v56q-23 -12 -54 -21t-71 -9q-69 0 -111 31.5t-42 86.5q0 68 22.5 126t60 93.5t82.5 35.5q43 0 77 -26t57.5 -70.5t35.5 -100.5t12 -116q0 -82 -13 -127.5t-45 -69.5q-43 -32 -102 -44t-141 -12h-99l-21 7v86zM113 331
q0 -22 30 -31.5t79 -9.5q62 0 105 14q-7 59 -26.5 95.5t-44.5 53t-48 16.5q-28 0 -49.5 -19t-33.5 -50t-12 -69z" />
    <glyph glyph-name="uni06A1.medi" unicode="&#x6a1;" horiz-adv-x="482" 
d="M482 0q-52 0 -92 3t-75.5 11.5t-73.5 26.5q-43 -21 -97 -31t-144 -10l-21 7v86l21 7q44 0 78.5 2.5t60.5 5.5q-25 25 -42 59t-17 77q0 52 23 99t61 77.5t83 30.5q44 0 81.5 -29t60 -76t22.5 -103q0 -42 -20 -76.5t-48 -59.5q57 -7 139 -7l21 -7v-86zM135 246
q0 -12 15 -33.5t40 -43.5t54 -37q27 13 52.5 32.5t42 38.5t16.5 30q0 27 -17 55t-43 47t-54 19q-26 0 -50.5 -19t-40 -44.5t-15.5 -44.5z" />
    <glyph glyph-name="uni06A1.fina" unicode="&#x6a1;" horiz-adv-x="956" 
d="M956 0q-57 0 -98.5 3.5t-74.5 12.5t-66 25q-34 -17 -72 -25.5t-95 -12t-146 -3.5q-130 0 -207 21t-110 69.5t-33 131.5q0 39 12.5 84t32.5 80l51 -18q-10 -26 -16 -61.5t-6 -62.5q0 -56 25 -87.5t87 -44t173 -12.5q77 0 121.5 1.5t80.5 6.5q-61 59 -61 136q0 54 23.5 101
t62 76.5t81.5 29.5q44 0 81 -29t60 -76t23 -103q0 -74 -69 -136q57 -7 140 -7l21 -7v-86zM609 246q0 -14 16.5 -35.5t42 -43t51.5 -34.5q26 12 51 30.5t42 37.5t17 32q0 28 -17 56t-43 46.5t-53 18.5q-22 0 -47 -17.5t-42.5 -42.5t-17.5 -48z" />
    <glyph glyph-name="uni06BA.init" unicode="&#x6ba;" horiz-adv-x="275" 
d="M-21 93l21 7h9q69 0 102.5 15.5t33.5 29.5q0 25 -9 67.5t-22.5 92t-27.5 94.5l85 31q17 -61 28.5 -124.5t11.5 -117.5q0 -88 -53.5 -138t-144.5 -50h-13l-21 7v86z" />
    <glyph glyph-name="uni06BA.medi" unicode="&#x6ba;" horiz-adv-x="355" 
d="M376 7l-21 -7q-65 0 -115.5 13.5t-83.5 34.5q-58 -48 -156 -48l-21 7v86l21 7q55 0 84.5 5.5t40.5 17t12 27.5l12 175l75 -3l-13 -200q28 -13 63.5 -17.5t80.5 -4.5l21 -7v-86z" />
    <glyph glyph-name="uni06C2.fina" unicode="&#x6c2;" horiz-adv-x="510" 
d="M531 7l-21 -7q-32 0 -54.5 4.5t-41.5 18t-40.5 41.5t-51.5 76q-22 35 -43.5 50t-45.5 15q-66 0 -164 -90l-39 44q34 42 72.5 74t76 50t67.5 18q25 0 46 -9.5t44 -35.5t53 -75q21 -33 38 -50.5t36.5 -24t46.5 -6.5l21 -7v-86zM330 472l-8 -53q-36 -5 -81.5 -14t-88.5 -20
l-19 48q12 3 23 6t25 6q-13 10 -19 25.5t-6 29.5q0 37 25 62.5t63 25.5q32 0 63 -22l-10 -36q-11 3 -24 4.5t-21 1.5q-25 0 -41 -8t-16 -22q0 -13 12 -23t29.5 -15.5t33.5 -5.5q17 0 32 3.5t28 6.5z" />
    <glyph glyph-name="uni06C3.fina" unicode="&#x6c3;" horiz-adv-x="510" 
d="M531 7l-21 -7q-32 0 -54.5 4.5t-41.5 18t-40.5 41.5t-51.5 76q-22 35 -43.5 50t-45.5 15q-66 0 -164 -90l-39 44q34 42 72.5 74t76 50t67.5 18q25 0 46 -9.5t44 -35.5t53 -75q21 -33 38 -50.5t36.5 -24t46.5 -6.5l21 -7v-86zM163 385l-60 60v8l60 60h8l60 -60v-8l-60 -60
h-8zM303 385l-60 60v8l60 60h8l60 -60v-8l-60 -60h-8z" />
    <glyph glyph-name="uni06D5.fina" unicode="&#x6d5;" horiz-adv-x="466" 
d="M487 7l-21 -7q-75 0 -114 20t-51 68q-19 -5 -44.5 -8t-50.5 -3q-44 0 -82 11t-61 30.5t-23 44.5q0 32 6 59.5t18 46.5q19 30 47.5 56.5t73 55t110.5 63.5v52l71 16v-372q0 -19 26.5 -29.5t73.5 -10.5l21 -7v-86zM105 213q0 -16 35.5 -28t81.5 -12q21 0 39 1.5t34 4.5v187
q-51 -22 -94.5 -50.5t-69.5 -56t-26 -46.5z" />
    <glyph glyph-name="uniFB50" unicode="&#x671;" horiz-adv-x="228" arabic-form="isolated" 
d="M139 0h-63v620l79 16v-252q0 -23 -1 -61t-2.5 -83.5t-3.5 -91t-4.5 -84.5t-4.5 -64zM139 711q-23 0 -39.5 5.5t-30 11t-30.5 5.5q-5 0 -10.5 -5t-20.5 -25l-32 15q12 37 30.5 53.5t40.5 16.5h4q23 42 51 69.5t55 27.5q19 0 35 -14t26 -35t10 -42q0 -46 -26.5 -64.5
t-62.5 -18.5zM153 829q-17 0 -33 -11t-35 -41q14 -5 30 -9.5t31 -4.5q23 0 35.5 7t12.5 14q0 5 -5 16t-14 20t-22 9z" />
    <glyph glyph-name="uniFB51" unicode="&#x671;" horiz-adv-x="276" arabic-form="final" 
d="M301 7l-21 -7q-106 0 -156.5 53t-51.5 159l-4 408l80 16v-497q0 -20 39 -29.5t93 -9.5l21 -7v-86zM132 711q-23 0 -39.5 5.5t-30 11t-30.5 5.5q-5 0 -10.5 -5t-20.5 -25l-32 15q12 37 30.5 53.5t40.5 16.5h4q23 42 51 69.5t55 27.5q19 0 35 -14t26 -35t10 -42
q0 -46 -26.5 -64.5t-62.5 -18.5zM146 829q-17 0 -33 -11t-35 -41q14 -5 30 -9.5t31 -4.5q23 0 35.5 7t12.5 14q0 5 -5 16t-14 20t-22 9z" />
    <glyph glyph-name="uniFB56" unicode="&#x67e;" horiz-adv-x="876" arabic-form="isolated" 
d="M416 0q-135 0 -214 21t-113.5 69.5t-34.5 131.5q0 39 13 84.5t32 79.5l51 -18q-10 -29 -16 -64t-6 -60q0 -57 25.5 -88t90.5 -43.5t182 -12.5q95 0 167.5 8.5t113.5 23t41 33.5q0 29 -12.5 82.5t-41.5 151.5l84 31q12 -39 21 -81.5t14.5 -80t5.5 -63.5
q0 -106 -97.5 -155.5t-305.5 -49.5zM297 -138l60 60h8l60 -60v-8l-60 -60h-8l-60 60v8zM437 -138l60 60h8l60 -60v-8l-60 -60h-8l-60 60v8zM367 -267l60 60h8l60 -60v-8l-60 -60h-8l-60 60v8z" />
    <glyph glyph-name="uniFB57" unicode="&#x67e;" horiz-adv-x="926" arabic-form="final" 
d="M719 325l75 -3l-13 -199q46 -23 145 -23l21 -7v-86l-21 -7q-121 0 -199 49q-32 -19 -72.5 -29.5t-98 -15t-141.5 -4.5q-135 0 -214 21t-113 69.5t-34 131.5q0 40 13 85t32 79l51 -18q-9 -25 -15.5 -61.5t-6.5 -62.5q0 -57 25.5 -88t90 -43.5t181.5 -12.5q105 0 166 5
t88 17t28 32zM290 -138l60 60h8l60 -60v-8l-60 -60h-8l-60 60v8zM430 -138l60 60h8l60 -60v-8l-60 -60h-8l-60 60v8zM360 -267l60 60h8l60 -60v-8l-60 -60h-8l-60 60v8z" />
    <glyph glyph-name="uniFB58" unicode="&#x67e;" horiz-adv-x="275" arabic-form="initial" 
d="M-21 93l21 7h9q69 0 102.5 15.5t33.5 29.5q0 25 -9 67.5t-22.5 92t-27.5 94.5l85 31q17 -61 28.5 -124.5t11.5 -117.5q0 -88 -53.5 -138t-144.5 -50h-13l-21 7v86zM-42 -138l60 60h8l60 -60v-8l-60 -60h-8l-60 60v8zM98 -138l60 60h8l60 -60v-8l-60 -60h-8l-60 60v8z
M28 -267l60 60h8l60 -60v-8l-60 -60h-8l-60 60v8z" />
    <glyph glyph-name="uniFB59" unicode="&#x67e;" horiz-adv-x="355" arabic-form="medial" 
d="M376 7l-21 -7q-65 0 -115.5 13.5t-83.5 34.5q-58 -48 -156 -48l-21 7v86l21 7q55 0 84.5 5.5t40.5 17t12 27.5l12 175l75 -3l-13 -200q28 -13 63.5 -17.5t80.5 -4.5l21 -7v-86zM15 -138l60 60h8l60 -60v-8l-60 -60h-8l-60 60v8zM155 -138l60 60h8l60 -60v-8l-60 -60h-8
l-60 60v8zM85 -267l60 60h8l60 -60v-8l-60 -60h-8l-60 60v8z" />
    <glyph glyph-name="uniFB66" unicode="&#x679;" horiz-adv-x="876" arabic-form="isolated" 
d="M416 0q-135 0 -214 21t-113.5 69.5t-34.5 131.5q0 39 13 84.5t32 79.5l51 -18q-10 -29 -16 -64t-6 -60q0 -57 25.5 -88t90.5 -43.5t182 -12.5q95 0 167.5 8.5t113.5 23t41 33.5q0 29 -12.5 82.5t-41.5 151.5l84 31q12 -39 21 -81.5t14.5 -80t5.5 -63.5
q0 -106 -97.5 -155.5t-305.5 -49.5zM538 514q0 -43 -34 -62t-96 -19q-22 0 -48 1t-47 4l-2 52q9 -2 19.5 -3t21.5 -1q2 25 3 54.5t1 51.5v42l43 10v-39q0 -15 -2.5 -32.5t-6.5 -36.5q18 29 38.5 47t38.5 18q20 0 36 -13.5t25.5 -33.5t9.5 -40zM461 545q-21 0 -37 -13.5
t-36 -46.5h11.5h11.5q50 0 71.5 6.5t21.5 12.5q0 5 -4.5 14.5t-14 18t-24.5 8.5z" />
    <glyph glyph-name="uniFB67" unicode="&#x679;" horiz-adv-x="926" arabic-form="final" 
d="M719 325l75 -3l-13 -199q46 -23 145 -23l21 -7v-86l-21 -7q-121 0 -199 49q-32 -19 -72.5 -29.5t-98 -15t-141.5 -4.5q-135 0 -214 21t-113 69.5t-34 131.5q0 40 13 85t32 79l51 -18q-9 -25 -15.5 -61.5t-6.5 -62.5q0 -57 25.5 -88t90 -43.5t181.5 -12.5q105 0 166 5
t88 17t28 32zM557 514q0 -43 -34 -62t-96 -19q-22 0 -48 1t-47 4l-2 52q9 -2 19.5 -3t21.5 -1q2 25 3 54.5t1 51.5v42l43 10v-39q0 -15 -2.5 -32.5t-6.5 -36.5q18 29 38.5 47t38.5 18q20 0 36 -13.5t25.5 -33.5t9.5 -40zM480 545q-21 0 -37 -13.5t-36 -46.5h11.5h11.5
q50 0 71.5 6.5t21.5 12.5q0 5 -4.5 14.5t-14 18t-24.5 8.5z" />
    <glyph glyph-name="uniFB68" unicode="&#x679;" horiz-adv-x="275" arabic-form="initial" 
d="M-21 93l21 7h9q69 0 102.5 15.5t33.5 29.5q0 25 -9 67.5t-22.5 92t-27.5 94.5l85 31q17 -61 28.5 -124.5t11.5 -117.5q0 -88 -53.5 -138t-144.5 -50h-13l-21 7v86zM231 599q0 -43 -34 -62t-96 -19q-22 0 -48 1t-47 4l-2 52q9 -2 19.5 -3t21.5 -1q2 25 3 54.5t1 51.5v42
l43 10v-39q0 -15 -2.5 -32.5t-6.5 -36.5q18 29 38.5 47t38.5 18q20 0 36 -13.5t25.5 -33.5t9.5 -40zM154 630q-21 0 -37 -13.5t-36 -46.5h11.5h11.5q50 0 71.5 6.5t21.5 12.5q0 5 -4.5 14.5t-14 18t-24.5 8.5z" />
    <glyph glyph-name="uniFB69" unicode="&#x679;" horiz-adv-x="355" arabic-form="medial" 
d="M376 7l-21 -7q-65 0 -115.5 13.5t-83.5 34.5q-58 -48 -156 -48l-21 7v86l21 7q55 0 84.5 5.5t40.5 17t12 27.5l12 175l75 -3l-13 -200q28 -13 63.5 -17.5t80.5 -4.5l21 -7v-86zM286 514q0 -43 -34 -62t-96 -19q-22 0 -48 1t-47 4l-2 52q9 -2 19.5 -3t21.5 -1q2 25 3 54.5
t1 51.5v42l43 10v-39q0 -15 -2.5 -32.5t-6.5 -36.5q18 29 38.5 47t38.5 18q20 0 36 -13.5t25.5 -33.5t9.5 -40zM209 545q-21 0 -37 -13.5t-36 -46.5h11.5h11.5q50 0 71.5 6.5t21.5 12.5q0 5 -4.5 14.5t-14 18t-24.5 8.5z" />
    <glyph glyph-name="uniFB6A" unicode="&#x6a4;" horiz-adv-x="867" arabic-form="isolated" 
d="M419 0q-136 0 -216 21t-114.5 69.5t-34.5 131.5q0 39 12.5 84t32.5 80l51 -18q-10 -29 -16 -63.5t-6 -60.5q0 -57 25.5 -88t91 -43.5t183.5 -12.5q163 0 236.5 16t73.5 51v56q-56 -30 -125 -30q-70 0 -111.5 32t-41.5 86q0 69 22.5 127t60.5 93t82 35q52 0 93 -41
t65 -111.5t24 -160.5q0 -67 -11.5 -111t-37.5 -70q-36 -37 -119 -54.5t-220 -17.5zM520 331q0 -41 109 -41q60 0 105 14q-10 75 -42 120t-77 45q-40 0 -67.5 -39.5t-27.5 -98.5zM611 777l-60 60v8l60 60h8l60 -60v-8l-60 -60h-8zM541 648l-60 60v8l60 60h8l60 -60v-8
l-60 -60h-8zM681 648l-60 60v8l60 60h8l60 -60v-8l-60 -60h-8z" />
    <glyph glyph-name="uniFB6B" unicode="&#x6a4;" horiz-adv-x="956" arabic-form="final" 
d="M956 0q-57 0 -98.5 3.5t-74.5 12.5t-66 25q-34 -17 -72 -25.5t-95 -12t-146 -3.5q-130 0 -207 21t-110 69.5t-33 131.5q0 39 12.5 84t32.5 80l51 -18q-10 -26 -16 -61.5t-6 -62.5q0 -56 25 -87.5t87 -44t173 -12.5q77 0 121.5 1.5t80.5 6.5q-61 59 -61 136q0 54 23.5 101
t62 76.5t81.5 29.5q44 0 81 -29t60 -76t23 -103q0 -74 -69 -136q57 -7 140 -7l21 -7v-86zM609 246q0 -14 16.5 -35.5t42 -43t51.5 -34.5q26 12 51 30.5t42 37.5t17 32q0 28 -17 56t-43 46.5t-53 18.5q-22 0 -47 -17.5t-42.5 -42.5t-17.5 -48zM712 664l-60 60v8l60 60h8
l60 -60v-8l-60 -60h-8zM642 535l-60 60v8l60 60h8l60 -60v-8l-60 -60h-8zM782 535l-60 60v8l60 60h8l60 -60v-8l-60 -60h-8z" />
    <glyph glyph-name="uniFB6C" unicode="&#x6a4;" horiz-adv-x="460" arabic-form="initial" 
d="M0 100h108q118 0 170.5 15.5t52.5 51.5v56q-23 -12 -54 -21t-71 -9q-69 0 -111 31.5t-42 86.5q0 68 22.5 126t60 93.5t82.5 35.5q43 0 77 -26t57.5 -70.5t35.5 -100.5t12 -116q0 -82 -13 -127.5t-45 -69.5q-43 -32 -102 -44t-141 -12h-99l-21 7v86zM113 331
q0 -22 30 -31.5t79 -9.5q62 0 105 14q-7 59 -26.5 95.5t-44.5 53t-48 16.5q-28 0 -49.5 -19t-33.5 -50t-12 -69zM208 777l-60 60v8l60 60h8l60 -60v-8l-60 -60h-8zM138 648l-60 60v8l60 60h8l60 -60v-8l-60 -60h-8zM278 648l-60 60v8l60 60h8l60 -60v-8l-60 -60h-8z" />
    <glyph glyph-name="uniFB6D" unicode="&#x6a4;" horiz-adv-x="482" arabic-form="medial" 
d="M482 0q-52 0 -92 3t-75.5 11.5t-73.5 26.5q-43 -21 -97 -31t-144 -10l-21 7v86l21 7q44 0 78.5 2.5t60.5 5.5q-25 25 -42 59t-17 77q0 52 23 99t61 77.5t83 30.5q44 0 81.5 -29t60 -76t22.5 -103q0 -42 -20 -76.5t-48 -59.5q57 -7 139 -7l21 -7v-86zM135 246
q0 -12 15 -33.5t40 -43.5t54 -37q27 13 52.5 32.5t42 38.5t16.5 30q0 27 -17 55t-43 47t-54 19q-26 0 -50.5 -19t-40 -44.5t-15.5 -44.5zM237 664l-60 60v8l60 60h8l60 -60v-8l-60 -60h-8zM167 535l-60 60v8l60 60h8l60 -60v-8l-60 -60h-8zM307 535l-60 60v8l60 60h8l60 -60
v-8l-60 -60h-8z" />
    <glyph glyph-name="uniFB7A" unicode="&#x686;" horiz-adv-x="625" arabic-form="isolated" 
d="M602 -230q-46 -34 -115 -59t-157 -25q-80 0 -145.5 26t-104 77.5t-38.5 125.5q0 72 29 128t78.5 97.5t111 71.5t126.5 51q-59 24 -97.5 40t-65 23.5t-49.5 7.5q-20 0 -43 -15.5t-39 -32.5l-47 41q31 43 66 70.5t66 27.5q36 0 81.5 -16.5t92.5 -38.5t86.5 -40.5
t63.5 -22.5q5 -1 20 -1.5t30.5 -1t19.5 -0.5l-18 -85q-90 -13 -170.5 -40t-142.5 -65.5t-97.5 -84t-35.5 -96.5q0 -38 32 -71t88 -52.5t128 -19.5q62 0 112.5 9.5t107.5 29.5zM282 -30l-46 46v8l46 46h9l46 -46v-8l-46 -46h-9zM395 -30l-46 46v8l46 46h8l46 -46v-8l-46 -46
h-8zM339 -135l-46 46v8l46 46h8l46 -46v-8l-46 -46h-8z" />
    <glyph glyph-name="uniFB7B" unicode="&#x686;" horiz-adv-x="640" arabic-form="final" 
d="M560 -179l26 -59q-43 -31 -108.5 -53.5t-147.5 -22.5q-80 0 -145.5 25t-104 76t-38.5 128q0 72 29 128t78.5 97.5t111 71.5t126.5 51q-59 24 -97.5 40t-65.5 23.5t-51 7.5q-18 0 -41 -15.5t-39 -32.5l-47 41q32 44 67 71t65 27q36 0 81.5 -16.5t92.5 -38.5t86.5 -40.5
t63.5 -22.5q5 -1 20 -1.5t30.5 -1t19.5 -0.5l-18 -85q-35 -5 -70 -13q28 -60 66.5 -83t89.5 -23l21 -7v-86l-21 -7q-85 0 -139.5 53t-74.5 139q-91 -26 -162.5 -65.5t-113.5 -89t-42 -104.5q0 -43 32.5 -75t89 -50t126.5 -18q60 0 108.5 7.5t95.5 23.5zM259 -34l-46 46v8
l46 46h9l46 -46v-8l-46 -46h-9zM372 -34l-46 46v8l46 46h8l46 -46v-8l-46 -46h-8zM316 -139l-46 46v8l46 46h8l46 -46v-8l-46 -46h-8z" />
    <glyph glyph-name="uniFB7C" unicode="&#x686;" horiz-adv-x="625" arabic-form="initial" 
d="M511 163q-28 -4 -63.5 -22t-78.5 -41.5t-92.5 -46.5t-104.5 -38t-116 -15h-56l-21 7v86l21 7h51q59 0 122.5 15.5t124.5 40t112 50.5q-29 14 -64.5 31t-71 32.5t-64.5 25.5t-45 10q-19 0 -42.5 -12t-41.5 -28l-40 42q32 42 66.5 64.5t63.5 22.5q38 0 86 -19t98 -45.5
t97 -49t83 -29.5q4 -1 16 -1h30l-15 -78zM128 -138l60 60h8l60 -60v-8l-60 -60h-8l-60 60v8zM268 -138l60 60h8l60 -60v-8l-60 -60h-8l-60 60v8zM198 -267l60 60h8l60 -60v-8l-60 -60h-8l-60 60v8z" />
    <glyph glyph-name="uniFB7D" unicode="&#x686;" horiz-adv-x="646" arabic-form="medial" 
d="M646 0q-77 0 -126 36.5t-73 103.5q-36 -17 -78.5 -41t-92 -46.5t-105 -37.5t-115.5 -15h-56l-21 7v86l21 7h51q59 0 122.5 15.5t124.5 40t112 50.5q-29 14 -64.5 31t-71 32.5t-64.5 25.5t-45 10q-19 0 -42.5 -12t-41.5 -28l-40 42q32 42 66.5 64.5t63.5 22.5q38 0 86 -19
t98 -45.5t97 -49t83 -29.5q4 -1 16 -1h30l-15 -78l-55 -9q-5 -1 -11 -2q24 -34 56.5 -47.5t89.5 -13.5l21 -7v-86zM128 -138l60 60h8l60 -60v-8l-60 -60h-8l-60 60v8zM268 -138l60 60h8l60 -60v-8l-60 -60h-8l-60 60v8zM198 -267l60 60h8l60 -60v-8l-60 -60h-8l-60 60v8z
" />
    <glyph glyph-name="uniFB88" unicode="&#x688;" horiz-adv-x="488" arabic-form="isolated" 
d="M244 94q64 0 101 10t37 29q0 10 -9.5 30t-33.5 65q-37 70 -66 117.5t-55 85.5l73 54q71 -110 112 -197.5t41 -137.5q0 -69 -53 -112.5t-154 -43.5q-106 0 -154 33.5t-48 94.5q0 24 7 52.5t20 56.5l52 -19q-11 -30 -11 -63q0 -30 32.5 -42.5t108.5 -12.5zM342 651
q0 -43 -34 -62t-96 -19q-22 0 -48 1t-47 4l-2 52q9 -2 19.5 -3t21.5 -1q2 25 3 54.5t1 51.5v42l43 10v-39q0 -15 -2.5 -32.5t-6.5 -36.5q18 29 38.5 47t38.5 18q20 0 36 -13.5t25.5 -33.5t9.5 -40zM265 682q-21 0 -37 -13.5t-36 -46.5h11.5h11.5q50 0 71.5 6.5t21.5 12.5
q0 5 -4.5 14.5t-14 18t-24.5 8.5z" />
    <glyph glyph-name="uniFB89" unicode="&#x688;" horiz-adv-x="551" arabic-form="final" 
d="M572 7l-21 -7q-49 0 -84 13.5t-62 44.5q-36 -36 -80.5 -50t-106.5 -14q-92 0 -137.5 34.5t-45.5 93.5q0 24 7 52.5t20 56.5l52 -19q-11 -30 -11 -63q0 -55 124 -55q59 0 89 8t50 23q-15 33 -28 80l-74 259l79 24l71 -247q16 -55 33 -86t41.5 -43t62.5 -12l21 -7v-86z
M406 654q0 -43 -34 -62t-96 -19q-22 0 -48 1t-47 4l-2 52q9 -2 19.5 -3t21.5 -1q2 25 3 54.5t1 51.5v42l43 10v-39q0 -15 -2.5 -32.5t-6.5 -36.5q18 29 38.5 47t38.5 18q20 0 36 -13.5t25.5 -33.5t9.5 -40zM329 685q-21 0 -37 -13.5t-36 -46.5h11.5h11.5q50 0 71.5 6.5
t21.5 12.5q0 5 -4.5 14.5t-14 18t-24.5 8.5z" />
    <glyph glyph-name="uniFB8A" unicode="&#x698;" horiz-adv-x="377" arabic-form="isolated" 
d="M328 88q0 -89 -29 -158t-84.5 -107.5t-134.5 -38.5q-49 0 -88 11l-3 61q84 11 145 36t94.5 69t33.5 112q0 17 -13.5 53.5t-35 84t-45.5 96.5l80 39q13 -24 27 -58.5t26 -72t19.5 -71t7.5 -56.5zM188 550l-60 60v8l60 60h8l60 -60v-8l-60 -60h-8zM118 421l-60 60v8l60 60
h8l60 -60v-8l-60 -60h-8zM258 421l-60 60v8l60 60h8l60 -60v-8l-60 -60h-8z" />
    <glyph glyph-name="uniFB8B" unicode="&#x698;" horiz-adv-x="431" arabic-form="final" 
d="M-8 -205l-3 61q78 10 140 34.5t97.5 66.5t35.5 102q0 8 -7 32t-19 58t-25 72t-25 74l78 30l44 -131q18 -53 44.5 -73.5t78.5 -20.5l21 -7v-86l-21 -7q-39 0 -64.5 6.5t-45.5 20.5q-9 -70 -38.5 -125t-80 -86.5t-122.5 -31.5q-49 0 -88 11zM204 532l-60 60v8l60 60h8
l60 -60v-8l-60 -60h-8zM134 403l-60 60v8l60 60h8l60 -60v-8l-60 -60h-8zM274 403l-60 60v8l60 60h8l60 -60v-8l-60 -60h-8z" />
    <glyph glyph-name="uniFB8C" unicode="&#x691;" horiz-adv-x="377" arabic-form="isolated" 
d="M328 88q0 -89 -29 -158t-84.5 -107.5t-134.5 -38.5q-49 0 -88 11l-3 61q84 11 145 36t94.5 69t33.5 112q0 17 -13.5 53.5t-35 84t-45.5 96.5l80 39q13 -24 27 -58.5t26 -72t19.5 -71t7.5 -56.5zM307 514q0 -43 -34 -62t-96 -19q-22 0 -48 1t-47 4l-2 52q9 -2 19.5 -3
t21.5 -1q2 25 3 54.5t1 51.5v42l43 10v-39q0 -15 -2.5 -32.5t-6.5 -36.5q18 29 38.5 47t38.5 18q20 0 36 -13.5t25.5 -33.5t9.5 -40zM230 545q-21 0 -37 -13.5t-36 -46.5h11.5h11.5q50 0 71.5 6.5t21.5 12.5q0 5 -4.5 14.5t-14 18t-24.5 8.5z" />
    <glyph glyph-name="uniFB8D" unicode="&#x691;" horiz-adv-x="431" arabic-form="final" 
d="M-8 -205l-3 61q78 10 140 34.5t97.5 66.5t35.5 102q0 8 -7 32t-19 58t-25 72t-25 74l78 30l44 -131q18 -53 44.5 -73.5t78.5 -20.5l21 -7v-86l-21 -7q-39 0 -64.5 6.5t-45.5 20.5q-9 -70 -38.5 -125t-80 -86.5t-122.5 -31.5q-49 0 -88 11zM323 484q0 -43 -34 -62t-96 -19
q-22 0 -48 1t-47 4l-2 52q9 -2 19.5 -3t21.5 -1q2 25 3 54.5t1 51.5v42l43 10v-39q0 -15 -2.5 -32.5t-6.5 -36.5q18 29 38.5 47t38.5 18q20 0 36 -13.5t25.5 -33.5t9.5 -40zM246 515q-21 0 -37 -13.5t-36 -46.5h11.5h11.5q50 0 71.5 6.5t21.5 12.5q0 5 -4.5 14.5t-14 18
t-24.5 8.5z" />
    <glyph glyph-name="uniFB8E" unicode="&#x6a9;" horiz-adv-x="806" arabic-form="isolated" 
d="M397 0q-125 0 -200.5 21.5t-109 70.5t-33.5 130q0 39 13 84.5t32 79.5l51 -18q-22 -74 -22 -124q0 -56 24.5 -87.5t85 -44t168.5 -12.5q71 0 127 6t88.5 17t32.5 24q0 21 -22.5 53.5t-60.5 71t-87.5 77.5t-103.5 73l16 88l347 198l19 -81l-295 -162q119 -82 183.5 -159
t64.5 -137q0 -59 -31 -96.5t-101 -55t-186 -17.5z" />
    <glyph glyph-name="uniFB8F" unicode="&#x6a9;" horiz-adv-x="889" arabic-form="final" 
d="M374 0q-116 0 -186.5 22t-102 71t-31.5 129q0 39 13 84.5t32 79.5l51 -18q-22 -74 -22 -124q0 -54 23 -85.5t77.5 -45t149.5 -13.5q123 0 173 12.5t50 43.5q0 26 -29 64l-158 210l14 80l347 198l19 -81l-302 -165l137 -183q51 -67 92 -106.5t81 -56t87 -16.5l21 -7v-86
l-21 -7q-44 0 -80.5 11.5t-72 39t-78.5 73.5q-9 -61 -79 -92.5t-205 -31.5z" />
    <glyph glyph-name="uniFB90" unicode="&#x6a9;" horiz-adv-x="439" arabic-form="initial" 
d="M0 0l-21 7v86l21 7h72q105 0 160 15.5t55 32.5q0 20 -22.5 52.5t-60.5 70.5t-87.5 77.5t-103.5 73.5l16 88l347 198l19 -81l-295 -161q44 -30 87.5 -66.5t80 -76t58.5 -78.5t22 -75q0 -87 -65.5 -128.5t-204.5 -41.5h-78z" />
    <glyph glyph-name="uniFB91" unicode="&#x6a9;" horiz-adv-x="490" arabic-form="medial" 
d="M259 124q-8 -58 -62.5 -91t-169.5 -33h-27l-21 7v86l21 7h20q100 0 141 14t41 45q0 13 -9 29.5t-22 33.5l-156 208l14 80l347 198l19 -81l-303 -165l138 -183q55 -73 96.5 -111.5t80 -53t83.5 -14.5l21 -7v-86l-21 -7q-40 0 -75.5 10t-73 37t-82.5 77z" />
    <glyph glyph-name="uniFB92" unicode="&#x6af;" horiz-adv-x="806" arabic-form="isolated" 
d="M397 0q-125 0 -200.5 21.5t-109 70.5t-33.5 130q0 39 13 84.5t32 79.5l51 -18q-22 -74 -22 -124q0 -56 24.5 -87.5t85 -44t168.5 -12.5q71 0 127 6t88.5 17t32.5 24q0 21 -22.5 53.5t-60.5 71t-87.5 77.5t-103.5 73l16 88l347 198l19 -81l-295 -162q119 -82 183.5 -159
t64.5 -137q0 -59 -31 -96.5t-101 -55t-186 -17.5zM364 632l333 190l14 -60l-320 -184z" />
    <glyph glyph-name="uniFB93" unicode="&#x6af;" horiz-adv-x="889" arabic-form="final" 
d="M374 0q-116 0 -186.5 22t-102 71t-31.5 129q0 39 13 84.5t32 79.5l51 -18q-22 -74 -22 -124q0 -54 23 -85.5t77.5 -45t149.5 -13.5q123 0 173 12.5t50 43.5q0 26 -29 64l-158 210l14 80l347 198l19 -81l-302 -165l137 -183q51 -67 92 -106.5t81 -56t87 -16.5l21 -7v-86
l-21 -7q-44 0 -80.5 11.5t-72 39t-78.5 73.5q-9 -61 -79 -92.5t-205 -31.5zM396 632l333 190l14 -60l-320 -184z" />
    <glyph glyph-name="uniFB94" unicode="&#x6af;" horiz-adv-x="439" arabic-form="initial" 
d="M0 0l-21 7v86l21 7h72q105 0 160 15.5t55 32.5q0 20 -22.5 52.5t-60.5 70.5t-87.5 77.5t-103.5 73.5l16 88l347 198l19 -81l-295 -161q44 -30 87.5 -66.5t80 -76t58.5 -78.5t22 -75q0 -87 -65.5 -128.5t-204.5 -41.5h-78zM-3 632l333 190l14 -60l-320 -184z" />
    <glyph glyph-name="uniFB95" unicode="&#x6af;" horiz-adv-x="490" arabic-form="medial" 
d="M259 124q-8 -58 -62.5 -91t-169.5 -33h-27l-21 7v86l21 7h20q100 0 141 14t41 45q0 13 -9 29.5t-22 33.5l-156 208l14 80l347 198l19 -81l-303 -165l138 -183q55 -73 96.5 -111.5t80 -53t83.5 -14.5l21 -7v-86l-21 -7q-40 0 -75.5 10t-73 37t-82.5 77zM-3 632l333 190
l14 -60l-320 -184z" />
    <glyph glyph-name="uniFB9E" unicode="&#x6ba;" horiz-adv-x="605" arabic-form="isolated" 
d="M560 28q0 -66 -30 -120t-89 -86t-146 -32q-102 0 -159 30t-79.5 80t-22.5 110q0 47 16 96t37 82l47 -19q-14 -35 -21 -71.5t-7 -59.5q0 -81 49 -114.5t148 -33.5q70 0 112 17t61 40.5t19 42.5q0 14 -7.5 47.5t-18.5 75t-22 80t-18 62.5l80 33q29 -88 40 -155.5t11 -104.5
z" />
    <glyph glyph-name="uniFB9F" unicode="&#x6ba;" horiz-adv-x="670" arabic-form="final" 
d="M691 7l-21 -7q-27 0 -59 5.5t-55 11.5q-1 -65 -31.5 -116.5t-88 -81t-141.5 -29.5q-101 0 -158 30t-80 80t-23 110q0 47 16 96t37 82l47 -19q-14 -35 -21 -71.5t-7 -59.5q0 -81 49 -114.5t148 -33.5q72 0 114.5 18t61 42t16.5 43q-1 17 -8 48t-17 68.5t-21 76t-20 69.5
l80 33q17 -56 27 -97t15 -79q26 -6 60.5 -9t58.5 -3l21 -7v-86z" />
    <glyph glyph-name="uniFBA4" unicode="&#x6c0;" horiz-adv-x="429" arabic-form="isolated" 
d="M361 61q-24 -36 -60 -54.5t-98 -18.5q-91 0 -129 36.5t-38 100.5q0 42 34 106t86 131q-13 12 -27 24l39 78q82 -62 129.5 -120t67.5 -105.5t20 -80.5q0 -26 -5 -51.5t-19 -45.5zM99 144q0 -56 109 -56q60 0 87.5 11t27.5 27q0 37 -28.5 83.5t-93.5 110.5
q-45 -57 -73.5 -102t-28.5 -74zM292 618l-8 -53q-36 -5 -81.5 -14t-88.5 -20l-19 48q12 3 23 6t25 6q-13 10 -19 25.5t-6 29.5q0 37 25 62.5t63 25.5q32 0 63 -22l-10 -36q-11 3 -24 4.5t-21 1.5q-25 0 -41 -8t-16 -22q0 -13 12 -23t29.5 -15.5t33.5 -5.5q17 0 32 3.5
t28 6.5z" />
    <glyph glyph-name="uniFBA5" unicode="&#x6c0;" horiz-adv-x="466" arabic-form="final" 
d="M487 7l-21 -7q-75 0 -114 20t-51 68q-19 -5 -44.5 -8t-50.5 -3q-44 0 -82 11t-61 30.5t-23 44.5q0 32 6 59.5t18 46.5q19 30 47.5 56.5t73 55t110.5 63.5v52l71 16v-372q0 -19 26.5 -29.5t73.5 -10.5l21 -7v-86zM105 213q0 -16 35.5 -28t81.5 -12q21 0 39 1.5t34 4.5v187
q-51 -22 -94.5 -50.5t-69.5 -56t-26 -46.5zM316 660l-8 -53q-36 -5 -81.5 -14t-88.5 -20l-19 48q12 3 23 6t25 6q-13 10 -19 25.5t-6 29.5q0 37 25 62.5t63 25.5q32 0 63 -22l-10 -36q-11 3 -24 4.5t-21 1.5q-25 0 -41 -8t-16 -22q0 -13 12 -23t29.5 -15.5t33.5 -5.5
q17 0 32 3.5t28 6.5z" />
    <glyph glyph-name="uniFBA6" unicode="&#x6c1;" horiz-adv-x="429" arabic-form="isolated" 
d="M361 61q-24 -36 -60 -54.5t-98 -18.5q-91 0 -129 36.5t-38 100.5q0 42 34 106t86 131q-13 12 -27 24l39 78q82 -62 129.5 -120t67.5 -105.5t20 -80.5q0 -26 -5 -51.5t-19 -45.5zM99 144q0 -56 109 -56q60 0 87.5 11t27.5 27q0 37 -28.5 83.5t-93.5 110.5
q-45 -57 -73.5 -102t-28.5 -74z" />
    <glyph glyph-name="uniFBA7" unicode="&#x6c1;" horiz-adv-x="510" arabic-form="final" 
d="M531 7l-21 -7q-32 0 -54.5 4.5t-41.5 18t-40.5 41.5t-51.5 76q-22 35 -43.5 50t-45.5 15q-66 0 -164 -90l-39 44q34 42 72.5 74t76 50t67.5 18q25 0 46 -9.5t44 -35.5t53 -75q21 -33 38 -50.5t36.5 -24t46.5 -6.5l21 -7v-86z" />
    <glyph glyph-name="uniFBA8" unicode="&#x6c1;" horiz-adv-x="275" arabic-form="initial" 
d="M-21 93l21 7h9q69 0 102.5 15.5t33.5 29.5q0 25 -9 67.5t-22.5 92t-27.5 94.5l85 31q17 -61 28.5 -124.5t11.5 -117.5q0 -88 -53.5 -138t-144.5 -50h-13l-21 7v86zM155 -263l-13 -11q-22 -19 -44 -19q-10 0 -19 4.5t-17 15.5q-7 11 -13 27t-6 36q0 26 17 60.5t61 74.5
l35 -33q-25 -27 -34 -47t-9 -35q0 -13 8.5 -28.5t33.5 -44.5z" />
    <glyph glyph-name="uniFBA9" unicode="&#x6c1;" horiz-adv-x="481" arabic-form="medial" 
d="M-21 93l21 7q56 0 83.5 13.5t34.5 42.5l17 66l73 -17q-25 -93 -25 -132q0 -54 31.5 -103.5t88.5 -86.5q3 98 46 157.5t111 59.5h21l21 -7v-86l-21 -7q-62 0 -85 -5q-17 -20 -17 -79q0 -12 1 -21.5t1 -17.5q0 -21 -45 -59q-19 -16 -31 -22t-29 -6q-13 0 -21 3t-15 8
q-60 51 -93 105t-45 123q-24 -17 -48.5 -23t-53.5 -6l-21 7v86z" />
    <glyph glyph-name="uniFBAA" unicode="&#x6be;" horiz-adv-x="721" arabic-form="isolated" 
d="M119 98q25 0 50.5 1t48.5 3q-23 27 -36 58.5t-13 67.5q0 42 18.5 79t49 63t66.5 33l38 73q123 -74 197 -130t106.5 -103.5t32.5 -98.5q0 -41 -20 -76.5t-55 -56.5t-81 -21q-113 0 -202 41q-81 -33 -184 -33q-32 0 -58.5 2t-38.5 4l-16 99q19 -2 42 -3.5t55 -1.5zM224 229
q0 -28 31.5 -54t77.5 -46q23 11 44 27t34.5 32.5t13.5 28.5q0 25 -15.5 50.5t-39 42.5t-46.5 17q-22 0 -45 -15.5t-39 -38t-16 -44.5zM480 224q0 -29 -16.5 -63t-41.5 -62q57 -14 103 -14q50 0 69 6t19 19q0 39 -37 85t-110 100q14 -35 14 -71z" />
    <glyph glyph-name="uniFBAB" unicode="&#x6be;" horiz-adv-x="586" arabic-form="final" 
d="M111 98q27 0 52 1q6 63 28 120.5t52 103t61 72t56 26.5q23 0 50 -22t46 -66t19 -109q0 -73 -41 -124h152l21 -7v-86l-21 -7h-92q14 -21 23 -45.5t9 -46.5q0 -32 -15 -60.5t-42.5 -46t-64.5 -17.5q-61 0 -112.5 23t-85 70.5t-43.5 121.5q-19 -1 -39 -1q-24 0 -49 2t-37 4
l-16 99q19 -2 41 -3.5t48 -1.5zM349 324q-16 0 -36 -20t-39 -53t-33 -72t-19 -76q97 9 148.5 35t51.5 65q0 32 -13.5 59.5t-30.5 44.5t-29 17zM477 -113q0 22 -16.5 49.5t-46 54t-69.5 45.5q-49 -22 -116 -31q18 -64 71 -99t134 -35q23 0 33 3t10 13z" />
    <glyph glyph-name="uniFBAC" unicode="&#x6be;" horiz-adv-x="612" arabic-form="initial" 
d="M568 144q0 -41 -20 -76.5t-55 -56.5t-81 -21q-114 0 -204 41q-43 -16 -94 -23.5t-114 -7.5l-21 7v86l21 7q66 0 108 3q-23 27 -35.5 58.5t-12.5 66.5q0 42 18.5 79t49 63t66.5 33l38 73q123 -74 197 -130t106.5 -103.5t32.5 -98.5zM115 229q0 -27 31 -53.5t78 -46.5
q23 11 44 27t34.5 32.5t13.5 28.5q0 25 -15.5 50.5t-39 42.5t-46.5 17q-22 0 -45 -15.5t-39 -38t-16 -44.5zM371 224q0 -29 -16 -63t-41 -62q55 -14 102 -14q50 0 69 6t19 19q0 39 -37 85t-110 100q14 -35 14 -71z" />
    <glyph glyph-name="uniFBAD" unicode="&#x6be;" horiz-adv-x="483" arabic-form="medial" 
d="M423 -92q0 -31 -15 -59.5t-42.5 -46.5t-64.5 -18q-62 0 -113 23t-85 71.5t-43 123.5q-29 -2 -60 -2l-21 7v86l21 7h37h23q7 63 29 120.5t51.5 102.5t60.5 71.5t56 26.5q23 0 50 -22t46 -66t19 -109q0 -74 -42 -124h153l21 -7v-86l-21 -7h-92q14 -21 23 -45.5t9 -46.5z
M246 324q-16 0 -36 -20t-39 -52.5t-33 -71.5t-19 -76q55 6 100.5 19t72.5 33t27 47q0 32 -13.5 59.5t-30.5 44.5t-29 17zM374 -113q0 22 -17 50t-47 54.5t-71 45.5q-48 -20 -114 -29q18 -65 71 -101t135 -36q23 0 33 3t10 13z" />
    <glyph glyph-name="uniFBAE" unicode="&#x6d2;" horiz-adv-x="707" arabic-form="isolated" 
d="M667 124l-23 -100q-67 -10 -148 -17t-151 -7q-100 0 -162 6t-95 19t-45.5 35t-12.5 53q0 36 26 78.5t66 83.5t85.5 74.5t85 54t62.5 20.5q29 0 56.5 -27t47.5 -98l-53 -30q-16 23 -31 39.5t-32 16.5q-14 0 -42.5 -14.5t-62 -38.5t-64 -51t-50.5 -52.5t-20 -43.5
q0 -8 19.5 -14t71.5 -8.5t150 -2.5q47 0 104 3.5t114.5 9t103.5 11.5z" />
    <glyph glyph-name="uniFBAF" unicode="&#x6d2;" horiz-adv-x="560" arabic-form="final" 
d="M560 100l21 -7v-86l-21 -7h-309q-58 0 -93.5 -13.5t-51.5 -31t-16 -30.5q0 -9 14 -16t54.5 -11t121.5 -4h178l-19 -100h-183q-89 0 -141.5 11.5t-74.5 37t-22 66.5q0 48 29 91.5t85 71.5t138 28h290z" />
    <glyph glyph-name="uniFBB0" unicode="&#x6d3;" horiz-adv-x="707" arabic-form="isolated" 
d="M667 124l-23 -100q-67 -10 -148 -17t-151 -7q-100 0 -162 6t-95 19t-45.5 35t-12.5 53q0 36 26 78.5t66 83.5t85.5 74.5t85 54t62.5 20.5q29 0 56.5 -27t47.5 -98l-53 -30q-16 23 -31 39.5t-32 16.5q-14 0 -42.5 -14.5t-62 -38.5t-64 -51t-50.5 -52.5t-20 -43.5
q0 -8 19.5 -14t71.5 -8.5t150 -2.5q47 0 104 3.5t114.5 9t103.5 11.5zM396 586l-8 -53q-36 -5 -81.5 -14t-88.5 -20l-19 48q12 3 23 6t25 6q-13 10 -19 25.5t-6 29.5q0 37 25 62.5t63 25.5q32 0 63 -22l-10 -36q-11 3 -24 4.5t-21 1.5q-25 0 -41 -8t-16 -22q0 -13 12 -23
t29.5 -15.5t33.5 -5.5q17 0 32 3.5t28 6.5z" />
    <glyph glyph-name="uniFBB1" unicode="&#x6d3;" horiz-adv-x="560" arabic-form="final" 
d="M560 100l21 -7v-86l-21 -7h-309q-58 0 -93.5 -13.5t-51.5 -31t-16 -30.5q0 -9 14 -16t54.5 -11t121.5 -4h178l-19 -100h-183q-89 0 -141.5 11.5t-74.5 37t-22 66.5q0 48 29 91.5t85 71.5t138 28h290zM401 277l-8 -53q-36 -5 -81.5 -14t-88.5 -20l-19 48q12 3 23 6t25 6
q-13 10 -19 25.5t-6 29.5q0 37 25 62.5t63 25.5q32 0 63 -22l-10 -36q-11 3 -24 4.5t-21 1.5q-25 0 -41 -8t-16 -22q0 -13 12 -23t29.5 -15.5t33.5 -5.5q17 0 32 3.5t28 6.5z" />
    <glyph glyph-name="uniFBE8" unicode="&#x649;" horiz-adv-x="275" arabic-form="initial" 
d="M-21 93l21 7h9q69 0 102.5 15.5t33.5 29.5q0 25 -9 67.5t-22.5 92t-27.5 94.5l85 31q17 -61 28.5 -124.5t11.5 -117.5q0 -88 -53.5 -138t-144.5 -50h-13l-21 7v86z" />
    <glyph glyph-name="uniFBE9" unicode="&#x649;" horiz-adv-x="355" arabic-form="medial" 
d="M376 7l-21 -7q-65 0 -115.5 13.5t-83.5 34.5q-58 -48 -156 -48l-21 7v86l21 7q55 0 84.5 5.5t40.5 17t12 27.5l12 175l75 -3l-13 -200q28 -13 63.5 -17.5t80.5 -4.5l21 -7v-86z" />
    <glyph glyph-name="uniFBFC" unicode="&#x6cc;" horiz-adv-x="681" arabic-form="isolated" 
d="M134 169q-14 -35 -21 -71.5t-7 -59.5q0 -81 56.5 -114.5t174.5 -33.5q77 0 130 16.5t80 39t27 41.5q0 9 -11 16.5t-42 19.5t-92 33q-64 23 -92 48t-28 63t14 77t38.5 71t57.5 51.5t71 19.5q41 0 75.5 -17t58.5 -46l-38 -55q-24 17 -47.5 23t-47.5 6q-32 0 -59.5 -15
t-44 -38t-16.5 -46q0 -14 22 -25t80 -32q56 -20 92.5 -36.5t54.5 -38.5t18 -59q0 -61 -40.5 -110t-110.5 -78t-158 -29q-113 0 -177.5 29.5t-91 79.5t-26.5 111q0 47 16 96t37 82z" />
    <glyph glyph-name="uniFBFD" unicode="&#x6cc;" horiz-adv-x="668" arabic-form="final" 
d="M606 -17q0 -45 -27.5 -81t-73 -61t-99.5 -38t-107 -13q-100 0 -158 29t-82.5 79t-24.5 112q0 47 16 96t37 82l47 -19q-14 -35 -21 -71.5t-7 -59.5q0 -79 50 -113.5t152 -34.5q71 0 124.5 15t83 35.5t29.5 34.5q0 8 -7.5 22.5t-31.5 39.5t-73 62l46 66l35 -23
q46 -30 81.5 -36t72.5 -6l21 -7v-86l-21 -7q-23 0 -38 3.5t-28 10.5q4 -14 4 -31z" />
    <glyph glyph-name="uniFBFE" unicode="&#x6cc;" horiz-adv-x="275" arabic-form="initial" 
d="M-21 93l21 7h9q69 0 102.5 15.5t33.5 29.5q0 25 -9 67.5t-22.5 92t-27.5 94.5l85 31q17 -61 28.5 -124.5t11.5 -117.5q0 -88 -53.5 -138t-144.5 -50h-13l-21 7v86zM-42 -138l60 60h8l60 -60v-8l-60 -60h-8l-60 60v8zM98 -138l60 60h8l60 -60v-8l-60 -60h-8l-60 60v8z" />
    <glyph glyph-name="uniFBFF" unicode="&#x6cc;" horiz-adv-x="355" arabic-form="medial" 
d="M376 7l-21 -7q-65 0 -115.5 13.5t-83.5 34.5q-58 -48 -156 -48l-21 7v86l21 7q55 0 84.5 5.5t40.5 17t12 27.5l12 175l75 -3l-13 -200q28 -13 63.5 -17.5t80.5 -4.5l21 -7v-86zM15 -138l60 60h8l60 -60v-8l-60 -60h-8l-60 60v8zM155 -138l60 60h8l60 -60v-8l-60 -60h-8
l-60 60v8z" />
    <glyph glyph-name="uniFC31" unicode="&#xfc31;" horiz-adv-x="702" arabic-form="isolated" 
d="M87 188l47 -19q-14 -35 -21 -71.5t-7 -59.5q0 -79 50 -113.5t152 -34.5q71 0 124.5 15t83 35.5t29.5 34.5t-16.5 32t-53 35.5t-97.5 26.5l6 75h46q75 0 109 9.5t34 25.5v80q-23 -12 -52.5 -21t-64.5 -9q-74 0 -117.5 30.5t-43.5 87.5q0 68 22.5 126t60 93.5t82.5 35.5
q43 0 77 -26t57.5 -70.5t35.5 -100.5t12 -116q0 -90 -21 -141t-68 -69q29 -25 41 -48t12 -48q0 -45 -27.5 -81t-73 -61t-99.5 -38t-107 -13q-100 0 -158 29t-82.5 79t-24.5 112q0 47 16 96t37 82zM355 367q0 -22 30 -31.5t79 -9.5q30 0 57 4t48 10q-7 60 -26.5 96
t-44.5 52.5t-48 16.5q-28 0 -49.5 -19t-33.5 -50t-12 -69zM446 684l-60 60v8l60 60h8l60 -60v-8l-60 -60h-8z" />
    <glyph glyph-name="uniFC35" unicode="&#xfc35;" horiz-adv-x="702" arabic-form="isolated" 
d="M87 188l47 -19q-14 -35 -21 -71.5t-7 -59.5q0 -79 50 -113.5t152 -34.5q71 0 124.5 15t83 35.5t29.5 34.5t-16.5 32t-53 35.5t-97.5 26.5l6 75h46q75 0 109 9.5t34 25.5v80q-23 -12 -52.5 -21t-64.5 -9q-74 0 -117.5 30.5t-43.5 87.5q0 68 22.5 126t60 93.5t82.5 35.5
q43 0 77 -26t57.5 -70.5t35.5 -100.5t12 -116q0 -90 -21 -141t-68 -69q29 -25 41 -48t12 -48q0 -45 -27.5 -81t-73 -61t-99.5 -38t-107 -13q-100 0 -158 29t-82.5 79t-24.5 112q0 47 16 96t37 82zM355 367q0 -22 30 -31.5t79 -9.5q30 0 57 4t48 10q-7 60 -26.5 96
t-44.5 52.5t-48 16.5q-28 0 -49.5 -19t-33.5 -50t-12 -69zM376 684l-60 60v8l60 60h8l60 -60v-8l-60 -60h-8zM516 684l-60 60v8l60 60h8l60 -60v-8l-60 -60h-8z" />
    <glyph glyph-name="uniFC36" unicode="&#xfc36;" horiz-adv-x="702" arabic-form="isolated" 
d="M87 188l47 -19q-14 -35 -21 -71.5t-7 -59.5q0 -79 50 -113.5t152 -34.5q71 0 124.5 15t83 35.5t29.5 34.5t-16.5 32t-53 35.5t-97.5 26.5l6 75h46q75 0 109 9.5t34 25.5v80q-23 -12 -52.5 -21t-64.5 -9q-74 0 -117.5 30.5t-43.5 87.5q0 68 22.5 126t60 93.5t82.5 35.5
q43 0 77 -26t57.5 -70.5t35.5 -100.5t12 -116q0 -90 -21 -141t-68 -69q29 -25 41 -48t12 -48q0 -45 -27.5 -81t-73 -61t-99.5 -38t-107 -13q-100 0 -158 29t-82.5 79t-24.5 112q0 47 16 96t37 82zM355 367q0 -22 30 -31.5t79 -9.5q30 0 57 4t48 10q-7 60 -26.5 96
t-44.5 52.5t-48 16.5q-28 0 -49.5 -19t-33.5 -50t-12 -69zM376 684l-60 60v8l60 60h8l60 -60v-8l-60 -60h-8zM516 684l-60 60v8l60 60h8l60 -60v-8l-60 -60h-8zM169 -343l60 60h8l60 -60v-8l-60 -60h-8l-60 60v8zM309 -343l60 60h8l60 -60v-8l-60 -60h-8l-60 60v8z" />
    <glyph glyph-name="uniFC42" unicode="&#xfc42;" horiz-adv-x="412" arabic-form="isolated" 
d="M349 -52q-34 17 -64.5 28.5t-63.5 17.5t-77 6h-59v-311l-75 -20v303q0 16 8.5 37.5t24 42.5t36.5 34.5t46 13.5h75q-15 41 -15 98v494l79 16v-519q0 -41 16 -64t48 -41.5t79 -47.5z" />
    <glyph glyph-name="uniFC44" unicode="&#xfc44;" horiz-adv-x="691" arabic-form="isolated" 
d="M380 152h56q60 0 89.5 11t29.5 28v500l79 17v-441q0 -67 -17.5 -112.5t-54.5 -62.5q27 -30 35.5 -54t8.5 -55q0 -45 -27.5 -81t-73 -61t-99.5 -38t-107 -13q-100 0 -158 29t-82.5 79t-24.5 112q0 47 16 96t37 82l47 -19q-14 -35 -21 -71.5t-7 -59.5q0 -79 50 -113.5
t152 -34.5q71 0 124.5 15t83 36.5t29.5 38.5q0 30 -40 57.5t-131 35.5zM169 -343l60 60h8l60 -60v-8l-60 -60h-8l-60 60v8zM309 -343l60 60h8l60 -60v-8l-60 -60h-8l-60 60v8z" />
    <glyph glyph-name="uniFC86" unicode="&#xfc86;" horiz-adv-x="806" arabic-form="final" 
d="M380 152h56q67 0 107 12.5t40 38.5v488l79 17v-492q0 -48 38 -82t106 -34l21 -7v-86l-21 -7q-63 0 -113.5 30.5t-76.5 88.5q-21 -21 -49 -32q24 -29 31.5 -52t7.5 -52q0 -45 -27.5 -81t-73 -61t-99.5 -38t-107 -13q-100 0 -158 29t-82.5 79t-24.5 112q0 47 16 96t37 82
l47 -19q-14 -35 -21 -71.5t-7 -59.5q0 -79 50 -113.5t152 -34.5q71 0 124.5 15t83 36.5t29.5 38.5q0 30 -40 57.5t-131 35.5z" />
    <glyph glyph-name="uniFC87" unicode="&#xfc87;" horiz-adv-x="806" arabic-form="final" 
d="M380 152h56q67 0 107 12.5t40 38.5v488l79 17v-492q0 -48 38 -82t106 -34l21 -7v-86l-21 -7q-63 0 -113.5 30.5t-76.5 88.5q-21 -21 -49 -32q24 -29 31.5 -52t7.5 -52q0 -45 -27.5 -81t-73 -61t-99.5 -38t-107 -13q-100 0 -158 29t-82.5 79t-24.5 112q0 47 16 96t37 82
l47 -19q-14 -35 -21 -71.5t-7 -59.5q0 -79 50 -113.5t152 -34.5q71 0 124.5 15t83 36.5t29.5 38.5q0 30 -40 57.5t-131 35.5zM169 -343l60 60h8l60 -60v-8l-60 -60h-8l-60 60v8zM309 -343l60 60h8l60 -60v-8l-60 -60h-8l-60 60v8z" />
    <glyph glyph-name="uniFCCC" unicode="&#xfccc;" horiz-adv-x="349" arabic-form="initial" 
d="M286 -52q-35 18 -65.5 29.5t-63.5 17t-76 5.5h-81l-21 7v86l21 7h137q-15 41 -15 98v494l79 16v-519q0 -41 16 -64t48 -41.5t79 -47.5z" />
    <glyph glyph-name="uniFDF2" unicode="&#xfdf2;" horiz-adv-x="1243" arabic-form="isolated" 
d="M1156 0h-65v692l79 16v-324q0 -23 -1 -61t-2 -83.5t-3 -91t-4 -84.5t-4 -64zM757 0q-53 0 -93 18t-62 47q-26 -35 -62 -50t-86 -15q-69 0 -106.5 22t-48.5 66q-19 -6 -44 -8.5t-49 -2.5q-44 0 -82 11t-61 30.5t-23 44.5q0 32 6 59.5t18 46.5q19 30 47.5 56.5t73 55
t110.5 63.5v68l71 16v-388q0 -40 88 -40q62 0 89 16t27 35v425l79 16v-439q0 -22 28 -37.5t80 -15.5q57 0 83 13.5t26 32.5v494l79 16v-415q0 -52 -4 -89t-19.5 -65t-48.5 -53q-28 -20 -57 -27t-59 -7zM105 213q0 -16 35.5 -28t81.5 -12q21 0 39 1.5t34 4.5v187
q-51 -22 -94.5 -50.5t-69.5 -56t-26 -46.5zM662 660q-33 0 -57 20q-10 -17 -24.5 -23.5t-33.5 -6.5q-29 0 -48 19t-19 53q0 21 5 39.5t12 36.5l31 -8q-3 -16 -5 -28.5t-2 -25.5q0 -16 8 -24t27 -8q14 0 24.5 7.5t9.5 20.5l-5 64l39 5l6 -79q13 -8 37 -8q15 0 23.5 5t8.5 9
q0 6 -3 21.5t-8 33.5t-10 31l45 17q9 -23 12.5 -46.5t3.5 -38.5q0 -30 -19.5 -58t-57.5 -28zM628 864h-45v178l53 8v-88q0 -9 -1.5 -28.5t-3.5 -39t-3 -30.5z" />
    <glyph glyph-name="uniFE80" unicode="&#x621;" horiz-adv-x="448" arabic-form="isolated" 
d="M69 -1l-34 79q23 3 48.5 7t52.5 10q-28 22 -42 52t-14 62q0 42 21.5 80t58.5 62.5t83 24.5q27 0 57.5 -8.5t56.5 -25.5l-20 -58q-27 7 -45.5 9t-35.5 2q-31 0 -58 -10t-43.5 -26t-16.5 -35q0 -25 23.5 -44.5t59 -30.5t69.5 -11q26 0 56.5 7.5t61.5 17.5l-14 -90
q-42 -12 -77 -21t-70 -17.5t-78 -16.5t-100 -19z" />
    <glyph glyph-name="uniFE81" unicode="&#x622;" horiz-adv-x="228" arabic-form="isolated" 
d="M139 0h-63v620l79 16v-252q0 -23 -1 -61t-2.5 -83.5t-3.5 -91t-4.5 -84.5t-4.5 -64zM218 808l32 -15q-13 -43 -33 -62t-46 -19q-14 0 -28 3.5t-36 10.5q-19 7 -33 10t-29 3q-7 0 -14 -4t-25 -30l-32 15q14 44 34 62.5t45 18.5q16 0 29 -3t35 -11q36 -13 62 -13
q7 0 14 4.5t25 29.5z" />
    <glyph glyph-name="uniFE82" unicode="&#x622;" horiz-adv-x="276" arabic-form="final" 
d="M301 7l-21 -7q-106 0 -156.5 53t-51.5 159l-4 408l80 16v-497q0 -20 39 -29.5t93 -9.5l21 -7v-86zM211 808l32 -15q-13 -43 -33 -62t-46 -19q-14 0 -28 3.5t-36 10.5q-19 7 -33 10t-29 3q-7 0 -14 -4t-25 -30l-32 15q14 44 34 62.5t45 18.5q16 0 29 -3t35 -11
q36 -13 62 -13q7 0 14 4.5t25 29.5z" />
    <glyph glyph-name="uniFE83" unicode="&#x623;" horiz-adv-x="228" arabic-form="isolated" 
d="M139 0h-63v620l79 16v-252q0 -23 -1 -61t-2.5 -83.5t-3.5 -91t-4.5 -84.5t-4.5 -64zM206 786l-8 -53q-36 -5 -81.5 -14t-88.5 -20l-19 48q12 3 23 6t25 6q-13 10 -19 25.5t-6 29.5q0 37 25 62.5t63 25.5q32 0 63 -22l-10 -36q-11 3 -24 4.5t-21 1.5q-25 0 -41 -8t-16 -22
q0 -13 12 -23t29.5 -15.5t33.5 -5.5q17 0 32 3.5t28 6.5z" />
    <glyph glyph-name="uniFE84" unicode="&#x623;" horiz-adv-x="276" arabic-form="final" 
d="M301 7l-21 -7q-106 0 -156.5 53t-51.5 159l-4 408l80 16v-497q0 -20 39 -29.5t93 -9.5l21 -7v-86zM199 786l-8 -53q-36 -5 -81.5 -14t-88.5 -20l-19 48q12 3 23 6t25 6q-13 10 -19 25.5t-6 29.5q0 37 25 62.5t63 25.5q32 0 63 -22l-10 -36q-11 3 -24 4.5t-21 1.5
q-25 0 -41 -8t-16 -22q0 -13 12 -23t29.5 -15.5t33.5 -5.5q17 0 32 3.5t28 6.5z" />
    <glyph glyph-name="uniFE85" unicode="&#x624;" horiz-adv-x="451" arabic-form="isolated" 
d="M399 88q0 -77 -22.5 -134.5t-60.5 -95t-86 -56t-98 -18.5q-31 0 -62.5 3t-53.5 8l-3 61q110 11 178 34.5t101.5 58.5t41.5 82q-24 -12 -55 -20.5t-70 -8.5q-42 0 -78.5 11.5t-59.5 37.5t-23 68q0 71 23 131.5t61 97t83 36.5q53 0 94.5 -38.5t65.5 -105.5t24 -152z
M110 143q0 -23 31 -32t78 -9q40 0 66.5 4.5t46.5 11.5q-7 47 -24.5 85.5t-43 60.5t-56.5 22q-26 0 -48.5 -19t-36 -51.5t-13.5 -72.5zM301 556l-8 -53q-36 -5 -81.5 -14t-88.5 -20l-19 48q12 3 23 6t25 6q-13 10 -19 25.5t-6 29.5q0 37 25 62.5t63 25.5q32 0 63 -22l-10 -36
q-11 3 -24 4.5t-21 1.5q-25 0 -41 -8t-16 -22q0 -13 12 -23t29.5 -15.5t33.5 -5.5q17 0 32 3.5t28 6.5z" />
    <glyph glyph-name="uniFE86" unicode="&#x624;" horiz-adv-x="465" arabic-form="final" 
d="M16 -205l-3 61q128 13 208 45.5t105 98.5h-79q-195 0 -195 135q0 45 13 89t35.5 80.5t52 58t63.5 21.5q52 0 92.5 -37t64.5 -101t26 -146h66l21 -7v-86l-21 -7h-75q-16 -73 -55.5 -121t-92.5 -71.5t-110 -23.5q-31 0 -62.5 3t-53.5 8zM255 100h79q-4 52 -21 94t-43.5 67
t-60.5 25q-25 0 -47 -19t-35 -50t-13 -67q0 -21 32.5 -35.5t108.5 -14.5zM300 556l-8 -53q-36 -5 -81.5 -14t-88.5 -20l-19 48q12 3 23 6t25 6q-13 10 -19 25.5t-6 29.5q0 37 25 62.5t63 25.5q32 0 63 -22l-10 -36q-11 3 -24 4.5t-21 1.5q-25 0 -41 -8t-16 -22q0 -13 12 -23
t29.5 -15.5t33.5 -5.5q17 0 32 3.5t28 6.5z" />
    <glyph glyph-name="uniFE87" unicode="&#x625;" horiz-adv-x="228" arabic-form="isolated" 
d="M141 0h-65v692l79 16v-324q0 -23 -1 -61t-2 -83.5t-3 -91t-4 -84.5t-4 -64zM204 -201l-8 -53q-36 -5 -81.5 -14t-88.5 -20l-19 48q13 3 24 6t24 5q-13 11 -19 26.5t-6 29.5q0 37 25 62.5t63 25.5q32 0 63 -22l-10 -36q-11 3 -24 4.5t-21 1.5q-25 0 -41 -8t-16 -22
q0 -13 12 -23t29.5 -15.5t33.5 -5.5q17 0 32 3.5t28 6.5z" />
    <glyph glyph-name="uniFE88" unicode="&#x625;" horiz-adv-x="280" arabic-form="final" 
d="M301 7l-21 -7q-112 0 -159.5 56t-48.5 156l-3 480l79 16v-569q0 -13 18.5 -22t48.5 -13t65 -4l21 -7v-86zM244 -201l-8 -53q-36 -5 -81.5 -14t-88.5 -20l-19 48q13 3 24 6t24 5q-13 11 -19 26.5t-6 29.5q0 37 25 62.5t63 25.5q32 0 63 -22l-10 -36q-11 3 -24 4.5t-21 1.5
q-25 0 -41 -8t-16 -22q0 -13 12 -23t29.5 -15.5t33.5 -5.5q17 0 32 3.5t28 6.5z" />
    <glyph glyph-name="uniFE89" unicode="&#x626;" horiz-adv-x="681" arabic-form="isolated" 
d="M134 169q-14 -35 -21 -71.5t-7 -59.5q0 -81 56.5 -114.5t174.5 -33.5q77 0 130 16.5t80 39t27 41.5q0 9 -11 16.5t-42 19.5t-92 33q-64 23 -92 48t-28 63t14 77t38.5 71t57.5 51.5t71 19.5q41 0 75.5 -17t58.5 -46l-38 -55q-24 17 -47.5 23t-47.5 6q-32 0 -59.5 -15
t-44 -38t-16.5 -46q0 -14 22 -25t80 -32q56 -20 92.5 -36.5t54.5 -38.5t18 -59q0 -61 -40.5 -110t-110.5 -78t-158 -29q-113 0 -177.5 29.5t-91 79.5t-26.5 111q0 47 16 96t37 82zM207 354l-8 -53q-36 -5 -81.5 -14t-88.5 -20l-19 48q13 3 25.5 6.5t27.5 6.5
q-13 10 -19 25.5t-6 29.5q0 37 25 62.5t63 25.5q32 0 63 -22l-10 -36q-11 3 -24 4.5t-21 1.5q-25 0 -41 -8t-16 -22q0 -13 12 -23t29.5 -15.5t33.5 -5.5q17 0 29.5 3t25.5 6z" />
    <glyph glyph-name="uniFE8A" unicode="&#x626;" horiz-adv-x="668" arabic-form="final" 
d="M606 -17q0 -45 -27.5 -81t-73 -61t-99.5 -38t-107 -13q-100 0 -158 29t-82.5 79t-24.5 112q0 47 16 96t37 82l47 -19q-14 -35 -21 -71.5t-7 -59.5q0 -79 50 -113.5t152 -34.5q71 0 124.5 15t83 35.5t29.5 34.5q0 8 -7.5 22.5t-31.5 39.5t-73 62l46 66l35 -23
q46 -30 81.5 -36t72.5 -6l21 -7v-86l-21 -7q-23 0 -38 3.5t-28 10.5q4 -14 4 -31zM207 354l-8 -53q-36 -5 -81.5 -14t-88.5 -20l-19 48q13 3 25.5 6.5t27.5 6.5q-13 10 -19 25.5t-6 29.5q0 37 25 62.5t63 25.5q32 0 63 -22l-10 -36q-11 3 -24 4.5t-21 1.5q-25 0 -41 -8
t-16 -22q0 -13 12 -23t29.5 -15.5t33.5 -5.5q17 0 29.5 3t25.5 6z" />
    <glyph glyph-name="uniFE8B" unicode="&#x626;" horiz-adv-x="275" arabic-form="initial" 
d="M-21 93l21 7h9q69 0 102.5 15.5t33.5 29.5q0 25 -9 67.5t-22.5 92t-27.5 94.5l85 31q17 -61 28.5 -124.5t11.5 -117.5q0 -88 -53.5 -138t-144.5 -50h-13l-21 7v86zM209 593l-8 -53q-36 -5 -81.5 -14t-88.5 -20l-19 48q12 3 23 6t25 6q-13 10 -19 25.5t-6 29.5
q0 37 25 62.5t63 25.5q32 0 63 -22l-10 -36q-11 3 -24 4.5t-21 1.5q-25 0 -41 -8t-16 -22q0 -13 12 -23t29.5 -15.5t33.5 -5.5q17 0 32 3.5t28 6.5z" />
    <glyph glyph-name="uniFE8C" unicode="&#x626;" horiz-adv-x="355" arabic-form="medial" 
d="M376 7l-21 -7q-65 0 -115.5 13.5t-83.5 34.5q-58 -48 -156 -48l-21 7v86l21 7q55 0 84.5 5.5t40.5 17t12 27.5l12 175l75 -3l-13 -200q28 -13 63.5 -17.5t80.5 -4.5l21 -7v-86zM264 508l-8 -53q-36 -5 -81.5 -14t-88.5 -20l-19 48q12 3 23 6t25 6q-13 10 -19 25.5
t-6 29.5q0 37 25 62.5t63 25.5q32 0 63 -22l-10 -36q-11 3 -24 4.5t-21 1.5q-25 0 -41 -8t-16 -22q0 -13 12 -23t29.5 -15.5t33.5 -5.5q17 0 32 3.5t28 6.5z" />
    <glyph glyph-name="uniFE8D" unicode="&#x627;" horiz-adv-x="228" arabic-form="isolated" 
d="M141 0h-65v692l79 16v-324q0 -23 -1 -61t-2 -83.5t-3 -91t-4 -84.5t-4 -64z" />
    <glyph glyph-name="uniFE8E" unicode="&#x627;" horiz-adv-x="280" arabic-form="final" 
d="M301 7l-21 -7q-112 0 -159.5 56t-48.5 156l-3 480l79 16v-569q0 -13 18.5 -22t48.5 -13t65 -4l21 -7v-86z" />
    <glyph glyph-name="uniFE8F" unicode="&#x628;" horiz-adv-x="876" arabic-form="isolated" 
d="M416 0q-135 0 -214 21t-113.5 69.5t-34.5 131.5q0 39 13 84.5t32 79.5l51 -18q-10 -29 -16 -64t-6 -60q0 -57 25.5 -88t90.5 -43.5t182 -12.5q95 0 167.5 8.5t113.5 23t41 33.5q0 29 -12.5 82.5t-41.5 151.5l84 31q12 -39 21 -81.5t14.5 -80t5.5 -63.5
q0 -106 -97.5 -155.5t-305.5 -49.5zM367 -139l60 60h8l60 -60v-8l-60 -60h-8l-60 60v8z" />
    <glyph glyph-name="uniFE90" unicode="&#x628;" horiz-adv-x="926" arabic-form="final" 
d="M719 325l75 -3l-13 -199q46 -23 145 -23l21 -7v-86l-21 -7q-121 0 -199 49q-32 -19 -72.5 -29.5t-98 -15t-141.5 -4.5q-135 0 -214 21t-113 69.5t-34 131.5q0 40 13 85t32 79l51 -18q-9 -25 -15.5 -61.5t-6.5 -62.5q0 -57 25.5 -88t90 -43.5t181.5 -12.5q105 0 166 5
t88 17t28 32zM360 -139l60 60h8l60 -60v-8l-60 -60h-8l-60 60v8z" />
    <glyph glyph-name="uniFE91" unicode="&#x628;" horiz-adv-x="275" arabic-form="initial" 
d="M-21 93l21 7h9q69 0 102.5 15.5t33.5 29.5q0 25 -9 67.5t-22.5 92t-27.5 94.5l85 31q17 -61 28.5 -124.5t11.5 -117.5q0 -88 -53.5 -138t-144.5 -50h-13l-21 7v86zM28 -139l60 60h8l60 -60v-8l-60 -60h-8l-60 60v8z" />
    <glyph glyph-name="uniFE92" unicode="&#x628;" horiz-adv-x="355" arabic-form="medial" 
d="M376 7l-21 -7q-65 0 -115.5 13.5t-83.5 34.5q-58 -48 -156 -48l-21 7v86l21 7q55 0 84.5 5.5t40.5 17t12 27.5l12 175l75 -3l-13 -200q28 -13 63.5 -17.5t80.5 -4.5l21 -7v-86zM85 -139l60 60h8l60 -60v-8l-60 -60h-8l-60 60v8z" />
    <glyph glyph-name="uniFE93" unicode="&#x629;" horiz-adv-x="429" arabic-form="isolated" 
d="M361 61q-24 -36 -60 -54.5t-98 -18.5q-91 0 -129 36.5t-38 100.5q0 42 34 106t86 131q-13 12 -27 24l39 78q82 -62 129.5 -120t67.5 -105.5t20 -80.5q0 -26 -5 -51.5t-19 -45.5zM99 144q0 -56 109 -56q60 0 87.5 11t27.5 27q0 37 -28.5 83.5t-93.5 110.5
q-45 -57 -73.5 -102t-28.5 -74zM125 531l-60 60v8l60 60h8l60 -60v-8l-60 -60h-8zM265 531l-60 60v8l60 60h8l60 -60v-8l-60 -60h-8z" />
    <glyph glyph-name="uniFE94" unicode="&#x629;" horiz-adv-x="466" arabic-form="final" 
d="M487 7l-21 -7q-75 0 -114 20t-51 68q-19 -5 -44.5 -8t-50.5 -3q-44 0 -82 11t-61 30.5t-23 44.5q0 32 6 59.5t18 46.5q19 30 47.5 56.5t73 55t110.5 63.5v52l71 16v-372q0 -19 26.5 -29.5t73.5 -10.5l21 -7v-86zM105 213q0 -16 35.5 -28t81.5 -12q21 0 39 1.5t34 4.5v187
q-51 -22 -94.5 -50.5t-69.5 -56t-26 -46.5zM149 573l-60 60v8l60 60h8l60 -60v-8l-60 -60h-8zM289 573l-60 60v8l60 60h8l60 -60v-8l-60 -60h-8z" />
    <glyph glyph-name="uniFE95" unicode="&#x62a;" horiz-adv-x="876" arabic-form="isolated" 
d="M416 0q-135 0 -214 21t-113.5 69.5t-34.5 131.5q0 39 13 84.5t32 79.5l51 -18q-10 -29 -16 -64t-6 -60q0 -57 25.5 -88t90.5 -43.5t182 -12.5q95 0 167.5 8.5t113.5 23t41 33.5q0 29 -12.5 82.5t-41.5 151.5l84 31q12 -39 21 -81.5t14.5 -80t5.5 -63.5
q0 -106 -97.5 -155.5t-305.5 -49.5zM349 421l-60 60v8l60 60h8l60 -60v-8l-60 -60h-8zM489 421l-60 60v8l60 60h8l60 -60v-8l-60 -60h-8z" />
    <glyph glyph-name="uniFE96" unicode="&#x62a;" horiz-adv-x="926" arabic-form="final" 
d="M719 325l75 -3l-13 -199q46 -23 145 -23l21 -7v-86l-21 -7q-121 0 -199 49q-32 -19 -72.5 -29.5t-98 -15t-141.5 -4.5q-135 0 -214 21t-113 69.5t-34 131.5q0 40 13 85t32 79l51 -18q-9 -25 -15.5 -61.5t-6.5 -62.5q0 -57 25.5 -88t90 -43.5t181.5 -12.5q105 0 166 5
t88 17t28 32zM368 421l-60 60v8l60 60h8l60 -60v-8l-60 -60h-8zM508 421l-60 60v8l60 60h8l60 -60v-8l-60 -60h-8z" />
    <glyph glyph-name="uniFE97" unicode="&#x62a;" horiz-adv-x="275" arabic-form="initial" 
d="M-21 93l21 7h9q69 0 102.5 15.5t33.5 29.5q0 25 -9 67.5t-22.5 92t-27.5 94.5l85 31q17 -61 28.5 -124.5t11.5 -117.5q0 -88 -53.5 -138t-144.5 -50h-13l-21 7v86zM42 506l-60 60v8l60 60h8l60 -60v-8l-60 -60h-8zM182 506l-60 60v8l60 60h8l60 -60v-8l-60 -60h-8z" />
    <glyph glyph-name="uniFE98" unicode="&#x62a;" horiz-adv-x="355" arabic-form="medial" 
d="M376 7l-21 -7q-65 0 -115.5 13.5t-83.5 34.5q-58 -48 -156 -48l-21 7v86l21 7q55 0 84.5 5.5t40.5 17t12 27.5l12 175l75 -3l-13 -200q28 -13 63.5 -17.5t80.5 -4.5l21 -7v-86zM97 421l-60 60v8l60 60h8l60 -60v-8l-60 -60h-8zM237 421l-60 60v8l60 60h8l60 -60v-8
l-60 -60h-8z" />
    <glyph glyph-name="uniFE99" unicode="&#x62b;" horiz-adv-x="876" arabic-form="isolated" 
d="M416 0q-135 0 -214 21t-113.5 69.5t-34.5 131.5q0 39 13 84.5t32 79.5l51 -18q-10 -29 -16 -64t-6 -60q0 -57 25.5 -88t90.5 -43.5t182 -12.5q95 0 167.5 8.5t113.5 23t41 33.5q0 29 -12.5 82.5t-41.5 151.5l84 31q12 -39 21 -81.5t14.5 -80t5.5 -63.5
q0 -106 -97.5 -155.5t-305.5 -49.5zM419 550l-60 60v8l60 60h8l60 -60v-8l-60 -60h-8zM349 421l-60 60v8l60 60h8l60 -60v-8l-60 -60h-8zM489 421l-60 60v8l60 60h8l60 -60v-8l-60 -60h-8z" />
    <glyph glyph-name="uniFE9A" unicode="&#x62b;" horiz-adv-x="926" arabic-form="final" 
d="M719 325l75 -3l-13 -199q46 -23 145 -23l21 -7v-86l-21 -7q-121 0 -199 49q-32 -19 -72.5 -29.5t-98 -15t-141.5 -4.5q-135 0 -214 21t-113 69.5t-34 131.5q0 40 13 85t32 79l51 -18q-9 -25 -15.5 -61.5t-6.5 -62.5q0 -57 25.5 -88t90 -43.5t181.5 -12.5q105 0 166 5
t88 17t28 32zM438 550l-60 60v8l60 60h8l60 -60v-8l-60 -60h-8zM368 421l-60 60v8l60 60h8l60 -60v-8l-60 -60h-8zM508 421l-60 60v8l60 60h8l60 -60v-8l-60 -60h-8z" />
    <glyph glyph-name="uniFE9B" unicode="&#x62b;" horiz-adv-x="275" arabic-form="initial" 
d="M-21 93l21 7h9q69 0 102.5 15.5t33.5 29.5q0 25 -9 67.5t-22.5 92t-27.5 94.5l85 31q17 -61 28.5 -124.5t11.5 -117.5q0 -88 -53.5 -138t-144.5 -50h-13l-21 7v86zM112 635l-60 60v8l60 60h8l60 -60v-8l-60 -60h-8zM42 506l-60 60v8l60 60h8l60 -60v-8l-60 -60h-8z
M182 506l-60 60v8l60 60h8l60 -60v-8l-60 -60h-8z" />
    <glyph glyph-name="uniFE9C" unicode="&#x62b;" horiz-adv-x="355" arabic-form="medial" 
d="M376 7l-21 -7q-65 0 -115.5 13.5t-83.5 34.5q-58 -48 -156 -48l-21 7v86l21 7q55 0 84.5 5.5t40.5 17t12 27.5l12 175l75 -3l-13 -200q28 -13 63.5 -17.5t80.5 -4.5l21 -7v-86zM167 550l-60 60v8l60 60h8l60 -60v-8l-60 -60h-8zM97 421l-60 60v8l60 60h8l60 -60v-8
l-60 -60h-8zM237 421l-60 60v8l60 60h8l60 -60v-8l-60 -60h-8z" />
    <glyph glyph-name="uniFE9D" unicode="&#x62c;" horiz-adv-x="625" arabic-form="isolated" 
d="M602 -230q-46 -34 -115 -59t-157 -25q-80 0 -145.5 26t-104 77.5t-38.5 125.5q0 72 29 128t78.5 97.5t111 71.5t126.5 51q-59 24 -97.5 40t-65 23.5t-49.5 7.5q-20 0 -43 -15.5t-39 -32.5l-47 41q31 43 66 70.5t66 27.5q36 0 81.5 -16.5t92.5 -38.5t86.5 -40.5
t63.5 -22.5q5 -1 20 -1.5t30.5 -1t19.5 -0.5l-18 -85q-90 -13 -170.5 -40t-142.5 -65.5t-97.5 -84t-35.5 -96.5q0 -38 32 -71t88 -52.5t128 -19.5q62 0 112.5 9.5t107.5 29.5zM340 -83l-60 60v8l60 60h8l60 -60v-8l-60 -60h-8z" />
    <glyph glyph-name="uniFE9E" unicode="&#x62c;" horiz-adv-x="640" arabic-form="final" 
d="M560 -179l26 -59q-43 -31 -108.5 -53.5t-147.5 -22.5q-80 0 -145.5 25t-104 76t-38.5 128q0 72 29 128t78.5 97.5t111 71.5t126.5 51q-59 24 -97.5 40t-65.5 23.5t-51 7.5q-18 0 -41 -15.5t-39 -32.5l-47 41q32 44 67 71t65 27q36 0 81.5 -16.5t92.5 -38.5t86.5 -40.5
t63.5 -22.5q5 -1 20 -1.5t30.5 -1t19.5 -0.5l-18 -85q-35 -5 -70 -13q28 -60 66.5 -83t89.5 -23l21 -7v-86l-21 -7q-85 0 -139.5 53t-74.5 139q-91 -26 -162.5 -65.5t-113.5 -89t-42 -104.5q0 -43 32.5 -75t89 -50t126.5 -18q60 0 108.5 7.5t95.5 23.5zM317 -87l-60 60v8
l60 60h8l60 -60v-8l-60 -60h-8z" />
    <glyph glyph-name="uniFE9F" unicode="&#x62c;" horiz-adv-x="625" arabic-form="initial" 
d="M511 163q-28 -4 -63.5 -22t-78.5 -41.5t-92.5 -46.5t-104.5 -38t-116 -15h-56l-21 7v86l21 7h51q59 0 122.5 15.5t124.5 40t112 50.5q-29 14 -64.5 31t-71 32.5t-64.5 25.5t-45 10q-19 0 -42.5 -12t-41.5 -28l-40 42q32 42 66.5 64.5t63.5 22.5q38 0 86 -19t98 -45.5
t97 -49t83 -29.5q4 -1 16 -1h30l-15 -78zM198 -139l60 60h8l60 -60v-8l-60 -60h-8l-60 60v8z" />
    <glyph glyph-name="uniFEA0" unicode="&#x62c;" horiz-adv-x="646" arabic-form="medial" 
d="M646 0q-77 0 -126 36.5t-73 103.5q-36 -17 -78.5 -41t-92 -46.5t-105 -37.5t-115.5 -15h-56l-21 7v86l21 7h51q59 0 122.5 15.5t124.5 40t112 50.5q-29 14 -64.5 31t-71 32.5t-64.5 25.5t-45 10q-19 0 -42.5 -12t-41.5 -28l-40 42q32 42 66.5 64.5t63.5 22.5q38 0 86 -19
t98 -45.5t97 -49t83 -29.5q4 -1 16 -1h30l-15 -78l-55 -9q-5 -1 -11 -2q24 -34 56.5 -47.5t89.5 -13.5l21 -7v-86zM198 -139l60 60h8l60 -60v-8l-60 -60h-8l-60 60v8z" />
    <glyph glyph-name="uniFEA1" unicode="&#x62d;" horiz-adv-x="625" arabic-form="isolated" 
d="M602 -230q-46 -34 -115 -59t-157 -25q-80 0 -145.5 26t-104 77.5t-38.5 125.5q0 72 29 128t78.5 97.5t111 71.5t126.5 51q-59 24 -97.5 40t-65 23.5t-49.5 7.5q-20 0 -43 -15.5t-39 -32.5l-47 41q31 43 66 70.5t66 27.5q36 0 81.5 -16.5t92.5 -38.5t86.5 -40.5
t63.5 -22.5q5 -1 20 -1.5t30.5 -1t19.5 -0.5l-18 -85q-90 -13 -170.5 -40t-142.5 -65.5t-97.5 -84t-35.5 -96.5q0 -38 32 -71t88 -52.5t128 -19.5q62 0 112.5 9.5t107.5 29.5z" />
    <glyph glyph-name="uniFEA2" unicode="&#x62d;" horiz-adv-x="640" arabic-form="final" 
d="M560 -179l26 -59q-43 -31 -108.5 -53.5t-147.5 -22.5q-80 0 -145.5 25t-104 76t-38.5 128q0 72 29 128t78.5 97.5t111 71.5t126.5 51q-59 24 -97.5 40t-65.5 23.5t-51 7.5q-18 0 -41 -15.5t-39 -32.5l-47 41q32 44 67 71t65 27q36 0 81.5 -16.5t92.5 -38.5t86.5 -40.5
t63.5 -22.5q5 -1 20 -1.5t30.5 -1t19.5 -0.5l-18 -85q-35 -5 -70 -13q28 -60 66.5 -83t89.5 -23l21 -7v-86l-21 -7q-85 0 -139.5 53t-74.5 139q-91 -26 -162.5 -65.5t-113.5 -89t-42 -104.5q0 -43 32.5 -75t89 -50t126.5 -18q60 0 108.5 7.5t95.5 23.5z" />
    <glyph glyph-name="uniFEA3" unicode="&#x62d;" horiz-adv-x="625" arabic-form="initial" 
d="M511 163q-28 -4 -63.5 -22t-78.5 -41.5t-92.5 -46.5t-104.5 -38t-116 -15h-56l-21 7v86l21 7h51q59 0 122.5 15.5t124.5 40t112 50.5q-29 14 -64.5 31t-71 32.5t-64.5 25.5t-45 10q-19 0 -42.5 -12t-41.5 -28l-40 42q32 42 66.5 64.5t63.5 22.5q38 0 86 -19t98 -45.5
t97 -49t83 -29.5q4 -1 16 -1h30l-15 -78z" />
    <glyph glyph-name="uniFEA4" unicode="&#x62d;" horiz-adv-x="646" arabic-form="medial" 
d="M646 0q-77 0 -126 36.5t-73 103.5q-36 -17 -78.5 -41t-92 -46.5t-105 -37.5t-115.5 -15h-56l-21 7v86l21 7h51q59 0 122.5 15.5t124.5 40t112 50.5q-29 14 -64.5 31t-71 32.5t-64.5 25.5t-45 10q-19 0 -42.5 -12t-41.5 -28l-40 42q32 42 66.5 64.5t63.5 22.5q38 0 86 -19
t98 -45.5t97 -49t83 -29.5q4 -1 16 -1h30l-15 -78l-55 -9q-5 -1 -11 -2q24 -34 56.5 -47.5t89.5 -13.5l21 -7v-86z" />
    <glyph glyph-name="uniFEA5" unicode="&#x62e;" horiz-adv-x="625" arabic-form="isolated" 
d="M602 -230q-46 -34 -115 -59t-157 -25q-80 0 -145.5 26t-104 77.5t-38.5 125.5q0 72 29 128t78.5 97.5t111 71.5t126.5 51q-59 24 -97.5 40t-65 23.5t-49.5 7.5q-20 0 -43 -15.5t-39 -32.5l-47 41q31 43 66 70.5t66 27.5q36 0 81.5 -16.5t92.5 -38.5t86.5 -40.5
t63.5 -22.5q5 -1 20 -1.5t30.5 -1t19.5 -0.5l-18 -85q-90 -13 -170.5 -40t-142.5 -65.5t-97.5 -84t-35.5 -96.5q0 -38 32 -71t88 -52.5t128 -19.5q62 0 112.5 9.5t107.5 29.5zM291 494l-60 60v8l60 60h8l60 -60v-8l-60 -60h-8z" />
    <glyph glyph-name="uniFEA6" unicode="&#x62e;" horiz-adv-x="640" arabic-form="final" 
d="M560 -179l26 -59q-43 -31 -108.5 -53.5t-147.5 -22.5q-80 0 -145.5 25t-104 76t-38.5 128q0 72 29 128t78.5 97.5t111 71.5t126.5 51q-59 24 -97.5 40t-65.5 23.5t-51 7.5q-18 0 -41 -15.5t-39 -32.5l-47 41q32 44 67 71t65 27q36 0 81.5 -16.5t92.5 -38.5t86.5 -40.5
t63.5 -22.5q5 -1 20 -1.5t30.5 -1t19.5 -0.5l-18 -85q-35 -5 -70 -13q28 -60 66.5 -83t89.5 -23l21 -7v-86l-21 -7q-85 0 -139.5 53t-74.5 139q-91 -26 -162.5 -65.5t-113.5 -89t-42 -104.5q0 -43 32.5 -75t89 -50t126.5 -18q60 0 108.5 7.5t95.5 23.5zM281 494l-60 60v8
l60 60h8l60 -60v-8l-60 -60h-8z" />
    <glyph glyph-name="uniFEA7" unicode="&#x62e;" horiz-adv-x="625" arabic-form="initial" 
d="M511 163q-28 -4 -63.5 -22t-78.5 -41.5t-92.5 -46.5t-104.5 -38t-116 -15h-56l-21 7v86l21 7h51q59 0 122.5 15.5t124.5 40t112 50.5q-29 14 -64.5 31t-71 32.5t-64.5 25.5t-45 10q-19 0 -42.5 -12t-41.5 -28l-40 42q32 42 66.5 64.5t63.5 22.5q38 0 86 -19t98 -45.5
t97 -49t83 -29.5q4 -1 16 -1h30l-15 -78zM271 475l-60 60v8l60 60h8l60 -60v-8l-60 -60h-8z" />
    <glyph glyph-name="uniFEA8" unicode="&#x62e;" horiz-adv-x="646" arabic-form="medial" 
d="M646 0q-77 0 -126 36.5t-73 103.5q-36 -17 -78.5 -41t-92 -46.5t-105 -37.5t-115.5 -15h-56l-21 7v86l21 7h51q59 0 122.5 15.5t124.5 40t112 50.5q-29 14 -64.5 31t-71 32.5t-64.5 25.5t-45 10q-19 0 -42.5 -12t-41.5 -28l-40 42q32 42 66.5 64.5t63.5 22.5q38 0 86 -19
t98 -45.5t97 -49t83 -29.5q4 -1 16 -1h30l-15 -78l-55 -9q-5 -1 -11 -2q24 -34 56.5 -47.5t89.5 -13.5l21 -7v-86zM271 475l-60 60v8l60 60h8l60 -60v-8l-60 -60h-8z" />
    <glyph glyph-name="uniFEA9" unicode="&#x62f;" horiz-adv-x="488" arabic-form="isolated" 
d="M244 94q64 0 101 10t37 29q0 10 -9.5 30t-33.5 65q-37 70 -66 117.5t-55 85.5l73 54q71 -110 112 -197.5t41 -137.5q0 -69 -53 -112.5t-154 -43.5q-106 0 -154 33.5t-48 94.5q0 24 7 52.5t20 56.5l52 -19q-11 -30 -11 -63q0 -30 32.5 -42.5t108.5 -12.5z" />
    <glyph glyph-name="uniFEAA" unicode="&#x62f;" horiz-adv-x="551" arabic-form="final" 
d="M572 7l-21 -7q-49 0 -84 13.5t-62 44.5q-36 -36 -80.5 -50t-106.5 -14q-92 0 -137.5 34.5t-45.5 93.5q0 24 7 52.5t20 56.5l52 -19q-11 -30 -11 -63q0 -55 124 -55q59 0 89 8t50 23q-15 33 -28 80l-74 259l79 24l71 -247q16 -55 33 -86t41.5 -43t62.5 -12l21 -7v-86z" />
    <glyph glyph-name="uniFEAB" unicode="&#x630;" horiz-adv-x="488" arabic-form="isolated" 
d="M244 94q64 0 101 10t37 29q0 10 -9.5 30t-33.5 65q-37 70 -66 117.5t-55 85.5l73 54q71 -110 112 -197.5t41 -137.5q0 -69 -53 -112.5t-154 -43.5q-106 0 -154 33.5t-48 94.5q0 24 7 52.5t20 56.5l52 -19q-11 -30 -11 -63q0 -30 32.5 -42.5t108.5 -12.5zM223 558l-60 60
v8l60 60h8l60 -60v-8l-60 -60h-8z" />
    <glyph glyph-name="uniFEAC" unicode="&#x630;" horiz-adv-x="551" arabic-form="final" 
d="M572 7l-21 -7q-49 0 -84 13.5t-62 44.5q-36 -36 -80.5 -50t-106.5 -14q-92 0 -137.5 34.5t-45.5 93.5q0 24 7 52.5t20 56.5l52 -19q-11 -30 -11 -63q0 -55 124 -55q59 0 89 8t50 23q-15 33 -28 80l-74 259l79 24l71 -247q16 -55 33 -86t41.5 -43t62.5 -12l21 -7v-86z
M287 561l-60 60v8l60 60h8l60 -60v-8l-60 -60h-8z" />
    <glyph glyph-name="uniFEAD" unicode="&#x631;" horiz-adv-x="377" arabic-form="isolated" 
d="M328 88q0 -89 -29 -158t-84.5 -107.5t-134.5 -38.5q-49 0 -88 11l-3 61q84 11 145 36t94.5 69t33.5 112q0 17 -13.5 53.5t-35 84t-45.5 96.5l80 39q13 -24 27 -58.5t26 -72t19.5 -71t7.5 -56.5z" />
    <glyph glyph-name="uniFEAE" unicode="&#x631;" horiz-adv-x="431" arabic-form="final" 
d="M-8 -205l-3 61q78 10 140 34.5t97.5 66.5t35.5 102q0 8 -7 32t-19 58t-25 72t-25 74l78 30l44 -131q18 -53 44.5 -73.5t78.5 -20.5l21 -7v-86l-21 -7q-39 0 -64.5 6.5t-45.5 20.5q-9 -70 -38.5 -125t-80 -86.5t-122.5 -31.5q-49 0 -88 11z" />
    <glyph glyph-name="uniFEAF" unicode="&#x632;" horiz-adv-x="377" arabic-form="isolated" 
d="M328 88q0 -89 -29 -158t-84.5 -107.5t-134.5 -38.5q-49 0 -88 11l-3 61q84 11 145 36t94.5 69t33.5 112q0 17 -13.5 53.5t-35 84t-45.5 96.5l80 39q13 -24 27 -58.5t26 -72t19.5 -71t7.5 -56.5zM188 421l-60 60v8l60 60h8l60 -60v-8l-60 -60h-8z" />
    <glyph glyph-name="uniFEB0" unicode="&#x632;" horiz-adv-x="431" arabic-form="final" 
d="M-8 -205l-3 61q78 10 140 34.5t97.5 66.5t35.5 102q0 8 -7 32t-19 58t-25 72t-25 74l78 30l44 -131q18 -53 44.5 -73.5t78.5 -20.5l21 -7v-86l-21 -7q-39 0 -64.5 6.5t-45.5 20.5q-9 -70 -38.5 -125t-80 -86.5t-122.5 -31.5q-49 0 -88 11zM204 403l-60 60v8l60 60h8
l60 -60v-8l-60 -60h-8z" />
    <glyph glyph-name="uniFEB1" unicode="&#x633;" horiz-adv-x="1108" arabic-form="isolated" 
d="M295 -210q-99 0 -156 29.5t-81 79.5t-24 111q0 47 16 96t37 82l47 -19q-14 -35 -21 -71.5t-7 -59.5q0 -81 49 -114.5t148 -33.5q86 0 139.5 26t53.5 65q0 15 -6.5 45.5t-16.5 69t-21 78t-20 71.5l80 33q4 -11 12.5 -42t17 -67t12.5 -63q16 -5 34 -6.5t38 -1.5
q97 0 102 51l11 140l70 -3l-12 -171q21 -10 45.5 -13.5t52.5 -3.5q35 0 57 8.5t22 18.5q0 30 -7.5 80.5t-26.5 134.5l81 30q10 -39 15.5 -85.5t5.5 -79.5q0 -112 -39 -158.5t-115 -46.5q-32 0 -70 8.5t-68 31.5q-21 -19 -49 -29.5t-67 -10.5q-24 0 -43.5 3t-34.5 9
q-2 -62 -32 -112.5t-87 -80t-142 -29.5z" />
    <glyph glyph-name="uniFEB2" unicode="&#x633;" horiz-adv-x="1169" arabic-form="final" 
d="M295 -210q-99 0 -156 29.5t-81 79.5t-24 111q0 47 16 96t37 82l47 -19q-14 -35 -21 -71.5t-7 -59.5q0 -81 49 -114.5t148 -33.5q86 0 139.5 26t53.5 65q0 15 -6.5 45.5t-16.5 69t-21 78t-20 71.5l80 33q4 -11 12.5 -42t17 -67t12.5 -63q16 -5 34 -6.5t38 -1.5
q97 0 102 51l11 140l70 -3l-12 -171q18 -9 41.5 -13t47.5 -4q29 0 56.5 10t29.5 38l13 180l72 -3l-14 -205q25 -9 54.5 -13.5t71.5 -4.5l21 -7v-86l-21 -7q-110 0 -175 42q-46 -42 -116 -42q-32 0 -68.5 10.5t-60.5 29.5q-20 -19 -47.5 -29.5t-67.5 -10.5q-24 0 -43.5 3
t-34.5 9q-2 -62 -32 -112.5t-87 -80t-142 -29.5z" />
    <glyph glyph-name="uniFEB3" unicode="&#x633;" horiz-adv-x="779" arabic-form="initial" 
d="M399 149l11 140l70 -3l-12 -171q21 -10 45.5 -13.5t52.5 -3.5q35 0 57 8.5t22 18.5q0 30 -7.5 80.5t-26.5 134.5l81 30q10 -39 15.5 -85.5t5.5 -79.5q0 -112 -39 -158.5t-115 -46.5q-32 0 -70.5 8.5t-68.5 32.5q-29 -25 -64 -33t-66 -8q-48 0 -87 13.5t-65 31.5
q-25 -21 -62 -33t-76 -12l-21 7v86l21 7q52 0 76.5 6t34 19t14.5 32l26 101l67 -14l-29 -125q22 -10 46.5 -15.5t55.5 -5.5q103 0 108 51z" />
    <glyph glyph-name="uniFEB4" unicode="&#x633;" horiz-adv-x="840" arabic-form="medial" 
d="M840 100l21 -7v-86l-21 -7q-110 0 -175 42q-46 -42 -116 -42q-33 0 -69.5 11t-60.5 30q-22 -20 -53.5 -30.5t-75.5 -10.5q-48 0 -87 13.5t-65 31.5q-25 -21 -62 -33t-76 -12l-21 7v86l21 7q52 0 76.5 6t34 19t14.5 32l26 101l67 -14l-28 -125q21 -10 45 -15.5t56 -5.5
q50 0 78 13t30 38l11 140l70 -3l-12 -171q37 -17 89 -17q19 0 38 4t33 14.5t15 29.5l13 180l72 -3l-14 -205q25 -9 54.5 -13.5t71.5 -4.5z" />
    <glyph glyph-name="uniFEB5" unicode="&#x634;" horiz-adv-x="1108" arabic-form="isolated" 
d="M295 -210q-99 0 -156 29.5t-81 79.5t-24 111q0 47 16 96t37 82l47 -19q-14 -35 -21 -71.5t-7 -59.5q0 -81 49 -114.5t148 -33.5q86 0 139.5 26t53.5 65q0 15 -6.5 45.5t-16.5 69t-21 78t-20 71.5l80 33q4 -11 12.5 -42t17 -67t12.5 -63q16 -5 34 -6.5t38 -1.5
q97 0 102 51l11 140l70 -3l-12 -171q21 -10 45.5 -13.5t52.5 -3.5q35 0 57 8.5t22 18.5q0 30 -7.5 80.5t-26.5 134.5l81 30q10 -39 15.5 -85.5t5.5 -79.5q0 -112 -39 -158.5t-115 -46.5q-32 0 -70 8.5t-68 31.5q-21 -19 -49 -29.5t-67 -10.5q-24 0 -43.5 3t-34.5 9
q-2 -62 -32 -112.5t-87 -80t-142 -29.5zM748 527l-60 60v8l60 60h8l60 -60v-8l-60 -60h-8zM678 398l-60 60v8l60 60h8l60 -60v-8l-60 -60h-8zM818 398l-60 60v8l60 60h8l60 -60v-8l-60 -60h-8z" />
    <glyph glyph-name="uniFEB6" unicode="&#x634;" horiz-adv-x="1169" arabic-form="final" 
d="M295 -210q-99 0 -156 29.5t-81 79.5t-24 111q0 47 16 96t37 82l47 -19q-14 -35 -21 -71.5t-7 -59.5q0 -81 49 -114.5t148 -33.5q86 0 139.5 26t53.5 65q0 15 -6.5 45.5t-16.5 69t-21 78t-20 71.5l80 33q4 -11 12.5 -42t17 -67t12.5 -63q16 -5 34 -6.5t38 -1.5
q97 0 102 51l11 140l70 -3l-12 -171q18 -9 41.5 -13t47.5 -4q29 0 56.5 10t29.5 38l13 180l72 -3l-14 -205q25 -9 54.5 -13.5t71.5 -4.5l21 -7v-86l-21 -7q-110 0 -175 42q-46 -42 -116 -42q-32 0 -68.5 10.5t-60.5 29.5q-20 -19 -47.5 -29.5t-67.5 -10.5q-24 0 -43.5 3
t-34.5 9q-2 -62 -32 -112.5t-87 -80t-142 -29.5zM748 527l-60 60v8l60 60h8l60 -60v-8l-60 -60h-8zM678 398l-60 60v8l60 60h8l60 -60v-8l-60 -60h-8zM818 398l-60 60v8l60 60h8l60 -60v-8l-60 -60h-8z" />
    <glyph glyph-name="uniFEB7" unicode="&#x634;" horiz-adv-x="779" arabic-form="initial" 
d="M399 149l11 140l70 -3l-12 -171q21 -10 45.5 -13.5t52.5 -3.5q35 0 57 8.5t22 18.5q0 30 -7.5 80.5t-26.5 134.5l81 30q10 -39 15.5 -85.5t5.5 -79.5q0 -112 -39 -158.5t-115 -46.5q-32 0 -70.5 8.5t-68.5 32.5q-29 -25 -64 -33t-66 -8q-48 0 -87 13.5t-65 31.5
q-25 -21 -62 -33t-76 -12l-21 7v86l21 7q52 0 76.5 6t34 19t14.5 32l26 101l67 -14l-29 -125q22 -10 46.5 -15.5t55.5 -5.5q103 0 108 51zM420 527l-60 60v8l60 60h8l60 -60v-8l-60 -60h-8zM350 398l-60 60v8l60 60h8l60 -60v-8l-60 -60h-8zM490 398l-60 60v8l60 60h8
l60 -60v-8l-60 -60h-8z" />
    <glyph glyph-name="uniFEB8" unicode="&#x634;" horiz-adv-x="840" arabic-form="medial" 
d="M840 100l21 -7v-86l-21 -7q-110 0 -175 42q-46 -42 -116 -42q-33 0 -69.5 11t-60.5 30q-22 -20 -53.5 -30.5t-75.5 -10.5q-48 0 -87 13.5t-65 31.5q-25 -21 -62 -33t-76 -12l-21 7v86l21 7q52 0 76.5 6t34 19t14.5 32l26 101l67 -14l-28 -125q21 -10 45 -15.5t56 -5.5
q50 0 78 13t30 38l11 140l70 -3l-12 -171q37 -17 89 -17q19 0 38 4t33 14.5t15 29.5l13 180l72 -3l-14 -205q25 -9 54.5 -13.5t71.5 -4.5zM420 527l-60 60v8l60 60h8l60 -60v-8l-60 -60h-8zM350 398l-60 60v8l60 60h8l60 -60v-8l-60 -60h-8zM490 398l-60 60v8l60 60h8
l60 -60v-8l-60 -60h-8z" />
    <glyph glyph-name="uniFEB9" unicode="&#x635;" horiz-adv-x="1190" arabic-form="isolated" 
d="M295 -210q-99 0 -156 29.5t-81 79.5t-24 111q0 47 16 96t37 82l47 -19q-14 -35 -21 -71.5t-7 -59.5q0 -81 49 -114.5t148 -33.5q86 0 139.5 26t53.5 65q0 15 -6.5 45.5t-16.5 69t-21 78t-20 71.5l80 33q4 -11 11.5 -38t15.5 -60.5t13 -61.5q22 -4 52 -8q58 86 122 152.5
t125.5 104.5t113.5 38q44 0 76.5 -19.5t55 -51.5t33.5 -68t11 -69q0 -106 -99.5 -151.5t-285.5 -45.5q-46 0 -102 4.5t-98 12.5q-1 -64 -30.5 -115.5t-87 -81.5t-143.5 -30zM954 303q-65 0 -130.5 -46.5t-154.5 -152.5q51 -4 90 -4q171 0 249 23.5t78 48.5t-18.5 55.5
t-48.5 53t-65 22.5z" />
    <glyph glyph-name="uniFEBA" unicode="&#x635;" horiz-adv-x="1237" arabic-form="final" 
d="M295 -210q-99 0 -156 29.5t-81 79.5t-24 111q0 47 16 96t37 82l47 -19q-14 -35 -21 -71.5t-7 -59.5q0 -81 49 -114.5t148 -33.5q86 0 139.5 26t53.5 65q0 15 -6.5 45.5t-16.5 69t-21 78t-20 71.5l80 33q4 -11 11.5 -38t15.5 -60.5t13 -61.5q22 -4 52 -8q58 86 122 152.5
t125.5 104.5t113.5 38q44 0 76.5 -19.5t55 -51.5t33.5 -68t11 -69q0 -48 -21 -83q25 -9 53 -11.5t64 -2.5l21 -7v-86l-21 -7q-54 0 -103.5 12.5t-79.5 39.5q-49 -27 -124 -39.5t-174 -12.5q-46 0 -102 4.5t-98 12.5q-1 -64 -30.5 -115.5t-87 -81.5t-143.5 -30zM954 303
q-65 0 -130.5 -46.5t-154.5 -152.5q51 -4 90 -4q171 0 249 23.5t78 48.5t-18.5 55.5t-48.5 53t-65 22.5z" />
    <glyph glyph-name="uniFEBB" unicode="&#x635;" horiz-adv-x="834" arabic-form="initial" 
d="M785 197q0 -106 -100 -151.5t-286 -45.5q-103 0 -162 11t-99 36q-27 -25 -64 -36t-74 -11l-21 7v86l21 7q45 0 69 6.5t35 19t16 31.5l29 111l69 -15l-29 -128q10 -5 23.5 -9.5t33.5 -7.5q59 86 123 153t126 105.5t114 38.5q44 0 76.5 -19.5t55 -51.5t33.5 -68t11 -69z
M598 303q-65 0 -131 -47t-156 -154q39 -2 92 -2q171 0 249 23.5t78 48.5t-18.5 55.5t-49 53t-64.5 22.5z" />
    <glyph glyph-name="uniFEBC" unicode="&#x635;" horiz-adv-x="881" arabic-form="medial" 
d="M785 197q0 -48 -21 -83q25 -9 53 -11.5t64 -2.5l21 -7v-86l-21 -7q-54 0 -103.5 12.5t-79.5 39.5q-49 -27 -124.5 -39.5t-174.5 -12.5q-103 0 -162 11t-99 36q-27 -25 -64 -36t-74 -11l-21 7v86l21 7q45 0 69 6.5t35 19t16 31.5l29 111l69 -15l-29 -128q10 -5 23.5 -9.5
t33.5 -7.5q59 86 123 153t126 105.5t114 38.5q44 0 76.5 -19.5t55 -51.5t33.5 -68t11 -69zM598 303q-65 0 -131 -47t-156 -154q39 -2 92 -2q171 0 249 23.5t78 48.5t-18.5 55.5t-49 53t-64.5 22.5z" />
    <glyph glyph-name="uniFEBD" unicode="&#x636;" horiz-adv-x="1190" arabic-form="isolated" 
d="M295 -210q-99 0 -156 29.5t-81 79.5t-24 111q0 47 16 96t37 82l47 -19q-14 -35 -21 -71.5t-7 -59.5q0 -81 49 -114.5t148 -33.5q86 0 139.5 26t53.5 65q0 15 -6.5 45.5t-16.5 69t-21 78t-20 71.5l80 33q4 -11 11.5 -38t15.5 -60.5t13 -61.5q22 -4 52 -8q58 86 122 152.5
t125.5 104.5t113.5 38q44 0 76.5 -19.5t55 -51.5t33.5 -68t11 -69q0 -106 -99.5 -151.5t-285.5 -45.5q-46 0 -102 4.5t-98 12.5q-1 -64 -30.5 -115.5t-87 -81.5t-143.5 -30zM954 303q-65 0 -130.5 -46.5t-154.5 -152.5q51 -4 90 -4q171 0 249 23.5t78 48.5t-18.5 55.5
t-48.5 53t-65 22.5zM945 489l-60 60v8l60 60h8l60 -60v-8l-60 -60h-8z" />
    <glyph glyph-name="uniFEBE" unicode="&#x636;" horiz-adv-x="1237" arabic-form="final" 
d="M295 -210q-99 0 -156 29.5t-81 79.5t-24 111q0 47 16 96t37 82l47 -19q-14 -35 -21 -71.5t-7 -59.5q0 -81 49 -114.5t148 -33.5q86 0 139.5 26t53.5 65q0 15 -6.5 45.5t-16.5 69t-21 78t-20 71.5l80 33q4 -11 11.5 -38t15.5 -60.5t13 -61.5q22 -4 52 -8q58 86 122 152.5
t125.5 104.5t113.5 38q44 0 76.5 -19.5t55 -51.5t33.5 -68t11 -69q0 -48 -21 -83q25 -9 53 -11.5t64 -2.5l21 -7v-86l-21 -7q-54 0 -103.5 12.5t-79.5 39.5q-49 -27 -124 -39.5t-174 -12.5q-46 0 -102 4.5t-98 12.5q-1 -64 -30.5 -115.5t-87 -81.5t-143.5 -30zM954 303
q-65 0 -130.5 -46.5t-154.5 -152.5q51 -4 90 -4q171 0 249 23.5t78 48.5t-18.5 55.5t-48.5 53t-65 22.5zM945 489l-60 60v8l60 60h8l60 -60v-8l-60 -60h-8z" />
    <glyph glyph-name="uniFEBF" unicode="&#x636;" horiz-adv-x="834" arabic-form="initial" 
d="M785 197q0 -106 -100 -151.5t-286 -45.5q-103 0 -162 11t-99 36q-27 -25 -64 -36t-74 -11l-21 7v86l21 7q45 0 69 6.5t35 19t16 31.5l29 111l69 -15l-29 -128q10 -5 23.5 -9.5t33.5 -7.5q59 86 123 153t126 105.5t114 38.5q44 0 76.5 -19.5t55 -51.5t33.5 -68t11 -69z
M598 303q-65 0 -131 -47t-156 -154q39 -2 92 -2q171 0 249 23.5t78 48.5t-18.5 55.5t-49 53t-64.5 22.5zM589 489l-60 60v8l60 60h8l60 -60v-8l-60 -60h-8z" />
    <glyph glyph-name="uniFEC0" unicode="&#x636;" horiz-adv-x="881" arabic-form="medial" 
d="M785 197q0 -48 -21 -83q25 -9 53 -11.5t64 -2.5l21 -7v-86l-21 -7q-54 0 -103.5 12.5t-79.5 39.5q-49 -27 -124.5 -39.5t-174.5 -12.5q-103 0 -162 11t-99 36q-27 -25 -64 -36t-74 -11l-21 7v86l21 7q45 0 69 6.5t35 19t16 31.5l29 111l69 -15l-29 -128q10 -5 23.5 -9.5
t33.5 -7.5q59 86 123 153t126 105.5t114 38.5q44 0 76.5 -19.5t55 -51.5t33.5 -68t11 -69zM598 303q-65 0 -131 -47t-156 -154q39 -2 92 -2q171 0 249 23.5t78 48.5t-18.5 55.5t-49 53t-64.5 22.5zM589 489l-60 60v8l60 60h8l60 -60v-8l-60 -60h-8z" />
    <glyph glyph-name="uniFEC1" unicode="&#x637;" horiz-adv-x="720" arabic-form="isolated" 
d="M286 0q-63 0 -132 3t-122 9l-7 96q37 -3 103 -5q23 33 47 64q4 62 5 132t1 149v244l79 16v-251q0 -63 -4 -113.5t-14 -96.5q66 72 132 115t121 43q44 0 76.5 -19.5t55 -51.5t33.5 -68t11 -69q0 -106 -99.5 -151.5t-285.5 -45.5zM484 303q-65 0 -131.5 -47t-156.5 -155
q22 -1 45.5 -1h47.5q171 0 249 23.5t78 48.5t-18.5 55.5t-48.5 53t-65 22.5z" />
    <glyph glyph-name="uniFEC2" unicode="&#x637;" horiz-adv-x="756" arabic-form="final" 
d="M286 0q-63 0 -132 3t-122 9l-7 96q18 -1 44 -2.5t59 -2.5q23 33 47 64q4 62 5 132t1 149v244l79 16v-251q0 -63 -4 -113.5t-14 -96.5q66 72 132 115t121 43q44 0 76.5 -19.5t55 -51.5t33.5 -68t11 -69q0 -48 -21 -84q23 -8 48.5 -10.5t57.5 -2.5l21 -7v-86l-21 -7
q-50 0 -97 12.5t-75 39.5q-49 -27 -124 -39.5t-174 -12.5zM484 303q-65 0 -131.5 -47t-156.5 -155q22 -1 45 -1h48q171 0 249 23.5t78 48.5t-18.5 55.5t-48.5 53t-65 22.5z" />
    <glyph glyph-name="uniFEC3" unicode="&#x637;" horiz-adv-x="650" arabic-form="initial" 
d="M-21 93l21 7h57q23 35 48 67q4 62 5 132t1 149v244l79 16v-251q0 -63 -4 -113.5t-14 -96.5q66 72 132 115t121 43q44 0 76.5 -19.5t55 -51.5t33.5 -68t11 -69q0 -106 -99.5 -151.5t-285.5 -45.5h-216l-21 7v86zM414 303q-66 0 -132 -47.5t-156 -155.5h93q171 0 249 23.5
t78 48.5t-18.5 55.5t-48.5 53t-65 22.5z" />
    <glyph glyph-name="uniFEC4" unicode="&#x637;" horiz-adv-x="685" arabic-form="medial" 
d="M-21 93l21 7h57q23 35 48 67q4 62 5 132t1 149v244l79 16v-251q0 -63 -4 -113.5t-14 -96.5q66 72 132 115t121 43q44 0 76.5 -19.5t55 -51.5t33.5 -68t11 -69q0 -48 -21 -84q23 -8 48 -10.5t57 -2.5l21 -7v-86l-21 -7q-50 0 -96.5 12.5t-75.5 38.5q-48 -26 -123 -38.5
t-174 -12.5h-216l-21 7v86zM414 303q-66 0 -132 -47.5t-156 -155.5h93q171 0 249 23.5t78 48.5t-18.5 55.5t-48.5 53t-65 22.5z" />
    <glyph glyph-name="uniFEC5" unicode="&#x638;" horiz-adv-x="720" arabic-form="isolated" 
d="M286 0q-63 0 -132 3t-122 9l-7 96q37 -3 103 -5q23 33 47 64q4 62 5 132t1 149v244l79 16v-251q0 -63 -4 -113.5t-14 -96.5q66 72 132 115t121 43q44 0 76.5 -19.5t55 -51.5t33.5 -68t11 -69q0 -106 -99.5 -151.5t-285.5 -45.5zM484 303q-65 0 -131.5 -47t-156.5 -155
q22 -1 45.5 -1h47.5q171 0 249 23.5t78 48.5t-18.5 55.5t-48.5 53t-65 22.5zM480 489l-60 60v8l60 60h8l60 -60v-8l-60 -60h-8z" />
    <glyph glyph-name="uniFEC6" unicode="&#x638;" horiz-adv-x="756" arabic-form="final" 
d="M286 0q-63 0 -132 3t-122 9l-7 96q18 -1 44 -2.5t59 -2.5q23 33 47 64q4 62 5 132t1 149v244l79 16v-251q0 -63 -4 -113.5t-14 -96.5q66 72 132 115t121 43q44 0 76.5 -19.5t55 -51.5t33.5 -68t11 -69q0 -48 -21 -84q23 -8 48.5 -10.5t57.5 -2.5l21 -7v-86l-21 -7
q-50 0 -97 12.5t-75 39.5q-49 -27 -124 -39.5t-174 -12.5zM484 303q-65 0 -131.5 -47t-156.5 -155q22 -1 45 -1h48q171 0 249 23.5t78 48.5t-18.5 55.5t-48.5 53t-65 22.5zM473 489l-60 60v8l60 60h8l60 -60v-8l-60 -60h-8z" />
    <glyph glyph-name="uniFEC7" unicode="&#x638;" horiz-adv-x="650" arabic-form="initial" 
d="M-21 93l21 7h57q23 35 48 67q4 62 5 132t1 149v244l79 16v-251q0 -63 -4 -113.5t-14 -96.5q66 72 132 115t121 43q44 0 76.5 -19.5t55 -51.5t33.5 -68t11 -69q0 -106 -99.5 -151.5t-285.5 -45.5h-216l-21 7v86zM414 303q-66 0 -132 -47.5t-156 -155.5h93q171 0 249 23.5
t78 48.5t-18.5 55.5t-48.5 53t-65 22.5zM405 489l-60 60v8l60 60h8l60 -60v-8l-60 -60h-8z" />
    <glyph glyph-name="uniFEC8" unicode="&#x638;" horiz-adv-x="685" arabic-form="medial" 
d="M-21 93l21 7h57q23 35 48 67q4 62 5 132t1 149v244l79 16v-251q0 -63 -4 -113.5t-14 -96.5q66 72 132 115t121 43q44 0 76.5 -19.5t55 -51.5t33.5 -68t11 -69q0 -48 -21 -84q23 -8 48 -10.5t57 -2.5l21 -7v-86l-21 -7q-50 0 -96.5 12.5t-75.5 38.5q-48 -26 -123 -38.5
t-174 -12.5h-216l-21 7v86zM414 303q-66 0 -132 -47.5t-156 -155.5h93q171 0 249 23.5t78 48.5t-18.5 55.5t-48.5 53t-65 22.5zM405 489l-60 60v8l60 60h8l60 -60v-8l-60 -60h-8z" />
    <glyph glyph-name="uniFEC9" unicode="&#x639;" horiz-adv-x="531" arabic-form="isolated" 
d="M579 -229q-39 -31 -105.5 -58t-155.5 -27q-78 0 -143.5 26.5t-105 78t-39.5 125.5q0 89 43 152.5t121 108.5q-48 22 -79.5 60.5t-31.5 90.5q0 44 24 84.5t67.5 66.5t100.5 26q32 0 63.5 -9t59.5 -28l-18 -61q-33 7 -54 9t-35 2q-62 0 -103.5 -22.5t-41.5 -58.5
q0 -17 16.5 -34t42.5 -32t55 -25t54 -12q31 7 68 13.5t74 12.5l-13 -95q-124 -24 -200.5 -61.5t-111.5 -81.5t-35 -87q0 -38 34 -71.5t89 -53.5t119 -20t117.5 11t96.5 28z" />
    <glyph glyph-name="uniFECA" unicode="&#x639;" horiz-adv-x="540" arabic-form="final" 
d="M24 -110q0 53 22 94.5t60.5 75t88.5 63.5q-43 39 -77.5 74t-69.5 75l20 76q50 31 106 48t108 17q96 0 145 -35.5t49 -93.5q0 -45 -32.5 -84.5t-97.5 -78.5q35 -12 77 -16.5t91 -4.5h26l21 -7v-86l-21 -7h-27q-92 0 -152 18t-105 52q-45 -23 -82.5 -50.5t-60.5 -57
t-23 -58.5q0 -48 56.5 -83.5t155.5 -35.5q53 0 95 6.5t74 17.5l22 -59q-37 -23 -92 -43.5t-122 -20.5q-82 0 -139 27t-86.5 73t-29.5 104zM130 290q31 -30 67 -64t71 -62q39 21 73 40t54.5 35.5t20.5 30.5q0 20 -34.5 38t-96.5 18q-41 0 -80.5 -9.5t-74.5 -26.5z" />
    <glyph glyph-name="uniFECB" unicode="&#x639;" horiz-adv-x="478" arabic-form="initial" 
d="M69 249q0 49 24 90.5t67.5 67t100.5 25.5q38 0 69.5 -11t53.5 -26l-18 -61q-25 5 -47.5 8t-41.5 3q-64 0 -104.5 -23.5t-40.5 -63.5q0 -21 18 -41t47.5 -36t64 -25.5t67.5 -9.5q16 0 47 8t64 18l-14 -96q-58 -20 -130.5 -37.5t-149 -28t-146.5 -10.5l-21 7v86l21 7
q42 0 75.5 1.5t70.5 6.5q-38 25 -57.5 62t-19.5 79z" />
    <glyph glyph-name="uniFECC" unicode="&#x639;" horiz-adv-x="543" arabic-form="medial" 
d="M543 100l21 -7v-86l-21 -7h-27q-82 0 -138.5 14.5t-99.5 41.5q-47 -27 -104.5 -41.5t-151.5 -14.5h-22l-21 7v86l21 7h25q46 0 89.5 5t84.5 17q-44 40 -78.5 75t-69.5 75l20 76q49 31 105.5 48t108.5 17q99 -1 146.5 -36.5t47.5 -91.5q0 -31 -9.5 -57.5t-34 -53
t-68.5 -58.5q34 -9 72 -12.5t78 -3.5h26zM133 290q22 -21 48 -46t52 -48.5t48 -40.5q29 16 61 37t54.5 42.5t22.5 36.5q0 20 -36 37.5t-95 17.5q-41 0 -80.5 -9.5t-74.5 -26.5z" />
    <glyph glyph-name="uniFECD" unicode="&#x63a;" horiz-adv-x="531" arabic-form="isolated" 
d="M579 -229q-39 -31 -105.5 -58t-155.5 -27q-78 0 -143.5 26.5t-105 78t-39.5 125.5q0 89 43 152.5t121 108.5q-48 22 -79.5 60.5t-31.5 90.5q0 44 24 84.5t67.5 66.5t100.5 26q32 0 63.5 -9t59.5 -28l-18 -61q-33 7 -54 9t-35 2q-62 0 -103.5 -22.5t-41.5 -58.5
q0 -17 16.5 -34t42.5 -32t55 -25t54 -12q31 7 68 13.5t74 12.5l-13 -95q-124 -24 -200.5 -61.5t-111.5 -81.5t-35 -87q0 -38 34 -71.5t89 -53.5t119 -20t117.5 11t96.5 28zM251 588l-60 60v8l60 60h8l60 -60v-8l-60 -60h-8z" />
    <glyph glyph-name="uniFECE" unicode="&#x63a;" horiz-adv-x="540" arabic-form="final" 
d="M24 -110q0 53 22 94.5t60.5 75t88.5 63.5q-43 39 -77.5 74t-69.5 75l20 76q50 31 106 48t108 17q96 0 145 -35.5t49 -93.5q0 -45 -32.5 -84.5t-97.5 -78.5q35 -12 77 -16.5t91 -4.5h26l21 -7v-86l-21 -7h-27q-92 0 -152 18t-105 52q-45 -23 -82.5 -50.5t-60.5 -57
t-23 -58.5q0 -48 56.5 -83.5t155.5 -35.5q53 0 95 6.5t74 17.5l22 -59q-37 -23 -92 -43.5t-122 -20.5q-82 0 -139 27t-86.5 73t-29.5 104zM130 290q31 -30 67 -64t71 -62q39 21 73 40t54.5 35.5t20.5 30.5q0 20 -34.5 38t-96.5 18q-41 0 -80.5 -9.5t-74.5 -26.5zM269 496
l-60 60v8l60 60h8l60 -60v-8l-60 -60h-8z" />
    <glyph glyph-name="uniFECF" unicode="&#x63a;" horiz-adv-x="478" arabic-form="initial" 
d="M69 249q0 49 24 90.5t67.5 67t100.5 25.5q38 0 69.5 -11t53.5 -26l-18 -61q-25 5 -47.5 8t-41.5 3q-64 0 -104.5 -23.5t-40.5 -63.5q0 -21 18 -41t47.5 -36t64 -25.5t67.5 -9.5q16 0 47 8t64 18l-14 -96q-58 -20 -130.5 -37.5t-149 -28t-146.5 -10.5l-21 7v86l21 7
q42 0 75.5 1.5t70.5 6.5q-38 25 -57.5 62t-19.5 79zM233 515l-60 60v8l60 60h8l60 -60v-8l-60 -60h-8z" />
    <glyph glyph-name="uniFED0" unicode="&#x63a;" horiz-adv-x="543" arabic-form="medial" 
d="M543 100l21 -7v-86l-21 -7h-27q-82 0 -138.5 14.5t-99.5 41.5q-47 -27 -104.5 -41.5t-151.5 -14.5h-22l-21 7v86l21 7h25q46 0 89.5 5t84.5 17q-44 40 -78.5 75t-69.5 75l20 76q49 31 105.5 48t108.5 17q99 -1 146.5 -36.5t47.5 -91.5q0 -31 -9.5 -57.5t-34 -53
t-68.5 -58.5q34 -9 72 -12.5t78 -3.5h26zM133 290q22 -21 48 -46t52 -48.5t48 -40.5q29 16 61 37t54.5 42.5t22.5 36.5q0 20 -36 37.5t-95 17.5q-41 0 -80.5 -9.5t-74.5 -26.5zM273 496l-60 60v8l60 60h8l60 -60v-8l-60 -60h-8z" />
    <glyph glyph-name="uniFED1" unicode="&#x641;" horiz-adv-x="867" arabic-form="isolated" 
d="M419 0q-136 0 -216 21t-114.5 69.5t-34.5 131.5q0 39 12.5 84t32.5 80l51 -18q-10 -29 -16 -63.5t-6 -60.5q0 -57 25.5 -88t91 -43.5t183.5 -12.5q163 0 236.5 16t73.5 51v56q-56 -30 -125 -30q-70 0 -111.5 32t-41.5 86q0 69 22.5 127t60.5 93t82 35q52 0 93 -41
t65 -111.5t24 -160.5q0 -67 -11.5 -111t-37.5 -70q-36 -37 -119 -54.5t-220 -17.5zM520 331q0 -41 109 -41q60 0 105 14q-10 75 -42 120t-77 45q-40 0 -67.5 -39.5t-27.5 -98.5zM611 648l-60 60v8l60 60h8l60 -60v-8l-60 -60h-8z" />
    <glyph glyph-name="uniFED2" unicode="&#x641;" horiz-adv-x="956" arabic-form="final" 
d="M956 0q-57 0 -98.5 3.5t-74.5 12.5t-66 25q-34 -17 -72 -25.5t-95 -12t-146 -3.5q-130 0 -207 21t-110 69.5t-33 131.5q0 39 12.5 84t32.5 80l51 -18q-10 -26 -16 -61.5t-6 -62.5q0 -56 25 -87.5t87 -44t173 -12.5q77 0 121.5 1.5t80.5 6.5q-61 59 -61 136q0 54 23.5 101
t62 76.5t81.5 29.5q44 0 81 -29t60 -76t23 -103q0 -74 -69 -136q57 -7 140 -7l21 -7v-86zM609 246q0 -14 16.5 -35.5t42 -43t51.5 -34.5q26 12 51 30.5t42 37.5t17 32q0 28 -17 56t-43 46.5t-53 18.5q-22 0 -47 -17.5t-42.5 -42.5t-17.5 -48zM712 535l-60 60v8l60 60h8
l60 -60v-8l-60 -60h-8z" />
    <glyph glyph-name="uniFED3" unicode="&#x641;" horiz-adv-x="460" arabic-form="initial" 
d="M0 100h108q118 0 170.5 15.5t52.5 51.5v56q-23 -12 -54 -21t-71 -9q-69 0 -111 31.5t-42 86.5q0 68 22.5 126t60 93.5t82.5 35.5q43 0 77 -26t57.5 -70.5t35.5 -100.5t12 -116q0 -82 -13 -127.5t-45 -69.5q-43 -32 -102 -44t-141 -12h-99l-21 7v86zM113 331
q0 -22 30 -31.5t79 -9.5q62 0 105 14q-7 59 -26.5 95.5t-44.5 53t-48 16.5q-28 0 -49.5 -19t-33.5 -50t-12 -69zM208 648l-60 60v8l60 60h8l60 -60v-8l-60 -60h-8z" />
    <glyph glyph-name="uniFED4" unicode="&#x641;" horiz-adv-x="482" arabic-form="medial" 
d="M482 0q-52 0 -92 3t-75.5 11.5t-73.5 26.5q-43 -21 -97 -31t-144 -10l-21 7v86l21 7q44 0 78.5 2.5t60.5 5.5q-25 25 -42 59t-17 77q0 52 23 99t61 77.5t83 30.5q44 0 81.5 -29t60 -76t22.5 -103q0 -42 -20 -76.5t-48 -59.5q57 -7 139 -7l21 -7v-86zM135 246
q0 -12 15 -33.5t40 -43.5t54 -37q27 13 52.5 32.5t42 38.5t16.5 30q0 27 -17 55t-43 47t-54 19q-26 0 -50.5 -19t-40 -44.5t-15.5 -44.5zM237 535l-60 60v8l60 60h8l60 -60v-8l-60 -60h-8z" />
    <glyph glyph-name="uniFED5" unicode="&#x642;" horiz-adv-x="688" arabic-form="isolated" 
d="M327 -210q-150 0 -221.5 54t-71.5 166q0 42 15 91.5t38 86.5l47 -19q-12 -30 -20 -67t-8 -64q0 -80 52 -114t176 -34q69 0 122.5 11t84 30.5t30.5 44.5v56q-59 -30 -124 -30q-78 0 -121 31t-43 86q0 71 23 131.5t61 97t83 36.5q55 0 97.5 -42t67 -115t24.5 -168
q0 -62 -6.5 -97.5t-23.5 -62.5q-67 -109 -282 -109zM345 143q0 -41 109 -41q66 0 111 15q-5 49 -22.5 87t-43 60t-56.5 22q-27 0 -49 -19.5t-35.5 -51.5t-13.5 -72zM369 469l-60 60v8l60 60h8l60 -60v-8l-60 -60h-8zM509 469l-60 60v8l60 60h8l60 -60v-8l-60 -60h-8z" />
    <glyph glyph-name="uniFED6" unicode="&#x642;" horiz-adv-x="702" arabic-form="final" 
d="M327 -210q-150 0 -221.5 54t-71.5 166q0 42 15 91.5t38 86.5l47 -19q-12 -30 -20 -67t-8 -64q0 -80 52 -114t176 -34q69 0 122.5 11t84 30.5t30.5 44.5v24h-89q-197 0 -197 135q0 48 14 92.5t37.5 80t53 56t61.5 20.5q51 0 91 -36t65.5 -100t30.5 -148h64l21 -7v-86
l-21 -7h-65q-6 -67 -28 -101q-72 -109 -282 -109zM490 100h76q-3 52 -20 94.5t-43.5 67t-58.5 24.5q-26 0 -48 -19t-35.5 -50.5t-13.5 -68.5q0 -22 38 -35t105 -13zM369 469l-60 60v8l60 60h8l60 -60v-8l-60 -60h-8zM509 469l-60 60v8l60 60h8l60 -60v-8l-60 -60h-8z" />
    <glyph glyph-name="uniFED7" unicode="&#x642;" horiz-adv-x="460" arabic-form="initial" 
d="M0 100h108q118 0 170.5 15.5t52.5 51.5v56q-23 -12 -54 -21t-71 -9q-69 0 -111 31.5t-42 86.5q0 68 22.5 126t60 93.5t82.5 35.5q43 0 77 -26t57.5 -70.5t35.5 -100.5t12 -116q0 -82 -13 -127.5t-45 -69.5q-43 -32 -102 -44t-141 -12h-99l-21 7v86zM113 331
q0 -22 30 -31.5t79 -9.5q62 0 105 14q-7 59 -26.5 95.5t-44.5 53t-48 16.5q-28 0 -49.5 -19t-33.5 -50t-12 -69zM138 648l-60 60v8l60 60h8l60 -60v-8l-60 -60h-8zM278 648l-60 60v8l60 60h8l60 -60v-8l-60 -60h-8z" />
    <glyph glyph-name="uniFED8" unicode="&#x642;" horiz-adv-x="482" arabic-form="medial" 
d="M482 0q-52 0 -92 3t-75.5 11.5t-73.5 26.5q-43 -21 -97 -31t-144 -10l-21 7v86l21 7q44 0 78.5 2.5t60.5 5.5q-25 25 -42 59t-17 77q0 52 23 99t61 77.5t83 30.5q44 0 81.5 -29t60 -76t22.5 -103q0 -42 -20 -76.5t-48 -59.5q57 -7 139 -7l21 -7v-86zM135 246
q0 -12 15 -33.5t40 -43.5t54 -37q27 13 52.5 32.5t42 38.5t16.5 30q0 27 -17 55t-43 47t-54 19q-26 0 -50.5 -19t-40 -44.5t-15.5 -44.5zM167 535l-60 60v8l60 60h8l60 -60v-8l-60 -60h-8zM307 535l-60 60v8l60 60h8l60 -60v-8l-60 -60h-8z" />
    <glyph glyph-name="uniFED9" unicode="&#x643;" horiz-adv-x="807" arabic-form="isolated" 
d="M128 244q0 -44 11.5 -72.5t41.5 -44t84.5 -21.5t140.5 -6q72 0 129.5 9t91 24t33.5 34v525l79 16v-451q0 -90 -23 -138.5t-79 -75.5q-33 -16 -68.5 -25.5t-79 -13.5t-103.5 -4q-126 0 -198.5 20.5t-103 69t-30.5 132.5q0 39 13 85.5t33 81.5l50 -21q-9 -28 -15.5 -63.5
t-6.5 -60.5zM397 378q-32 13 -46 24.5t-14 30.5q0 29 19.5 50t51.5 36.5t70 25.5l15 -60q-64 -15 -86.5 -22.5t-22.5 -13.5q0 -3 11.5 -8.5t40.5 -17.5q35 -14 48.5 -26t13.5 -35q0 -46 -44 -72t-133 -26l-8 64q62 2 101 7.5t39 12.5q0 5 -9 9.5t-47 20.5z" />
    <glyph glyph-name="uniFEDA" unicode="&#x643;" horiz-adv-x="854" arabic-form="final" 
d="M386 0q-126 0 -198.5 20.5t-103 69t-30.5 132.5q0 39 13 85.5t33 81.5l50 -21q-9 -28 -15.5 -63.5t-6.5 -60.5q0 -44 11.5 -72.5t41.5 -44t84.5 -21.5t140.5 -6q45 0 90 5.5t82 14.5t59.5 19.5t22.5 21.5v531l79 16v-556q0 -13 16.5 -25t43 -19.5t55.5 -7.5l21 -7v-86
l-21 -7q-111 0 -166 86q-42 -41 -115.5 -63.5t-186.5 -22.5zM397 378q-32 13 -46 24.5t-14 30.5q0 29 19.5 50t51.5 36.5t70 25.5l15 -60q-64 -15 -86.5 -22.5t-22.5 -13.5q0 -3 11.5 -8.5t40.5 -17.5q35 -14 48.5 -26t13.5 -35q0 -46 -44 -72t-133 -26l-8 64q62 2 101 7.5
t39 12.5q0 5 -9 9.5t-47 20.5z" />
    <glyph glyph-name="uniFEDB" unicode="&#x643;" horiz-adv-x="439" arabic-form="initial" 
d="M0 0l-21 7v86l21 7h72q105 0 160 15.5t55 32.5q0 20 -22.5 52.5t-60.5 70.5t-87.5 77.5t-103.5 73.5l16 88l347 198l19 -81l-295 -161q44 -30 87.5 -66.5t80 -76t58.5 -78.5t22 -75q0 -87 -65.5 -128.5t-204.5 -41.5h-78z" />
    <glyph glyph-name="uniFEDC" unicode="&#x643;" horiz-adv-x="490" arabic-form="medial" 
d="M259 124q-8 -58 -62.5 -91t-169.5 -33h-27l-21 7v86l21 7h20q100 0 141 14t41 45q0 13 -9 29.5t-22 33.5l-156 208l14 80l347 198l19 -81l-303 -165l138 -183q55 -73 96.5 -111.5t80 -53t83.5 -14.5l21 -7v-86l-21 -7q-40 0 -75.5 10t-73 37t-82.5 77z" />
    <glyph glyph-name="uniFEDD" unicode="&#x644;" horiz-adv-x="627" arabic-form="isolated" 
d="M295 -210q-99 0 -156 29.5t-81 79.5t-24 111q0 47 16 96t37 82l47 -19q-14 -35 -21 -71.5t-7 -59.5q0 -81 49 -114.5t148 -33.5q58 0 97 12t58.5 29t19.5 31l-4 730l79 16v-661q0 -57 -10 -99.5t-35 -74.5q-63 -83 -213 -83z" />
    <glyph glyph-name="uniFEDE" unicode="&#x644;" horiz-adv-x="685" arabic-form="final" 
d="M685 100l21 -7v-86l-21 -7q-42 0 -75 9.5t-59 25.5q-2 -66 -12.5 -101t-30.5 -61q-63 -83 -213 -83q-99 0 -156 29.5t-81 79.5t-24 111q0 47 16 96t37 82l47 -19q-14 -35 -21 -71.5t-7 -59.5q0 -81 49 -114.5t148 -33.5q58 0 97 12t58.5 29t19.5 31l-4 730l79 16v-555
q0 -22 35.5 -37.5t96.5 -15.5z" />
    <glyph glyph-name="uniFEDF" unicode="&#x644;" horiz-adv-x="281" arabic-form="initial" 
d="M0 100q71 0 101.5 13.5t30.5 32.5v546l79 16v-467q0 -52 -5 -90t-21.5 -66t-50.5 -51q-31 -21 -65 -27.5t-69 -6.5l-21 7v86z" />
    <glyph glyph-name="uniFEE0" unicode="&#x644;" horiz-adv-x="343" arabic-form="medial" 
d="M364 7l-21 -7q-62 0 -107.5 18.5t-71.5 49.5q-28 -37 -66.5 -52t-97.5 -16l-21 7v86l21 7q71 0 101.5 16t30.5 35v541l79 16v-555q0 -22 35.5 -37.5t96.5 -15.5l21 -7v-86z" />
    <glyph glyph-name="uniFEE1" unicode="&#x645;" horiz-adv-x="499" arabic-form="isolated" 
d="M85 -311l-75 -20v303q0 16 9 37.5t23.5 42.5t31 34.5t31.5 13.5h6q1 65 13 127.5t53 112.5q16 19 41 32.5t56 13.5q36 0 68.5 -21t58 -56t40 -77.5t14.5 -85.5q0 -42 -20 -77.5t-56 -57t-84 -21.5q-70 0 -121 4.5t-89 6.5v-312zM263 288q-37 0 -64.5 -49.5t-27.5 -140.5
q31 -2 61.5 -4t53.5 -3.5t30 -1.5q75 0 75 25q0 26 -12 56t-31.5 57t-41.5 44t-43 17z" />
    <glyph glyph-name="uniFEE2" unicode="&#x645;" horiz-adv-x="633" arabic-form="final" 
d="M10 -331v300q0 21 12 49t29.5 52t33.5 32q23 12 72 23q2 32 15.5 76t36.5 86t55 70.5t72 28.5q37 0 64 -16t52 -57t57 -117q23 -55 49 -75.5t75 -20.5l21 -7v-86l-21 -7q-95 0 -140 57q-56 -69 -158 -69q-101 0 -146 45q-15 -2 -29.5 -4.5t-29.5 -5.5q-22 -4 -45 -11
v-323zM227 132q0 -19 32 -31.5t81 -12.5q70 0 119 32q-4 10 -8.5 21.5t-10.5 23.5q-34 71 -57 98t-54 27q-20 0 -38.5 -13.5t-30.5 -36.5q-33 -63 -33 -108z" />
    <glyph glyph-name="uniFEE3" unicode="&#x645;" horiz-adv-x="514" arabic-form="initial" 
d="M470 152q0 -39 -24.5 -76.5t-65.5 -62.5t-90 -25q-39 0 -83.5 16.5t-81.5 46.5q-27 -29 -57.5 -40t-67.5 -11l-21 7v86l21 7q50 0 72.5 14t37.5 48q30 67 52 110.5t42.5 68.5t45 35t59.5 10q36 0 65.5 -20.5t51 -55t33 -76t11.5 -82.5zM296 290q-26 0 -45.5 -13.5
t-38.5 -48t-46 -98.5q30 -20 67 -31t65 -11q47 0 75 9t28 28q0 44 -15.5 81.5t-39.5 60.5t-50 23z" />
    <glyph glyph-name="uniFEE4" unicode="&#x645;" horiz-adv-x="592" arabic-form="medial" 
d="M592 0q-51 0 -84.5 15t-55.5 42q-56 -69 -158 -69q-91 0 -169 63q-26 -27 -55 -39t-70 -12l-21 7v86l21 7q49 0 72 14t38 48q37 85 64 134t55.5 69.5t69.5 20.5q39 0 66 -18.5t50.5 -60t52.5 -111.5q24 -58 51 -77t73 -19l21 -7v-86zM167 130q21 -14 55 -28t77 -14
q37 0 67 8.5t52 23.5q-9 23 -19 45q-22 51 -39.5 78t-33.5 37t-35 10q-24 0 -42.5 -14t-37 -49t-44.5 -97z" />
    <glyph glyph-name="uniFEE5" unicode="&#x646;" horiz-adv-x="605" arabic-form="isolated" 
d="M560 28q0 -66 -30 -120t-89 -86t-146 -32q-102 0 -159 30t-79.5 80t-22.5 110q0 47 16 96t37 82l47 -19q-14 -35 -21 -71.5t-7 -59.5q0 -81 49 -114.5t148 -33.5q70 0 112 17t61 40.5t19 42.5q0 14 -7.5 47.5t-18.5 75t-22 80t-18 62.5l80 33q29 -88 40 -155.5t11 -104.5
zM273 298l-60 60v8l60 60h8l60 -60v-8l-60 -60h-8z" />
    <glyph glyph-name="uniFEE6" unicode="&#x646;" horiz-adv-x="670" arabic-form="final" 
d="M691 7l-21 -7q-27 0 -59 5.5t-55 11.5q-1 -65 -31.5 -116.5t-88 -81t-141.5 -29.5q-101 0 -158 30t-80 80t-23 110q0 47 16 96t37 82l47 -19q-14 -35 -21 -71.5t-7 -59.5q0 -81 49 -114.5t148 -33.5q72 0 114.5 18t61 42t16.5 43q-1 17 -8 48t-17 68.5t-21 76t-20 69.5
l80 33q17 -56 27 -97t15 -79q26 -6 60.5 -9t58.5 -3l21 -7v-86zM272 298l-60 60v8l60 60h8l60 -60v-8l-60 -60h-8z" />
    <glyph glyph-name="uniFEE7" unicode="&#x646;" horiz-adv-x="275" arabic-form="initial" 
d="M-21 93l21 7h9q69 0 102.5 15.5t33.5 29.5q0 25 -9 67.5t-22.5 92t-27.5 94.5l85 31q17 -61 28.5 -124.5t11.5 -117.5q0 -88 -53.5 -138t-144.5 -50h-13l-21 7v86zM112 506l-60 60v8l60 60h8l60 -60v-8l-60 -60h-8z" />
    <glyph glyph-name="uniFEE8" unicode="&#x646;" horiz-adv-x="355" arabic-form="medial" 
d="M376 7l-21 -7q-65 0 -115.5 13.5t-83.5 34.5q-58 -48 -156 -48l-21 7v86l21 7q55 0 84.5 5.5t40.5 17t12 27.5l12 175l75 -3l-13 -200q28 -13 63.5 -17.5t80.5 -4.5l21 -7v-86zM167 421l-60 60v8l60 60h8l60 -60v-8l-60 -60h-8z" />
    <glyph glyph-name="uniFEE9" unicode="&#x647;" horiz-adv-x="429" arabic-form="isolated" 
d="M361 61q-24 -36 -60 -54.5t-98 -18.5q-91 0 -129 36.5t-38 100.5q0 42 34 106t86 131q-13 12 -27 24l39 78q82 -62 129.5 -120t67.5 -105.5t20 -80.5q0 -26 -5 -51.5t-19 -45.5zM99 144q0 -56 109 -56q60 0 87.5 11t27.5 27q0 37 -28.5 83.5t-93.5 110.5
q-45 -57 -73.5 -102t-28.5 -74z" />
    <glyph glyph-name="uniFEEA" unicode="&#x647;" horiz-adv-x="466" arabic-form="final" 
d="M487 7l-21 -7q-75 0 -114 20t-51 68q-19 -5 -44.5 -8t-50.5 -3q-44 0 -82 11t-61 30.5t-23 44.5q0 32 6 59.5t18 46.5q19 30 47.5 56.5t73 55t110.5 63.5v52l71 16v-372q0 -19 26.5 -29.5t73.5 -10.5l21 -7v-86zM105 213q0 -16 35.5 -28t81.5 -12q21 0 39 1.5t34 4.5v187
q-51 -22 -94.5 -50.5t-69.5 -56t-26 -46.5z" />
    <glyph glyph-name="uniFEEB" unicode="&#x647;" horiz-adv-x="612" arabic-form="initial" 
d="M568 144q0 -41 -20 -76.5t-55 -56.5t-81 -21q-114 0 -204 41q-43 -16 -94 -23.5t-114 -7.5l-21 7v86l21 7q66 0 108 3q-23 27 -35.5 58.5t-12.5 66.5q0 42 18.5 79t49 63t66.5 33l38 73q123 -74 197 -130t106.5 -103.5t32.5 -98.5zM115 229q0 -27 31 -53.5t78 -46.5
q23 11 44 27t34.5 32.5t13.5 28.5q0 25 -15.5 50.5t-39 42.5t-46.5 17q-22 0 -45 -15.5t-39 -38t-16 -44.5zM371 224q0 -29 -16 -63t-41 -62q55 -14 102 -14q50 0 69 6t19 19q0 39 -37 85t-110 100q14 -35 14 -71z" />
    <glyph glyph-name="uniFEEC" unicode="&#x647;" horiz-adv-x="483" arabic-form="medial" 
d="M423 -92q0 -31 -15 -59.5t-42.5 -46.5t-64.5 -18q-62 0 -113 23t-85 71.5t-43 123.5q-29 -2 -60 -2l-21 7v86l21 7h37h23q7 63 29 120.5t51.5 102.5t60.5 71.5t56 26.5q23 0 50 -22t46 -66t19 -109q0 -74 -42 -124h153l21 -7v-86l-21 -7h-92q14 -21 23 -45.5t9 -46.5z
M246 324q-16 0 -36 -20t-39 -52.5t-33 -71.5t-19 -76q55 6 100.5 19t72.5 33t27 47q0 32 -13.5 59.5t-30.5 44.5t-29 17zM374 -113q0 22 -17 50t-47 54.5t-71 45.5q-48 -20 -114 -29q18 -65 71 -101t135 -36q23 0 33 3t10 13z" />
    <glyph glyph-name="uniFEED" unicode="&#x648;" horiz-adv-x="451" arabic-form="isolated" 
d="M399 88q0 -77 -22.5 -134.5t-60.5 -95t-86 -56t-98 -18.5q-31 0 -62.5 3t-53.5 8l-3 61q110 11 178 34.5t101.5 58.5t41.5 82q-24 -12 -55 -20.5t-70 -8.5q-42 0 -78.5 11.5t-59.5 37.5t-23 68q0 71 23 131.5t61 97t83 36.5q53 0 94.5 -38.5t65.5 -105.5t24 -152z
M110 143q0 -23 31 -32t78 -9q40 0 66.5 4.5t46.5 11.5q-7 47 -24.5 85.5t-43 60.5t-56.5 22q-26 0 -48.5 -19t-36 -51.5t-13.5 -72.5z" />
    <glyph glyph-name="uniFEEE" unicode="&#x648;" horiz-adv-x="465" arabic-form="final" 
d="M16 -205l-3 61q128 13 208 45.5t105 98.5h-79q-195 0 -195 135q0 45 13 89t35.5 80.5t52 58t63.5 21.5q52 0 92.5 -37t64.5 -101t26 -146h66l21 -7v-86l-21 -7h-75q-16 -73 -55.5 -121t-92.5 -71.5t-110 -23.5q-31 0 -62.5 3t-53.5 8zM255 100h79q-4 52 -21 94t-43.5 67
t-60.5 25q-25 0 -47 -19t-35 -50t-13 -67q0 -21 32.5 -35.5t108.5 -14.5z" />
    <glyph glyph-name="uniFEEF" unicode="&#x649;" horiz-adv-x="681" arabic-form="isolated" 
d="M134 169q-14 -35 -21 -71.5t-7 -59.5q0 -81 56.5 -114.5t174.5 -33.5q77 0 130 16.5t80 39t27 41.5q0 9 -11 16.5t-42 19.5t-92 33q-64 23 -92 48t-28 63t14 77t38.5 71t57.5 51.5t71 19.5q41 0 75.5 -17t58.5 -46l-38 -55q-24 17 -47.5 23t-47.5 6q-32 0 -59.5 -15
t-44 -38t-16.5 -46q0 -14 22 -25t80 -32q56 -20 92.5 -36.5t54.5 -38.5t18 -59q0 -61 -40.5 -110t-110.5 -78t-158 -29q-113 0 -177.5 29.5t-91 79.5t-26.5 111q0 47 16 96t37 82z" />
    <glyph glyph-name="uniFEF0" unicode="&#x649;" horiz-adv-x="668" arabic-form="final" 
d="M606 -17q0 -45 -27.5 -81t-73 -61t-99.5 -38t-107 -13q-100 0 -158 29t-82.5 79t-24.5 112q0 47 16 96t37 82l47 -19q-14 -35 -21 -71.5t-7 -59.5q0 -79 50 -113.5t152 -34.5q71 0 124.5 15t83 35.5t29.5 34.5q0 8 -7.5 22.5t-31.5 39.5t-73 62l46 66l35 -23
q46 -30 81.5 -36t72.5 -6l21 -7v-86l-21 -7q-23 0 -38 3.5t-28 10.5q4 -14 4 -31z" />
    <glyph glyph-name="uniFEF1" unicode="&#x64a;" horiz-adv-x="681" arabic-form="isolated" 
d="M134 169q-14 -35 -21 -71.5t-7 -59.5q0 -81 56.5 -114.5t174.5 -33.5q77 0 130 16.5t80 39t27 41.5q0 9 -11 16.5t-42 19.5t-92 33q-64 23 -92 48t-28 63t14 77t38.5 71t57.5 51.5t71 19.5q41 0 75.5 -17t58.5 -46l-38 -55q-24 17 -47.5 23t-47.5 6q-32 0 -59.5 -15
t-44 -38t-16.5 -46q0 -14 22 -25t80 -32q56 -20 92.5 -36.5t54.5 -38.5t18 -59q0 -61 -40.5 -110t-110.5 -78t-158 -29q-113 0 -177.5 29.5t-91 79.5t-26.5 111q0 47 16 96t37 82zM200 -343l60 60h8l60 -60v-8l-60 -60h-8l-60 60v8zM340 -343l60 60h8l60 -60v-8l-60 -60h-8
l-60 60v8z" />
    <glyph glyph-name="uniFEF2" unicode="&#x64a;" horiz-adv-x="668" arabic-form="final" 
d="M606 -17q0 -45 -27.5 -81t-73 -61t-99.5 -38t-107 -13q-100 0 -158 29t-82.5 79t-24.5 112q0 47 16 96t37 82l47 -19q-14 -35 -21 -71.5t-7 -59.5q0 -79 50 -113.5t152 -34.5q71 0 124.5 15t83 35.5t29.5 34.5q0 8 -7.5 22.5t-31.5 39.5t-73 62l46 66l35 -23
q46 -30 81.5 -36t72.5 -6l21 -7v-86l-21 -7q-23 0 -38 3.5t-28 10.5q4 -14 4 -31zM169 -343l60 60h8l60 -60v-8l-60 -60h-8l-60 60v8zM309 -343l60 60h8l60 -60v-8l-60 -60h-8l-60 60v8z" />
    <glyph glyph-name="uniFEF3" unicode="&#x64a;" horiz-adv-x="275" arabic-form="initial" 
d="M-21 93l21 7h9q69 0 102.5 15.5t33.5 29.5q0 25 -9 67.5t-22.5 92t-27.5 94.5l85 31q17 -61 28.5 -124.5t11.5 -117.5q0 -88 -53.5 -138t-144.5 -50h-13l-21 7v86zM-42 -138l60 60h8l60 -60v-8l-60 -60h-8l-60 60v8zM98 -138l60 60h8l60 -60v-8l-60 -60h-8l-60 60v8z" />
    <glyph glyph-name="uniFEF4" unicode="&#x64a;" horiz-adv-x="355" arabic-form="medial" 
d="M376 7l-21 -7q-65 0 -115.5 13.5t-83.5 34.5q-58 -48 -156 -48l-21 7v86l21 7q55 0 84.5 5.5t40.5 17t12 27.5l12 175l75 -3l-13 -200q28 -13 63.5 -17.5t80.5 -4.5l21 -7v-86zM15 -138l60 60h8l60 -60v-8l-60 -60h-8l-60 60v8zM155 -138l60 60h8l60 -60v-8l-60 -60h-8
l-60 60v8z" />
    <glyph glyph-name=".notdef" horiz-adv-x="500" 
d="M450 0h-400v750h400v-750zM400 50v650h-300v-650h300z" />
    <glyph glyph-name="glyph1" 
 />
    <glyph glyph-name="glyph1" 
 />
    <glyph glyph-name="uni000D" unicode="&#xd;" horiz-adv-x="262" 
 />
    <glyph glyph-name="space" unicode=" " horiz-adv-x="262" 
 />
    <glyph glyph-name="exclam" unicode="!" horiz-adv-x="258" 
d="M170 210h-82l-14 483q26 13 55 13t55 -13zM129 -10q-28 0 -46.5 18.5t-18.5 47.5t18.5 47.5t46.5 18.5q29 0 47 -18.5t18 -47.5t-18 -47.5t-47 -18.5z" />
    <glyph glyph-name="quotedbl" unicode="&#x22;" horiz-adv-x="373" 
d="M140 449h-69l-14 243q23 12 48 12q27 0 49 -12zM302 449h-69l-14 243q23 12 48 12q27 0 49 -12z" />
    <glyph glyph-name="numbersign" unicode="#" horiz-adv-x="586" 
d="M162 0h-76l29 184h-93v70h104l29 189h-103v70h114l29 180h76l-29 -180h153l29 180h76l-29 -180h93v-70h-104l-29 -189h103v-70h-114l-29 -184h-76l29 184h-153zM231 443l-29 -189h153l29 189h-153z" />
    <glyph glyph-name="dollar" unicode="$" horiz-adv-x="586" 
d="M323 -130h-62v122q-100 6 -189 59v80q113 -56 189 -62v245l-42 16q-78 29 -115 71.5t-37 102.5q0 54 24.5 96t68 67.5t101.5 28.5v121h62v-122q82 -8 154 -52v-79q-41 23 -80 36.5t-74 17.5v-237l43 -16q80 -28 117 -70t37 -101q0 -84 -52.5 -138t-144.5 -64v-122z
M154 507q0 -38 25.5 -63.5t81.5 -45.5v221q-52 -4 -79.5 -33t-27.5 -79zM432 189q0 38 -25 63t-84 46v-228q51 6 80 38t29 81z" />
    <glyph glyph-name="percent" unicode="%" horiz-adv-x="940" 
d="M735 -8q-79 0 -122 54t-43 148q0 99 44 151.5t121 52.5q80 0 122.5 -53.5t42.5 -148.5q0 -99 -44 -151.5t-121 -52.5zM735 57q43 0 62.5 34t19.5 103q0 71 -19.5 105t-62.5 34t-62.5 -34t-19.5 -103q0 -71 19.5 -105t62.5 -34zM205 295q-79 0 -122 54t-43 148
q0 99 44 151.5t121 52.5q80 0 122.5 -53.5t42.5 -148.5q0 -99 -44 -151.5t-121 -52.5zM205 360q43 0 62.5 34t19.5 103q0 71 -19.5 105t-62.5 34t-62.5 -34t-19.5 -103q0 -71 19.5 -105t62.5 -34zM344 0h-81l333 693h81z" />
    <glyph glyph-name="ampersand" unicode="&#x26;" horiz-adv-x="734" 
d="M37 175q0 68 39.5 120t110.5 83q-35 40 -54 68t-26 52t-7 51q0 72 53.5 115.5t141.5 43.5q84 0 136 -39.5t52 -105.5q0 -55 -38.5 -103.5t-108.5 -83.5l-25 -13l174 -197q51 74 51 187v31h87v-39q0 -72 -21.5 -133t-60.5 -108q20 -19 42 -26t53 -7q13 0 28 1.5t30 3.5
v-69q-16 -6 -40 -10t-47 -4q-66 0 -126 54q-43 -30 -95.5 -46.5t-112.5 -16.5q-110 0 -173 51t-63 140zM192 547q0 -19 5.5 -36t22 -39.5t48.5 -59.5l36 19q43 23 66.5 55t23.5 69q0 36 -27 58.5t-70 22.5q-48 0 -76.5 -24t-28.5 -65zM278 63q85 0 146 41l-193 223
q-100 -52 -100 -144q0 -58 38 -89t109 -31z" />
    <glyph glyph-name="quotesingle" unicode="'" horiz-adv-x="211" 
d="M140 449h-69l-14 243q23 12 48 12q27 0 49 -12z" />
    <glyph glyph-name="parenleft" unicode="(" horiz-adv-x="312" 
d="M292 -144h-95q-65 97 -100.5 213t-35.5 236t35.5 236t100.5 213h95q-126 -197 -126 -449t126 -449z" />
    <glyph glyph-name="parenright" unicode=")" horiz-adv-x="312" 
d="M20 754h95q65 -97 100.5 -213t35.5 -236t-35.5 -236t-100.5 -213h-95q126 197 126 449t-126 449z" />
    <glyph glyph-name="asterisk" unicode="*" horiz-adv-x="396" 
d="M198 480l-70 -121q-44 6 -65 48l90 101l-115 27q-2 10 -2 16q0 34 26 60l108 -53l-14 129q20 9 42 9q23 0 42 -9l-14 -129l108 53q26 -26 26 -60q0 -6 -2 -16l-115 -27l90 -101q-21 -42 -65 -48z" />
    <glyph glyph-name="plus" unicode="+" horiz-adv-x="586" 
d="M336 117h-86v191h-183v80h183v191h86v-191h183v-80h-183v-191z" />
    <glyph glyph-name="comma" unicode="," horiz-adv-x="248" 
d="M98 -153h-68l51 269h32q35 0 49 -8.5t14 -28.5q0 -9 -4 -24t-10 -32z" />
    <glyph glyph-name="hyphen" unicode="-" horiz-adv-x="390" 
d="M344 217h-298v84h298v-84z" />
    <glyph glyph-name="period" unicode="." horiz-adv-x="248" 
d="M124 -10q-28 0 -46.5 18.5t-18.5 47.5t18.5 47.5t46.5 18.5q29 0 47 -18.5t18 -47.5t-18 -47.5t-47 -18.5z" />
    <glyph glyph-name="slash" unicode="/" horiz-adv-x="472" 
d="M116 -144h-100l340 898h100z" />
    <glyph glyph-name="zero" unicode="0" horiz-adv-x="586" 
d="M293 -15q-123 0 -189 93.5t-66 268.5q0 176 66 268.5t189 92.5t189 -93t66 -268q0 -176 -66 -269t-189 -93zM293 69q80 0 116.5 67t36.5 211q0 143 -36.5 210t-116.5 67q-79 0 -116 -67t-37 -210t37 -210.5t116 -67.5z" />
    <glyph glyph-name="one" unicode="1" horiz-adv-x="586" 
d="M396 0h-100v594l-193 -75v80l200 94h93v-693z" />
    <glyph glyph-name="two" unicode="2" horiz-adv-x="586" 
d="M86 547v85q50 40 100.5 58t109.5 18q92 0 147 -51t55 -135q0 -39 -15 -80t-51 -90.5t-97 -115t-153 -153.5h348v-83h-463v78q99 101 163 170.5t99.5 117.5t50 83t14.5 66q0 50 -30 78.5t-83 28.5q-89 0 -195 -75z" />
    <glyph glyph-name="three" unicode="3" horiz-adv-x="586" 
d="M480 614l-206 -218q5 1 10 1h10q99 0 157 -53.5t58 -143.5q0 -65 -32 -113.5t-90.5 -75t-137.5 -26.5q-94 0 -186 40v80q59 -19 103 -27.5t83 -8.5q77 0 117.5 34t40.5 97q0 121 -153 121q-19 0 -46.5 -1.5t-48.5 -3.5v66l210 229h-296v82h407v-79z" />
    <glyph glyph-name="four" unicode="4" horiz-adv-x="586" 
d="M455 0h-93v149h-332v77l329 467h96v-463h97v-81h-97v-149zM130 230h232v332z" />
    <glyph glyph-name="five" unicode="5" horiz-adv-x="586" 
d="M68 25v80q58 -19 104 -27.5t86 -8.5q76 0 116.5 34.5t40.5 99.5q0 71 -38 103t-124 32q-31 0 -72 -2.5t-83 -7.5v66l19 299h365v-82h-281l-13 -203q25 5 50.5 7.5t48.5 2.5q108 0 169 -56.5t61 -157.5q0 -65 -32 -114.5t-90 -77t-136 -27.5q-102 0 -191 40z" />
    <glyph glyph-name="six" unicode="6" horiz-adv-x="586" 
d="M348 626q-97 0 -145 -65.5t-52 -199.5q40 27 85.5 42t90.5 15q63 0 110.5 -25.5t74 -71.5t26.5 -107q0 -69 -29 -120.5t-82 -80t-124 -28.5q-251 0 -251 339q0 182 74.5 283t208.5 101q41 0 83 -8.5t74 -24.5v-76q-34 13 -73 20t-71 7zM301 338q-36 0 -75 -11.5
t-75 -31.5q6 -228 155 -228q64 0 98 36.5t34 103.5q0 62 -35.5 96.5t-101.5 34.5z" />
    <glyph glyph-name="seven" unicode="7" horiz-adv-x="586" 
d="M251 0h-107l277 611h-369v82h470v-79z" />
    <glyph glyph-name="eight" unicode="8" horiz-adv-x="586" 
d="M511 524q0 -55 -30.5 -100t-84.5 -72q76 -34 108.5 -74.5t32.5 -97.5q0 -90 -66.5 -142.5t-180.5 -52.5q-111 0 -176 50.5t-65 135.5q0 62 35 110.5t100 78.5q-56 29 -82 67.5t-26 90.5q0 58 27 100.5t76 66t114 23.5t114 -23.5t76.5 -64.5t27.5 -96zM170 523
q0 -40 26.5 -70t85.5 -54l52 -21q83 55 83 136q0 57 -33 88t-92 31q-58 0 -90 -29t-32 -81zM307 307l-61 25q-101 -57 -101 -144q0 -59 38.5 -91.5t109.5 -32.5t109.5 31t38.5 86q0 27 -12 47.5t-41 39t-81 39.5z" />
    <glyph glyph-name="nine" unicode="9" horiz-adv-x="586" 
d="M78 28v76q82 -37 151 -37q96 0 145.5 59t56.5 183q-35 -24 -79 -37.5t-91 -13.5q-97 0 -153.5 58.5t-56.5 158.5q0 69 29.5 121.5t82 82t120.5 29.5q121 0 184.5 -85t63.5 -248q0 -187 -74.5 -288.5t-213.5 -101.5q-47 0 -90 11t-75 32zM285 338q81 0 147 38v14
q-3 236 -151 236q-58 0 -94 -39.5t-36 -105.5q0 -143 134 -143z" />
    <glyph glyph-name="colon" unicode=":" horiz-adv-x="248" 
d="M124 -10q-28 0 -46.5 18.5t-18.5 47.5t18.5 47.5t46.5 18.5q29 0 47 -18.5t18 -47.5t-18 -47.5t-47 -18.5zM124 385q-28 0 -46.5 18.5t-18.5 47.5t18.5 47.5t46.5 18.5q29 0 47 -18.5t18 -47.5t-18 -47.5t-47 -18.5z" />
    <glyph glyph-name="semicolon" unicode=";" horiz-adv-x="248" 
d="M98 -153h-68l51 269h32q35 0 49 -8.5t14 -28.5q0 -9 -4 -24t-10 -32zM124 385q-28 0 -46.5 18.5t-18.5 47.5t18.5 47.5t46.5 18.5q29 0 47 -18.5t18 -47.5t-18 -47.5t-47 -18.5z" />
    <glyph glyph-name="less" unicode="&#x3c;" horiz-adv-x="586" 
d="M511 117l-436 192v80l436 192v-90l-341 -141l341 -141v-92z" />
    <glyph glyph-name="equal" unicode="=" horiz-adv-x="586" 
d="M519 419h-452v80h452v-80zM519 198h-452v80h452v-80z" />
    <glyph glyph-name="greater" unicode="&#x3e;" horiz-adv-x="586" 
d="M75 581l436 -192v-80l-436 -192v90l341 141l-341 141v92z" />
    <glyph glyph-name="question" unicode="?" horiz-adv-x="429" 
d="M301 533q0 92 -108 92q-37 0 -74.5 -10.5t-84.5 -33.5v79q82 48 175 48q89 0 139.5 -44t50.5 -121q0 -66 -43 -116t-133 -91v-126h-82l-9 161l46 23q64 32 93.5 64t29.5 75zM183 -10q-28 0 -46.5 18.5t-18.5 47.5t18.5 47.5t46.5 18.5q29 0 47 -18.5t18 -47.5t-18 -47.5
t-47 -18.5z" />
    <glyph glyph-name="at" unicode="@" horiz-adv-x="957" 
d="M426 -142q81 0 169 28v-70q-83 -34 -175 -34q-116 0 -199.5 46.5t-128 132.5t-44.5 206q0 110 36.5 203t102 162t154 107t193.5 38q116 0 200 -44t129.5 -124.5t45.5 -191.5q0 -93 -30 -167t-81.5 -116.5t-117.5 -42.5q-87 0 -113 66q-31 -33 -70 -50.5t-80 -17.5
q-71 0 -111.5 47.5t-40.5 131.5q0 60 18 114.5t50 96t73 65.5t87 24q36 0 66.5 -15t51.5 -42l16 42h69l-52 -311q-3 -19 -3 -34q0 -48 45 -48q39 0 70.5 34.5t50 92.5t18.5 130q0 134 -77.5 209t-215.5 75q-87 0 -159.5 -32t-125.5 -90.5t-82.5 -137.5t-29.5 -173
q0 -148 76 -229t215 -81zM443 62q61 0 117 55q0 11 3 33l34 208q-37 37 -90 37q-41 0 -75.5 -29.5t-54.5 -78.5t-20 -110q0 -115 86 -115z" />
    <glyph glyph-name="A" unicode="A" horiz-adv-x="642" 
d="M632 0h-106l-64 184h-285l-62 -184h-105l256 693h110zM319 601l-116 -340h233z" />
    <glyph glyph-name="B" unicode="B" horiz-adv-x="613" 
d="M339 0h-255v693h229q64 0 112 -22t75.5 -63t27.5 -98q0 -53 -24.5 -90t-68.5 -57q62 -18 97 -61t35 -109q0 -60 -28.5 -103.5t-80 -66.5t-119.5 -23zM306 615h-125v-223h122q124 0 124 111q0 112 -121 112zM335 316h-154v-238h156q127 0 127 119t-129 119z" />
    <glyph glyph-name="C" unicode="C" horiz-adv-x="607" 
d="M572 102v-83q-81 -31 -175 -31q-164 0 -248.5 90.5t-84.5 265.5q0 173 88 266t250 93q85 0 160 -27v-83q-46 11 -81 16t-67 5q-126 0 -184 -61.5t-58 -195.5v-24q0 -132 56.5 -194t179.5 -62q63 0 164 25z" />
    <glyph glyph-name="D" unicode="D" horiz-adv-x="690" 
d="M309 0h-225v693h228q146 0 230 -84.5t84 -262.5q0 -118 -39.5 -194.5t-110.5 -114t-167 -37.5zM298 613h-112v-533h112q108 0 165.5 62.5t57.5 192.5v23q0 129 -57 192t-166 63z" />
    <glyph glyph-name="E" unicode="E" horiz-adv-x="561" 
d="M515 0h-431v693h431v-82h-329v-213h276v-82h-276v-234h329v-82z" />
    <glyph glyph-name="F" unicode="F" horiz-adv-x="524" 
d="M186 0h-102v693h411v-82h-309v-223h255v-82h-255v-306z" />
    <glyph glyph-name="G" unicode="G" horiz-adv-x="692" 
d="M418 74q27 0 54 2.5t52 8.5v203h-155v79h251v-330q-43 -24 -101.5 -36.5t-120.5 -12.5q-164 0 -249 90t-85 264q0 176 87 268.5t252 92.5q105 0 193 -41v-80q-102 35 -182 35q-127 0 -186 -63.5t-59 -198.5v-22q0 -133 61 -196t188 -63z" />
    <glyph glyph-name="H" unicode="H" horiz-adv-x="718" 
d="M634 0h-102v313h-346v-313h-102v693h102v-298h346v298h102v-693z" />
    <glyph glyph-name="I" unicode="I" horiz-adv-x="278" 
d="M190 0h-102v693h102v-693z" />
    <glyph glyph-name="J" unicode="J" horiz-adv-x="437" 
d="M26 9v79q27 -9 57.5 -14t55.5 -5q62 0 89 31.5t27 103.5v489h102v-487q0 -223 -209 -223q-59 0 -122 26z" />
    <glyph glyph-name="K" unicode="K" horiz-adv-x="617" 
d="M186 0h-102v693h102v-310l285 310h120l-308 -331l335 -362h-125l-307 331v-331z" />
    <glyph glyph-name="L" unicode="L" horiz-adv-x="524" 
d="M513 0h-429v693h102v-609h327v-84z" />
    <glyph glyph-name="M" unicode="M" horiz-adv-x="840" 
d="M756 0h-94v545l-195 -368h-93l-196 369v-546h-94v693h114l224 -425l223 425h111v-693z" />
    <glyph glyph-name="N" unicode="N" horiz-adv-x="714" 
d="M518 0l-340 551v-551h-94v693h111l341 -554v554h94v-693h-112z" />
    <glyph glyph-name="O" unicode="O" horiz-adv-x="777" 
d="M64 346q0 114 39 195t112 124t174 43t173.5 -43t111.5 -124t39 -195t-39 -195t-111.5 -124.5t-173.5 -43.5t-174 43.5t-112 124.5t-39 195zM169 346q0 -136 56.5 -206.5t163.5 -70.5t163 70.5t56 206.5t-56 206t-163 70t-163.5 -70t-56.5 -206z" />
    <glyph glyph-name="P" unicode="P" horiz-adv-x="600" 
d="M335 268h-152v-268h-99v693h251q101 0 161 -57t60 -156q0 -97 -60 -154.5t-161 -57.5zM183 612v-263h143q127 0 127 131q0 132 -127 132h-143z" />
    <glyph glyph-name="Q" unicode="Q" horiz-adv-x="777" 
d="M64 346q0 114 39 195t112 124t174 43t173.5 -43t111.5 -124t39 -195q0 -143 -62 -234.5t-172 -117.5q47 -27 101 -44.5t127 -22.5v-89q-100 11 -182.5 51t-148.5 95q-97 3 -167 47t-107.5 124t-37.5 191zM169 346q0 -136 56.5 -206.5t163.5 -70.5t163 70.5t56 206.5
t-56 206t-163 70t-163.5 -70t-56.5 -206z" />
    <glyph glyph-name="R" unicode="R" horiz-adv-x="613" 
d="M183 0h-99v693h253q66 0 115.5 -24.5t77.5 -70t28 -110.5q0 -73 -39.5 -122t-103.5 -71l184 -295h-111l-170 279h-135v-279zM183 612v-252h141q62 0 96.5 31.5t34.5 95.5q0 61 -31.5 93t-95.5 32h-145z" />
    <glyph glyph-name="S" unicode="S" horiz-adv-x="570" 
d="M311 292l-97 37q-81 31 -118.5 75t-37.5 111q0 58 29.5 101.5t81.5 67.5t121 24q47 0 94.5 -9.5t90.5 -26.5v-81q-49 15 -93.5 23t-84.5 8q-65 0 -100.5 -26t-35.5 -76q0 -39 23 -62.5t90 -48.5l91 -34q81 -30 116.5 -72.5t35.5 -109.5q0 -64 -31 -111t-88 -73t-134 -26
q-55 0 -106.5 10.5t-93.5 30.5v80q105 -35 198 -35q70 0 111 30.5t41 84.5q0 37 -23.5 61.5t-79.5 46.5z" />
    <glyph glyph-name="T" unicode="T" horiz-adv-x="574" 
d="M338 0h-102v609h-221v84h544v-84h-221v-609z" />
    <glyph glyph-name="U" unicode="U" horiz-adv-x="706" 
d="M524 244v449h102v-440q0 -130 -71 -200t-202 -70q-132 0 -202.5 70t-70.5 200v440h102v-449q0 -85 44.5 -130t126.5 -45q83 0 127 45t44 130z" />
    <glyph glyph-name="V" unicode="V" horiz-adv-x="640" 
d="M375 0h-110l-255 693h112l200 -591l200 591h108z" />
    <glyph glyph-name="W" unicode="W" horiz-adv-x="929" 
d="M710 0h-114l-131 543l-132 -543h-114l-202 693h111l149 -581l133 561h112l133 -562l150 582h107z" />
    <glyph glyph-name="X" unicode="X" horiz-adv-x="604" 
d="M596 0h-117l-180 286l-178 -286h-113l236 358l-221 335h116l165 -260l163 260h113l-221 -332z" />
    <glyph glyph-name="Y" unicode="Y" horiz-adv-x="604" 
d="M350 0h-100v255l-236 438h113l175 -355l178 355h110l-240 -440v-253z" />
    <glyph glyph-name="Z" unicode="Z" horiz-adv-x="579" 
d="M537 0h-495v78l384 532h-362v83h473v-78l-385 -532h385v-83z" />
    <glyph glyph-name="bracketleft" unicode="[" horiz-adv-x="351" 
d="M331 -144h-247v898h247v-80h-145v-738h145v-80z" />
    <glyph glyph-name="backslash" unicode="\" horiz-adv-x="472" 
d="M456 -144h-100l-340 898h100z" />
    <glyph glyph-name="bracketright" unicode="]" horiz-adv-x="351" 
d="M267 -144h-247v80h145v738h-145v80h247v-898z" />
    <glyph glyph-name="asciicircum" unicode="^" horiz-adv-x="586" 
d="M536 303h-97l-146 302l-148 -302h-95l201 390h84z" />
    <glyph glyph-name="underscore" unicode="_" horiz-adv-x="500" 
d="M500 -149h-500v80h500v-80z" />
    <glyph glyph-name="grave" unicode="`" horiz-adv-x="588" 
d="M397 601h-80l-127 160h116z" />
    <glyph glyph-name="a" unicode="a" horiz-adv-x="527" 
d="M454 0h-82l-8 52q-37 -31 -80.5 -48t-85.5 -17q-71 0 -113.5 41t-42.5 108q0 73 52 116.5t140 43.5q58 0 126 -17v66q0 54 -24.5 76t-83.5 22q-40 0 -86 -8t-90 -23v70q37 19 89 29.5t104 10.5q95 0 140 -39t45 -121v-362zM222 62q68 0 138 51v102q-24 6 -51.5 9.5
t-54.5 3.5q-113 0 -113 -87q0 -37 21 -58t60 -21z" />
    <glyph glyph-name="b" unicode="b" horiz-adv-x="592" 
d="M156 0h-82v740h99v-281q75 63 162 63q98 0 153.5 -70t55.5 -192q0 -82 -26.5 -143t-75 -94.5t-114.5 -33.5q-92 0 -161 64zM307 442q-71 0 -134 -46v-279q63 -48 132 -48q138 0 138 186q0 95 -33.5 141t-102.5 46z" />
    <glyph glyph-name="c" unicode="c" horiz-adv-x="461" 
d="M425 90v-71q-29 -15 -63.5 -22.5t-70.5 -7.5q-118 0 -180.5 67.5t-62.5 195.5q0 127 64.5 196.5t182.5 69.5q67 0 126 -28v-71q-57 18 -112 18q-84 0 -121 -42.5t-37 -135.5v-13q0 -91 37.5 -133.5t118.5 -42.5q54 0 118 20z" />
    <glyph glyph-name="d" unicode="d" horiz-adv-x="590" 
d="M516 0h-82l-13 52q-33 -30 -75 -46.5t-85 -16.5q-65 0 -113 32t-74 91t-26 139q0 83 26.5 143.5t75 94t114.5 33.5q85 0 153 -56v274h99v-740zM291 69q62 0 126 46v283q-31 23 -62.5 33.5t-69.5 10.5q-136 0 -136 -188q0 -185 142 -185z" />
    <glyph glyph-name="e" unicode="e" horiz-adv-x="529" 
d="M476 232h-332q2 -87 43 -127.5t125 -40.5q79 0 161 31v-71q-72 -39 -176 -39q-123 0 -186 68t-63 201q0 127 63 197.5t176 70.5q95 0 146 -53t51 -152q0 -19 -2 -43t-6 -42zM282 447q-129 0 -138 -149h249q1 6 1 12v14q0 123 -112 123z" />
    <glyph glyph-name="f" unicode="f" horiz-adv-x="373" 
d="M211 0h-99v429h-94v64l94 12v82q0 167 160 167q26 0 53 -5t47 -13v-70q-24 4 -43.5 6t-34.5 2q-45 0 -64 -17t-19 -58v-92h155v-78h-155v-429z" />
    <glyph glyph-name="g" unicode="g" horiz-adv-x="580" 
d="M408 24v45q-69 -60 -152 -60q-63 0 -109.5 31t-72.5 88t-26 133q0 80 26 138.5t73 90.5t111 32q90 0 157 -62l8 47h83v-476q0 -119 -63.5 -184t-180.5 -65q-94 0 -173 40v71q92 -31 165 -31q80 0 117 38.5t37 123.5zM285 89q62 0 123 46v263q-59 44 -129 44
q-130 0 -130 -177q0 -176 136 -176z" />
    <glyph glyph-name="h" unicode="h" horiz-adv-x="588" 
d="M516 0h-99v339q0 53 -21.5 78t-67.5 25q-40 0 -79 -13t-76 -38v-391h-99v740h99v-285q46 32 95.5 49.5t98.5 17.5q73 0 111 -38.5t38 -111.5v-372z" />
    <glyph glyph-name="i" unicode="i" horiz-adv-x="255" 
d="M128 597q-28 0 -45 16t-17 44t17 44t45 16q29 0 45.5 -16t16.5 -44t-16.5 -44t-45.5 -16zM177 0h-99v507h99v-507z" />
    <glyph glyph-name="j" unicode="j" horiz-adv-x="255" 
d="M128 597q-28 0 -45 16t-17 44t17 44t45 16q29 0 45.5 -16t16.5 -44t-16.5 -44t-45.5 -16zM78 -93v600h99v-592q0 -133 -126 -133q-42 0 -85 13v71q13 -2 28 -3t31 -1q29 0 41 10.5t12 34.5z" />
    <glyph glyph-name="k" unicode="k" horiz-adv-x="526" 
d="M173 0h-99v740h99v-454l215 221h121l-240 -241l256 -266h-125l-227 240v-240z" />
    <glyph glyph-name="l" unicode="l" horiz-adv-x="285" 
d="M255 78v-71q-16 -6 -35.5 -9t-36.5 -3q-53 0 -81 30.5t-28 87.5v627h99v-621q0 -24 9.5 -34t31.5 -10q8 0 19.5 1t21.5 2z" />
    <glyph glyph-name="m" unicode="m" horiz-adv-x="893" 
d="M821 0h-99v344q0 51 -19 74.5t-60 23.5q-73 0 -147 -45q1 -7 1 -15v-16v-366h-99v344q0 51 -19 74.5t-60 23.5q-76 0 -146 -44v-398h-99v507h83l10 -51q48 33 94 49.5t93 16.5q93 0 126 -71q99 71 198 71q69 0 106 -39t37 -111v-372z" />
    <glyph glyph-name="n" unicode="n" horiz-adv-x="588" 
d="M516 0h-99v339q0 53 -21.5 78t-67.5 25q-40 0 -79 -13t-76 -38v-391h-99v507h83l10 -56q95 71 200 71q73 0 111 -38.5t38 -111.5v-372z" />
    <glyph glyph-name="o" unicode="o" horiz-adv-x="580" 
d="M290 -15q-112 0 -177 70.5t-65 198.5t65 198t177 70q113 0 177.5 -70t64.5 -198t-64.5 -198.5t-177.5 -70.5zM290 65q69 0 105 46t36 143q0 96 -36 142t-105 46t-105 -46t-36 -142q0 -97 36 -143t105 -46z" />
    <glyph glyph-name="p" unicode="p" horiz-adv-x="592" 
d="M173 -206h-99v713h83l9 -52q76 67 169 67q97 0 153 -70t56 -192q0 -82 -26.5 -143t-75 -94.5t-114.5 -33.5q-90 0 -155 59v-254zM307 442q-71 0 -134 -46v-279q65 -48 132 -48q138 0 138 186q0 187 -136 187z" />
    <glyph glyph-name="q" unicode="q" horiz-adv-x="590" 
d="M516 -206h-99v254q-33 -28 -73.5 -43.5t-82.5 -15.5q-65 0 -113 32t-74 91t-26 139q0 83 26.5 144t75 94t113.5 33q95 0 162 -63l8 48h83v-713zM291 69q62 0 126 46v283q-31 23 -62.5 33.5t-69.5 10.5q-136 0 -136 -188q0 -185 142 -185z" />
    <glyph glyph-name="r" unicode="r" horiz-adv-x="373" 
d="M173 0h-99v507h83l11 -75q34 36 70 57.5t85 21.5q19 0 41 -3v-90q-12 2 -27 3t-27 1q-41 0 -75 -12.5t-62 -35.5v-374z" />
    <glyph glyph-name="s" unicode="s" horiz-adv-x="432" 
d="M312 136q0 24 -15.5 39t-56.5 30l-85 32q-111 41 -111 140q0 65 50.5 105t132.5 40q38 0 77 -8.5t72 -23.5v-70q-40 13 -76 19t-68 6q-96 0 -96 -65q0 -26 16 -41t63 -33l78 -30q60 -23 85.5 -55t25.5 -81q0 -70 -52.5 -112.5t-141.5 -42.5q-47 0 -91.5 9.5t-80.5 28.5
v70q50 -16 91 -23.5t83 -7.5q100 0 100 74z" />
    <glyph glyph-name="t" unicode="t" horiz-adv-x="383" 
d="M359 83v-71q-49 -19 -111 -19q-142 0 -142 142v294h-92v64l95 12l15 144h81v-142h150v-78h-150v-289q0 -37 16.5 -52t56.5 -15q17 0 40 3t41 7z" />
    <glyph glyph-name="u" unicode="u" horiz-adv-x="575" 
d="M501 0h-82l-11 54q-93 -69 -191 -69q-70 0 -108.5 40t-38.5 113v369h99v-337q0 -55 21.5 -80t66.5 -25q72 0 145 48v394h99v-507z" />
    <glyph glyph-name="v" unicode="v" horiz-adv-x="510" 
d="M304 0h-97l-199 507h106l143 -417l143 417h102z" />
    <glyph glyph-name="w" unicode="w" horiz-adv-x="769" 
d="M590 0h-100l-108 397l-107 -397h-100l-166 507h104l114 -406l108 406h99l108 -411l117 411h101z" />
    <glyph glyph-name="x" unicode="x" horiz-adv-x="481" 
d="M474 0h-110l-127 194l-125 -194h-105l179 260l-169 247h109l116 -177l115 177h104l-168 -241z" />
    <glyph glyph-name="y" unicode="y" horiz-adv-x="509" 
d="M192 -56l19 51l-204 512h106l146 -415l141 415h102l-231 -596q-26 -69 -62.5 -99t-92.5 -30q-42 0 -78 14v71q27 -7 57 -7q38 0 59 18.5t38 65.5z" />
    <glyph glyph-name="z" unicode="z" horiz-adv-x="476" 
d="M440 0h-404v76l291 353h-281v78h391v-75l-295 -354h298v-78z" />
    <glyph glyph-name="braceleft" unicode="{" horiz-adv-x="382" 
d="M361 -66v-71q-33 -15 -82 -15q-73 0 -115 44.5t-42 124.5v179q0 38 -16 54t-56 16h-21v78h21q40 0 56 16t16 54v179q0 80 42 124.5t115 44.5q49 0 82 -15v-71q-16 3 -32.5 5t-31.5 2q-73 0 -73 -81v-182q0 -48 -20.5 -75t-67.5 -40q47 -13 67.5 -40.5t20.5 -74.5v-182
q0 -81 73 -81q15 0 31.5 2t32.5 5z" />
    <glyph glyph-name="bar" unicode="|" horiz-adv-x="281" 
d="M191 -206h-101v960h101v-960z" />
    <glyph glyph-name="braceright" unicode="}" horiz-adv-x="382" 
d="M21 676v71q33 15 82 15q89 0 123 -54t34 -151v-143q0 -38 16 -54t56 -16h21v-78h-21q-40 0 -56 -16t-16 -54v-143q0 -97 -34 -151t-123 -54q-49 0 -82 15v71q16 -3 32.5 -5t31.5 -2q73 0 73 81v146q0 44 5.5 73.5t24 48t58.5 29.5q-40 11 -58.5 29t-24 48t-5.5 74v146
q0 81 -73 81q-15 0 -31.5 -2t-32.5 -5z" />
    <glyph glyph-name="asciitilde" unicode="~" horiz-adv-x="586" 
d="M128 265h-71q-2 9 -3 21t-1 25q0 59 32.5 92.5t90.5 33.5q59 0 130 -53q41 -30 59.5 -39t39.5 -9q46 0 50 60l3 35h71q2 -9 3 -20.5t1 -25.5q0 -59 -32.5 -92.5t-90.5 -33.5q-59 0 -130 53q-40 30 -59 39t-40 9q-46 0 -50 -60z" />
    <glyph glyph-name="uni00A0" unicode="&#xa0;" horiz-adv-x="262" 
 />
    <glyph glyph-name="cent" unicode="&#xa2;" horiz-adv-x="586" 
d="M372 -130h-62v150q-215 20 -215 261q0 115 56 182.5t159 78.5v151h62v-150q32 -1 63.5 -9t57.5 -20v-71q-29 9 -61 14.5t-60 6.5v-365q29 1 60 6.5t65 15.5v-70q-52 -27 -125 -32v-149zM193 275q0 -76 28 -118.5t89 -53.5v356q-61 -11 -89 -52.5t-28 -118.5v-13z" />
    <glyph glyph-name="sterling" unicode="&#xa3;" horiz-adv-x="586" 
d="M197 83h340v-83h-446v76q80 65 80 178q0 27 -3 52h-101v78h87q-7 35 -14 67t-7 60q0 59 27.5 103t77.5 68.5t117 24.5q49 0 94 -12.5t79 -35.5v-79q-88 42 -164 42q-132 0 -132 -123q0 -27 5 -55.5t12 -59.5h208v-78h-193q2 -13 3 -26t1 -27q0 -100 -71 -170z" />
    <glyph glyph-name="currency" unicode="&#xa4;" horiz-adv-x="586" 
d="M293 116q-68 0 -119 31l-79 -84l-61 54l79 81q-20 28 -31.5 63.5t-11.5 78.5t11.5 78.5t31.5 63.5l-79 81l61 54l79 -84q51 31 119 31t119 -31l79 84l61 -54l-80 -81q44 -58 44 -142q0 -43 -11.5 -78.5t-31.5 -63.5l79 -81l-61 -54l-79 84q-51 -31 -119 -31zM293 189
q134 0 134 151t-134 151t-134 -151t134 -151z" />
    <glyph glyph-name="yen" unicode="&#xa5;" horiz-adv-x="586" 
d="M341 0h-97v155h-174v66h174v32l-29 56h-145v66h112l-163 318h111l164 -358l167 358h106l-164 -318h113v-66h-146l-29 -57v-31h174v-66h-174v-155z" />
    <glyph glyph-name="section" unicode="&#xa7;" horiz-adv-x="475" 
d="M36 306q0 49 27 82.5t74 45.5q-85 40 -85 125q0 69 50.5 109t136.5 40q38 0 78.5 -8.5t77.5 -24.5v-70q-43 14 -80.5 20t-71.5 6q-100 0 -100 -69q0 -25 15.5 -41t58.5 -33l88 -35q72 -28 103 -62.5t31 -87.5q0 -96 -91 -132q72 -43 72 -117q0 -70 -53.5 -110t-147.5 -40
q-47 0 -93 10t-81 29v70q94 -32 171 -32q113 0 113 73q0 27 -18 43.5t-68 35.5l-83 32q-65 25 -94.5 58.5t-29.5 82.5zM127 317q0 -31 19 -50t71 -40l63 -25q32 10 50 32.5t18 55.5q0 35 -22 58t-73 42l-36 13q-90 -11 -90 -86z" />
    <glyph glyph-name="dieresis" unicode="&#xa8;" horiz-adv-x="588" 
d="M186 594q-27 0 -43 16t-16 42t16 41.5t43 15.5q28 0 44 -15.5t16 -41.5t-16 -42t-44 -16zM402 594q-28 0 -44 16t-16 42t16 41.5t44 15.5q27 0 43 -15.5t16 -41.5t-16 -42t-43 -16z" />
    <glyph glyph-name="copyright" unicode="&#xa9;" horiz-adv-x="774" 
d="M387 -17q-105 0 -186.5 46.5t-128 128.5t-46.5 187q0 106 46.5 187.5t128 128t186.5 46.5q106 0 187 -46.5t127.5 -128t46.5 -187.5q0 -105 -46.5 -187t-127.5 -128.5t-187 -46.5zM387 46q86 0 151 37.5t101 105t36 156.5t-36 156.5t-101 105t-151 37.5t-151 -37.5
t-101 -105t-36 -156.5t36 -156.5t101 -105t151 -37.5zM505 230v-63q-49 -20 -97 -20q-88 0 -136.5 53t-48.5 150q0 96 49 149.5t137 53.5q24 0 48.5 -5.5t43.5 -14.5v-61q-39 13 -85 13q-108 0 -108 -125v-18q0 -126 112 -126q37 0 85 14z" />
    <glyph glyph-name="ordfeminine" unicode="&#xaa;" horiz-adv-x="399" 
d="M335 346h-67l-7 36q-56 -46 -117 -46q-49 0 -79.5 28.5t-30.5 74.5q0 52 38 81t105 29q40 0 81 -11v45q0 34 -16 47.5t-55 13.5q-59 0 -128 -23v54q60 30 142 30q134 0 134 -112v-247zM167 393q42 0 91 30v69q-15 3 -33.5 5t-36.5 2q-77 0 -77 -56q0 -24 15 -37t41 -13z
M41 276h294v-60h-294v60z" />
    <glyph glyph-name="guillemotleft" unicode="&#xab;" horiz-adv-x="527" 
d="M279 51h-97l-136 208l136 208h97l-127 -208zM475 51h-97l-136 208l136 208h97l-127 -208z" />
    <glyph glyph-name="logicalnot" unicode="&#xac;" horiz-adv-x="586" 
d="M519 222h-86v174h-366v80h452v-254z" />
    <glyph glyph-name="registered" unicode="&#xae;" horiz-adv-x="534" 
d="M267 275q-70 0 -124.5 30.5t-85.5 84.5t-31 124q0 71 31 125t85.5 84.5t124.5 30.5q71 0 125 -30.5t85 -84.5t31 -124t-31 -124.5t-85 -85t-125 -30.5zM267 317q87 0 139 54t52 144q0 89 -52 143t-139 54t-139 -54t-52 -144q0 -89 52 -143t139 -54zM231 386h-51v262h98
q42 0 66 -22t24 -61q0 -52 -51 -71l69 -108h-57l-59 100h-39v-100zM231 606v-80h38q45 0 45 38q0 20 -10.5 31t-28.5 11h-44z" />
    <glyph glyph-name="degree" unicode="&#xb0;" horiz-adv-x="376" 
d="M188 423q-58 0 -98 36t-40 103q0 68 40 103.5t98 35.5q59 0 98.5 -35.5t39.5 -103.5q0 -67 -39.5 -103t-98.5 -36zM188 481q32 0 51 21t19 60q0 40 -19 60.5t-51 20.5q-31 0 -50.5 -21t-19.5 -60q0 -40 19.5 -60.5t50.5 -20.5z" />
    <glyph glyph-name="plusminus" unicode="&#xb1;" horiz-adv-x="586" 
d="M336 185h-86v191h-183v80h183v191h86v-191h183v-80h-183v-191zM519 25h-452v80h452v-80z" />
    <glyph glyph-name="uni00B2" unicode="&#xb2;" horiz-adv-x="410" 
d="M75 680v64q60 44 133 44q56 0 90 -29t34 -79q0 -28 -15.5 -57.5t-53 -69.5t-105.5 -100h188v-63h-280v57q72 66 111.5 106.5t55 67.5t15.5 50q0 24 -15.5 37.5t-42.5 13.5q-48 0 -115 -42z" />
    <glyph glyph-name="uni00B3" unicode="&#xb3;" horiz-adv-x="410" 
d="M188 382q-69 0 -118 25v59q34 -11 61 -16.5t53 -5.5q41 0 63.5 16.5t22.5 45.5t-19.5 42.5t-62.5 13.5q-13 0 -30 -0.5t-33 -2.5v42l117 117h-169v62h252v-56l-110 -110h12q57 0 89 -28.5t32 -78.5q0 -58 -42.5 -91.5t-117.5 -33.5z" />
    <glyph glyph-name="acute" unicode="&#xb4;" horiz-adv-x="588" 
d="M270 601h-80l91 160h116z" />
    <glyph glyph-name="paragraph" unicode="&#xb6;" horiz-adv-x="604" 
d="M516 -104h-83v722h-112v-824h-83v450q-97 14 -150 70t-53 144q0 111 72 173t200 62h209v-797z" />
    <glyph glyph-name="periodcentered" unicode="&#xb7;" horiz-adv-x="248" 
d="M124 195q-28 0 -46.5 18.5t-18.5 47.5t18.5 47.5t46.5 18.5q29 0 47 -18.5t18 -47.5t-18 -47.5t-47 -18.5z" />
    <glyph glyph-name="cedilla" unicode="&#xb8;" horiz-adv-x="588" 
d="M283 -63q42 0 66.5 -19.5t24.5 -52.5q0 -83 -119 -146l-41 36q39 25 61 50t22 45q0 26 -38 26q-16 0 -37 -3v55q29 9 61 9z" />
    <glyph glyph-name="uni00B9" unicode="&#xb9;" horiz-adv-x="410" 
d="M279 390h-80v312l-118 -42v62l128 58h70v-390z" />
    <glyph glyph-name="ordmasculine" unicode="&#xba;" horiz-adv-x="418" 
d="M209 333q-79 0 -124 49.5t-45 136.5q0 86 45 136t124 50t124 -50t45 -136q0 -87 -44.5 -136.5t-124.5 -49.5zM209 396q47 0 67.5 29.5t20.5 93.5q0 62 -20.5 92.5t-67.5 30.5q-46 0 -67 -30.5t-21 -92.5q0 -64 21 -93.5t67 -29.5zM52 276h316v-60h-316v60z" />
    <glyph glyph-name="guillemotright" unicode="&#xbb;" horiz-adv-x="527" 
d="M52 467h97l136 -208l-136 -208h-97l127 208zM248 467h97l136 -208l-136 -208h-97l127 208z" />
    <glyph glyph-name="onequarter" unicode="&#xbc;" horiz-adv-x="940" 
d="M279 303h-80v312l-118 -42v62l128 58h70v-390zM840 0h-70v80h-196v57l191 259h75v-258h59v-58h-59v-80zM770 308l-125 -170h125v170zM353 0h-81l333 693h81z" />
    <glyph glyph-name="onehalf" unicode="&#xbd;" horiz-adv-x="940" 
d="M279 303h-80v312l-118 -42v62l128 58h70v-390zM605 290v64q60 44 133 44q56 0 90 -29t34 -79q0 -28 -15.5 -57.5t-53 -69.5t-105.5 -100h188v-63h-280v57q72 66 111.5 106.5t55 67.5t15.5 50q0 24 -15.5 37.5t-42.5 13.5q-48 0 -115 -42zM326 0h-81l333 693h81z" />
    <glyph glyph-name="threequarters" unicode="&#xbe;" horiz-adv-x="940" 
d="M188 295q-69 0 -118 25v59q34 -11 61 -16.5t53 -5.5q41 0 63.5 16.5t22.5 45.5t-19.5 42.5t-62.5 13.5q-13 0 -30 -0.5t-33 -2.5v42l117 117h-169v62h252v-56l-110 -110h12q57 0 89 -28.5t32 -78.5q0 -58 -42.5 -91.5t-117.5 -33.5zM840 0h-70v80h-196v57l191 259h75
v-258h59v-58h-59v-80zM770 308l-125 -170h125v170zM360 0h-81l333 693h81z" />
    <glyph glyph-name="Agrave" unicode="&#xc0;" horiz-adv-x="642" 
d="M632 0h-106l-64 184h-285l-62 -184h-105l256 693h110zM319 601l-116 -340h233zM365 769h-88l-127 123h119z" />
    <glyph glyph-name="Acircumflex" unicode="&#xc2;" horiz-adv-x="642" 
d="M632 0h-106l-64 184h-285l-62 -184h-105l256 693h110zM319 601l-116 -340h233zM505 769h-99l-85 80l-86 -80h-99l133 135h103z" />
    <glyph glyph-name="AE" unicode="&#xc6;" horiz-adv-x="950" 
d="M904 0h-431v200h-240l-110 -200h-113l397 693h497v-82h-329v-213h276v-82h-276v-234h329v-82zM461 611l-186 -335h198v335h-12z" />
    <glyph glyph-name="Ccedilla" unicode="&#xc7;" horiz-adv-x="607" 
d="M572 102v-83q-81 -31 -175 -31q-164 0 -248.5 90.5t-84.5 265.5q0 173 88 266t250 93q85 0 160 -27v-83q-46 11 -81 16t-67 5q-126 0 -184 -61.5t-58 -195.5v-24q0 -132 56.5 -194t179.5 -62q63 0 164 25zM374 -63q42 0 66.5 -19.5t24.5 -52.5q0 -83 -119 -146l-42 38
q39 25 60.5 49t21.5 43q0 25 -37 25q-15 0 -36 -3v57q29 9 61 9z" />
    <glyph glyph-name="Egrave" unicode="&#xc8;" horiz-adv-x="561" 
d="M515 0h-431v693h431v-82h-329v-213h276v-82h-276v-234h329v-82zM343 769h-88l-127 123h119z" />
    <glyph glyph-name="Eacute" unicode="&#xc9;" horiz-adv-x="561" 
d="M515 0h-431v693h431v-82h-329v-213h276v-82h-276v-234h329v-82zM343 769h-88l96 123h119z" />
    <glyph glyph-name="Ecircumflex" unicode="&#xca;" horiz-adv-x="561" 
d="M515 0h-431v693h431v-82h-329v-213h276v-82h-276v-234h329v-82zM483 769h-99l-85 80l-86 -80h-99l133 135h103z" />
    <glyph glyph-name="Edieresis" unicode="&#xcb;" horiz-adv-x="561" 
d="M515 0h-431v693h431v-82h-329v-213h276v-82h-276v-234h329v-82zM193 779q-27 0 -44 16t-17 42t16.5 42t44.5 16q27 0 44 -16t17 -42t-16.5 -42t-44.5 -16zM405 779q-27 0 -44 16t-17 42t16.5 42t44.5 16q27 0 44 -16t17 -42t-16.5 -42t-44.5 -16z" />
    <glyph glyph-name="Icircumflex" unicode="&#xce;" horiz-adv-x="278" 
d="M190 0h-102v693h102v-693zM323 769h-99l-85 80l-86 -80h-99l133 135h103z" />
    <glyph glyph-name="Idieresis" unicode="&#xcf;" horiz-adv-x="278" 
d="M190 0h-102v693h102v-693zM33 779q-27 0 -44 16t-17 42t16.5 42t44.5 16q27 0 44 -16t17 -42t-16.5 -42t-44.5 -16zM245 779q-27 0 -44 16t-17 42t16.5 42t44.5 16q27 0 44 -16t17 -42t-16.5 -42t-44.5 -16z" />
    <glyph glyph-name="Ocircumflex" unicode="&#xd4;" horiz-adv-x="777" 
d="M64 346q0 114 39 195t112 124t174 43t173.5 -43t111.5 -124t39 -195t-39 -195t-111.5 -124.5t-173.5 -43.5t-174 43.5t-112 124.5t-39 195zM169 346q0 -136 56.5 -206.5t163.5 -70.5t163 70.5t56 206.5t-56 206t-163 70t-163.5 -70t-56.5 -206zM573 769h-99l-85 80
l-86 -80h-99l133 135h103z" />
    <glyph glyph-name="multiply" unicode="&#xd7;" horiz-adv-x="586" 
d="M293 285l-147 -156l-56 57l148 155l-148 155l56 57l147 -156l147 156l56 -57l-148 -155l148 -155l-56 -57z" />
    <glyph glyph-name="Ugrave" unicode="&#xd9;" horiz-adv-x="706" 
d="M524 244v449h102v-440q0 -130 -71 -200t-202 -70q-132 0 -202.5 70t-70.5 200v440h102v-449q0 -85 44.5 -130t126.5 -45q83 0 127 45t44 130zM397 769h-88l-127 123h119z" />
    <glyph glyph-name="Ucircumflex" unicode="&#xdb;" horiz-adv-x="706" 
d="M524 244v449h102v-440q0 -130 -71 -200t-202 -70q-132 0 -202.5 70t-70.5 200v440h102v-449q0 -85 44.5 -130t126.5 -45q83 0 127 45t44 130zM537 769h-99l-85 80l-86 -80h-99l133 135h103z" />
    <glyph glyph-name="Udieresis" unicode="&#xdc;" horiz-adv-x="706" 
d="M524 244v449h102v-440q0 -130 -71 -200t-202 -70q-132 0 -202.5 70t-70.5 200v440h102v-449q0 -85 44.5 -130t126.5 -45q83 0 127 45t44 130zM247 779q-27 0 -44 16t-17 42t16.5 42t44.5 16q27 0 44 -16t17 -42t-16.5 -42t-44.5 -16zM459 779q-27 0 -44 16t-17 42
t16.5 42t44.5 16q27 0 44 -16t17 -42t-16.5 -42t-44.5 -16z" />
    <glyph glyph-name="agrave" unicode="&#xe0;" horiz-adv-x="527" 
d="M454 0h-82l-8 52q-37 -31 -80.5 -48t-85.5 -17q-71 0 -113.5 41t-42.5 108q0 73 52 116.5t140 43.5q58 0 126 -17v66q0 54 -24.5 76t-83.5 22q-40 0 -86 -8t-90 -23v70q37 19 89 29.5t104 10.5q95 0 140 -39t45 -121v-362zM222 62q68 0 138 51v102q-24 6 -51.5 9.5
t-54.5 3.5q-113 0 -113 -87q0 -37 21 -58t60 -21zM306 601h-80l-127 160h116z" />
    <glyph glyph-name="acircumflex" unicode="&#xe2;" horiz-adv-x="527" 
d="M454 0h-82l-8 52q-37 -31 -80.5 -48t-85.5 -17q-71 0 -113.5 41t-42.5 108q0 73 52 116.5t140 43.5q58 0 126 -17v66q0 54 -24.5 76t-83.5 22q-40 0 -86 -8t-90 -23v70q37 19 89 29.5t104 10.5q95 0 140 -39t45 -121v-362zM222 62q68 0 138 51v102q-24 6 -51.5 9.5
t-54.5 3.5q-113 0 -113 -87q0 -37 21 -58t60 -21zM446 601h-86l-94 103l-94 -103h-86l130 161h100z" />
    <glyph glyph-name="ae" unicode="&#xe6;" horiz-adv-x="844" 
d="M260 522q126 0 166 -82q29 38 73.5 60t102.5 22q95 0 146 -53.5t51 -152.5q0 -22 -2.5 -47.5t-6.5 -42.5h-333q4 -85 45 -123.5t127 -38.5q38 0 78 7.5t81 23.5v-71q-72 -39 -175 -39q-143 0 -203 91q-41 -40 -95.5 -64.5t-110.5 -24.5q-75 0 -118.5 40.5t-43.5 108.5
q0 77 53.5 121t143.5 44q28 0 62 -2t68 -7v44q0 56 -28.5 81.5t-89.5 25.5q-80 0 -175 -31v70q36 18 87 29t97 11zM597 447q-132 0 -140 -154h253q1 8 1 14.5v12.5q0 62 -27.5 94.5t-86.5 32.5zM224 60q38 0 80.5 18.5t79.5 51.5q-7 23 -11 48.5t-6 53.5q-28 2 -56 3t-52 1
q-120 0 -120 -94q0 -82 85 -82z" />
    <glyph glyph-name="ccedilla" unicode="&#xe7;" horiz-adv-x="461" 
d="M425 90v-71q-29 -15 -63.5 -22.5t-70.5 -7.5q-118 0 -180.5 67.5t-62.5 195.5q0 127 64.5 196.5t182.5 69.5q67 0 126 -28v-71q-57 18 -112 18q-84 0 -121 -42.5t-37 -135.5v-13q0 -91 37.5 -133.5t118.5 -42.5q54 0 118 20zM270 -63q42 0 66.5 -19.5t24.5 -52.5
q0 -83 -119 -146l-41 36q39 25 61 50t22 45q0 26 -38 26q-16 0 -37 -3v55q29 9 61 9z" />
    <glyph glyph-name="egrave" unicode="&#xe8;" horiz-adv-x="529" 
d="M476 232h-332q2 -87 43 -127.5t125 -40.5q79 0 161 31v-71q-72 -39 -176 -39q-123 0 -186 68t-63 201q0 127 63 197.5t176 70.5q95 0 146 -53t51 -152q0 -19 -2 -43t-6 -42zM282 447q-129 0 -138 -149h249q1 6 1 12v14q0 123 -112 123zM314 601h-80l-127 160h116z" />
    <glyph glyph-name="eacute" unicode="&#xe9;" horiz-adv-x="529" 
d="M476 232h-332q2 -87 43 -127.5t125 -40.5q79 0 161 31v-71q-72 -39 -176 -39q-123 0 -186 68t-63 201q0 127 63 197.5t176 70.5q95 0 146 -53t51 -152q0 -19 -2 -43t-6 -42zM282 447q-129 0 -138 -149h249q1 6 1 12v14q0 123 -112 123zM314 601h-80l91 160h116z" />
    <glyph glyph-name="ecircumflex" unicode="&#xea;" horiz-adv-x="529" 
d="M476 232h-332q2 -87 43 -127.5t125 -40.5q79 0 161 31v-71q-72 -39 -176 -39q-123 0 -186 68t-63 201q0 127 63 197.5t176 70.5q95 0 146 -53t51 -152q0 -19 -2 -43t-6 -42zM282 447q-129 0 -138 -149h249q1 6 1 12v14q0 123 -112 123zM454 601h-86l-94 103l-94 -103h-86
l130 161h100z" />
    <glyph glyph-name="edieresis" unicode="&#xeb;" horiz-adv-x="529" 
d="M476 232h-332q2 -87 43 -127.5t125 -40.5q79 0 161 31v-71q-72 -39 -176 -39q-123 0 -186 68t-63 201q0 127 63 197.5t176 70.5q95 0 146 -53t51 -152q0 -19 -2 -43t-6 -42zM282 447q-129 0 -138 -149h249q1 6 1 12v14q0 123 -112 123zM166 594q-27 0 -43 16t-16 42
t16 41.5t43 15.5q28 0 44 -15.5t16 -41.5t-16 -42t-44 -16zM382 594q-28 0 -44 16t-16 42t16 41.5t44 15.5q27 0 43 -15.5t16 -41.5t-16 -42t-43 -16z" />
    <glyph glyph-name="icircumflex" unicode="&#xee;" horiz-adv-x="255" 
d="M177 0h-99v507h99v-507zM307 601h-86l-94 103l-94 -103h-86l130 161h100z" />
    <glyph glyph-name="idieresis" unicode="&#xef;" horiz-adv-x="255" 
d="M177 0h-99v507h99v-507zM19 594q-27 0 -43 16t-16 42t16 41.5t43 15.5q28 0 44 -15.5t16 -41.5t-16 -42t-44 -16zM235 594q-28 0 -44 16t-16 42t16 41.5t44 15.5q27 0 43 -15.5t16 -41.5t-16 -42t-43 -16z" />
    <glyph glyph-name="ocircumflex" unicode="&#xf4;" horiz-adv-x="580" 
d="M290 -15q-112 0 -177 70.5t-65 198.5t65 198t177 70q113 0 177.5 -70t64.5 -198t-64.5 -198.5t-177.5 -70.5zM290 65q69 0 105 46t36 143q0 96 -36 142t-105 46t-105 -46t-36 -142q0 -97 36 -143t105 -46zM470 601h-86l-94 103l-94 -103h-86l130 161h100z" />
    <glyph glyph-name="divide" unicode="&#xf7;" horiz-adv-x="586" 
d="M293 469q-25 0 -41.5 16.5t-16.5 41.5q0 26 16.5 42.5t41.5 16.5q26 0 42 -16.5t16 -42.5t-16 -42t-42 -16zM519 308h-452v80h452v-80zM293 110q-25 0 -41.5 16.5t-16.5 41.5q0 26 16.5 42.5t41.5 16.5q26 0 42 -16t16 -43q0 -25 -16 -41.5t-42 -16.5z" />
    <glyph glyph-name="ugrave" unicode="&#xf9;" horiz-adv-x="575" 
d="M501 0h-82l-11 54q-93 -69 -191 -69q-70 0 -108.5 40t-38.5 113v369h99v-337q0 -55 21.5 -80t66.5 -25q72 0 145 48v394h99v-507zM325 601h-80l-127 160h116z" />
    <glyph glyph-name="ucircumflex" unicode="&#xfb;" horiz-adv-x="575" 
d="M501 0h-82l-11 54q-93 -69 -191 -69q-70 0 -108.5 40t-38.5 113v369h99v-337q0 -55 21.5 -80t66.5 -25q72 0 145 48v394h99v-507zM465 601h-86l-94 103l-94 -103h-86l130 161h100z" />
    <glyph glyph-name="udieresis" unicode="&#xfc;" horiz-adv-x="575" 
d="M501 0h-82l-11 54q-93 -69 -191 -69q-70 0 -108.5 40t-38.5 113v369h99v-337q0 -55 21.5 -80t66.5 -25q72 0 145 48v394h99v-507zM177 594q-27 0 -43 16t-16 42t16 41.5t43 15.5q28 0 44 -15.5t16 -41.5t-16 -42t-44 -16zM393 594q-28 0 -44 16t-16 42t16 41.5t44 15.5
q27 0 43 -15.5t16 -41.5t-16 -42t-43 -16z" />
    <glyph glyph-name="ydieresis" unicode="&#xff;" horiz-adv-x="509" 
d="M192 -56l19 51l-204 512h106l146 -415l141 415h102l-231 -596q-26 -69 -62.5 -99t-92.5 -30q-42 0 -78 14v71q27 -7 57 -7q38 0 59 18.5t38 65.5zM146 594q-27 0 -43 16t-16 42t16 41.5t43 15.5q28 0 44 -15.5t16 -41.5t-16 -42t-44 -16zM362 594q-28 0 -44 16t-16 42
t16 41.5t44 15.5q27 0 43 -15.5t16 -41.5t-16 -42t-43 -16z" />
    <glyph glyph-name="dotlessi" unicode="&#x131;" horiz-adv-x="255" 
d="M177 0h-99v507h99v-507z" />
    <glyph glyph-name="OE" unicode="&#x152;" horiz-adv-x="1065" 
d="M64 346q0 112 38 193t108.5 125t166.5 44q71 0 127.5 -28.5t93.5 -81.5v95h421v-82h-325v-213h272v-82h-272v-234h325v-82h-421v93q-37 -53 -93.5 -81.5t-127.5 -28.5q-97 0 -167 44t-108 125.5t-38 193.5zM169 346q0 -136 55 -206.5t160 -70.5q104 0 159 71.5t55 205.5
t-55 205t-159 71q-105 0 -160 -70.5t-55 -205.5z" />
    <glyph glyph-name="oe" unicode="&#x153;" horiz-adv-x="906" 
d="M678 -15q-77 0 -127.5 29t-76.5 85q-51 -114 -189 -114q-109 0 -173 70.5t-64 198.5t64 198t173 70q69 0 117 -29t73 -85q52 114 192 114q93 0 143.5 -53t50.5 -152q0 -21 -2 -45t-5 -40h-331q2 -87 43.5 -127.5t125.5 -40.5q38 0 78 7.5t81 23.5v-71q-34 -19 -79.5 -29
t-93.5 -10zM662 447q-130 0 -139 -149h250v26q0 123 -111 123zM291 65q67 0 101.5 46t34.5 143q0 96 -34.5 142t-101.5 46q-70 0 -106 -46t-36 -142q0 -97 36 -143t106 -46z" />
    <glyph glyph-name="Ydieresis" unicode="&#x178;" horiz-adv-x="604" 
d="M350 0h-100v255l-236 438h113l175 -355l178 355h110l-240 -440v-253zM197 779q-27 0 -44 16t-17 42t16.5 42t44.5 16q27 0 44 -16t17 -42t-16.5 -42t-44.5 -16zM409 779q-27 0 -44 16t-17 42t16.5 42t44.5 16q27 0 44 -16t17 -42t-16.5 -42t-44.5 -16z" />
    <glyph glyph-name="circumflex" unicode="&#x2c6;" horiz-adv-x="588" 
d="M474 601h-86l-94 103l-94 -103h-86l130 161h100z" />
    <glyph glyph-name="uni02CA" unicode="&#x2ca;" horiz-adv-x="588" 
d="M270 601h-80l91 160h116z" />
    <glyph glyph-name="uni02CB" unicode="&#x2cb;" horiz-adv-x="588" 
d="M397 601h-80l-127 160h116z" />
    <glyph glyph-name="gravecomb" unicode="&#x300;" 
d="M40 601h-80l-127 160h116z" />
    <glyph glyph-name="acutecomb" unicode="&#x301;" 
d="M40 601h-80l91 160h116z" />
    <glyph glyph-name="uni0302" unicode="&#x302;" 
d="M180 601h-86l-94 103l-94 -103h-86l130 161h100z" />
    <glyph glyph-name="uni0308" unicode="&#x308;" 
d="M-108 594q-27 0 -43 16t-16 42t16 41.5t43 15.5q28 0 44 -15.5t16 -41.5t-16 -42t-44 -16zM108 594q-28 0 -44 16t-16 42t16 41.5t44 15.5q27 0 43 -15.5t16 -41.5t-16 -42t-43 -16z" />
    <glyph glyph-name="uni0327" unicode="&#x327;" 
d="M-20 -63q42 0 66.5 -19.5t24.5 -52.5q0 -83 -119 -146l-41 36q39 25 61 50t22 45q0 26 -38 26q-16 0 -37 -3v55q29 9 61 9z" />
    <glyph glyph-name="uni060C" unicode="&#x60c;" horiz-adv-x="238" 
d="M180 25l-19 -16q-14 -12 -25.5 -16.5t-22.5 -4.5q-10 0 -20.5 4.5t-19.5 17.5q-10 14 -16.5 32.5t-6.5 42.5q0 33 22.5 72.5t74.5 87.5l37 -35q-31 -33 -41.5 -56t-10.5 -42q0 -16 9.5 -34.5t38.5 -52.5z" />
    <glyph glyph-name="uni0615" unicode="&#x615;" 
d="M115 600q0 -43 -34 -62t-96 -19q-22 0 -48 1t-47 4l-2 52q9 -2 19.5 -3t21.5 -1q2 25 3 54.5t1 51.5v42l43 10v-39q0 -15 -2.5 -32.5t-6.5 -36.5q18 29 38.5 47t38.5 18q20 0 36 -13.5t25.5 -33.5t9.5 -40zM38 631q-21 0 -37 -13.5t-36 -46.5h11.5h11.5q50 0 71.5 6.5
t21.5 12.5q0 5 -4.5 14.5t-14 18t-24.5 8.5z" />
    <glyph glyph-name="uni061B" unicode="&#x61b;" horiz-adv-x="246" 
d="M182 366l-19 -16q-14 -12 -25.5 -16.5t-22.5 -4.5q-10 0 -20.5 4.5t-19.5 17.5q-10 14 -16.5 32.5t-6.5 42.5q0 33 22.5 72.5t74.5 87.5l37 -35q-31 -33 -41.5 -56t-10.5 -42q0 -16 9.5 -34.5t38.5 -52.5zM119 -16l-69 69v8l69 69h8l69 -69v-8l-69 -69h-8z" />
    <glyph glyph-name="uni061F" unicode="&#x61f;" horiz-adv-x="429" 
d="M285 210h-64v45q0 38 -11.5 62t-43.5 40l-40 20q-42 21 -60 49t-18 74q0 47 24 91t67 73t101 29q96 0 158 -75l-36 -52q-62 38 -118 38q-61 0 -97 -25.5t-36 -55.5q0 -20 15 -35t45 -31l44 -22q42 -22 61 -50t19 -75q0 -19 -2.5 -44.5t-7.5 -55.5zM243 -16l-69 69v8
l69 69h8l69 -69v-8l-69 -69h-8z" />
    <glyph glyph-name="uni0621" unicode="&#x621;" horiz-adv-x="448" 
d="M69 -1l-34 79q23 3 48.5 7t52.5 10q-28 22 -42 52t-14 62q0 42 21.5 80t58.5 62.5t83 24.5q27 0 57.5 -8.5t56.5 -25.5l-20 -58q-27 7 -45.5 9t-35.5 2q-31 0 -58 -10t-43.5 -26t-16.5 -35q0 -25 23.5 -44.5t59 -30.5t69.5 -11q26 0 56.5 7.5t61.5 17.5l-14 -90
q-42 -12 -77 -21t-70 -17.5t-78 -16.5t-100 -19z" />
    <glyph glyph-name="uni0622" unicode="&#x622;" horiz-adv-x="228" 
d="M139 0h-63v620l79 16v-252q0 -23 -1 -61t-2.5 -83.5t-3.5 -91t-4.5 -84.5t-4.5 -64zM218 808l32 -15q-13 -43 -33 -62t-46 -19q-14 0 -28 3.5t-36 10.5q-19 7 -33 10t-29 3q-7 0 -14 -4t-25 -30l-32 15q14 44 34 62.5t45 18.5q16 0 29 -3t35 -11q36 -13 62 -13
q7 0 14 4.5t25 29.5z" />
    <glyph glyph-name="uni0623" unicode="&#x623;" horiz-adv-x="228" 
d="M139 0h-63v620l79 16v-252q0 -23 -1 -61t-2.5 -83.5t-3.5 -91t-4.5 -84.5t-4.5 -64zM206 786l-8 -53q-36 -5 -81.5 -14t-88.5 -20l-19 48q12 3 23 6t25 6q-13 10 -19 25.5t-6 29.5q0 37 25 62.5t63 25.5q32 0 63 -22l-10 -36q-11 3 -24 4.5t-21 1.5q-25 0 -41 -8t-16 -22
q0 -13 12 -23t29.5 -15.5t33.5 -5.5q17 0 32 3.5t28 6.5z" />
    <glyph glyph-name="uni0624" unicode="&#x624;" horiz-adv-x="451" 
d="M399 88q0 -77 -22.5 -134.5t-60.5 -95t-86 -56t-98 -18.5q-31 0 -62.5 3t-53.5 8l-3 61q110 11 178 34.5t101.5 58.5t41.5 82q-24 -12 -55 -20.5t-70 -8.5q-42 0 -78.5 11.5t-59.5 37.5t-23 68q0 71 23 131.5t61 97t83 36.5q53 0 94.5 -38.5t65.5 -105.5t24 -152z
M110 143q0 -23 31 -32t78 -9q40 0 66.5 4.5t46.5 11.5q-7 47 -24.5 85.5t-43 60.5t-56.5 22q-26 0 -48.5 -19t-36 -51.5t-13.5 -72.5zM301 556l-8 -53q-36 -5 -81.5 -14t-88.5 -20l-19 48q12 3 23 6t25 6q-13 10 -19 25.5t-6 29.5q0 37 25 62.5t63 25.5q32 0 63 -22l-10 -36
q-11 3 -24 4.5t-21 1.5q-25 0 -41 -8t-16 -22q0 -13 12 -23t29.5 -15.5t33.5 -5.5q17 0 32 3.5t28 6.5z" />
    <glyph glyph-name="uni0625" unicode="&#x625;" horiz-adv-x="228" 
d="M141 0h-65v692l79 16v-324q0 -23 -1 -61t-2 -83.5t-3 -91t-4 -84.5t-4 -64zM204 -201l-8 -53q-36 -5 -81.5 -14t-88.5 -20l-19 48q13 3 24 6t24 5q-13 11 -19 26.5t-6 29.5q0 37 25 62.5t63 25.5q32 0 63 -22l-10 -36q-11 3 -24 4.5t-21 1.5q-25 0 -41 -8t-16 -22
q0 -13 12 -23t29.5 -15.5t33.5 -5.5q17 0 32 3.5t28 6.5z" />
    <glyph glyph-name="uni0626" unicode="&#x626;" horiz-adv-x="681" 
d="M134 169q-14 -35 -21 -71.5t-7 -59.5q0 -81 56.5 -114.5t174.5 -33.5q77 0 130 16.5t80 39t27 41.5q0 9 -11 16.5t-42 19.5t-92 33q-64 23 -92 48t-28 63t14 77t38.5 71t57.5 51.5t71 19.5q41 0 75.5 -17t58.5 -46l-38 -55q-24 17 -47.5 23t-47.5 6q-32 0 -59.5 -15
t-44 -38t-16.5 -46q0 -14 22 -25t80 -32q56 -20 92.5 -36.5t54.5 -38.5t18 -59q0 -61 -40.5 -110t-110.5 -78t-158 -29q-113 0 -177.5 29.5t-91 79.5t-26.5 111q0 47 16 96t37 82zM207 354l-8 -53q-36 -5 -81.5 -14t-88.5 -20l-19 48q13 3 25.5 6.5t27.5 6.5
q-13 10 -19 25.5t-6 29.5q0 37 25 62.5t63 25.5q32 0 63 -22l-10 -36q-11 3 -24 4.5t-21 1.5q-25 0 -41 -8t-16 -22q0 -13 12 -23t29.5 -15.5t33.5 -5.5q17 0 29.5 3t25.5 6z" />
    <glyph glyph-name="uni0627" unicode="&#x627;" horiz-adv-x="228" 
d="M141 0h-65v692l79 16v-324q0 -23 -1 -61t-2 -83.5t-3 -91t-4 -84.5t-4 -64z" />
    <glyph glyph-name="uni0628" unicode="&#x628;" horiz-adv-x="876" 
d="M416 0q-135 0 -214 21t-113.5 69.5t-34.5 131.5q0 39 13 84.5t32 79.5l51 -18q-10 -29 -16 -64t-6 -60q0 -57 25.5 -88t90.5 -43.5t182 -12.5q95 0 167.5 8.5t113.5 23t41 33.5q0 29 -12.5 82.5t-41.5 151.5l84 31q12 -39 21 -81.5t14.5 -80t5.5 -63.5
q0 -106 -97.5 -155.5t-305.5 -49.5zM367 -139l60 60h8l60 -60v-8l-60 -60h-8l-60 60v8z" />
    <glyph glyph-name="uni0629" unicode="&#x629;" horiz-adv-x="429" 
d="M361 61q-24 -36 -60 -54.5t-98 -18.5q-91 0 -129 36.5t-38 100.5q0 42 34 106t86 131q-13 12 -27 24l39 78q82 -62 129.5 -120t67.5 -105.5t20 -80.5q0 -26 -5 -51.5t-19 -45.5zM99 144q0 -56 109 -56q60 0 87.5 11t27.5 27q0 37 -28.5 83.5t-93.5 110.5
q-45 -57 -73.5 -102t-28.5 -74zM125 531l-60 60v8l60 60h8l60 -60v-8l-60 -60h-8zM265 531l-60 60v8l60 60h8l60 -60v-8l-60 -60h-8z" />
    <glyph glyph-name="uni062A" unicode="&#x62a;" horiz-adv-x="876" 
d="M416 0q-135 0 -214 21t-113.5 69.5t-34.5 131.5q0 39 13 84.5t32 79.5l51 -18q-10 -29 -16 -64t-6 -60q0 -57 25.5 -88t90.5 -43.5t182 -12.5q95 0 167.5 8.5t113.5 23t41 33.5q0 29 -12.5 82.5t-41.5 151.5l84 31q12 -39 21 -81.5t14.5 -80t5.5 -63.5
q0 -106 -97.5 -155.5t-305.5 -49.5zM349 421l-60 60v8l60 60h8l60 -60v-8l-60 -60h-8zM489 421l-60 60v8l60 60h8l60 -60v-8l-60 -60h-8z" />
    <glyph glyph-name="uni062B" unicode="&#x62b;" horiz-adv-x="876" 
d="M416 0q-135 0 -214 21t-113.5 69.5t-34.5 131.5q0 39 13 84.5t32 79.5l51 -18q-10 -29 -16 -64t-6 -60q0 -57 25.5 -88t90.5 -43.5t182 -12.5q95 0 167.5 8.5t113.5 23t41 33.5q0 29 -12.5 82.5t-41.5 151.5l84 31q12 -39 21 -81.5t14.5 -80t5.5 -63.5
q0 -106 -97.5 -155.5t-305.5 -49.5zM419 550l-60 60v8l60 60h8l60 -60v-8l-60 -60h-8zM349 421l-60 60v8l60 60h8l60 -60v-8l-60 -60h-8zM489 421l-60 60v8l60 60h8l60 -60v-8l-60 -60h-8z" />
    <glyph glyph-name="uni062C" unicode="&#x62c;" horiz-adv-x="625" 
d="M602 -230q-46 -34 -115 -59t-157 -25q-80 0 -145.5 26t-104 77.5t-38.5 125.5q0 72 29 128t78.5 97.5t111 71.5t126.5 51q-59 24 -97.5 40t-65 23.5t-49.5 7.5q-20 0 -43 -15.5t-39 -32.5l-47 41q31 43 66 70.5t66 27.5q36 0 81.5 -16.5t92.5 -38.5t86.5 -40.5
t63.5 -22.5q5 -1 20 -1.5t30.5 -1t19.5 -0.5l-18 -85q-90 -13 -170.5 -40t-142.5 -65.5t-97.5 -84t-35.5 -96.5q0 -38 32 -71t88 -52.5t128 -19.5q62 0 112.5 9.5t107.5 29.5zM340 -83l-60 60v8l60 60h8l60 -60v-8l-60 -60h-8z" />
    <glyph glyph-name="uni062D" unicode="&#x62d;" horiz-adv-x="625" 
d="M602 -230q-46 -34 -115 -59t-157 -25q-80 0 -145.5 26t-104 77.5t-38.5 125.5q0 72 29 128t78.5 97.5t111 71.5t126.5 51q-59 24 -97.5 40t-65 23.5t-49.5 7.5q-20 0 -43 -15.5t-39 -32.5l-47 41q31 43 66 70.5t66 27.5q36 0 81.5 -16.5t92.5 -38.5t86.5 -40.5
t63.5 -22.5q5 -1 20 -1.5t30.5 -1t19.5 -0.5l-18 -85q-90 -13 -170.5 -40t-142.5 -65.5t-97.5 -84t-35.5 -96.5q0 -38 32 -71t88 -52.5t128 -19.5q62 0 112.5 9.5t107.5 29.5z" />
    <glyph glyph-name="uni062E" unicode="&#x62e;" horiz-adv-x="625" 
d="M602 -230q-46 -34 -115 -59t-157 -25q-80 0 -145.5 26t-104 77.5t-38.5 125.5q0 72 29 128t78.5 97.5t111 71.5t126.5 51q-59 24 -97.5 40t-65 23.5t-49.5 7.5q-20 0 -43 -15.5t-39 -32.5l-47 41q31 43 66 70.5t66 27.5q36 0 81.5 -16.5t92.5 -38.5t86.5 -40.5
t63.5 -22.5q5 -1 20 -1.5t30.5 -1t19.5 -0.5l-18 -85q-90 -13 -170.5 -40t-142.5 -65.5t-97.5 -84t-35.5 -96.5q0 -38 32 -71t88 -52.5t128 -19.5q62 0 112.5 9.5t107.5 29.5zM291 494l-60 60v8l60 60h8l60 -60v-8l-60 -60h-8z" />
    <glyph glyph-name="uni062F" unicode="&#x62f;" horiz-adv-x="488" 
d="M244 94q64 0 101 10t37 29q0 10 -9.5 30t-33.5 65q-37 70 -66 117.5t-55 85.5l73 54q71 -110 112 -197.5t41 -137.5q0 -69 -53 -112.5t-154 -43.5q-106 0 -154 33.5t-48 94.5q0 24 7 52.5t20 56.5l52 -19q-11 -30 -11 -63q0 -30 32.5 -42.5t108.5 -12.5z" />
    <glyph glyph-name="uni0630" unicode="&#x630;" horiz-adv-x="488" 
d="M244 94q64 0 101 10t37 29q0 10 -9.5 30t-33.5 65q-37 70 -66 117.5t-55 85.5l73 54q71 -110 112 -197.5t41 -137.5q0 -69 -53 -112.5t-154 -43.5q-106 0 -154 33.5t-48 94.5q0 24 7 52.5t20 56.5l52 -19q-11 -30 -11 -63q0 -30 32.5 -42.5t108.5 -12.5zM223 558l-60 60
v8l60 60h8l60 -60v-8l-60 -60h-8z" />
    <glyph glyph-name="uni0631" unicode="&#x631;" horiz-adv-x="377" 
d="M328 88q0 -89 -29 -158t-84.5 -107.5t-134.5 -38.5q-49 0 -88 11l-3 61q84 11 145 36t94.5 69t33.5 112q0 17 -13.5 53.5t-35 84t-45.5 96.5l80 39q13 -24 27 -58.5t26 -72t19.5 -71t7.5 -56.5z" />
    <glyph glyph-name="uni0632" unicode="&#x632;" horiz-adv-x="377" 
d="M328 88q0 -89 -29 -158t-84.5 -107.5t-134.5 -38.5q-49 0 -88 11l-3 61q84 11 145 36t94.5 69t33.5 112q0 17 -13.5 53.5t-35 84t-45.5 96.5l80 39q13 -24 27 -58.5t26 -72t19.5 -71t7.5 -56.5zM188 421l-60 60v8l60 60h8l60 -60v-8l-60 -60h-8z" />
    <glyph glyph-name="uni0633" unicode="&#x633;" horiz-adv-x="1108" 
d="M295 -210q-99 0 -156 29.5t-81 79.5t-24 111q0 47 16 96t37 82l47 -19q-14 -35 -21 -71.5t-7 -59.5q0 -81 49 -114.5t148 -33.5q86 0 139.5 26t53.5 65q0 15 -6.5 45.5t-16.5 69t-21 78t-20 71.5l80 33q4 -11 12.5 -42t17 -67t12.5 -63q16 -5 34 -6.5t38 -1.5
q97 0 102 51l11 140l70 -3l-12 -171q21 -10 45.5 -13.5t52.5 -3.5q35 0 57 8.5t22 18.5q0 30 -7.5 80.5t-26.5 134.5l81 30q10 -39 15.5 -85.5t5.5 -79.5q0 -112 -39 -158.5t-115 -46.5q-32 0 -70 8.5t-68 31.5q-21 -19 -49 -29.5t-67 -10.5q-24 0 -43.5 3t-34.5 9
q-2 -62 -32 -112.5t-87 -80t-142 -29.5z" />
    <glyph glyph-name="uni0634" unicode="&#x634;" horiz-adv-x="1108" 
d="M295 -210q-99 0 -156 29.5t-81 79.5t-24 111q0 47 16 96t37 82l47 -19q-14 -35 -21 -71.5t-7 -59.5q0 -81 49 -114.5t148 -33.5q86 0 139.5 26t53.5 65q0 15 -6.5 45.5t-16.5 69t-21 78t-20 71.5l80 33q4 -11 12.5 -42t17 -67t12.5 -63q16 -5 34 -6.5t38 -1.5
q97 0 102 51l11 140l70 -3l-12 -171q21 -10 45.5 -13.5t52.5 -3.5q35 0 57 8.5t22 18.5q0 30 -7.5 80.5t-26.5 134.5l81 30q10 -39 15.5 -85.5t5.5 -79.5q0 -112 -39 -158.5t-115 -46.5q-32 0 -70 8.5t-68 31.5q-21 -19 -49 -29.5t-67 -10.5q-24 0 -43.5 3t-34.5 9
q-2 -62 -32 -112.5t-87 -80t-142 -29.5zM748 527l-60 60v8l60 60h8l60 -60v-8l-60 -60h-8zM678 398l-60 60v8l60 60h8l60 -60v-8l-60 -60h-8zM818 398l-60 60v8l60 60h8l60 -60v-8l-60 -60h-8z" />
    <glyph glyph-name="uni0635" unicode="&#x635;" horiz-adv-x="1190" 
d="M295 -210q-99 0 -156 29.5t-81 79.5t-24 111q0 47 16 96t37 82l47 -19q-14 -35 -21 -71.5t-7 -59.5q0 -81 49 -114.5t148 -33.5q86 0 139.5 26t53.5 65q0 15 -6.5 45.5t-16.5 69t-21 78t-20 71.5l80 33q4 -11 11.5 -38t15.5 -60.5t13 -61.5q22 -4 52 -8q58 86 122 152.5
t125.5 104.5t113.5 38q44 0 76.5 -19.5t55 -51.5t33.5 -68t11 -69q0 -106 -99.5 -151.5t-285.5 -45.5q-46 0 -102 4.5t-98 12.5q-1 -64 -30.5 -115.5t-87 -81.5t-143.5 -30zM954 303q-65 0 -130.5 -46.5t-154.5 -152.5q51 -4 90 -4q171 0 249 23.5t78 48.5t-18.5 55.5
t-48.5 53t-65 22.5z" />
    <glyph glyph-name="uni0636" unicode="&#x636;" horiz-adv-x="1190" 
d="M295 -210q-99 0 -156 29.5t-81 79.5t-24 111q0 47 16 96t37 82l47 -19q-14 -35 -21 -71.5t-7 -59.5q0 -81 49 -114.5t148 -33.5q86 0 139.5 26t53.5 65q0 15 -6.5 45.5t-16.5 69t-21 78t-20 71.5l80 33q4 -11 11.5 -38t15.5 -60.5t13 -61.5q22 -4 52 -8q58 86 122 152.5
t125.5 104.5t113.5 38q44 0 76.5 -19.5t55 -51.5t33.5 -68t11 -69q0 -106 -99.5 -151.5t-285.5 -45.5q-46 0 -102 4.5t-98 12.5q-1 -64 -30.5 -115.5t-87 -81.5t-143.5 -30zM954 303q-65 0 -130.5 -46.5t-154.5 -152.5q51 -4 90 -4q171 0 249 23.5t78 48.5t-18.5 55.5
t-48.5 53t-65 22.5zM945 489l-60 60v8l60 60h8l60 -60v-8l-60 -60h-8z" />
    <glyph glyph-name="uni0637" unicode="&#x637;" horiz-adv-x="720" 
d="M286 0q-63 0 -132 3t-122 9l-7 96q37 -3 103 -5q23 33 47 64q4 62 5 132t1 149v244l79 16v-251q0 -63 -4 -113.5t-14 -96.5q66 72 132 115t121 43q44 0 76.5 -19.5t55 -51.5t33.5 -68t11 -69q0 -106 -99.5 -151.5t-285.5 -45.5zM484 303q-65 0 -131.5 -47t-156.5 -155
q22 -1 45.5 -1h47.5q171 0 249 23.5t78 48.5t-18.5 55.5t-48.5 53t-65 22.5z" />
    <glyph glyph-name="uni0638" unicode="&#x638;" horiz-adv-x="720" 
d="M286 0q-63 0 -132 3t-122 9l-7 96q37 -3 103 -5q23 33 47 64q4 62 5 132t1 149v244l79 16v-251q0 -63 -4 -113.5t-14 -96.5q66 72 132 115t121 43q44 0 76.5 -19.5t55 -51.5t33.5 -68t11 -69q0 -106 -99.5 -151.5t-285.5 -45.5zM484 303q-65 0 -131.5 -47t-156.5 -155
q22 -1 45.5 -1h47.5q171 0 249 23.5t78 48.5t-18.5 55.5t-48.5 53t-65 22.5zM480 489l-60 60v8l60 60h8l60 -60v-8l-60 -60h-8z" />
    <glyph glyph-name="uni0639" unicode="&#x639;" horiz-adv-x="531" 
d="M579 -229q-39 -31 -105.5 -58t-155.5 -27q-78 0 -143.5 26.5t-105 78t-39.5 125.5q0 89 43 152.5t121 108.5q-48 22 -79.5 60.5t-31.5 90.5q0 44 24 84.5t67.5 66.5t100.5 26q32 0 63.5 -9t59.5 -28l-18 -61q-33 7 -54 9t-35 2q-62 0 -103.5 -22.5t-41.5 -58.5
q0 -17 16.5 -34t42.5 -32t55 -25t54 -12q31 7 68 13.5t74 12.5l-13 -95q-124 -24 -200.5 -61.5t-111.5 -81.5t-35 -87q0 -38 34 -71.5t89 -53.5t119 -20t117.5 11t96.5 28z" />
    <glyph glyph-name="uni063A" unicode="&#x63a;" horiz-adv-x="531" 
d="M579 -229q-39 -31 -105.5 -58t-155.5 -27q-78 0 -143.5 26.5t-105 78t-39.5 125.5q0 89 43 152.5t121 108.5q-48 22 -79.5 60.5t-31.5 90.5q0 44 24 84.5t67.5 66.5t100.5 26q32 0 63.5 -9t59.5 -28l-18 -61q-33 7 -54 9t-35 2q-62 0 -103.5 -22.5t-41.5 -58.5
q0 -17 16.5 -34t42.5 -32t55 -25t54 -12q31 7 68 13.5t74 12.5l-13 -95q-124 -24 -200.5 -61.5t-111.5 -81.5t-35 -87q0 -38 34 -71.5t89 -53.5t119 -20t117.5 11t96.5 28zM251 588l-60 60v8l60 60h8l60 -60v-8l-60 -60h-8z" />
    <glyph glyph-name="uni0640" unicode="&#x640;" horiz-adv-x="328" 
d="M0 100h328l21 -7v-86l-21 -7h-328l-21 7v86z" />
    <glyph glyph-name="uni0641" unicode="&#x641;" horiz-adv-x="867" 
d="M419 0q-136 0 -216 21t-114.5 69.5t-34.5 131.5q0 39 12.5 84t32.5 80l51 -18q-10 -29 -16 -63.5t-6 -60.5q0 -57 25.5 -88t91 -43.5t183.5 -12.5q163 0 236.5 16t73.5 51v56q-56 -30 -125 -30q-70 0 -111.5 32t-41.5 86q0 69 22.5 127t60.5 93t82 35q52 0 93 -41
t65 -111.5t24 -160.5q0 -67 -11.5 -111t-37.5 -70q-36 -37 -119 -54.5t-220 -17.5zM520 331q0 -41 109 -41q60 0 105 14q-10 75 -42 120t-77 45q-40 0 -67.5 -39.5t-27.5 -98.5zM611 648l-60 60v8l60 60h8l60 -60v-8l-60 -60h-8z" />
    <glyph glyph-name="uni0642" unicode="&#x642;" horiz-adv-x="688" 
d="M327 -210q-150 0 -221.5 54t-71.5 166q0 42 15 91.5t38 86.5l47 -19q-12 -30 -20 -67t-8 -64q0 -80 52 -114t176 -34q69 0 122.5 11t84 30.5t30.5 44.5v56q-59 -30 -124 -30q-78 0 -121 31t-43 86q0 71 23 131.5t61 97t83 36.5q55 0 97.5 -42t67 -115t24.5 -168
q0 -62 -6.5 -97.5t-23.5 -62.5q-67 -109 -282 -109zM345 143q0 -41 109 -41q66 0 111 15q-5 49 -22.5 87t-43 60t-56.5 22q-27 0 -49 -19.5t-35.5 -51.5t-13.5 -72zM369 469l-60 60v8l60 60h8l60 -60v-8l-60 -60h-8zM509 469l-60 60v8l60 60h8l60 -60v-8l-60 -60h-8z" />
    <glyph glyph-name="uni0643" unicode="&#x643;" horiz-adv-x="807" 
d="M128 244q0 -44 11.5 -72.5t41.5 -44t84.5 -21.5t140.5 -6q72 0 129.5 9t91 24t33.5 34v525l79 16v-451q0 -90 -23 -138.5t-79 -75.5q-33 -16 -68.5 -25.5t-79 -13.5t-103.5 -4q-126 0 -198.5 20.5t-103 69t-30.5 132.5q0 39 13 85.5t33 81.5l50 -21q-9 -28 -15.5 -63.5
t-6.5 -60.5zM397 378q-32 13 -46 24.5t-14 30.5q0 29 19.5 50t51.5 36.5t70 25.5l15 -60q-64 -15 -86.5 -22.5t-22.5 -13.5q0 -3 11.5 -8.5t40.5 -17.5q35 -14 48.5 -26t13.5 -35q0 -46 -44 -72t-133 -26l-8 64q62 2 101 7.5t39 12.5q0 5 -9 9.5t-47 20.5z" />
    <glyph glyph-name="uni0644" unicode="&#x644;" horiz-adv-x="627" 
d="M295 -210q-99 0 -156 29.5t-81 79.5t-24 111q0 47 16 96t37 82l47 -19q-14 -35 -21 -71.5t-7 -59.5q0 -81 49 -114.5t148 -33.5q58 0 97 12t58.5 29t19.5 31l-4 730l79 16v-661q0 -57 -10 -99.5t-35 -74.5q-63 -83 -213 -83z" />
    <glyph glyph-name="uni0645" unicode="&#x645;" horiz-adv-x="499" 
d="M85 -311l-75 -20v303q0 16 9 37.5t23.5 42.5t31 34.5t31.5 13.5h6q1 65 13 127.5t53 112.5q16 19 41 32.5t56 13.5q36 0 68.5 -21t58 -56t40 -77.5t14.5 -85.5q0 -42 -20 -77.5t-56 -57t-84 -21.5q-70 0 -121 4.5t-89 6.5v-312zM263 288q-37 0 -64.5 -49.5t-27.5 -140.5
q31 -2 61.5 -4t53.5 -3.5t30 -1.5q75 0 75 25q0 26 -12 56t-31.5 57t-41.5 44t-43 17z" />
    <glyph glyph-name="uni0646" unicode="&#x646;" horiz-adv-x="605" 
d="M560 28q0 -66 -30 -120t-89 -86t-146 -32q-102 0 -159 30t-79.5 80t-22.5 110q0 47 16 96t37 82l47 -19q-14 -35 -21 -71.5t-7 -59.5q0 -81 49 -114.5t148 -33.5q70 0 112 17t61 40.5t19 42.5q0 14 -7.5 47.5t-18.5 75t-22 80t-18 62.5l80 33q29 -88 40 -155.5t11 -104.5
zM273 298l-60 60v8l60 60h8l60 -60v-8l-60 -60h-8z" />
    <glyph glyph-name="uni0647" unicode="&#x647;" horiz-adv-x="429" 
d="M361 61q-24 -36 -60 -54.5t-98 -18.5q-91 0 -129 36.5t-38 100.5q0 42 34 106t86 131q-13 12 -27 24l39 78q82 -62 129.5 -120t67.5 -105.5t20 -80.5q0 -26 -5 -51.5t-19 -45.5zM99 144q0 -56 109 -56q60 0 87.5 11t27.5 27q0 37 -28.5 83.5t-93.5 110.5
q-45 -57 -73.5 -102t-28.5 -74z" />
    <glyph glyph-name="uni0648" unicode="&#x648;" horiz-adv-x="451" 
d="M399 88q0 -77 -22.5 -134.5t-60.5 -95t-86 -56t-98 -18.5q-31 0 -62.5 3t-53.5 8l-3 61q110 11 178 34.5t101.5 58.5t41.5 82q-24 -12 -55 -20.5t-70 -8.5q-42 0 -78.5 11.5t-59.5 37.5t-23 68q0 71 23 131.5t61 97t83 36.5q53 0 94.5 -38.5t65.5 -105.5t24 -152z
M110 143q0 -23 31 -32t78 -9q40 0 66.5 4.5t46.5 11.5q-7 47 -24.5 85.5t-43 60.5t-56.5 22q-26 0 -48.5 -19t-36 -51.5t-13.5 -72.5z" />
    <glyph glyph-name="uni0649" unicode="&#x649;" horiz-adv-x="681" 
d="M134 169q-14 -35 -21 -71.5t-7 -59.5q0 -81 56.5 -114.5t174.5 -33.5q77 0 130 16.5t80 39t27 41.5q0 9 -11 16.5t-42 19.5t-92 33q-64 23 -92 48t-28 63t14 77t38.5 71t57.5 51.5t71 19.5q41 0 75.5 -17t58.5 -46l-38 -55q-24 17 -47.5 23t-47.5 6q-32 0 -59.5 -15
t-44 -38t-16.5 -46q0 -14 22 -25t80 -32q56 -20 92.5 -36.5t54.5 -38.5t18 -59q0 -61 -40.5 -110t-110.5 -78t-158 -29q-113 0 -177.5 29.5t-91 79.5t-26.5 111q0 47 16 96t37 82z" />
    <glyph glyph-name="uni064A" unicode="&#x64a;" horiz-adv-x="681" 
d="M134 169q-14 -35 -21 -71.5t-7 -59.5q0 -81 56.5 -114.5t174.5 -33.5q77 0 130 16.5t80 39t27 41.5q0 9 -11 16.5t-42 19.5t-92 33q-64 23 -92 48t-28 63t14 77t38.5 71t57.5 51.5t71 19.5q41 0 75.5 -17t58.5 -46l-38 -55q-24 17 -47.5 23t-47.5 6q-32 0 -59.5 -15
t-44 -38t-16.5 -46q0 -14 22 -25t80 -32q56 -20 92.5 -36.5t54.5 -38.5t18 -59q0 -61 -40.5 -110t-110.5 -78t-158 -29q-113 0 -177.5 29.5t-91 79.5t-26.5 111q0 47 16 96t37 82zM200 -343l60 60h8l60 -60v-8l-60 -60h-8l-60 60v8zM340 -343l60 60h8l60 -60v-8l-60 -60h-8
l-60 60v8z" />
    <glyph glyph-name="uni064B" unicode="&#x64b;" 
d="M104 613v-52q-39 -8 -89 -20.5t-119 -29.5v51q62 17 115 30.5t93 20.5zM104 724v-52q-39 -8 -89 -20.5t-119 -29.5v51q62 17 115 30.5t93 20.5z" />
    <glyph glyph-name="uni064C" unicode="&#x64c;" 
d="M124 642q0 -37 -21.5 -65.5t-57.5 -45t-82 -16.5h-17t-17 1l-21 48q9 13 9 33q0 11 -5 18.5t-19 7.5q-17 0 -35 -12l-16 25q27 32 64 32q22 0 36.5 -17.5t14.5 -41.5t-9 -47h14q39 0 67 8q-22 12 -31.5 30t-9.5 39q0 32 23 54t48 22q31 0 48 -21t17 -52zM23 644
q0 -17 15 -29.5t38 -17.5q10 12 10 29q0 19 -11 32t-26 13q-11 0 -18.5 -6.5t-7.5 -20.5z" />
    <glyph glyph-name="uni064D" unicode="&#x64d;" 
d="M104 -87v-52q-39 -8 -89 -20.5t-119 -29.5v51q62 17 115 30.5t93 20.5zM104 -198v-52q-39 -8 -89 -20.5t-119 -29.5v51q62 17 115 30.5t93 20.5z" />
    <glyph glyph-name="uni064E" unicode="&#x64e;" 
d="M104 613v-52q-39 -8 -89 -20.5t-119 -29.5v51q62 17 115 30.5t93 20.5z" />
    <glyph glyph-name="uni064F" unicode="&#x64f;" 
d="M94 634q0 -36 -21 -64.5t-57 -45t-80 -16.5q-18 0 -32 3l-8 47q7 -1 14 -1.5t15 -0.5q36 0 63 6q-20 12 -29 30t-9 38q0 33 24.5 55t50.5 22q33 0 51 -21t18 -52zM-15 636q0 -17 16 -29.5t41 -19.5q14 14 14 31q0 19 -12 32t-29 13q-13 0 -21.5 -6.5t-8.5 -20.5z" />
    <glyph glyph-name="uni0650" unicode="&#x650;" 
d="M104 -87v-52q-39 -8 -89 -20.5t-119 -29.5v51q62 17 115 30.5t93 20.5z" />
    <glyph glyph-name="uni0651" unicode="&#x651;" 
d="M53 525q-33 0 -57 20q-10 -17 -24.5 -23.5t-33.5 -6.5q-29 0 -48 19t-19 53q0 21 5 39.5t12 36.5l31 -8q-3 -16 -5 -28.5t-2 -25.5q0 -16 8 -24t27 -8q14 0 24.5 7.5t9.5 20.5l-5 64l39 5l6 -79q13 -8 37 -8q15 0 23.5 5t8.5 9q0 6 -3 21.5t-8 33.5t-10 31l45 17
q9 -23 12.5 -46.5t3.5 -38.5q0 -30 -19.5 -58t-57.5 -28z" />
    <glyph glyph-name="uni0652" unicode="&#x652;" 
d="M80 604q0 -43 -21 -66t-63 -23q-35 0 -55.5 22t-20.5 62q0 27 11 51.5t29.5 40.5t40.5 16q36 0 57.5 -31.5t21.5 -71.5zM45 592q0 26 -13 43.5t-33 17.5q-21 0 -32.5 -14t-11.5 -35q0 -16 11.5 -25.5t33.5 -9.5q20 0 32.5 6.5t12.5 16.5z" />
    <glyph glyph-name="uni0653" unicode="&#x653;" 
d="M105 616l32 -15q-13 -43 -33 -62t-46 -19q-14 0 -28 3.5t-36 10.5q-19 7 -33 10t-29 3q-7 0 -14 -4t-25 -30l-32 15q14 44 34 62.5t45 18.5q16 0 29 -3t35 -11q36 -13 62 -13q7 0 14 4.5t25 29.5z" />
    <glyph glyph-name="uni0654" unicode="&#x654;" 
d="M93 594l-8 -53q-36 -5 -81.5 -14t-88.5 -20l-19 48q12 3 23 6t25 6q-13 10 -19 25.5t-6 29.5q0 37 25 62.5t63 25.5q32 0 63 -22l-10 -36q-11 3 -24 4.5t-21 1.5q-25 0 -41 -8t-16 -22q0 -13 12 -23t29.5 -15.5t33.5 -5.5q17 0 32 3.5t28 6.5z" />
    <glyph glyph-name="uni0655" unicode="&#x655;" 
d="M96 -214l-8 -53q-36 -5 -81.5 -14t-88.5 -20l-19 48q13 3 24 6t24 5q-13 11 -19 26.5t-6 29.5q0 37 25 62.5t63 25.5q32 0 63 -22l-10 -36q-11 3 -24 4.5t-21 1.5q-25 0 -41 -8t-16 -22q0 -13 12 -23t29.5 -15.5t33.5 -5.5q17 0 32 3.5t28 6.5z" />
    <glyph glyph-name="uni0656" unicode="&#x656;" 
d="M19 -290h-45v178l53 8v-88q0 -9 -1.5 -28.5t-3.5 -39t-3 -30.5z" />
    <glyph glyph-name="uni0658" unicode="&#x658;" 
d="M61 651l44 -8q0 -70 -29.5 -99t-75.5 -29t-75 30.5t-28 97.5l44 8q0 -46 14.5 -61t44.5 -15t45.5 13.5t15.5 62.5z" />
    <glyph glyph-name="uni065C" unicode="&#x65c;" 
d="M-64 -152l60 60h8l60 -60v-8l-60 -60h-8l-60 60v8z" />
    <glyph glyph-name="uni0660" unicode="&#x660;" horiz-adv-x="586" 
d="M268 199l-71 71v9l71 71h9l71 -71v-9l-71 -71h-9z" />
    <glyph glyph-name="uni0661" unicode="&#x661;" horiz-adv-x="586" 
d="M273 0q-1 101 -10.5 210.5t-26.5 215.5t-41 193l80 29q25 -90 39.5 -187t21.5 -185t7 -152q0 -39 -1 -73t-3 -51h-66z" />
    <glyph glyph-name="uni0662" unicode="&#x662;" horiz-adv-x="586" 
d="M183 0q-1 101 -10.5 210.5t-26.5 215.5t-41 193l80 29q19 -68 31.5 -110t33.5 -60.5t65 -18.5q28 0 54 15t46 55t30 116l61 -9q-12 -129 -55.5 -201.5t-134.5 -72.5q-22 0 -42 4t-37 15q5 -53 10.5 -121t5.5 -136q0 -39 -1 -73t-3 -51h-66z" />
    <glyph glyph-name="uni0663" unicode="&#x663;" horiz-adv-x="586" 
d="M126 0q-1 109 -11 220.5t-27 214.5t-40 184l80 29q15 -61 26 -98.5t21.5 -56.5t24.5 -25.5t35 -6.5q68 0 70 64l2 115l64 2l-3 -156q18 -9 37 -9q43 0 64.5 39t22.5 129l54 -5v-13q0 -109 -37 -175t-109 -66q-42 0 -69 22q-36 -42 -87 -42q-22 0 -38 4t-27 11
q7 -67 10.5 -112t5 -78.5t1.5 -66.5q0 -46 -1 -77.5t-3 -46.5h-66z" />
    <glyph glyph-name="uni0664" unicode="&#x664;" horiz-adv-x="586" 
d="M487 11q-37 -9 -71 -13.5t-83 -4.5q-76 0 -125 21.5t-72.5 57.5t-23.5 78q0 39 24.5 81t91.5 75q-57 18 -90 53t-33 83q0 51 40 95.5t111 76.5t164 43l-12 -93q-63 -8 -118 -26t-88.5 -40.5t-33.5 -44.5q0 -31 61.5 -56.5t173.5 -27.5l-4 -74q-109 -24 -166 -58t-57 -72
q0 -28 45.5 -52t133.5 -24q35 0 74 4.5t70 13.5z" />
    <glyph glyph-name="uni0665" unicode="&#x665;" horiz-adv-x="586" 
d="M505 254q0 -93 -55.5 -148.5t-161.5 -55.5q-112 0 -159.5 46t-47.5 132q0 78 16 149t45 126t67.5 86.5t82.5 31.5q50 0 89 -31.5t67 -84.5t42.5 -118.5t14.5 -132.5zM434 205q0 62 -11.5 118.5t-31.5 101t-47 70.5t-58 26q-44 0 -75.5 -40t-48 -103.5t-16.5 -135.5
q0 -46 39 -69t113 -23q64 0 100 17t36 38z" />
    <glyph glyph-name="uni0666" unicode="&#x666;" horiz-adv-x="586" 
d="M368 0q-17 86 -25 217t-8 327q-10 -1 -21.5 -1h-34.5q-60 0 -119 5t-105 14l15 92q48 -7 92.5 -11t92 -6t104.5 -2h55v-47q0 -170 10.5 -316.5t32.5 -271.5h-89z" />
    <glyph glyph-name="uni0667" unicode="&#x667;" horiz-adv-x="586" 
d="M262 0q-58 176 -114.5 327t-121.5 288l88 37q56 -128 102 -262.5t90 -278.5q22 83 41.5 153t40 133.5t44 125.5t51.5 129l78 -29q-32 -80 -59.5 -151t-52.5 -142.5t-51 -151.5t-55 -178h-81z" />
    <glyph glyph-name="uni0668" unicode="&#x668;" horiz-adv-x="586" 
d="M244 646h81q58 -175 115 -326.5t121 -288.5l-88 -37q-56 128 -102 262.5t-90 278.5q-22 -83 -41.5 -153t-40 -133.5t-44 -125.5t-51.5 -129l-78 29q32 80 59.5 151t52.5 142.5t51 151.5t55 178z" />
    <glyph glyph-name="uni0669" unicode="&#x669;" horiz-adv-x="586" 
d="M410 0q-5 32 -10.5 78t-10.5 96t-8 97q-28 -14 -61 -21t-78 -7q-82 0 -126.5 36t-44.5 103q0 51 14 99.5t39.5 87t59 61t71.5 22.5q77 0 130 -76.5t68 -233.5q8 -80 14 -138t13 -106t16 -98h-86zM136 397q0 -28 28 -41t89 -13q30 0 61.5 3.5t59.5 10.5q-9 96 -46 145.5
t-82 49.5q-29 0 -54 -21t-40.5 -56t-15.5 -78z" />
    <glyph glyph-name="uni066A" unicode="&#x66a;" horiz-adv-x="749" 
d="M133 -8l-56 50l528 635l56 -50zM157 529l-69 69v9l69 70h9l70 -70v-9l-70 -69h-9zM571 -8l-69 69v9l69 70h9l70 -70v-9l-70 -69h-9z" />
    <glyph glyph-name="uni066B" unicode="&#x66b;" horiz-adv-x="230" 
d="M50 75l19 16q14 12 25.5 16.5t22.5 4.5q10 0 20.5 -4.5t19.5 -17.5q10 -13 16.5 -32t6.5 -43q0 -33 -22 -72.5t-75 -87.5l-37 35q32 33 42 56t10 42q0 16 -9.5 34.5t-38.5 52.5z" />
    <glyph glyph-name="uni066C" unicode="&#x66c;" horiz-adv-x="238" 
d="M180 25l-19 -16q-14 -12 -25.5 -16.5t-22.5 -4.5q-10 0 -20.5 4.5t-19.5 17.5q-10 14 -16.5 32.5t-6.5 42.5q0 33 22.5 72.5t74.5 87.5l37 -35q-31 -33 -41.5 -56t-10.5 -42q0 -16 9.5 -34.5t38.5 -52.5z" />
    <glyph glyph-name="uni066D" unicode="&#x66d;" horiz-adv-x="414" 
d="M321 322l-21 -12l-93 86l-93 -86l-21 12l53 120l-107 60l6 23l124 -12l26 124h24l26 -124l123 12l7 -23l-107 -60z" />
    <glyph glyph-name="uni066E" unicode="&#x66e;" horiz-adv-x="876" 
d="M416 0q-135 0 -214 21t-113.5 69.5t-34.5 131.5q0 39 13 84.5t32 79.5l51 -18q-10 -29 -16 -64t-6 -60q0 -57 25.5 -88t90.5 -43.5t182 -12.5q95 0 167.5 8.5t113.5 23t41 33.5q0 29 -12.5 82.5t-41.5 151.5l84 31q12 -39 21 -81.5t14.5 -80t5.5 -63.5
q0 -106 -97.5 -155.5t-305.5 -49.5z" />
    <glyph glyph-name="uni066F" unicode="&#x66f;" horiz-adv-x="688" 
d="M327 -210q-150 0 -221.5 54t-71.5 166q0 42 15 91.5t38 86.5l47 -19q-12 -30 -20 -67t-8 -64q0 -80 52 -114t176 -34q69 0 122.5 11t84 30.5t30.5 44.5v56q-59 -30 -124 -30q-78 0 -121 31t-43 86q0 71 23 131.5t61 97t83 36.5q55 0 97.5 -42t67 -115t24.5 -168
q0 -62 -6.5 -97.5t-23.5 -62.5q-67 -109 -282 -109zM345 143q0 -41 109 -41q66 0 111 15q-5 49 -22.5 87t-43 60t-56.5 22q-27 0 -49 -19.5t-35.5 -51.5t-13.5 -72z" />
    <glyph glyph-name="uni0670" unicode="&#x670;" 
d="M19 519h-45v178l53 8v-88q0 -9 -1.5 -28.5t-3.5 -39t-3 -30.5z" />
    <glyph glyph-name="uni0671" unicode="&#x671;" horiz-adv-x="228" 
d="M139 0h-63v620l79 16v-252q0 -23 -1 -61t-2.5 -83.5t-3.5 -91t-4.5 -84.5t-4.5 -64zM139 711q-23 0 -39.5 5.5t-30 11t-30.5 5.5q-5 0 -10.5 -5t-20.5 -25l-32 15q12 37 30.5 53.5t40.5 16.5h4q23 42 51 69.5t55 27.5q19 0 35 -14t26 -35t10 -42q0 -46 -26.5 -64.5
t-62.5 -18.5zM153 829q-17 0 -33 -11t-35 -41q14 -5 30 -9.5t31 -4.5q23 0 35.5 7t12.5 14q0 5 -5 16t-14 20t-22 9z" />
    <glyph glyph-name="uni0679" unicode="&#x679;" horiz-adv-x="876" 
d="M416 0q-135 0 -214 21t-113.5 69.5t-34.5 131.5q0 39 13 84.5t32 79.5l51 -18q-10 -29 -16 -64t-6 -60q0 -57 25.5 -88t90.5 -43.5t182 -12.5q95 0 167.5 8.5t113.5 23t41 33.5q0 29 -12.5 82.5t-41.5 151.5l84 31q12 -39 21 -81.5t14.5 -80t5.5 -63.5
q0 -106 -97.5 -155.5t-305.5 -49.5zM538 514q0 -43 -34 -62t-96 -19q-22 0 -48 1t-47 4l-2 52q9 -2 19.5 -3t21.5 -1q2 25 3 54.5t1 51.5v42l43 10v-39q0 -15 -2.5 -32.5t-6.5 -36.5q18 29 38.5 47t38.5 18q20 0 36 -13.5t25.5 -33.5t9.5 -40zM461 545q-21 0 -37 -13.5
t-36 -46.5h11.5h11.5q50 0 71.5 6.5t21.5 12.5q0 5 -4.5 14.5t-14 18t-24.5 8.5z" />
    <glyph glyph-name="uni067E" unicode="&#x67e;" horiz-adv-x="876" 
d="M416 0q-135 0 -214 21t-113.5 69.5t-34.5 131.5q0 39 13 84.5t32 79.5l51 -18q-10 -29 -16 -64t-6 -60q0 -57 25.5 -88t90.5 -43.5t182 -12.5q95 0 167.5 8.5t113.5 23t41 33.5q0 29 -12.5 82.5t-41.5 151.5l84 31q12 -39 21 -81.5t14.5 -80t5.5 -63.5
q0 -106 -97.5 -155.5t-305.5 -49.5zM297 -138l60 60h8l60 -60v-8l-60 -60h-8l-60 60v8zM437 -138l60 60h8l60 -60v-8l-60 -60h-8l-60 60v8zM367 -267l60 60h8l60 -60v-8l-60 -60h-8l-60 60v8z" />
    <glyph glyph-name="uni0686" unicode="&#x686;" horiz-adv-x="625" 
d="M602 -230q-46 -34 -115 -59t-157 -25q-80 0 -145.5 26t-104 77.5t-38.5 125.5q0 72 29 128t78.5 97.5t111 71.5t126.5 51q-59 24 -97.5 40t-65 23.5t-49.5 7.5q-20 0 -43 -15.5t-39 -32.5l-47 41q31 43 66 70.5t66 27.5q36 0 81.5 -16.5t92.5 -38.5t86.5 -40.5
t63.5 -22.5q5 -1 20 -1.5t30.5 -1t19.5 -0.5l-18 -85q-90 -13 -170.5 -40t-142.5 -65.5t-97.5 -84t-35.5 -96.5q0 -38 32 -71t88 -52.5t128 -19.5q62 0 112.5 9.5t107.5 29.5zM282 -30l-46 46v8l46 46h9l46 -46v-8l-46 -46h-9zM395 -30l-46 46v8l46 46h8l46 -46v-8l-46 -46
h-8zM339 -135l-46 46v8l46 46h8l46 -46v-8l-46 -46h-8z" />
    <glyph glyph-name="uni0688" unicode="&#x688;" horiz-adv-x="488" 
d="M244 94q64 0 101 10t37 29q0 10 -9.5 30t-33.5 65q-37 70 -66 117.5t-55 85.5l73 54q71 -110 112 -197.5t41 -137.5q0 -69 -53 -112.5t-154 -43.5q-106 0 -154 33.5t-48 94.5q0 24 7 52.5t20 56.5l52 -19q-11 -30 -11 -63q0 -30 32.5 -42.5t108.5 -12.5zM342 651
q0 -43 -34 -62t-96 -19q-22 0 -48 1t-47 4l-2 52q9 -2 19.5 -3t21.5 -1q2 25 3 54.5t1 51.5v42l43 10v-39q0 -15 -2.5 -32.5t-6.5 -36.5q18 29 38.5 47t38.5 18q20 0 36 -13.5t25.5 -33.5t9.5 -40zM265 682q-21 0 -37 -13.5t-36 -46.5h11.5h11.5q50 0 71.5 6.5t21.5 12.5
q0 5 -4.5 14.5t-14 18t-24.5 8.5z" />
    <glyph glyph-name="uni0691" unicode="&#x691;" horiz-adv-x="377" 
d="M328 88q0 -89 -29 -158t-84.5 -107.5t-134.5 -38.5q-49 0 -88 11l-3 61q84 11 145 36t94.5 69t33.5 112q0 17 -13.5 53.5t-35 84t-45.5 96.5l80 39q13 -24 27 -58.5t26 -72t19.5 -71t7.5 -56.5zM307 514q0 -43 -34 -62t-96 -19q-22 0 -48 1t-47 4l-2 52q9 -2 19.5 -3
t21.5 -1q2 25 3 54.5t1 51.5v42l43 10v-39q0 -15 -2.5 -32.5t-6.5 -36.5q18 29 38.5 47t38.5 18q20 0 36 -13.5t25.5 -33.5t9.5 -40zM230 545q-21 0 -37 -13.5t-36 -46.5h11.5h11.5q50 0 71.5 6.5t21.5 12.5q0 5 -4.5 14.5t-14 18t-24.5 8.5z" />
    <glyph glyph-name="uni0698" unicode="&#x698;" horiz-adv-x="377" 
d="M328 88q0 -89 -29 -158t-84.5 -107.5t-134.5 -38.5q-49 0 -88 11l-3 61q84 11 145 36t94.5 69t33.5 112q0 17 -13.5 53.5t-35 84t-45.5 96.5l80 39q13 -24 27 -58.5t26 -72t19.5 -71t7.5 -56.5zM188 550l-60 60v8l60 60h8l60 -60v-8l-60 -60h-8zM118 421l-60 60v8l60 60
h8l60 -60v-8l-60 -60h-8zM258 421l-60 60v8l60 60h8l60 -60v-8l-60 -60h-8z" />
    <glyph glyph-name="uni06A1" unicode="&#x6a1;" horiz-adv-x="867" 
d="M419 0q-136 0 -216 21t-114.5 69.5t-34.5 131.5q0 39 12.5 84t32.5 80l51 -18q-10 -29 -16 -63.5t-6 -60.5q0 -57 25.5 -88t91 -43.5t183.5 -12.5q163 0 236.5 16t73.5 51v56q-56 -30 -125 -30q-70 0 -111.5 32t-41.5 86q0 69 22.5 127t60.5 93t82 35q52 0 93 -41
t65 -111.5t24 -160.5q0 -67 -11.5 -111t-37.5 -70q-36 -37 -119 -54.5t-220 -17.5zM520 331q0 -41 109 -41q60 0 105 14q-10 75 -42 120t-77 45q-40 0 -67.5 -39.5t-27.5 -98.5z" />
    <glyph glyph-name="uni06A4" unicode="&#x6a4;" horiz-adv-x="867" 
d="M419 0q-136 0 -216 21t-114.5 69.5t-34.5 131.5q0 39 12.5 84t32.5 80l51 -18q-10 -29 -16 -63.5t-6 -60.5q0 -57 25.5 -88t91 -43.5t183.5 -12.5q163 0 236.5 16t73.5 51v56q-56 -30 -125 -30q-70 0 -111.5 32t-41.5 86q0 69 22.5 127t60.5 93t82 35q52 0 93 -41
t65 -111.5t24 -160.5q0 -67 -11.5 -111t-37.5 -70q-36 -37 -119 -54.5t-220 -17.5zM520 331q0 -41 109 -41q60 0 105 14q-10 75 -42 120t-77 45q-40 0 -67.5 -39.5t-27.5 -98.5zM611 777l-60 60v8l60 60h8l60 -60v-8l-60 -60h-8zM541 648l-60 60v8l60 60h8l60 -60v-8
l-60 -60h-8zM681 648l-60 60v8l60 60h8l60 -60v-8l-60 -60h-8z" />
    <glyph glyph-name="uni06A9" unicode="&#x6a9;" horiz-adv-x="806" 
d="M397 0q-125 0 -200.5 21.5t-109 70.5t-33.5 130q0 39 13 84.5t32 79.5l51 -18q-22 -74 -22 -124q0 -56 24.5 -87.5t85 -44t168.5 -12.5q71 0 127 6t88.5 17t32.5 24q0 21 -22.5 53.5t-60.5 71t-87.5 77.5t-103.5 73l16 88l347 198l19 -81l-295 -162q119 -82 183.5 -159
t64.5 -137q0 -59 -31 -96.5t-101 -55t-186 -17.5z" />
    <glyph glyph-name="uni06AF" unicode="&#x6af;" horiz-adv-x="806" 
d="M397 0q-125 0 -200.5 21.5t-109 70.5t-33.5 130q0 39 13 84.5t32 79.5l51 -18q-22 -74 -22 -124q0 -56 24.5 -87.5t85 -44t168.5 -12.5q71 0 127 6t88.5 17t32.5 24q0 21 -22.5 53.5t-60.5 71t-87.5 77.5t-103.5 73l16 88l347 198l19 -81l-295 -162q119 -82 183.5 -159
t64.5 -137q0 -59 -31 -96.5t-101 -55t-186 -17.5zM364 632l333 190l14 -60l-320 -184z" />
    <glyph glyph-name="uni06BA" unicode="&#x6ba;" horiz-adv-x="605" 
d="M560 28q0 -66 -30 -120t-89 -86t-146 -32q-102 0 -159 30t-79.5 80t-22.5 110q0 47 16 96t37 82l47 -19q-14 -35 -21 -71.5t-7 -59.5q0 -81 49 -114.5t148 -33.5q70 0 112 17t61 40.5t19 42.5q0 14 -7.5 47.5t-18.5 75t-22 80t-18 62.5l80 33q29 -88 40 -155.5t11 -104.5
z" />
    <glyph glyph-name="uni06BE" unicode="&#x6be;" horiz-adv-x="721" 
d="M119 98q25 0 50.5 1t48.5 3q-23 27 -36 58.5t-13 67.5q0 42 18.5 79t49 63t66.5 33l38 73q123 -74 197 -130t106.5 -103.5t32.5 -98.5q0 -41 -20 -76.5t-55 -56.5t-81 -21q-113 0 -202 41q-81 -33 -184 -33q-32 0 -58.5 2t-38.5 4l-16 99q19 -2 42 -3.5t55 -1.5zM224 229
q0 -28 31.5 -54t77.5 -46q23 11 44 27t34.5 32.5t13.5 28.5q0 25 -15.5 50.5t-39 42.5t-46.5 17q-22 0 -45 -15.5t-39 -38t-16 -44.5zM480 224q0 -29 -16.5 -63t-41.5 -62q57 -14 103 -14q50 0 69 6t19 19q0 39 -37 85t-110 100q14 -35 14 -71z" />
    <glyph glyph-name="uni06C0" unicode="&#x6c0;" horiz-adv-x="429" 
d="M361 61q-24 -36 -60 -54.5t-98 -18.5q-91 0 -129 36.5t-38 100.5q0 42 34 106t86 131q-13 12 -27 24l39 78q82 -62 129.5 -120t67.5 -105.5t20 -80.5q0 -26 -5 -51.5t-19 -45.5zM99 144q0 -56 109 -56q60 0 87.5 11t27.5 27q0 37 -28.5 83.5t-93.5 110.5
q-45 -57 -73.5 -102t-28.5 -74zM292 618l-8 -53q-36 -5 -81.5 -14t-88.5 -20l-19 48q12 3 23 6t25 6q-13 10 -19 25.5t-6 29.5q0 37 25 62.5t63 25.5q32 0 63 -22l-10 -36q-11 3 -24 4.5t-21 1.5q-25 0 -41 -8t-16 -22q0 -13 12 -23t29.5 -15.5t33.5 -5.5q17 0 32 3.5
t28 6.5z" />
    <glyph glyph-name="uni06C1" unicode="&#x6c1;" horiz-adv-x="429" 
d="M361 61q-24 -36 -60 -54.5t-98 -18.5q-91 0 -129 36.5t-38 100.5q0 42 34 106t86 131q-13 12 -27 24l39 78q82 -62 129.5 -120t67.5 -105.5t20 -80.5q0 -26 -5 -51.5t-19 -45.5zM99 144q0 -56 109 -56q60 0 87.5 11t27.5 27q0 37 -28.5 83.5t-93.5 110.5
q-45 -57 -73.5 -102t-28.5 -74z" />
    <glyph glyph-name="uni06C2" unicode="&#x6c2;" horiz-adv-x="429" 
d="M361 61q-24 -36 -60 -54.5t-98 -18.5q-91 0 -129 36.5t-38 100.5q0 42 34 106t86 131q-13 12 -27 24l39 78q82 -62 129.5 -120t67.5 -105.5t20 -80.5q0 -26 -5 -51.5t-19 -45.5zM99 144q0 -56 109 -56q60 0 87.5 11t27.5 27q0 37 -28.5 83.5t-93.5 110.5
q-45 -57 -73.5 -102t-28.5 -74zM292 618l-8 -53q-36 -5 -81.5 -14t-88.5 -20l-19 48q12 3 23 6t25 6q-13 10 -19 25.5t-6 29.5q0 37 25 62.5t63 25.5q32 0 63 -22l-10 -36q-11 3 -24 4.5t-21 1.5q-25 0 -41 -8t-16 -22q0 -13 12 -23t29.5 -15.5t33.5 -5.5q17 0 32 3.5
t28 6.5z" />
    <glyph glyph-name="uni06C3" unicode="&#x6c3;" horiz-adv-x="429" 
d="M361 61q-24 -36 -60 -54.5t-98 -18.5q-91 0 -129 36.5t-38 100.5q0 42 34 106t86 131q-13 12 -27 24l39 78q82 -62 129.5 -120t67.5 -105.5t20 -80.5q0 -26 -5 -51.5t-19 -45.5zM99 144q0 -56 109 -56q60 0 87.5 11t27.5 27q0 37 -28.5 83.5t-93.5 110.5
q-45 -57 -73.5 -102t-28.5 -74zM125 531l-60 60v8l60 60h8l60 -60v-8l-60 -60h-8zM265 531l-60 60v8l60 60h8l60 -60v-8l-60 -60h-8z" />
    <glyph glyph-name="uni06CC" unicode="&#x6cc;" horiz-adv-x="681" 
d="M134 169q-14 -35 -21 -71.5t-7 -59.5q0 -81 56.5 -114.5t174.5 -33.5q77 0 130 16.5t80 39t27 41.5q0 9 -11 16.5t-42 19.5t-92 33q-64 23 -92 48t-28 63t14 77t38.5 71t57.5 51.5t71 19.5q41 0 75.5 -17t58.5 -46l-38 -55q-24 17 -47.5 23t-47.5 6q-32 0 -59.5 -15
t-44 -38t-16.5 -46q0 -14 22 -25t80 -32q56 -20 92.5 -36.5t54.5 -38.5t18 -59q0 -61 -40.5 -110t-110.5 -78t-158 -29q-113 0 -177.5 29.5t-91 79.5t-26.5 111q0 47 16 96t37 82z" />
    <glyph glyph-name="uni06D2" unicode="&#x6d2;" horiz-adv-x="707" 
d="M667 124l-23 -100q-67 -10 -148 -17t-151 -7q-100 0 -162 6t-95 19t-45.5 35t-12.5 53q0 36 26 78.5t66 83.5t85.5 74.5t85 54t62.5 20.5q29 0 56.5 -27t47.5 -98l-53 -30q-16 23 -31 39.5t-32 16.5q-14 0 -42.5 -14.5t-62 -38.5t-64 -51t-50.5 -52.5t-20 -43.5
q0 -8 19.5 -14t71.5 -8.5t150 -2.5q47 0 104 3.5t114.5 9t103.5 11.5z" />
    <glyph glyph-name="uni06D3" unicode="&#x6d3;" horiz-adv-x="707" 
d="M667 124l-23 -100q-67 -10 -148 -17t-151 -7q-100 0 -162 6t-95 19t-45.5 35t-12.5 53q0 36 26 78.5t66 83.5t85.5 74.5t85 54t62.5 20.5q29 0 56.5 -27t47.5 -98l-53 -30q-16 23 -31 39.5t-32 16.5q-14 0 -42.5 -14.5t-62 -38.5t-64 -51t-50.5 -52.5t-20 -43.5
q0 -8 19.5 -14t71.5 -8.5t150 -2.5q47 0 104 3.5t114.5 9t103.5 11.5zM396 586l-8 -53q-36 -5 -81.5 -14t-88.5 -20l-19 48q12 3 23 6t25 6q-13 10 -19 25.5t-6 29.5q0 37 25 62.5t63 25.5q32 0 63 -22l-10 -36q-11 3 -24 4.5t-21 1.5q-25 0 -41 -8t-16 -22q0 -13 12 -23
t29.5 -15.5t33.5 -5.5q17 0 32 3.5t28 6.5z" />
    <glyph glyph-name="uni06D4" unicode="&#x6d4;" horiz-adv-x="382" 
d="M35 100h282v-100h-247z" />
    <glyph glyph-name="uni06D5" unicode="&#x6d5;" horiz-adv-x="429" 
d="M361 61q-24 -36 -60 -54.5t-98 -18.5q-91 0 -129 36.5t-38 100.5q0 42 34 106t86 131q-13 12 -27 24l39 78q82 -62 129.5 -120t67.5 -105.5t20 -80.5q0 -26 -5 -51.5t-19 -45.5zM99 144q0 -56 109 -56q60 0 87.5 11t27.5 27q0 37 -28.5 83.5t-93.5 110.5
q-45 -57 -73.5 -102t-28.5 -74z" />
    <glyph glyph-name="uni06F0" unicode="&#x6f0;" horiz-adv-x="586" 
d="M268 199l-71 71v9l71 71h9l71 -71v-9l-71 -71h-9z" />
    <glyph glyph-name="uni06F1" unicode="&#x6f1;" horiz-adv-x="586" 
d="M273 0q-1 101 -10.5 210.5t-26.5 215.5t-41 193l80 29q25 -90 39.5 -187t21.5 -185t7 -152q0 -39 -1 -73t-3 -51h-66z" />
    <glyph glyph-name="uni06F2" unicode="&#x6f2;" horiz-adv-x="586" 
d="M183 0q-1 101 -10.5 210.5t-26.5 215.5t-41 193l80 29q19 -68 31.5 -110t33.5 -60.5t65 -18.5q28 0 54 15t46 55t30 116l61 -9q-12 -129 -55.5 -201.5t-134.5 -72.5q-22 0 -42 4t-37 15q5 -53 10.5 -121t5.5 -136q0 -39 -1 -73t-3 -51h-66z" />
    <glyph glyph-name="uni06F3" unicode="&#x6f3;" horiz-adv-x="586" 
d="M126 0q-1 109 -11 220.5t-27 214.5t-40 184l80 29q15 -61 26 -98.5t21.5 -56.5t24.5 -25.5t35 -6.5q68 0 70 64l2 115l64 2l-3 -156q18 -9 37 -9q43 0 64.5 39t22.5 129l54 -5v-13q0 -109 -37 -175t-109 -66q-42 0 -69 22q-36 -42 -87 -42q-22 0 -38 4t-27 11
q7 -67 10.5 -112t5 -78.5t1.5 -66.5q0 -46 -1 -77.5t-3 -46.5h-66z" />
    <glyph glyph-name="uni06F4" unicode="&#x6f4;" horiz-adv-x="586" 
d="M127 0q-1 109 -11 220.5t-27 214.5t-40 184l80 29q14 -59 27.5 -123.5t21.5 -117.5q19 -4 38 -5.5t44 -1.5h28q-32 37 -32 85q0 45 22.5 83t60 61t80.5 23q28 0 58.5 -9t55.5 -25l-20 -58q-23 6 -42 8.5t-39 2.5q-31 0 -58 -10t-43.5 -26t-16.5 -35q0 -21 21.5 -40
t56.5 -30.5t74 -11.5q15 0 33.5 3t52.5 10l-15 -87q-63 -17 -136 -26t-149 -9q-38 0 -65 6q5 -55 7.5 -101t2.5 -90q0 -46 -1 -77.5t-3 -46.5h-66z" />
    <glyph glyph-name="uni06F5" unicode="&#x6f5;" horiz-adv-x="586" 
d="M182 0q-62 0 -96.5 40.5t-34.5 120.5q0 105 41 202.5t127 199.5l41 94q80 -55 140 -132t93.5 -163t33.5 -170q0 -85 -41 -138.5t-106 -53.5q-67 0 -105 35q-42 -35 -93 -35zM320 212v-108q25 -13 65 -13q32 0 53.5 15t21.5 37q0 68 -23 137t-65 130t-97 107
q-82 -89 -120.5 -174t-38.5 -176q0 -76 74 -76q66 0 66 37v84h64z" />
    <glyph glyph-name="uni06F6" unicode="&#x6f6;" horiz-adv-x="586" 
d="M77 0q31 84 82 161t116 138q-77 28 -113 70.5t-36 100.5q0 55 27.5 96t71.5 63.5t93 22.5q32 0 64 -8.5t59 -28.5l-18 -61q-22 6 -50 8.5t-44 2.5q-37 0 -69 -10.5t-51.5 -29t-19.5 -41.5q0 -20 17.5 -38.5t46 -33.5t62 -24t66.5 -10q54 32 109 49l-18 -101
q-59 -22 -119.5 -69t-113 -113t-89.5 -144h-73z" />
    <glyph glyph-name="uni06F7" unicode="&#x6f7;" horiz-adv-x="586" 
d="M262 0q-58 176 -114.5 327t-121.5 288l88 37q56 -128 102 -262.5t90 -278.5q22 83 41.5 153t40 133.5t44 125.5t51.5 129l78 -29q-32 -80 -59.5 -151t-52.5 -142.5t-51 -151.5t-55 -178h-81z" />
    <glyph glyph-name="uni06F8" unicode="&#x6f8;" horiz-adv-x="586" 
d="M244 646h81q58 -175 115 -326.5t121 -288.5l-88 -37q-56 128 -102 262.5t-90 278.5q-22 -83 -41.5 -153t-40 -133.5t-44 -125.5t-51.5 -129l-78 29q32 80 59.5 151t52.5 142.5t51 151.5t55 178z" />
    <glyph glyph-name="uni06F9" unicode="&#x6f9;" horiz-adv-x="586" 
d="M410 0q-5 32 -10.5 78t-10.5 96t-8 97q-28 -14 -61 -21t-78 -7q-82 0 -126.5 36t-44.5 103q0 51 14 99.5t39.5 87t59 61t71.5 22.5q77 0 130 -76.5t68 -233.5q8 -80 14 -138t13 -106t16 -98h-86zM136 397q0 -28 28 -41t89 -13q30 0 61.5 3.5t59.5 10.5q-9 96 -46 145.5
t-82 49.5q-29 0 -54 -21t-40.5 -56t-15.5 -78z" />
    <glyph glyph-name="uni2000" unicode="&#x2000;" horiz-adv-x="500" 
 />
    <glyph glyph-name="uni2001" unicode="&#x2001;" horiz-adv-x="1000" 
 />
    <glyph glyph-name="uni2002" unicode="&#x2002;" horiz-adv-x="500" 
 />
    <glyph glyph-name="uni2003" unicode="&#x2003;" horiz-adv-x="1000" 
 />
    <glyph glyph-name="uni2004" unicode="&#x2004;" horiz-adv-x="333" 
 />
    <glyph glyph-name="uni2005" unicode="&#x2005;" horiz-adv-x="250" 
 />
    <glyph glyph-name="uni2006" unicode="&#x2006;" horiz-adv-x="166" 
 />
    <glyph glyph-name="uni2007" unicode="&#x2007;" horiz-adv-x="586" 
 />
    <glyph glyph-name="uni2008" unicode="&#x2008;" horiz-adv-x="248" 
 />
    <glyph glyph-name="uni2009" unicode="&#x2009;" horiz-adv-x="200" 
 />
    <glyph glyph-name="uni200A" unicode="&#x200a;" horiz-adv-x="50" 
 />
    <glyph glyph-name="uni200B" unicode="&#x200b;" 
 />
    <glyph glyph-name="uni200C" unicode="&#x200c;" 
d="M20 576v-793h-39v793h39z" />
    <glyph glyph-name="uni200D" unicode="&#x200d;" 
d="M19 500v-717h-39v718l-50 -51l-28 28l69 69l-69 70l29 29l69 -70l69 70l29 -29l-70 -70l70 -69l-28 -28z" />
    <glyph glyph-name="uni200E" unicode="&#x200e;" 
d="M-120 533v-750h-39v789h255l-127 121h54l137 -130v-18l-138 -133h-53l127 121h-216z" />
    <glyph glyph-name="uni200F" unicode="&#x200f;" 
d="M160 572v-789h-39v750h-216l127 -121h-53l-138 133v18l137 130h54l-127 -121h255z" />
    <glyph glyph-name="uni2010" unicode="&#x2010;" horiz-adv-x="390" 
d="M344 217h-298v84h298v-84z" />
    <glyph glyph-name="endash" unicode="&#x2013;" horiz-adv-x="500" 
d="M500 219h-500v80h500v-80z" />
    <glyph glyph-name="emdash" unicode="&#x2014;" horiz-adv-x="1000" 
d="M1000 219h-1000v80h1000v-80z" />
    <glyph glyph-name="quoteleft" unicode="&#x2018;" horiz-adv-x="248" 
d="M124 693h69l-41 -253h-37q-31 0 -45 9t-14 28q0 8 3 20.5t10 34.5z" />
    <glyph glyph-name="quoteright" unicode="&#x2019;" horiz-adv-x="248" 
d="M124 440h-69l41 253h38q31 0 44.5 -9.5t13.5 -27.5q0 -8 -2.5 -21t-10.5 -34z" />
    <glyph glyph-name="quotesinglbase" unicode="&#x201a;" horiz-adv-x="248" 
d="M124 -147h-69l41 253h38q31 0 44.5 -9.5t13.5 -27.5q0 -8 -2.5 -21t-10.5 -34z" />
    <glyph glyph-name="quotedblleft" unicode="&#x201c;" horiz-adv-x="423" 
d="M124 693h69l-41 -253h-37q-31 0 -45 9t-14 28q0 8 3 20.5t10 34.5zM299 693h69l-41 -253h-37q-31 0 -45 9t-14 28q0 8 3 20.5t10 34.5z" />
    <glyph glyph-name="quotedblright" unicode="&#x201d;" horiz-adv-x="423" 
d="M299 440h-69l41 253h38q31 0 44.5 -9.5t13.5 -27.5q0 -8 -2.5 -21t-10.5 -34zM124 440h-69l41 253h38q31 0 44.5 -9.5t13.5 -27.5q0 -8 -2.5 -21t-10.5 -34z" />
    <glyph glyph-name="quotedblbase" unicode="&#x201e;" horiz-adv-x="423" 
d="M299 -147h-69l41 253h38q31 0 44.5 -9.5t13.5 -27.5q0 -8 -2.5 -21t-10.5 -34zM124 -147h-69l41 253h38q31 0 44.5 -9.5t13.5 -27.5q0 -8 -2.5 -21t-10.5 -34z" />
    <glyph glyph-name="dagger" unicode="&#x2020;" horiz-adv-x="493" 
d="M469 443l-179 6l8 -575h-103l8 575l-179 -6v80l179 -6l-8 223h103l-8 -223l179 6v-80z" />
    <glyph glyph-name="daggerdbl" unicode="&#x2021;" horiz-adv-x="493" 
d="M298 -126h-103l8 223l-179 -6v80l179 -6l-8 142l8 142l-179 -6v80l179 -6l-8 223h103l-8 -223l179 6v-80l-179 6l8 -142l-8 -142l179 6v-80l-179 6z" />
    <glyph glyph-name="bullet" unicode="&#x2022;" horiz-adv-x="360" 
d="M180 123q-38 0 -69 18t-49 48.5t-18 69.5t18 69.5t49 48t69 17.5q39 0 69.5 -17.5t48.5 -48t18 -69.5t-18 -69.5t-48.5 -48.5t-69.5 -18z" />
    <glyph glyph-name="uni202A" unicode="&#x202a;" 
d="M160 545l-138 -133h-53l127 121h-109v39h109l-127 121h54l137 -130v-18zM-120 -217h-39v789h56v-39h-17v-750z" />
    <glyph glyph-name="uni202B" unicode="&#x202b;" 
d="M32 412h-53l-138 133v18l137 130h54l-127 -121h109v-39h-109zM160 -217h-39v750h-17v39h56v-789z" />
    <glyph glyph-name="uni202C" unicode="&#x202c;" 
d="M20 -217h-39v835l-121 -127v54l130 137h18l133 -138v-53l-121 127v-835z" />
    <glyph glyph-name="uni202D" unicode="&#x202d;" 
d="M-161 -217h-39v789h225l-127 121h54l137 -130v-18l-138 -133h-53l127 121h-186v-750zM201 545l-138 -133h-53l147 141l-147 140h54l137 -130v-18z" />
    <glyph glyph-name="uni202E" unicode="&#x202e;" 
d="M201 -217h-39v750h-186l127 -121h-53l-138 133v18l137 130h54l-127 -121h225v-789zM-9 412h-53l-138 133v18l137 130h54l-147 -140z" />
    <glyph glyph-name="perthousand" unicode="&#x2030;" horiz-adv-x="1332" 
d="M735 -8q-79 0 -122 54t-43 148q0 99 44 151.5t121 52.5q80 0 122.5 -53.5t42.5 -148.5q0 -99 -44 -151.5t-121 -52.5zM735 57q43 0 62.5 34t19.5 103q0 71 -19.5 105t-62.5 34t-62.5 -34t-19.5 -103q0 -71 19.5 -105t62.5 -34zM205 295q-79 0 -122 54t-43 148
q0 99 44 151.5t121 52.5q80 0 122.5 -53.5t42.5 -148.5q0 -99 -44 -151.5t-121 -52.5zM205 360q43 0 62.5 34t19.5 103q0 71 -19.5 105t-62.5 34t-62.5 -34t-19.5 -103q0 -71 19.5 -105t62.5 -34zM1127 -8q-79 0 -122 54t-43 148q0 99 44 151.5t121 52.5q80 0 122.5 -53.5
t42.5 -148.5q0 -99 -44 -151.5t-121 -52.5zM1127 57q43 0 62.5 34t19.5 103q0 71 -19.5 105t-62.5 34t-62.5 -34t-19.5 -103q0 -71 19.5 -105t62.5 -34zM344 0h-81l333 693h81z" />
    <glyph glyph-name="guilsinglleft" unicode="&#x2039;" horiz-adv-x="331" 
d="M279 51h-97l-136 208l136 208h97l-127 -208z" />
    <glyph glyph-name="guilsinglright" unicode="&#x203a;" horiz-adv-x="331" 
d="M52 467h97l136 -208l-136 -208h-97l127 208z" />
    <glyph glyph-name="fraction" unicode="&#x2044;" 
d="M-126 0h-81l333 693h81z" />
    <glyph glyph-name="uni2070" unicode="&#x2070;" horiz-adv-x="410" 
d="M205 382q-79 0 -122 54t-43 148q0 99 44 151.5t121 52.5q80 0 122.5 -53.5t42.5 -148.5q0 -99 -44 -151.5t-121 -52.5zM205 447q43 0 62.5 34t19.5 103q0 71 -19.5 105t-62.5 34t-62.5 -34t-19.5 -103q0 -71 19.5 -105t62.5 -34z" />
    <glyph glyph-name="uni2074" unicode="&#x2074;" horiz-adv-x="410" 
d="M310 390h-70v80h-196v57l191 259h75v-258h59v-58h-59v-80zM240 698l-125 -170h125v170z" />
    <glyph glyph-name="uni2075" unicode="&#x2075;" horiz-adv-x="410" 
d="M192 382q-35 0 -62.5 5t-53.5 17v59q32 -10 58.5 -14.5t55.5 -4.5q40 0 62.5 17t22.5 45q0 34 -20 48.5t-66 14.5q-22 0 -44 -1.5t-52 -4.5v43l9 174h228v-62h-165l-5 -98q32 5 54 5q65 0 102 -31.5t37 -87.5q0 -57 -43.5 -90.5t-117.5 -33.5z" />
    <glyph glyph-name="uni2076" unicode="&#x2076;" horiz-adv-x="410" 
d="M239 726q-55 0 -82 -30t-29 -94q52 29 104 29q58 0 93.5 -32.5t35.5 -85.5q0 -58 -41.5 -94.5t-106.5 -36.5q-78 0 -118.5 48.5t-40.5 142.5q0 103 47 159t132 56q54 0 98 -21v-56q-45 15 -92 15zM215 572q-45 0 -85 -23q3 -106 85 -106q33 0 51.5 17.5t18.5 49.5
q0 29 -18 45.5t-52 16.5z" />
    <glyph glyph-name="uni2077" unicode="&#x2077;" horiz-adv-x="410" 
d="M192 390h-83l167 326h-216v64h299v-59z" />
    <glyph glyph-name="uni2078" unicode="&#x2078;" horiz-adv-x="410" 
d="M340 683q0 -60 -66 -93q43 -19 62.5 -42t19.5 -54q0 -52 -41 -82t-112 -30q-68 0 -108.5 28.5t-40.5 77.5q0 33 20 60.5t55 43.5q-60 34 -60 85q0 50 37.5 80.5t98.5 30.5q60 0 97.5 -29t37.5 -76zM140 679q0 -37 53 -58l34 -13q42 28 42 67q0 26 -17 41t-47 15
q-29 0 -47 -14t-18 -38zM223 551l-48 19q-48 -28 -48 -70q0 -61 78 -61q36 0 57 15t21 41q0 18 -13.5 30.5t-46.5 25.5z" />
    <glyph glyph-name="uni2079" unicode="&#x2079;" horiz-adv-x="410" 
d="M68 408v57q51 -22 105 -22q102 0 105 116q-48 -27 -99 -27q-58 0 -93 32.5t-35 87.5q0 59 42 97.5t106 38.5q75 0 115 -50t40 -144q0 -101 -45 -156.5t-128 -55.5q-28 0 -57.5 7t-55.5 19zM196 590q45 0 83 21v5q0 110 -81 110q-34 0 -53 -18.5t-19 -51.5q0 -66 70 -66z
" />
    <glyph glyph-name="uni2080" unicode="&#x2080;" horiz-adv-x="410" 
d="M205 -112q-79 0 -122 54t-43 148q0 99 44 151.5t121 52.5q80 0 122.5 -53.5t42.5 -148.5q0 -99 -44 -151.5t-121 -52.5zM205 -47q43 0 62.5 34t19.5 103q0 71 -19.5 105t-62.5 34t-62.5 -34t-19.5 -103q0 -71 19.5 -105t62.5 -34z" />
    <glyph glyph-name="uni2081" unicode="&#x2081;" horiz-adv-x="410" 
d="M279 -104h-80v312l-118 -42v62l128 58h70v-390z" />
    <glyph glyph-name="uni2082" unicode="&#x2082;" horiz-adv-x="410" 
d="M75 186v64q60 44 133 44q56 0 90 -29t34 -79q0 -28 -15.5 -57.5t-53 -69.5t-105.5 -100h188v-63h-280v57q72 66 111.5 106.5t55 67.5t15.5 50q0 24 -15.5 37.5t-42.5 13.5q-48 0 -115 -42z" />
    <glyph glyph-name="uni2083" unicode="&#x2083;" horiz-adv-x="410" 
d="M188 -112q-69 0 -118 25v59q34 -11 61 -16.5t53 -5.5q41 0 63.5 16.5t22.5 45.5t-19.5 42.5t-62.5 13.5q-13 0 -30 -0.5t-33 -2.5v42l117 117h-169v62h252v-56l-110 -110h12q57 0 89 -28.5t32 -78.5q0 -58 -42.5 -91.5t-117.5 -33.5z" />
    <glyph glyph-name="uni2084" unicode="&#x2084;" horiz-adv-x="410" 
d="M310 -104h-70v80h-196v57l191 259h75v-258h59v-58h-59v-80zM240 204l-125 -170h125v170z" />
    <glyph glyph-name="uni2085" unicode="&#x2085;" horiz-adv-x="410" 
d="M192 -112q-35 0 -62.5 5t-53.5 17v59q32 -10 58.5 -14.5t55.5 -4.5q40 0 62.5 17t22.5 45q0 34 -20 48.5t-66 14.5q-22 0 -44 -1.5t-52 -4.5v43l9 174h228v-62h-165l-5 -98q32 5 54 5q65 0 102 -31.5t37 -87.5q0 -57 -43.5 -90.5t-117.5 -33.5z" />
    <glyph glyph-name="uni2086" unicode="&#x2086;" horiz-adv-x="410" 
d="M239 232q-55 0 -82 -30t-29 -94q52 29 104 29q58 0 93.5 -32.5t35.5 -85.5q0 -58 -41.5 -94.5t-106.5 -36.5q-78 0 -118.5 48.5t-40.5 142.5q0 103 47 159t132 56q54 0 98 -21v-56q-45 15 -92 15zM215 78q-45 0 -85 -23q3 -106 85 -106q33 0 51.5 17.5t18.5 49.5
q0 29 -18 45.5t-52 16.5z" />
    <glyph glyph-name="uni2087" unicode="&#x2087;" horiz-adv-x="410" 
d="M192 -104h-83l167 326h-216v64h299v-59z" />
    <glyph glyph-name="uni2088" unicode="&#x2088;" horiz-adv-x="410" 
d="M340 189q0 -60 -66 -93q43 -19 62.5 -42t19.5 -54q0 -52 -41 -82t-112 -30q-68 0 -108.5 28.5t-40.5 77.5q0 33 20 60.5t55 43.5q-60 34 -60 85q0 50 37.5 80.5t98.5 30.5q60 0 97.5 -29t37.5 -76zM140 185q0 -37 53 -58l34 -13q42 28 42 67q0 26 -17 41t-47 15
q-29 0 -47 -14t-18 -38zM223 57l-48 19q-48 -28 -48 -70q0 -61 78 -61q36 0 57 15t21 41q0 18 -13.5 30.5t-46.5 25.5z" />
    <glyph glyph-name="uni2089" unicode="&#x2089;" horiz-adv-x="410" 
d="M68 -86v57q51 -22 105 -22q102 0 105 116q-48 -27 -99 -27q-58 0 -93 32.5t-35 87.5q0 59 42 97.5t106 38.5q75 0 115 -50t40 -144q0 -101 -45 -156.5t-128 -55.5q-28 0 -57.5 7t-55.5 19zM196 96q45 0 83 21v5q0 110 -81 110q-34 0 -53 -18.5t-19 -51.5q0 -66 70 -66z
" />
    <glyph glyph-name="Euro" unicode="&#x20ac;" horiz-adv-x="586" 
d="M472 387h-269v-87h250l-19 -67h-224q33 -160 197 -160q36 0 75.5 6t76.5 18v-78q-74 -31 -161 -31q-120 0 -193 62.5t-95 182.5h-77v67h69q-1 10 -1 20v20q0 12 0.5 24t1.5 23h-70v67h78q24 120 99 184t196 64q84 0 149 -28v-78q-72 21 -136 21q-175 0 -209 -163h281z
" />
    <glyph glyph-name="uni20B9" unicode="&#x20b9;" horiz-adv-x="586" 
d="M474 0h-124l-266 276v69h103q156 0 174 106h-276v65h276q-18 105 -168 105h-109v72h477l-14 -72h-163q57 -37 67 -105h77l-14 -65h-62q-11 -83 -76.5 -129.5t-173.5 -46.5h-4z" />
    <glyph glyph-name="uni20BA" unicode="&#x20ba;" horiz-adv-x="586" 
d="M401 345l-183 -87v-174h21q113 0 165 47.5t52 150.5v11h92v-17q0 -130 -83.5 -203t-233.5 -73h-109v213l-90 -42v72l90 42v98l-90 -42v72l90 42v238h96v-193l183 86v-71l-183 -87v-98l183 86v-71z" />
    <glyph glyph-name="uni2113" unicode="&#x2113;" horiz-adv-x="410" 
d="M30 122v80l76 54v331q0 78 37 122.5t101 44.5t100 -45t36 -123q0 -209 -183 -348v-103q0 -75 62 -75q40 0 92 20v-70q-51 -26 -113 -26t-97 36.5t-35 102.5v51zM197 593v-269q45 44 71.5 112t26.5 147q0 96 -49 96t-49 -86z" />
    <glyph glyph-name="trademark" unicode="&#x2122;" horiz-adv-x="835" 
d="M782 309h-71v272l-89 -177h-70l-89 177v-272h-71v384h82l114 -223l114 223h80v-384zM212 309h-77v322h-120v62h317v-62h-120v-322z" />
    <glyph glyph-name="estimated" unicode="&#x212e;" horiz-adv-x="882" 
d="M198 330v-196q0 -12 9 -22q84 -96 234 -96q74 0 138 28t107 80h62q-49 -63 -130 -98t-177 -35q-113 0 -200.5 45t-137 125t-49.5 183q0 77 28.5 142.5t80.5 114t122.5 75t154.5 26.5q85 0 156 -26t123 -73t80.5 -111t28.5 -141v-15h-624q-6 0 -6 -6zM204 358h475q6 0 6 6
v193q0 15 -9 25q-45 45 -107 70t-129 25q-146 0 -234 -98q-8 -10 -8 -25v-190q0 -6 6 -6z" />
    <glyph glyph-name="onethird" unicode="&#x2153;" horiz-adv-x="940" 
d="M279 303h-80v312l-118 -42v62l128 58h70v-390zM718 -8q-69 0 -118 25v59q34 -11 61 -16.5t53 -5.5q41 0 63.5 16.5t22.5 45.5t-19.5 42.5t-62.5 13.5q-13 0 -30 -0.5t-33 -2.5v42l117 117h-169v62h252v-56l-110 -110h12q57 0 89 -28.5t32 -78.5q0 -58 -42.5 -91.5
t-117.5 -33.5zM316 0h-81l333 693h81z" />
    <glyph glyph-name="twothirds" unicode="&#x2154;" horiz-adv-x="940" 
d="M75 593v64q60 44 133 44q56 0 90 -29t34 -79q0 -28 -15.5 -57.5t-53 -69.5t-105.5 -100h188v-63h-280v57q72 66 111.5 106.5t55 67.5t15.5 50q0 24 -15.5 37.5t-42.5 13.5q-48 0 -115 -42zM718 -8q-69 0 -118 25v59q34 -11 61 -16.5t53 -5.5q41 0 63.5 16.5t22.5 45.5
t-19.5 42.5t-62.5 13.5q-13 0 -30 -0.5t-33 -2.5v42l117 117h-169v62h252v-56l-110 -110h12q57 0 89 -28.5t32 -78.5q0 -58 -42.5 -91.5t-117.5 -33.5zM347 0h-81l333 693h81z" />
    <glyph glyph-name="minus" unicode="&#x2212;" horiz-adv-x="586" 
d="M519 308h-452v80h452v-80z" />
    <glyph glyph-name="uni25CC" unicode="&#x25cc;" horiz-adv-x="663" 
d="M363 532q0 -15 -9.5 -23.5t-23.5 -8.5t-23 8.5t-9 23.5t9 24t23 9t23.5 -9t9.5 -24zM264 515q0 -15 -9.5 -23.5t-23.5 -8.5t-23 8.5t-9 23.5t9 24t23 9t23.5 -9t9.5 -24zM463 515q0 -15 -9.5 -23.5t-23.5 -8.5t-23 8.5t-9 23.5t9 24t23 9t23.5 -9t9.5 -24zM178 459
q0 -15 -9.5 -23.5t-23.5 -8.5t-23 8.5t-9 23.5t9 24t23 9t23.5 -9t9.5 -24zM548 459q0 -15 -9.5 -23.5t-23.5 -8.5t-23 8.5t-9 23.5t9 24t23 9t23.5 -9t9.5 -24zM127 371q0 -15 -9.5 -23.5t-23.5 -8.5t-23 8.5t-9 23.5t9 24t23 9t23.5 -9t9.5 -24zM602 371q0 -15 -9.5 -23.5
t-23.5 -8.5t-23 8.5t-9 23.5t9 24t23 9t23.5 -9t9.5 -24zM110 276q0 -15 -9.5 -23.5t-23.5 -8.5t-23 8.5t-9 23.5t9 24t23 9t23.5 -9t9.5 -24zM618 276q0 -15 -9.5 -23.5t-23.5 -8.5t-23 8.5t-9 23.5t9 24t23 9t23.5 -9t9.5 -24zM127 184q0 -15 -9.5 -23.5t-23.5 -8.5
t-23 8.5t-9 23.5t9 24t23 9t23.5 -9t9.5 -24zM602 184q0 -15 -9.5 -23.5t-23.5 -8.5t-23 8.5t-9 23.5t9 24t23 9t23.5 -9t9.5 -24zM178 94q0 -15 -9.5 -23.5t-23.5 -8.5t-23 8.5t-9 23.5t9 24t23 9t23.5 -9t9.5 -24zM548 94q0 -15 -9.5 -23.5t-23.5 -8.5t-23 8.5t-9 23.5
t9 24t23 9t23.5 -9t9.5 -24zM264 39q0 -15 -9.5 -23.5t-23.5 -8.5t-23 8.5t-9 23.5t9 24t23 9t23.5 -9t9.5 -24zM463 39q0 -15 -9.5 -23.5t-23.5 -8.5t-23 8.5t-9 23.5t9 24t23 9t23.5 -9t9.5 -24zM363 22q0 -15 -9.5 -23.5t-23.5 -8.5t-23 8.5t-9 23.5t9 24t23 9t23.5 -9
t9.5 -24z" />
    <glyph glyph-name="uni274A" unicode="&#x274a;" horiz-adv-x="396" 
d="M198 480l-70 -121q-44 6 -65 48l90 101l-115 27q-2 10 -2 16q0 34 26 60l108 -53l-14 129q20 9 42 9q23 0 42 -9l-14 -129l108 53q26 -26 26 -60q0 -6 -2 -16l-115 -27l90 -101q-21 -42 -65 -48z" />
    <glyph glyph-name="uniFD3E" unicode="&#xfd3e;" horiz-adv-x="312" 
d="M170 404l-44 45l-58 -54q12 110 52 204.5t88 161.5l67 -36q-38 -64 -66 -141.5t-39 -179.5zM45 306l77 78l78 -78l-78 -76zM126 160l44 45q11 -102 39 -179t66 -142l-67 -36q-48 68 -88 162t-52 204z" />
    <glyph glyph-name="uniFD3F" unicode="&#xfd3f;" horiz-adv-x="312" 
d="M186 449l-44 -45q-10 102 -38.5 179.5t-66.5 141.5l67 36q48 -67 88 -161.5t52 -204.5zM190 384l77 -78l-77 -76l-78 76zM142 205l44 -45l58 54q-12 -110 -52 -204t-88 -162l-67 36q38 65 66.5 142t38.5 179z" />
    <glyph glyph-name="uniFEFF" unicode="&#xfeff;" 
 />
    <glyph glyph-name="uniFFFD" unicode="&#xfffd;" horiz-adv-x="1000" 
d="M500 -131l-471 471l471 471l471 -471zM609 456q0 -39 -27 -70t-86 -59l-47 -22l9 -136h78v103q85 38 125 85t40 108q0 74 -48 115t-132 41q-43 0 -85.5 -11.5t-79.5 -34.5v-74q44 23 80 32.5t70 9.5q53 0 78 -22.5t25 -64.5zM500 -6q25 0 40.5 16t15.5 41
q0 26 -15.5 41.5t-40.5 15.5t-40.5 -15.5t-15.5 -41.5q0 -25 15.5 -41t40.5 -16z" />
    <glyph glyph-name="zero.pnum" horiz-adv-x="602" 
d="M301 -15q-123 0 -189 93.5t-66 268.5q0 176 66 268.5t189 92.5t189 -93t66 -268q0 -176 -66 -269t-189 -93zM301 69q80 0 116.5 67t36.5 211q0 143 -36.5 210t-116.5 67q-79 0 -116 -67t-37 -210t37 -210.5t116 -67.5z" />
    <glyph glyph-name="one.pnum" horiz-adv-x="434" 
d="M316 0h-100v594l-193 -75v80l200 94h93v-693z" />
    <glyph glyph-name="two.pnum" horiz-adv-x="531" 
d="M55 547v85q50 40 100.5 58t109.5 18q92 0 147 -51t55 -135q0 -39 -15 -80t-51 -90.5t-97 -115t-153 -153.5h348v-83h-463v78q99 101 163 170.5t99.5 117.5t50 83t14.5 66q0 50 -30 78.5t-83 28.5q-89 0 -195 -75z" />
    <glyph glyph-name="three.pnum" horiz-adv-x="521" 
d="M447 614l-206 -218q5 1 10 1h10q99 0 157 -53.5t58 -143.5q0 -65 -32 -113.5t-90.5 -75t-137.5 -26.5q-94 0 -186 40v80q59 -19 103 -27.5t83 -8.5q77 0 117.5 34t40.5 97q0 121 -153 121q-19 0 -46.5 -1.5t-48.5 -3.5v66l210 229h-296v82h407v-79z" />
    <glyph glyph-name="four.pnum" horiz-adv-x="580" 
d="M452 0h-93v149h-332v77l329 467h96v-463h97v-81h-97v-149zM127 230h232v332z" />
    <glyph glyph-name="five.pnum" horiz-adv-x="531" 
d="M42 25v80q58 -19 104 -27.5t86 -8.5q76 0 116.5 34.5t40.5 99.5q0 71 -38 103t-124 32q-31 0 -72 -2.5t-83 -7.5v66l19 299h365v-82h-281l-13 -203q25 5 50.5 7.5t48.5 2.5q108 0 169 -56.5t61 -157.5q0 -65 -32 -114.5t-90 -77t-136 -27.5q-102 0 -191 40z" />
    <glyph glyph-name="six.pnum" horiz-adv-x="579" 
d="M346 626q-97 0 -145 -65.5t-52 -199.5q40 27 85.5 42t90.5 15q63 0 110.5 -25.5t74 -71.5t26.5 -107q0 -69 -29 -120.5t-82 -80t-124 -28.5q-251 0 -251 339q0 182 74.5 283t208.5 101q41 0 83 -8.5t74 -24.5v-76q-34 13 -73 20t-71 7zM299 338q-36 0 -75 -11.5
t-75 -31.5q6 -228 155 -228q64 0 98 36.5t34 103.5q0 62 -35.5 96.5t-101.5 34.5z" />
    <glyph glyph-name="seven.pnum" horiz-adv-x="523" 
d="M212 0h-107l277 611h-369v82h470v-79z" />
    <glyph glyph-name="eight.pnum" horiz-adv-x="584" 
d="M510 524q0 -55 -30.5 -100t-84.5 -72q76 -34 108.5 -74.5t32.5 -97.5q0 -90 -66.5 -142.5t-180.5 -52.5q-111 0 -176 50.5t-65 135.5q0 62 35 110.5t100 78.5q-56 29 -82 67.5t-26 90.5q0 58 27 100.5t76 66t114 23.5t114 -23.5t76.5 -64.5t27.5 -96zM169 523
q0 -40 26.5 -70t85.5 -54l52 -21q83 55 83 136q0 57 -33 88t-92 31q-58 0 -90 -29t-32 -81zM306 307l-61 25q-101 -57 -101 -144q0 -59 38.5 -91.5t109.5 -32.5t109.5 31t38.5 86q0 27 -12 47.5t-41 39t-81 39.5z" />
    <glyph glyph-name="nine.pnum" horiz-adv-x="571" 
d="M68 28v76q82 -37 151 -37q96 0 145.5 59t56.5 183q-35 -24 -79 -37.5t-91 -13.5q-97 0 -153.5 58.5t-56.5 158.5q0 69 29.5 121.5t82 82t120.5 29.5q121 0 184.5 -85t63.5 -248q0 -187 -74.5 -288.5t-213.5 -101.5q-47 0 -90 11t-75 32zM275 338q81 0 147 38v14
q-3 236 -151 236q-58 0 -94 -39.5t-36 -105.5q0 -143 134 -143z" />
    <glyph glyph-name="glyph192" 
d="M-12 -63q42 0 66.5 -19.5t24.5 -52.5q0 -83 -119 -146l-42 38q39 25 60.5 49t21.5 43q0 25 -37 25q-15 0 -36 -3v57q29 9 61 9z" />
    <glyph glyph-name="glyph195" 
d="M44 769h-88l96 123h119z" />
    <glyph glyph-name="glyph199" 
d="M44 769h-88l-127 123h119z" />
    <glyph glyph-name="glyph203" 
d="M184 769h-99l-85 80l-86 -80h-99l133 135h103z" />
    <glyph glyph-name="glyph206" 
d="M-106 779q-27 0 -44 16t-17 42t16.5 42t44.5 16q27 0 44 -16t17 -42t-16.5 -42t-44.5 -16zM106 779q-27 0 -44 16t-17 42t16.5 42t44.5 16q27 0 44 -16t17 -42t-16.5 -42t-44.5 -16z" />
    <glyph glyph-name="glyph238" 
d="M0 1030l-25 50h50zM-25 -434l25 50l25 -50h-50z" />
    <glyph glyph-name="glyph239" 
 />
    <glyph glyph-name="glyph260" horiz-adv-x="280" 
d="M301 7l-21 -7q-106 0 -156.5 53t-51.5 159l-4 408l80 16v-497q0 -20 39 -29.5t93 -9.5l21 -7v-86z" />
    <glyph glyph-name="glyph261" horiz-adv-x="228" 
d="M139 0h-63v620l79 16v-252q0 -23 -1 -61t-2.5 -83.5t-3.5 -91t-4.5 -84.5t-4.5 -64z" />
    <glyph glyph-name="glyph262" horiz-adv-x="536" 
d="M0 100h536l21 -7v-86l-21 -7h-536l-21 7v86z" />
    <glyph glyph-name="glyph263" horiz-adv-x="117" 
d="M0 100h117l21 -7v-86l-21 -7h-117l-21 7v86z" />
    <glyph glyph-name="glyph265" 
d="M-167 442l333 190l14 -60l-320 -184z" />
    <glyph glyph-name="glyph266" 
d="M-4 636l-60 60v8l60 60h8l60 -60v-8l-60 -60h-8zM-74 507l-60 60v8l60 60h8l60 -60v-8l-60 -60h-8zM66 507l-60 60v8l60 60h8l60 -60v-8l-60 -60h-8z" />
    <glyph glyph-name="glyph267" 
d="M-74 507l-60 60v8l60 60h8l60 -60v-8l-60 -60h-8zM66 507l-60 60v8l60 60h8l60 -60v-8l-60 -60h-8z" />
    <glyph glyph-name="glyph268" 
d="M-4 507l-60 60v8l60 60h8l60 -60v-8l-60 -60h-8z" />
    <glyph glyph-name="glyph269" 
d="M88 241l-8 -53q-36 -5 -81.5 -14t-88.5 -20l-19 48q13 3 25.5 6.5t27.5 6.5q-13 10 -19 25.5t-6 29.5q0 37 25 62.5t63 25.5q32 0 63 -22l-10 -36q-11 3 -24 4.5t-21 1.5q-25 0 -41 -8t-16 -22q0 -13 12 -23t29.5 -15.5t33.5 -5.5q17 0 29.5 3t25.5 6z" />
    <glyph glyph-name="glyph270" 
d="M-62 251l-46 46v8l46 46h9l46 -46v-8l-46 -46h-9zM51 251l-46 46v8l46 46h8l46 -46v-8l-46 -46h-8zM-5 146l-46 46v8l46 46h8l46 -46v-8l-46 -46h-8z" />
    <glyph glyph-name="glyph271" 
d="M-4 198l-60 60v8l60 60h8l60 -60v-8l-60 -60h-8z" />
    <glyph glyph-name="glyph272" 
d="M63 -276l-13 -11q-22 -19 -44 -19q-10 0 -19 4.5t-17 15.5q-7 11 -13 27t-6 36q0 26 17 60.5t61 74.5l35 -33q-25 -27 -34 -47t-9 -35q0 -13 8.5 -28.5t33.5 -44.5z" />
    <glyph glyph-name="glyph273" 
d="M-134 -151l60 60h8l60 -60v-8l-60 -60h-8l-60 60v8zM6 -151l60 60h8l60 -60v-8l-60 -60h-8l-60 60v8zM-64 -280l60 60h8l60 -60v-8l-60 -60h-8l-60 60v8z" />
    <glyph glyph-name="glyph274" 
d="M-134 -151l60 60h8l60 -60v-8l-60 -60h-8l-60 60v8zM6 -151l60 60h8l60 -60v-8l-60 -60h-8l-60 60v8z" />
    <glyph glyph-name="uni0654_uni064C.ccmp" 
d="M93 594l-8 -53q-36 -5 -81.5 -14t-88.5 -20l-19 48q12 3 23 6t25 6q-13 10 -19 25.5t-6 29.5q0 37 25 62.5t63 25.5q32 0 63 -22l-10 -36q-11 3 -24 4.5t-21 1.5q-25 0 -41 -8t-16 -22q0 -13 12 -23t29.5 -15.5t33.5 -5.5q17 0 32 3.5t28 6.5zM116 890q0 -37 -21.5 -65.5
t-57.5 -45t-82 -16.5h-17t-17 1l-21 48q9 13 9 33q0 11 -5 18.5t-19 7.5q-17 0 -35 -12l-16 25q27 32 64 32q22 0 36.5 -17.5t14.5 -41.5t-9 -47h14q39 0 67 8q-22 12 -31.5 30t-9.5 39q0 32 23 54t48 22q31 0 48 -21t17 -52zM15 892q0 -17 15 -29.5t38 -17.5q10 12 10 29
q0 19 -11 32t-26 13q-11 0 -18.5 -6.5t-7.5 -20.5z" />
    <glyph glyph-name="uni0654_uni064B.ccmp" 
d="M93 594l-8 -53q-36 -5 -81.5 -14t-88.5 -20l-19 48q12 3 23 6t25 6q-13 10 -19 25.5t-6 29.5q0 37 25 62.5t63 25.5q32 0 63 -22l-10 -36q-11 3 -24 4.5t-21 1.5q-25 0 -41 -8t-16 -22q0 -13 12 -23t29.5 -15.5t33.5 -5.5q17 0 32 3.5t28 6.5zM96 861v-52
q-39 -8 -89 -20.5t-119 -29.5v51q62 17 115 30.5t93 20.5zM96 972v-52q-39 -8 -89 -20.5t-119 -29.5v51q62 17 115 30.5t93 20.5z" />
    <glyph glyph-name="uni0654_uni0652.ccmp" 
d="M93 594l-8 -53q-36 -5 -81.5 -14t-88.5 -20l-19 48q12 3 23 6t25 6q-13 10 -19 25.5t-6 29.5q0 37 25 62.5t63 25.5q32 0 63 -22l-10 -36q-11 3 -24 4.5t-21 1.5q-25 0 -41 -8t-16 -22q0 -13 12 -23t29.5 -15.5t33.5 -5.5q17 0 32 3.5t28 6.5zM77 852q0 -43 -21 -66
t-63 -23q-35 0 -55.5 22t-20.5 62q0 27 11 51.5t29.5 40.5t40.5 16q36 0 57.5 -31.5t21.5 -71.5zM42 840q0 26 -13 43.5t-33 17.5q-21 0 -32.5 -14t-11.5 -35q0 -16 11.5 -25.5t33.5 -9.5q20 0 32.5 6.5t12.5 16.5z" />
    <glyph glyph-name="uni0654_uni064F.ccmp" 
d="M93 594l-8 -53q-36 -5 -81.5 -14t-88.5 -20l-19 48q12 3 23 6t25 6q-13 10 -19 25.5t-6 29.5q0 37 25 62.5t63 25.5q32 0 63 -22l-10 -36q-11 3 -24 4.5t-21 1.5q-25 0 -41 -8t-16 -22q0 -13 12 -23t29.5 -15.5t33.5 -5.5q17 0 32 3.5t28 6.5zM86 882q0 -36 -21 -64.5
t-57 -45t-80 -16.5q-18 0 -32 3l-8 47q7 -1 14 -1.5t15 -0.5q36 0 63 6q-20 12 -29 30t-9 38q0 33 24.5 55t50.5 22q33 0 51 -21t18 -52zM-23 884q0 -17 16 -29.5t41 -19.5q14 14 14 31q0 19 -12 32t-29 13q-13 0 -21.5 -6.5t-8.5 -20.5z" />
    </font>
</defs>
</svg>
