<?xml version="1.0" standalone="no"?>
<!DOCTYPE svg PUBLIC "-//W3C//DTD SVG 1.1//EN" "http://www.w3.org/Graphics/SVG/1.1/DTD/svg11.dtd" >
<svg xmlns="http://www.w3.org/2000/svg" xmlns:xlink="http://www.w3.org/1999/xlink" version="1.1">
<metadata>
Created by FontForge 20201107 at Mon Mar  4 20:12:32 2019
 By 
Copyright 2014-2019, Amazon.com, Inc. or its affiliates. Modification or redistribution of this file requires prior written permission from Amazon.com, Inc.
</metadata>
<defs>
<font id="AmazonEmberV2-Bold" horiz-adv-x="0" >
  <font-face 
    font-family="Amazon Ember V2"
    font-weight="700"
    font-stretch="normal"
    units-per-em="1000"
    panose-1="2 11 7 3 2 2 4 2 2 4"
    ascent="800"
    descent="-200"
    x-height="511"
    cap-height="693"
    bbox="-220 -434 1307 1080"
    underline-thickness="80"
    underline-position="-120"
    unicode-range="U+000D-FFFD"
  />
<missing-glyph horiz-adv-x="500" 
d="M450 0h-400v750h400v-750zM400 50v650h-300v-650h300z" />
    <glyph glyph-name="uniFEF5" unicode="&#xfedf;&#xfe82;" horiz-adv-x="539" arabic-form="isolated" 
d="M46 17l11 131q63 40 119 85t94 88q-53 42 -114.5 86t-120.5 85l57 114q61 -45 123 -94t116 -99q16 32 25.5 69t13.5 86.5t4 120.5l112 23q-1 -96 -12 -160t-31.5 -111t-50.5 -90q44 -48 70.5 -94.5t26.5 -87.5q0 -49 -22.5 -87t-72.5 -60t-133 -22q-75 0 -126 5t-89 12z
M411 167q0 18 -22 44.5t-59 59.5q-28 -32 -62 -63t-76 -64q24 -1 46.5 -2t37.5 -1q57 0 96 6.5t39 19.5zM219 798l36 -18q-27 -99 -81 -99q-17 0 -31 3t-37 11q-39 14 -61 14q-8 0 -14.5 -6t-23.5 -32l-36 18q27 99 81 99q17 0 31 -3t37 -11t36.5 -11t24.5 -3q8 0 15 6.5
t23 31.5z" />
    <glyph glyph-name="uniFEF6" unicode="&#xfee0;&#xfe82;" horiz-adv-x="623" arabic-form="final" 
d="M623 0q-76 0 -124 21t-77 62q-40 -37 -107 -61t-156 -24q-10 0 -26.5 1t-33.5 2.5t-27 4.5l-24 147q23 -2 47.5 -4t42.5 -2q58 0 104 4q-35 96 -79 194t-88 181l100 92q35 -79 61.5 -152t49 -146.5t43.5 -153.5q54 16 54 39v484l112 23v-523q0 -15 20.5 -23.5t50.5 -12
t57 -3.5l21 -6v-137zM235 798l36 -18q-27 -99 -81 -99q-17 0 -31 3t-37 11q-39 14 -61 14q-8 0 -14.5 -6t-23.5 -32l-36 18q27 99 81 99q17 0 31 -3t37 -11t36.5 -11t24.5 -3q8 0 15 6.5t23 31.5z" />
    <glyph glyph-name="uniFEF7" unicode="&#xfedf;&#xfe84;" horiz-adv-x="539" arabic-form="isolated" 
d="M46 17l11 131q63 40 119 85t94 88q-53 42 -114.5 86t-120.5 85l57 114q61 -45 123 -94t116 -99q16 32 25.5 69t13.5 86.5t4 120.5l112 23q-1 -96 -12 -160t-31.5 -111t-50.5 -90q44 -48 70.5 -94.5t26.5 -87.5q0 -49 -22.5 -87t-72.5 -60t-133 -22q-75 0 -126 5t-89 12z
M411 167q0 18 -22 44.5t-59 59.5q-28 -32 -62 -63t-76 -64q24 -1 46.5 -2t37.5 -1q57 0 96 6.5t39 19.5zM214 777l-9 -71q-58 -10 -98 -18t-86 -19l-22 60q22 6 43 11q-18 24 -18 60q0 43 27.5 73.5t65.5 30.5q41 0 78 -27l-14 -50q-32 8 -55 8q-25 0 -39 -8t-14 -22
q0 -16 22.5 -28t51.5 -12q9 0 22.5 2.5t44.5 9.5z" />
    <glyph glyph-name="uniFEF8" unicode="&#xfee0;&#xfe84;" horiz-adv-x="623" arabic-form="final" 
d="M623 0q-76 0 -124 21t-77 62q-40 -37 -107 -61t-156 -24q-10 0 -26.5 1t-33.5 2.5t-27 4.5l-24 147q23 -2 47.5 -4t42.5 -2q58 0 104 4q-35 96 -79 194t-88 181l100 92q35 -79 61.5 -152t49 -146.5t43.5 -153.5q54 16 54 39v484l112 23v-523q0 -15 20.5 -23.5t50.5 -12
t57 -3.5l21 -6v-137zM230 777l-9 -71q-58 -10 -98 -18t-86 -19l-22 60q22 6 43 11q-18 24 -18 60q0 43 27.5 73.5t65.5 30.5q41 0 78 -27l-14 -50q-32 8 -55 8q-25 0 -39 -8t-14 -22q0 -16 22.5 -28t51.5 -12q9 0 22.5 2.5t44.5 9.5z" />
    <glyph glyph-name="uniFEF9" unicode="&#xfedf;&#xfe88;" horiz-adv-x="539" arabic-form="isolated" 
d="M46 17l11 131q67 43 125 90t96 92q-58 55 -117.5 102t-125.5 95l58 115q54 -43 119 -100t124 -119q14 31 22.5 67t12 84t3.5 115l112 23q-1 -94 -11.5 -157.5t-30.5 -110t-49 -89.5q42 -51 68 -99t26 -87q0 -49 -21.5 -87t-71 -60t-135.5 -22q-75 0 -126 5t-89 12z
M411 167q0 9 -17.5 34.5t-60.5 72.5q-29 -33 -63.5 -64.5t-76.5 -65.5q24 -1 46 -2t37 -1q57 0 96 6.5t39 19.5zM245 -213l-9 -71q-58 -10 -98 -18t-86 -19l-22 60q22 6 43 11q-18 24 -18 60q0 43 27.5 73.5t65.5 30.5q41 0 78 -27l-14 -50q-32 8 -55 8q-25 0 -39 -8
t-14 -22q0 -16 22.5 -28t51.5 -12q9 0 22.5 2.5t44.5 9.5z" />
    <glyph glyph-name="uniFEFA" unicode="&#xfee0;&#xfe88;" horiz-adv-x="623" arabic-form="final" 
d="M623 0q-76 0 -124 21t-77 62q-40 -37 -107 -61t-156 -24q-10 0 -26.5 1t-33.5 2.5t-27 4.5l-24 147q23 -2 47.5 -4t42.5 -2q58 0 104 4q-19 53 -43 112t-50.5 116t-51.5 106t-46 83l101 97q34 -63 66 -147t60.5 -175.5t50.5 -176.5q54 16 54 39v484l112 23v-523
q0 -15 20.5 -23.5t50.5 -12t57 -3.5l21 -6v-137zM273 -213l-9 -71q-58 -10 -98 -18t-86 -19l-22 60q22 6 43 11q-18 24 -18 60q0 43 27.5 73.5t65.5 30.5q41 0 78 -27l-14 -50q-32 8 -55 8q-25 0 -39 -8t-14 -22q0 -16 22.5 -28t51.5 -12q9 0 22.5 2.5t44.5 9.5z" />
    <glyph glyph-name="uniFEFB" unicode="&#xfedf;&#xfe8e;" horiz-adv-x="539" arabic-form="isolated" 
d="M46 17l11 131q67 43 125 90t96 92q-58 55 -117.5 102t-125.5 95l58 115q54 -43 119 -100t124 -119q14 31 22.5 67t12 84t3.5 115l112 23q-1 -94 -11.5 -157.5t-30.5 -110t-49 -89.5q42 -51 68 -99t26 -87q0 -49 -21.5 -87t-71 -60t-135.5 -22q-75 0 -126 5t-89 12z
M411 167q0 9 -17.5 34.5t-60.5 72.5q-29 -33 -63.5 -64.5t-76.5 -65.5q24 -1 46 -2t37 -1q57 0 96 6.5t39 19.5z" />
    <glyph glyph-name="uniFEFC" unicode="&#xfee0;&#xfe8e;" horiz-adv-x="623" arabic-form="final" 
d="M623 0q-76 0 -124 21t-77 62q-40 -37 -107 -61t-156 -24q-10 0 -26.5 1t-33.5 2.5t-27 4.5l-24 147q23 -2 47.5 -4t42.5 -2q58 0 104 4q-19 53 -43 112t-50.5 116t-51.5 106t-46 83l101 97q34 -63 66 -147t60.5 -175.5t50.5 -176.5q54 16 54 39v484l112 23v-523
q0 -15 20.5 -23.5t50.5 -12t57 -3.5l21 -6v-137z" />
    <glyph glyph-name="uniFEE0_uniFB51.rlig" unicode="&#xfee0;&#xfb51;" horiz-adv-x="623" 
d="M623 0q-76 0 -124 21t-77 62q-40 -37 -107 -61t-156 -24q-10 0 -26.5 1t-33.5 2.5t-27 4.5l-24 147q23 -2 47.5 -4t42.5 -2q58 0 104 4q-35 96 -79 194t-88 181l100 92q35 -79 61.5 -152t49 -146.5t43.5 -153.5q54 16 54 39v484l112 23v-523q0 -15 20.5 -23.5t50.5 -12
t57 -3.5l21 -6v-137zM155 681q-34 0 -55 11t-43 11q-5 0 -11 -5.5t-20 -24.5l-38 18q11 38 31 59.5t46 21.5h1q26 46 55.5 74t54.5 28q30 0 52 -29t22 -67q0 -45 -25.5 -71t-69.5 -26zM169 806q-33 0 -62 -47q12 -5 26 -8.5t29 -3.5q45 0 45 18q0 12 -11.5 26.5t-26.5 14.5z
" />
    <glyph glyph-name="uniFEDF_uniFB51.rlig" unicode="&#xfedf;&#xfb51;" horiz-adv-x="539" 
d="M46 17l11 131q63 40 119 85t94 88q-53 42 -114.5 86t-120.5 85l57 114q61 -45 123 -94t116 -99q16 32 25.5 69t13.5 86.5t4 120.5l112 23q-1 -96 -12 -160t-31.5 -111t-50.5 -90q44 -48 70.5 -94.5t26.5 -87.5q0 -49 -22.5 -87t-72.5 -60t-133 -22q-75 0 -126 5t-89 12z
M411 167q0 18 -22 44.5t-59 59.5q-28 -32 -62 -63t-76 -64q24 -1 46.5 -2t37.5 -1q57 0 96 6.5t39 19.5zM139 681q-34 0 -55 11t-43 11q-5 0 -11 -5.5t-20 -24.5l-38 18q11 38 31 59.5t46 21.5h1q26 46 55.5 74t54.5 28q30 0 52 -29t22 -67q0 -45 -25.5 -71t-69.5 -26z
M153 806q-33 0 -62 -47q12 -5 26 -8.5t29 -3.5q45 0 45 18q0 12 -11.5 26.5t-26.5 14.5z" />
    <glyph glyph-name="uni066E.init" unicode="&#x66e;" horiz-adv-x="311" 
d="M-21 144l21 6h17q62 0 98.5 11.5t36.5 28.5q0 16 -8.5 55t-22 88.5t-27.5 93.5l124 43q15 -61 24 -122.5t9 -113.5q0 -64 -25.5 -117t-77 -85t-131.5 -32h-17l-21 7v137z" />
    <glyph glyph-name="uni066E.medi" unicode="&#x66e;" horiz-adv-x="363" 
d="M384 7l-21 -7q-75 0 -122 16t-80 40q-28 -24 -68 -40t-93 -16l-21 7v137l21 6q69 0 96.5 13.5t29.5 46.5l11 154l112 -4l-11 -194q22 -8 58 -12t67 -4l21 -6v-137z" />
    <glyph glyph-name="uni066E.fina" unicode="&#x66e;" horiz-adv-x="939" 
d="M712 364l112 -4l-11 -194q22 -8 58.5 -12t67.5 -4l21 -6v-137l-21 -7q-76 0 -124.5 16t-83.5 41q-20 -15 -43 -25.5t-55.5 -17.5t-81 -10.5t-120.5 -3.5q-118 0 -193 17.5t-116 50.5t-56.5 78.5t-15.5 100.5q0 47 13.5 95.5t32.5 83.5l83 -30q-7 -22 -13 -54t-6 -60
q0 -52 27.5 -80.5t88.5 -40t161 -11.5q84 0 136 4t79.5 12t37.5 19.5t11 26.5z" />
    <glyph glyph-name="uni066F.fina" unicode="&#x66f;" horiz-adv-x="739" 
d="M341 -210q-93 0 -153.5 18.5t-95 50.5t-48.5 75.5t-14 92.5q0 51 16.5 100.5t41.5 91.5l73 -28q-14 -42 -18.5 -68.5t-4.5 -55.5q0 -67 51 -97.5t160 -30.5q128 0 182.5 17t54.5 37v7h-95q-112 0 -161.5 40t-49.5 112q0 47 14 98.5t39 96.5t60 73t77 28q55 0 98 -38.5
t70.5 -105.5t34.5 -154h66l21 -6v-137l-21 -7h-66q-3 -34 -11 -63t-24 -51q-40 -57 -118 -76.5t-179 -19.5zM500 142h78q-8 43 -25 79.5t-41 58.5t-52 22q-29 0 -50.5 -19.5t-33 -45.5t-11.5 -48q0 -20 32.5 -33.5t102.5 -13.5z" />
    <glyph glyph-name="uni06A1.init" unicode="&#x6a1;" horiz-adv-x="489" 
d="M0 150h95q84 0 134 4t74.5 12t32 19t7.5 26v30q-23 -12 -51 -19t-65 -7q-90 0 -135 38t-45 95q0 56 15 108t41.5 93t60 64.5t69.5 23.5q63 0 108 -48t68.5 -128t23.5 -178q0 -70 -12 -126.5t-49 -90.5q-34 -31 -98 -48.5t-177 -17.5h-97l-21 7v137zM132 374
q0 -17 26 -27.5t75 -10.5q25 0 50 2.5t51 9.5q-14 69 -46 106t-65 37q-29 0 -49.5 -19t-31 -46t-10.5 -52z" />
    <glyph glyph-name="uni06A1.medi" unicode="&#x6a1;" horiz-adv-x="482" 
d="M482 150l21 -6v-137l-21 -7q-51 0 -90.5 3t-75 13.5t-73.5 32.5q-45 -24 -101 -36.5t-142 -12.5l-21 7v137l21 6q31 0 58.5 1.5t51.5 3.5q-20 25 -33 55.5t-13 66.5q0 44 14.5 85.5t40 74.5t58.5 52.5t70 19.5q49 0 90 -31.5t65.5 -84t24.5 -117.5q0 -34 -14 -65t-35 -57
q47 -4 104 -4zM139 278q0 -10 15 -29t40 -38.5t53 -31.5q26 9 49.5 26t39 33.5t15.5 26.5q0 20 -16.5 43.5t-41.5 40.5t-52 17q-25 0 -48.5 -16t-38.5 -36.5t-15 -35.5z" />
    <glyph glyph-name="uni06A1.fina" unicode="&#x6a1;" horiz-adv-x="969" 
d="M969 150l21 -6v-137l-21 -7q-51 0 -91.5 3t-76 13.5t-73.5 32.5q-32 -16 -71.5 -27t-94 -16.5t-130.5 -5.5q-118 0 -192.5 17.5t-116 50.5t-57.5 78.5t-16 100.5q0 45 13.5 95t32.5 84l83 -30q-7 -24 -13 -54.5t-6 -59.5q0 -47 24 -76t84.5 -42.5t171.5 -13.5
q41 0 80.5 2t74.5 5q-19 25 -31.5 54.5t-12.5 65.5q0 44 14.5 85.5t40 74.5t58 52.5t69.5 19.5q50 0 91 -31.5t65.5 -84t24.5 -117.5q0 -34 -13.5 -65t-35.5 -57q47 -4 104 -4zM626 278q0 -10 15 -29t39.5 -38.5t52.5 -31.5q26 10 50 26.5t39.5 33t15.5 26.5
q0 20 -16.5 43.5t-42 40.5t-51.5 17q-25 0 -48.5 -16t-38.5 -36.5t-15 -35.5z" />
    <glyph glyph-name="uni06BA.init" unicode="&#x6ba;" horiz-adv-x="311" 
d="M-21 144l21 6h17q62 0 98.5 11.5t36.5 28.5q0 16 -8.5 55t-22 88.5t-27.5 93.5l124 43q15 -61 24 -122.5t9 -113.5q0 -64 -25.5 -117t-77 -85t-131.5 -32h-17l-21 7v137z" />
    <glyph glyph-name="uni06BA.medi" unicode="&#x6ba;" horiz-adv-x="363" 
d="M384 7l-21 -7q-75 0 -122 16t-80 40q-28 -24 -68 -40t-93 -16l-21 7v137l21 6q69 0 96.5 13.5t29.5 46.5l11 154l112 -4l-11 -194q22 -8 58 -12t67 -4l21 -6v-137z" />
    <glyph glyph-name="uni06C2.fina" unicode="&#x6c2;" horiz-adv-x="535" 
d="M556 7l-21 -7q-42 0 -69 3.5t-47 16.5t-41.5 41.5t-54.5 78.5q-17 26 -34 43.5t-41 17.5q-29 0 -73.5 -26t-86.5 -64l-62 70q60 79 124.5 119.5t108.5 40.5q46 0 77.5 -29.5t65.5 -85.5q21 -33 36.5 -49.5t37 -21.5t59.5 -5l21 -7v-136zM355 533l-9 -71q-58 -10 -98 -18
t-86 -19l-22 60q22 6 43 11q-18 24 -18 60q0 43 27.5 73.5t65.5 30.5q41 0 78 -27l-14 -50q-32 8 -55 8q-25 0 -39 -8t-14 -22q0 -16 22.5 -28t51.5 -12q9 0 22.5 2.5t44.5 9.5z" />
    <glyph glyph-name="uni06C3.fina" unicode="&#x6c3;" horiz-adv-x="535" 
d="M556 7l-21 -7q-42 0 -69 3.5t-47 16.5t-41.5 41.5t-54.5 78.5q-17 26 -34 43.5t-41 17.5q-29 0 -73.5 -26t-86.5 -64l-62 70q60 79 124.5 119.5t108.5 40.5q46 0 77.5 -29.5t65.5 -85.5q21 -33 36.5 -49.5t37 -21.5t59.5 -5l21 -7v-136zM166 425l-72 72v10l72 72h10
l72 -72v-10l-72 -72h-10zM332 425l-72 72v10l72 72h10l72 -72v-10l-72 -72h-10z" />
    <glyph glyph-name="uni06D5.fina" unicode="&#x6d5;" horiz-adv-x="490" 
d="M511 7l-21 -7q-131 0 -173 71q-17 -5 -41.5 -8.5t-64.5 -3.5q-47 0 -86.5 13t-63 35t-23.5 49q0 52 8 87.5t25 63.5q25 39 62.5 71t81 59t84.5 48v43l106 23v-359q0 -20 24 -31t61 -11l21 -6v-137zM127 241q0 -15 32.5 -25.5t79.5 -10.5q17 0 32 1t28 3v161
q-79 -39 -125.5 -74t-46.5 -55z" />
    <glyph glyph-name="uniFB50" unicode="&#x671;" horiz-adv-x="253" arabic-form="isolated" 
d="M164 0h-92v613l112 23v-252q0 -23 -1 -61t-3 -83.5t-5 -91t-5.5 -84.5t-5.5 -64zM150 705q-34 0 -55 11t-43 11q-5 0 -11 -5.5t-20 -24.5l-38 18q11 38 31 59.5t46 21.5h1q26 46 55.5 74t54.5 28q30 0 52 -29t22 -67q0 -45 -25.5 -71t-69.5 -26zM164 830q-33 0 -62 -47
q12 -5 26 -8.5t29 -3.5q45 0 45 18q0 12 -11.5 26.5t-26.5 14.5z" />
    <glyph glyph-name="uniFB51" unicode="&#x671;" horiz-adv-x="305" arabic-form="final" 
d="M326 6l-21 -6q-121 0 -179 63t-59 196l-2 354l112 23v-447q0 -20 38 -29.5t90 -9.5l21 -6v-138zM143 705q-34 0 -55 11t-43 11q-5 0 -11 -5.5t-20 -24.5l-38 18q11 38 31 59.5t46 21.5h1q26 46 55.5 74t54.5 28q30 0 52 -29t22 -67q0 -45 -25.5 -71t-69.5 -26zM157 830
q-33 0 -62 -47q12 -5 26 -8.5t29 -3.5q45 0 45 18q0 12 -11.5 26.5t-26.5 14.5z" />
    <glyph glyph-name="uniFB56" unicode="&#x67e;" horiz-adv-x="900" arabic-form="isolated" 
d="M432 0q-120 0 -195 18t-116 51.5t-56 79t-15 99.5q0 50 14.5 98.5t31.5 79.5l83 -30q-7 -23 -13 -52.5t-6 -60.5q0 -50 25 -79t86.5 -41.5t168.5 -12.5q158 0 231 18t73 42q0 17 -8 51.5t-20.5 77.5t-25.5 86l124 45q14 -55 23.5 -118.5t9.5 -116.5q0 -122 -106 -178.5
t-309 -56.5zM291 -144l69 69h10l69 -69v-10l-69 -69h-10l-69 69v10zM451 -144l69 69h10l69 -69v-10l-69 -69h-10l-69 69v10zM371 -280l69 69h10l69 -69v-10l-69 -69h-10l-69 69v10z" />
    <glyph glyph-name="uniFB57" unicode="&#x67e;" horiz-adv-x="939" arabic-form="final" 
d="M712 364l112 -4l-11 -194q22 -8 58.5 -12t67.5 -4l21 -6v-137l-21 -7q-76 0 -124.5 16t-83.5 41q-20 -15 -43 -25.5t-55.5 -17.5t-81 -10.5t-120.5 -3.5q-118 0 -193 17.5t-116 50.5t-56.5 78.5t-15.5 100.5q0 47 13.5 95.5t32.5 83.5l83 -30q-7 -22 -13 -54t-6 -60
q0 -52 27.5 -80.5t88.5 -40t161 -11.5q84 0 136 4t79.5 12t37.5 19.5t11 26.5zM283 -144l69 69h10l69 -69v-10l-69 -69h-10l-69 69v10zM443 -144l69 69h10l69 -69v-10l-69 -69h-10l-69 69v10zM363 -280l69 69h10l69 -69v-10l-69 -69h-10l-69 69v10z" />
    <glyph glyph-name="uniFB58" unicode="&#x67e;" horiz-adv-x="311" arabic-form="initial" 
d="M-21 144l21 6h17q62 0 98.5 11.5t36.5 28.5q0 16 -8.5 55t-22 88.5t-27.5 93.5l124 43q15 -61 24 -122.5t9 -113.5q0 -64 -25.5 -117t-77 -85t-131.5 -32h-17l-21 7v137zM-37 -144l69 69h10l69 -69v-10l-69 -69h-10l-69 69v10zM123 -144l69 69h10l69 -69v-10l-69 -69h-10
l-69 69v10zM43 -280l69 69h10l69 -69v-10l-69 -69h-10l-69 69v10z" />
    <glyph glyph-name="uniFB59" unicode="&#x67e;" horiz-adv-x="363" arabic-form="medial" 
d="M384 7l-21 -7q-75 0 -122 16t-80 40q-28 -24 -68 -40t-93 -16l-21 7v137l21 6q69 0 96.5 13.5t29.5 46.5l11 154l112 -4l-11 -194q22 -8 58 -12t67 -4l21 -6v-137zM-11 -144l69 69h10l69 -69v-10l-69 -69h-10l-69 69v10zM149 -144l69 69h10l69 -69v-10l-69 -69h-10
l-69 69v10zM69 -280l69 69h10l69 -69v-10l-69 -69h-10l-69 69v10z" />
    <glyph glyph-name="uniFB66" unicode="&#x679;" horiz-adv-x="900" arabic-form="isolated" 
d="M432 0q-120 0 -195 18t-116 51.5t-56 79t-15 99.5q0 50 14.5 98.5t31.5 79.5l83 -30q-7 -23 -13 -52.5t-6 -60.5q0 -50 25 -79t86.5 -41.5t168.5 -12.5q158 0 231 18t73 42q0 17 -8 51.5t-20.5 77.5t-25.5 86l124 45q14 -55 23.5 -118.5t9.5 -116.5q0 -122 -106 -178.5
t-309 -56.5zM558 573q0 -49 -32.5 -71t-103.5 -22q-31 0 -56.5 1.5t-43.5 3.5l-3 67q14 -2 44 -4q1 23 2 50.5t1 53.5v41l51 12v-45q0 -21 -5 -49q19 27 37.5 41.5t34.5 14.5q30 0 52 -29t22 -65zM477 599q-19 0 -35.5 -12t-34.5 -41h18q39 0 64.5 5.5t25.5 12.5t-11 21
t-27 14z" />
    <glyph glyph-name="uniFB67" unicode="&#x679;" horiz-adv-x="939" arabic-form="final" 
d="M712 364l112 -4l-11 -194q22 -8 58.5 -12t67.5 -4l21 -6v-137l-21 -7q-76 0 -124.5 16t-83.5 41q-20 -15 -43 -25.5t-55.5 -17.5t-81 -10.5t-120.5 -3.5q-118 0 -193 17.5t-116 50.5t-56.5 78.5t-15.5 100.5q0 47 13.5 95.5t32.5 83.5l83 -30q-7 -22 -13 -54t-6 -60
q0 -52 27.5 -80.5t88.5 -40t161 -11.5q84 0 136 4t79.5 12t37.5 19.5t11 26.5zM576 573q0 -49 -32.5 -71t-103.5 -22q-31 0 -56.5 1.5t-43.5 3.5l-3 67q14 -2 44 -4q1 23 2 50.5t1 53.5v41l51 12v-45q0 -21 -5 -49q19 27 37.5 41.5t34.5 14.5q30 0 52 -29t22 -65zM495 599
q-19 0 -35.5 -12t-34.5 -41h18q39 0 64.5 5.5t25.5 12.5t-11 21t-27 14z" />
    <glyph glyph-name="uniFB68" unicode="&#x679;" horiz-adv-x="311" arabic-form="initial" 
d="M-21 144l21 6h17q62 0 98.5 11.5t36.5 28.5q0 16 -8.5 55t-22 88.5t-27.5 93.5l124 43q15 -61 24 -122.5t9 -113.5q0 -64 -25.5 -117t-77 -85t-131.5 -32h-17l-21 7v137zM263 640q0 -49 -32.5 -71t-103.5 -22q-31 0 -56.5 1.5t-43.5 3.5l-3 67q14 -2 44 -4q1 23 2 50.5
t1 53.5v41l51 12v-45q0 -21 -5 -49q19 27 37.5 41.5t34.5 14.5q30 0 52 -29t22 -65zM182 666q-19 0 -35.5 -12t-34.5 -41h18q39 0 64.5 5.5t25.5 12.5t-11 21t-27 14z" />
    <glyph glyph-name="uniFB69" unicode="&#x679;" horiz-adv-x="363" arabic-form="medial" 
d="M384 7l-21 -7q-75 0 -122 16t-80 40q-28 -24 -68 -40t-93 -16l-21 7v137l21 6q69 0 96.5 13.5t29.5 46.5l11 154l112 -4l-11 -194q22 -8 58 -12t67 -4l21 -6v-137zM299 561q0 -49 -32.5 -71t-103.5 -22q-31 0 -56.5 1.5t-43.5 3.5l-3 67q14 -2 44 -4q1 23 2 50.5t1 53.5
v41l51 12v-45q0 -21 -5 -49q19 27 37.5 41.5t34.5 14.5q30 0 52 -29t22 -65zM218 587q-19 0 -35.5 -12t-34.5 -41h18q39 0 64.5 5.5t25.5 12.5t-11 21t-27 14z" />
    <glyph glyph-name="uniFB6A" unicode="&#x6a4;" horiz-adv-x="897" arabic-form="isolated" 
d="M438 0q-117 0 -193 16.5t-118.5 48.5t-59.5 78t-17 104q0 47 13.5 96t32.5 83l83 -30q-7 -24 -13 -55t-6 -59q0 -47 23.5 -76t86 -42.5t177.5 -13.5q113 0 179.5 7t95.5 21t29 33v30q-23 -12 -51 -19t-65 -7q-91 0 -135.5 38t-44.5 96q0 56 15 107.5t41.5 92.5t60 64.5
t69.5 23.5q63 0 108 -48t68.5 -128t23.5 -178q0 -70 -12.5 -122t-50.5 -85q-42 -37 -127 -56.5t-213 -19.5zM540 374q0 -17 26 -27.5t75 -10.5q25 0 50 2.5t51 9.5q-14 69 -46 106t-65 37q-29 0 -49.5 -19t-31 -46t-10.5 -52zM626 855l-69 69v10l69 69h10l69 -69v-10
l-69 -69h-10zM546 719l-69 69v10l69 69h10l69 -69v-10l-69 -69h-10zM706 719l-69 69v10l69 69h10l69 -69v-10l-69 -69h-10z" />
    <glyph glyph-name="uniFB6B" unicode="&#x6a4;" horiz-adv-x="969" arabic-form="final" 
d="M969 150l21 -6v-137l-21 -7q-51 0 -91.5 3t-76 13.5t-73.5 32.5q-32 -16 -71.5 -27t-94 -16.5t-130.5 -5.5q-118 0 -192.5 17.5t-116 50.5t-57.5 78.5t-16 100.5q0 45 13.5 95t32.5 84l83 -30q-7 -24 -13 -54.5t-6 -59.5q0 -47 24 -76t84.5 -42.5t171.5 -13.5
q41 0 80.5 2t74.5 5q-19 25 -31.5 54.5t-12.5 65.5q0 44 14.5 85.5t40 74.5t58 52.5t69.5 19.5q50 0 91 -31.5t65.5 -84t24.5 -117.5q0 -34 -13.5 -65t-35.5 -57q47 -4 104 -4zM626 278q0 -10 15 -29t39.5 -38.5t52.5 -31.5q26 10 50 26.5t39.5 33t15.5 26.5
q0 20 -16.5 43.5t-42 40.5t-51.5 17q-25 0 -48.5 -16t-38.5 -36.5t-15 -35.5zM723 729l-69 69v10l69 69h10l69 -69v-10l-69 -69h-10zM643 593l-69 69v10l69 69h10l69 -69v-10l-69 -69h-10zM803 593l-69 69v10l69 69h10l69 -69v-10l-69 -69h-10z" />
    <glyph glyph-name="uniFB6C" unicode="&#x6a4;" horiz-adv-x="489" arabic-form="initial" 
d="M0 150h95q84 0 134 4t74.5 12t32 19t7.5 26v30q-23 -12 -51 -19t-65 -7q-90 0 -135 38t-45 95q0 56 15 108t41.5 93t60 64.5t69.5 23.5q63 0 108 -48t68.5 -128t23.5 -178q0 -70 -12 -126.5t-49 -90.5q-34 -31 -98 -48.5t-177 -17.5h-97l-21 7v137zM132 374
q0 -17 26 -27.5t75 -10.5q25 0 50 2.5t51 9.5q-14 69 -46 106t-65 37q-29 0 -49.5 -19t-31 -46t-10.5 -52zM218 855l-69 69v10l69 69h10l69 -69v-10l-69 -69h-10zM138 719l-69 69v10l69 69h10l69 -69v-10l-69 -69h-10zM298 719l-69 69v10l69 69h10l69 -69v-10l-69 -69h-10z
" />
    <glyph glyph-name="uniFB6D" unicode="&#x6a4;" horiz-adv-x="482" arabic-form="medial" 
d="M482 150l21 -6v-137l-21 -7q-51 0 -90.5 3t-75 13.5t-73.5 32.5q-45 -24 -101 -36.5t-142 -12.5l-21 7v137l21 6q31 0 58.5 1.5t51.5 3.5q-20 25 -33 55.5t-13 66.5q0 44 14.5 85.5t40 74.5t58.5 52.5t70 19.5q49 0 90 -31.5t65.5 -84t24.5 -117.5q0 -34 -14 -65t-35 -57
q47 -4 104 -4zM139 278q0 -10 15 -29t40 -38.5t53 -31.5q26 9 49.5 26t39 33.5t15.5 26.5q0 20 -16.5 43.5t-41.5 40.5t-52 17q-25 0 -48.5 -16t-38.5 -36.5t-15 -35.5zM236 729l-69 69v10l69 69h10l69 -69v-10l-69 -69h-10zM156 593l-69 69v10l69 69h10l69 -69v-10l-69 -69
h-10zM316 593l-69 69v10l69 69h10l69 -69v-10l-69 -69h-10z" />
    <glyph glyph-name="uniFB7A" unicode="&#x686;" horiz-adv-x="653" arabic-form="isolated" 
d="M637 -212q-30 -26 -78 -49.5t-105 -38t-115 -14.5q-89 0 -156 28.5t-104 83t-37 133.5q0 66 27 120t73 96.5t103.5 73.5t118.5 50q-55 26 -101 43t-70 17q-22 0 -48 -15.5t-43 -32.5l-63 57q20 29 47 58.5t57 50t59 20.5q27 0 62.5 -11.5t73.5 -28.5t74 -35t65.5 -31.5
t47.5 -16.5q6 -1 25 -1.5t55 -0.5l-31 -139q-64 -7 -128.5 -24.5t-122 -42t-102.5 -54.5t-71 -62.5t-26 -66.5q0 -36 36 -62t93 -40t118 -14q62 0 119 11.5t106 31.5zM295 -26l-49 49v8l49 49h9l49 -49v-8l-49 -49h-9zM414 -26l-49 49v8l49 49h9l49 -49v-8l-49 -49h-9z
M355 -129l-49 49v8l49 49h9l49 -49v-8l-49 -49h-9z" />
    <glyph glyph-name="uniFB7B" unicode="&#x686;" horiz-adv-x="676" arabic-form="final" 
d="M576 -129l44 -96q-32 -24 -77.5 -44t-97.5 -32.5t-106 -12.5q-89 0 -156 28.5t-104 83t-37 133.5q0 66 27 120t73 96.5t103.5 73.5t118.5 50q-55 26 -101 43t-70 17q-22 0 -48 -15.5t-43 -32.5l-63 57q20 29 47 58.5t57 50t59 20.5q27 0 62.5 -11.5t73.5 -28.5t74 -35
t65.5 -31.5t47.5 -16.5q6 -1 25 -1.5t55 -0.5l-29 -132q-22 -3 -44 -7q22 -32 56 -43.5t88 -11.5l21 -6v-137l-21 -7q-99 0 -156 44t-87 138q-85 -25 -155 -61t-112 -79t-42 -87q0 -36 36 -62t93 -40t118 -14q55 0 107.5 8t97.5 24zM273 -26l-49 49v8l49 49h9l49 -49v-8
l-49 -49h-9zM392 -26l-49 49v8l49 49h9l49 -49v-8l-49 -49h-9zM333 -129l-49 49v8l49 49h9l49 -49v-8l-49 -49h-9z" />
    <glyph glyph-name="uniFB7C" unicode="&#x686;" horiz-adv-x="645" arabic-form="initial" 
d="M526 179q-28 -4 -64.5 -23.5t-80.5 -45.5t-94.5 -51.5t-107.5 -42t-119 -16.5h-60l-21 7v137l21 6h55q91 0 174.5 25t143.5 65q-38 18 -75.5 34.5t-68 27t-48.5 10.5q-22 0 -46 -12t-42 -28l-56 59q22 33 49.5 59t56.5 41t53 15q38 0 82.5 -17.5t92 -41.5t94 -45
t86.5 -27q5 -1 24 -1h32l-25 -126zM108 -144l69 69h10l69 -69v-10l-69 -69h-10l-69 69v10zM268 -144l69 69h10l69 -69v-10l-69 -69h-10l-69 69v10zM188 -280l69 69h10l69 -69v-10l-69 -69h-10l-69 69v10z" />
    <glyph glyph-name="uniFB7D" unicode="&#x686;" horiz-adv-x="668" arabic-form="medial" 
d="M668 0q-86 0 -138.5 36t-81.5 112q-36 -20 -79 -45t-91.5 -48.5t-103 -39t-114.5 -15.5h-60l-21 7v137l21 6h55q91 0 174.5 25t143.5 65q-38 18 -75.5 34.5t-68 27t-48.5 10.5q-22 0 -46 -12t-42 -28l-56 59q22 33 49.5 59t56.5 41t53 15q38 0 82.5 -17.5t92 -41.5
t94 -45t86.5 -27q5 -1 24 -1h32l-25 -126l-38 -6q20 -19 50 -25.5t74 -6.5l21 -6v-137zM108 -144l69 69h10l69 -69v-10l-69 -69h-10l-69 69v10zM268 -144l69 69h10l69 -69v-10l-69 -69h-10l-69 69v10zM188 -280l69 69h10l69 -69v-10l-69 -69h-10l-69 69v10z" />
    <glyph glyph-name="uniFB88" unicode="&#x688;" horiz-adv-x="546" arabic-form="isolated" 
d="M265 144q141 0 141 33q0 8 -5.5 20t-21.5 40q-44 80 -80.5 140t-65.5 101l106 78q49 -74 85.5 -143t57 -125.5t20.5 -94.5q0 -88 -59 -143.5t-174 -55.5q-123 0 -179.5 41.5t-56.5 132.5q0 54 29 117l74 -28l-7.5 -30t-3.5 -28q0 -29 32.5 -42t107.5 -13zM376 724
q0 -49 -32.5 -71t-103.5 -22q-31 0 -56.5 1.5t-43.5 3.5l-3 67q14 -2 44 -4q1 23 2 50.5t1 53.5v41l51 12v-45q0 -21 -5 -49q19 27 37.5 41.5t34.5 14.5q30 0 52 -29t22 -65zM295 750q-19 0 -35.5 -12t-34.5 -41h18q39 0 64.5 5.5t25.5 12.5t-11 21t-27 14z" />
    <glyph glyph-name="uniFB89" unicode="&#x688;" horiz-adv-x="607" arabic-form="final" 
d="M628 7l-21 -7q-57 0 -97.5 13t-69.5 46q-31 -30 -78 -47.5t-115 -17.5q-214 0 -214 174q0 54 29 117l74 -28l-7.5 -30t-3.5 -28q0 -28 31 -41.5t98 -13.5q45 0 76 5t52 15q-8 21 -15 47l-88 305l113 34l85 -296q12 -41 27.5 -64t39.5 -31.5t63 -8.5l21 -6v-137zM442 725
q0 -49 -32.5 -71t-103.5 -22q-31 0 -56.5 1.5t-43.5 3.5l-3 67q14 -2 44 -4q1 23 2 50.5t1 53.5v41l51 12v-45q0 -21 -5 -49q19 27 37.5 41.5t34.5 14.5q30 0 52 -29t22 -65zM361 751q-19 0 -35.5 -12t-34.5 -41h18q39 0 64.5 5.5t25.5 12.5t-11 21t-27 14z" />
    <glyph glyph-name="uniFB8A" unicode="&#x698;" horiz-adv-x="420" arabic-form="isolated" 
d="M370 102q0 -97 -31.5 -168.5t-91 -110.5t-145.5 -39q-33 0 -55.5 4t-48.5 11l-5 106q280 45 280 165q0 6 -4 19.5t-15 40t-32 73.5t-55 121l121 59q23 -46 41.5 -99.5t29.5 -101.5t11 -80zM196 582l-69 69v10l69 69h10l69 -69v-10l-69 -69h-10zM116 446l-69 69v10l69 69
h10l69 -69v-10l-69 -69h-10zM276 446l-69 69v10l69 69h10l69 -69v-10l-69 -69h-10z" />
    <glyph glyph-name="uniFB8B" unicode="&#x698;" horiz-adv-x="469" arabic-form="final" 
d="M-2 -201l-5 106q53 8 102.5 21.5t89.5 32.5t63.5 44t23.5 57q0 11 -12.5 49.5t-31.5 92.5t-39 112l110 43l44 -134q14 -41 43.5 -57t82.5 -16l21 -6v-137l-21 -7q-69 0 -108 23q-10 -69 -42 -123t-86 -85t-131 -31q-33 0 -55.5 4t-48.5 11zM208 562l-69 69v10l69 69h10
l69 -69v-10l-69 -69h-10zM128 426l-69 69v10l69 69h10l69 -69v-10l-69 -69h-10zM288 426l-69 69v10l69 69h10l69 -69v-10l-69 -69h-10z" />
    <glyph glyph-name="uniFB8C" unicode="&#x691;" horiz-adv-x="420" arabic-form="isolated" 
d="M370 102q0 -97 -31.5 -168.5t-91 -110.5t-145.5 -39q-33 0 -55.5 4t-48.5 11l-5 106q280 45 280 165q0 6 -4 19.5t-15 40t-32 73.5t-55 121l121 59q23 -46 41.5 -99.5t29.5 -101.5t11 -80zM322 551q0 -49 -32.5 -71t-103.5 -22q-31 0 -56.5 1.5t-43.5 3.5l-3 67
q14 -2 44 -4q1 23 2 50.5t1 53.5v41l51 12v-45q0 -21 -5 -49q19 27 37.5 41.5t34.5 14.5q30 0 52 -29t22 -65zM241 577q-19 0 -35.5 -12t-34.5 -41h18q39 0 64.5 5.5t25.5 12.5t-11 21t-27 14z" />
    <glyph glyph-name="uniFB8D" unicode="&#x691;" horiz-adv-x="469" arabic-form="final" 
d="M-2 -201l-5 106q53 8 102.5 21.5t89.5 32.5t63.5 44t23.5 57q0 11 -12.5 49.5t-31.5 92.5t-39 112l110 43l44 -134q14 -41 43.5 -57t82.5 -16l21 -6v-137l-21 -7q-69 0 -108 23q-10 -69 -42 -123t-86 -85t-131 -31q-33 0 -55.5 4t-48.5 11zM334 531q0 -49 -32.5 -71
t-103.5 -22q-31 0 -56.5 1.5t-43.5 3.5l-3 67q14 -2 44 -4q1 23 2 50.5t1 53.5v41l51 12v-45q0 -21 -5 -49q19 27 37.5 41.5t34.5 14.5q30 0 52 -29t22 -65zM253 557q-19 0 -35.5 -12t-34.5 -41h18q39 0 64.5 5.5t25.5 12.5t-11 21t-27 14z" />
    <glyph glyph-name="uniFB8E" unicode="&#x6a9;" horiz-adv-x="834" arabic-form="isolated" 
d="M405 0q-136 0 -213.5 27t-109.5 82t-32 139q0 44 13.5 95t32.5 83l83 -30q-7 -24 -13 -53t-6 -61q0 -49 22.5 -78t77 -41.5t148.5 -12.5q126 0 186 11.5t60 27.5q0 17 -23 43.5t-61.5 58t-86 63t-97.5 58.5l22 124l357 176l29 -121l-251 -124q60 -40 106.5 -79.5t73 -82
t26.5 -88.5q0 -64 -34.5 -113t-110 -76.5t-199.5 -27.5z" />
    <glyph glyph-name="uniFB8F" unicode="&#x6a9;" horiz-adv-x="901" arabic-form="final" 
d="M386 0q-125 0 -198.5 27t-105.5 82t-32 139q0 44 13.5 95t32.5 83l83 -30q-7 -24 -13 -53t-6 -61q0 -74 53.5 -103t175.5 -29q90 0 134.5 7t44.5 26q0 10 -8.5 24t-32.5 46l-114 153l23 130l357 176l29 -121l-284 -140l104 -140q48 -64 90.5 -99t83.5 -48.5t85 -13.5
l21 -6v-137l-21 -7q-88 0 -148 30t-101 82q-8 -37 -36.5 -62t-84 -37.5t-145.5 -12.5z" />
    <glyph glyph-name="uniFB90" unicode="&#x6a9;" horiz-adv-x="461" arabic-form="initial" 
d="M0 0l-21 7v137l21 6h75q96 0 151 11.5t55 27.5q0 17 -23 43.5t-62 58t-86.5 63t-96.5 58.5l22 124l357 176l29 -121l-251 -124q92 -61 149 -120t57 -131q0 -102 -77 -159t-223 -57h-76z" />
    <glyph glyph-name="uniFB91" unicode="&#x6a9;" horiz-adv-x="506" arabic-form="medial" 
d="M257 112q-10 -54 -68 -83t-157 -29h-32l-21 7v137l21 6h20q67 0 110 7t43 26q0 10 -9 24.5t-32 45.5l-114 153l23 130l357 176l29 -121l-284 -140l104 -140q48 -64 90.5 -99t83.5 -48.5t85 -13.5l21 -6v-137l-21 -7q-72 0 -135.5 25t-113.5 87z" />
    <glyph glyph-name="uniFB92" unicode="&#x6af;" horiz-adv-x="834" arabic-form="isolated" 
d="M405 0q-136 0 -213.5 27t-109.5 82t-32 139q0 44 13.5 95t32.5 83l83 -30q-7 -24 -13 -53t-6 -61q0 -49 22.5 -78t77 -41.5t148.5 -12.5q126 0 186 11.5t60 27.5q0 17 -23 43.5t-61.5 58t-86 63t-97.5 58.5l22 124l357 176l29 -121l-251 -124q60 -40 106.5 -79.5t73 -82
t26.5 -88.5q0 -64 -34.5 -113t-110 -76.5t-199.5 -27.5zM370 681l349 173l19 -85l-330 -163z" />
    <glyph glyph-name="uniFB93" unicode="&#x6af;" horiz-adv-x="901" arabic-form="final" 
d="M386 0q-125 0 -198.5 27t-105.5 82t-32 139q0 44 13.5 95t32.5 83l83 -30q-7 -24 -13 -53t-6 -61q0 -74 53.5 -103t175.5 -29q90 0 134.5 7t44.5 26q0 10 -8.5 24t-32.5 46l-114 153l23 130l357 176l29 -121l-284 -140l104 -140q48 -64 90.5 -99t83.5 -48.5t85 -13.5
l21 -6v-137l-21 -7q-88 0 -148 30t-101 82q-8 -37 -36.5 -62t-84 -37.5t-145.5 -12.5zM398 681l349 173l19 -85l-330 -163z" />
    <glyph glyph-name="uniFB94" unicode="&#x6af;" horiz-adv-x="461" arabic-form="initial" 
d="M0 0l-21 7v137l21 6h75q96 0 151 11.5t55 27.5q0 17 -23 43.5t-62 58t-86.5 63t-96.5 58.5l22 124l357 176l29 -121l-251 -124q92 -61 149 -120t57 -131q0 -102 -77 -159t-223 -57h-76zM-3 681l349 173l19 -85l-330 -163z" />
    <glyph glyph-name="uniFB95" unicode="&#x6af;" horiz-adv-x="506" arabic-form="medial" 
d="M257 112q-10 -54 -68 -83t-157 -29h-32l-21 7v137l21 6h20q67 0 110 7t43 26q0 10 -9 24.5t-32 45.5l-114 153l23 130l357 176l29 -121l-284 -140l104 -140q48 -64 90.5 -99t83.5 -48.5t85 -13.5l21 -6v-137l-21 -7q-72 0 -135.5 25t-113.5 87zM3 681l349 173l19 -85
l-330 -163z" />
    <glyph glyph-name="uniFB9E" unicode="&#x6ba;" horiz-adv-x="645" arabic-form="isolated" 
d="M600 60q0 -122 -69.5 -196t-215.5 -74q-84 0 -139.5 18t-87 50t-45 73t-13.5 87q0 58 17 109t41 92l73 -28q-14 -42 -18.5 -68.5t-4.5 -55.5q0 -67 46.5 -97.5t137.5 -30.5q87 0 133.5 27.5t46.5 57.5q0 8 -7.5 39t-18.5 71.5t-22.5 80t-19.5 64.5l117 48
q22 -82 35.5 -147t13.5 -120z" />
    <glyph glyph-name="uniFB9F" unicode="&#x6ba;" horiz-adv-x="700" arabic-form="final" 
d="M721 7l-21 -7q-56 0 -103 15q-11 -103 -81 -164t-201 -61q-84 0 -139.5 18.5t-87 51t-45 75.5t-13.5 92q0 54 17 102.5t41 89.5l73 -28q-14 -42 -18.5 -68.5t-4.5 -55.5q0 -67 46.5 -97.5t137.5 -30.5q60 0 101 14t61.5 34.5t17.5 40.5q-2 13 -9.5 42.5t-17.5 67
t-21 75.5t-20 66l117 48q12 -46 22 -86.5t16 -75.5q25 -8 55.5 -11.5t55.5 -3.5l21 -6v-137z" />
    <glyph glyph-name="uniFBA4" unicode="&#x6c0;" horiz-adv-x="475" arabic-form="isolated" 
d="M394 59q-25 -34 -63.5 -52.5t-105.5 -18.5q-100 0 -144.5 43.5t-44.5 128.5q0 49 28.5 107t95.5 131q-17 13 -35 26l56 112q128 -85 189 -170t61 -163q0 -46 -7.5 -79t-29.5 -65zM117 191q0 -53 115 -53q61 0 89 12t28 24q0 30 -33.5 74.5t-93.5 96.5q-29 -29 -53 -59
t-38 -55t-14 -40zM322 711l-9 -71q-58 -10 -98 -18t-86 -19l-22 60q22 6 43 11q-18 24 -18 60q0 43 27.5 73.5t65.5 30.5q41 0 78 -27l-14 -50q-32 8 -55 8q-25 0 -39 -8t-14 -22q0 -16 22.5 -28t51.5 -12q9 0 22.5 2.5t44.5 9.5z" />
    <glyph glyph-name="uniFBA5" unicode="&#x6c0;" horiz-adv-x="490" arabic-form="final" 
d="M511 7l-21 -7q-131 0 -173 71q-17 -5 -41.5 -8.5t-64.5 -3.5q-47 0 -86.5 13t-63 35t-23.5 49q0 52 8 87.5t25 63.5q25 39 62.5 71t81 59t84.5 48v43l106 23v-359q0 -20 24 -31t61 -11l21 -6v-137zM127 241q0 -15 32.5 -25.5t79.5 -10.5q17 0 32 1t28 3v161
q-79 -39 -125.5 -74t-46.5 -55zM328 711l-9 -71q-58 -10 -98 -18t-86 -19l-22 60q22 6 43 11q-18 24 -18 60q0 43 27.5 73.5t65.5 30.5q41 0 78 -27l-14 -50q-32 8 -55 8q-25 0 -39 -8t-14 -22q0 -16 22.5 -28t51.5 -12q9 0 22.5 2.5t44.5 9.5z" />
    <glyph glyph-name="uniFBA6" unicode="&#x6c1;" horiz-adv-x="475" arabic-form="isolated" 
d="M394 59q-25 -34 -63.5 -52.5t-105.5 -18.5q-100 0 -144.5 43.5t-44.5 128.5q0 49 28.5 107t95.5 131q-17 13 -35 26l56 112q128 -85 189 -170t61 -163q0 -46 -7.5 -79t-29.5 -65zM117 191q0 -53 115 -53q61 0 89 12t28 24q0 30 -33.5 74.5t-93.5 96.5q-29 -29 -53 -59
t-38 -55t-14 -40z" />
    <glyph glyph-name="uniFBA7" unicode="&#x6c1;" horiz-adv-x="535" arabic-form="final" 
d="M556 7l-21 -7q-42 0 -69 3.5t-47 16.5t-41.5 41.5t-54.5 78.5q-17 26 -34 43.5t-41 17.5q-29 0 -73.5 -26t-86.5 -64l-62 70q60 79 124.5 119.5t108.5 40.5q46 0 77.5 -29.5t65.5 -85.5q21 -33 36.5 -49.5t37 -21.5t59.5 -5l21 -7v-136z" />
    <glyph glyph-name="uniFBA8" unicode="&#x6c1;" horiz-adv-x="311" arabic-form="initial" 
d="M-21 144l21 6h17q62 0 98.5 11.5t36.5 28.5q0 16 -8.5 55t-22 88.5t-27.5 93.5l124 43q15 -61 24 -122.5t9 -113.5q0 -64 -25.5 -117t-77 -85t-131.5 -32h-17l-21 7v137zM192 -268l-20 -17q-25 -21 -48 -21q-13 0 -24 4.5t-20 14.5q-24 27 -24 70q0 28 19.5 66t71.5 81
l43 -40q-25 -26 -34 -45.5t-9 -36.5q0 -13 9 -29.5t36 -46.5z" />
    <glyph glyph-name="uniFBA9" unicode="&#x6c1;" horiz-adv-x="503" arabic-form="medial" 
d="M-21 143l21 7q60 0 88 11t35 36l16 55l102 -26q-12 -46 -19 -82.5t-7 -54.5q0 -45 26 -86.5t68 -70.5q9 64 35 113t64.5 77t84.5 28h10l21 -6v-137l-21 -7q-36 0 -52.5 -1t-24.5 -4q-17 -18 -17 -79q0 -10 1 -20t1 -19t-11 -21t-39 -32q-27 -20 -43 -27t-34 -7
q-27 0 -47 19q-53 48 -83 99t-42 118q-49 -26 -112 -26l-21 7v136z" />
    <glyph glyph-name="uniFBAA" unicode="&#x6be;" horiz-adv-x="770" arabic-form="isolated" 
d="M132 148q47 0 78 2q-34 59 -34 127q0 43 20 82t52.5 66.5t70.5 35.5l46 91q135 -75 214 -134t113 -113t34 -115q0 -92 -49.5 -146t-132.5 -54q-59 0 -111.5 12t-95.5 33q-40 -19 -84 -28t-110 -9q-31 0 -58 2.5t-42 5.5l-23 149q20 -4 53.5 -5.5t58.5 -1.5zM245 279
q0 -25 28 -51.5t70 -48.5q38 18 66.5 43.5t28.5 44.5q0 21 -15 42t-37 34.5t-45 13.5q-20 0 -42.5 -12.5t-38 -30.5t-15.5 -35zM509 279q0 -36 -12.5 -73t-35.5 -70q52 -13 96 -13q47 0 68.5 5.5t21.5 18.5q0 26 -37.5 67.5t-102.5 89.5q2 -12 2 -25z" />
    <glyph glyph-name="uniFBAB" unicode="&#x6be;" horiz-adv-x="634" arabic-form="final" 
d="M140 148h35q9 67 32.5 128.5t55.5 109.5t67 75.5t67 27.5q31 0 61.5 -28.5t50.5 -77t20 -110.5q0 -68 -32 -123h137l21 -6v-138l-21 -6h-64q16 -39 16 -77q0 -36 -21 -68t-55.5 -51.5t-77.5 -19.5q-105 0 -170.5 54t-83.5 161q-16 -1 -32 -1q-28 0 -54.5 2t-48.5 6
l-23 148q20 -2 53 -4t67 -2zM383 352q-18 0 -42.5 -29t-46 -74.5t-31.5 -94.5q101 11 145 37.5t44 56.5q0 19 -11 43.5t-27 42.5t-31 18zM509 -72q0 26 -32.5 62.5t-83.5 62.5q-51 -28 -117 -42q24 -49 73 -74t117 -25q43 0 43 16z" />
    <glyph glyph-name="uniFBAC" unicode="&#x6be;" horiz-adv-x="660" arabic-form="initial" 
d="M616 190q0 -92 -49.5 -146t-132.5 -54q-60 0 -113 12t-96 35q-92 -37 -225 -37l-21 7v137l21 6q29 0 53.5 0.5t45.5 1.5q-33 58 -33 125q0 43 20 82t52.5 66.5t70.5 35.5l46 91q135 -75 214 -134t113 -113t34 -115zM135 279q0 -25 28 -51.5t70 -48.5q38 18 66.5 43.5
t28.5 44.5q0 21 -15 42t-37 34.5t-45 13.5q-20 0 -42.5 -12.5t-38 -30.5t-15.5 -35zM399 279q0 -36 -12.5 -73t-35.5 -70q52 -13 96 -13q47 0 68.5 5.5t21.5 18.5q0 26 -37.5 67.5t-102.5 89.5q2 -12 2 -25z" />
    <glyph glyph-name="uniFBAD" unicode="&#x6be;" horiz-adv-x="518" arabic-form="medial" 
d="M470 -77q0 -36 -21 -68t-56 -51.5t-78 -19.5q-105 0 -170.5 55.5t-83.5 162.5q-29 -2 -61 -2l-21 6v138l21 6h60q9 67 32 128t55 108.5t67 75t67 27.5q31 0 61.5 -28.5t50.5 -77t20 -110.5q0 -69 -33 -123h138l21 -6v-138l-21 -6h-64q16 -39 16 -77zM267 352
q-18 0 -42 -29t-46 -74t-31 -94q52 6 94.5 20t68 33t25.5 40q0 19 -11 43.5t-27 42.5t-31 18zM393 -72q0 26 -33.5 63.5t-86.5 63.5q-50 -26 -115 -40q23 -51 72.5 -77t119.5 -26q43 0 43 16z" />
    <glyph glyph-name="uniFBAE" unicode="&#x6d2;" horiz-adv-x="733" arabic-form="isolated" 
d="M697 174l-35 -150q-81 -11 -160.5 -17.5t-146.5 -6.5q-124 0 -195.5 11t-101.5 37.5t-30 72.5q0 43 22.5 92.5t59.5 98t82 88.5t91 64t86 24q36 0 63 -36t56 -122l-80 -44q-21 29 -32.5 39.5t-24.5 10.5q-19 0 -48 -12.5t-60.5 -33t-59 -43t-44.5 -43t-17 -33.5
q0 -8 20 -12.5t70.5 -6.5t142.5 -2q47 0 106.5 3t121.5 8.5t114 12.5z" />
    <glyph glyph-name="uniFBAF" unicode="&#x6d2;" horiz-adv-x="568" arabic-form="final" 
d="M568 150l21 -7v-136l-21 -7h-320q-57 0 -88.5 -10t-44 -23.5t-12.5 -25.5q0 -15 47 -21.5t158 -6.5h169l-26 -146h-175q-133 0 -200 30t-67 109q0 43 16 86t49 79t83.5 57.5t118.5 21.5h292z" />
    <glyph glyph-name="uniFBB0" unicode="&#x6d3;" horiz-adv-x="733" arabic-form="isolated" 
d="M697 174l-35 -150q-81 -11 -160.5 -17.5t-146.5 -6.5q-124 0 -195.5 11t-101.5 37.5t-30 72.5q0 43 22.5 92.5t59.5 98t82 88.5t91 64t86 24q36 0 63 -36t56 -122l-80 -44q-21 29 -32.5 39.5t-24.5 10.5q-19 0 -48 -12.5t-60.5 -33t-59 -43t-44.5 -43t-17 -33.5
q0 -8 20 -12.5t70.5 -6.5t142.5 -2q47 0 106.5 3t121.5 8.5t114 12.5zM413 671l-9 -71q-58 -10 -98 -18t-86 -19l-22 60q22 6 43 11q-18 24 -18 60q0 43 27.5 73.5t65.5 30.5q41 0 78 -27l-14 -50q-32 8 -55 8q-25 0 -39 -8t-14 -22q0 -16 22.5 -28t51.5 -12q9 0 22.5 2.5
t44.5 9.5z" />
    <glyph glyph-name="uniFBB1" unicode="&#x6d3;" horiz-adv-x="568" arabic-form="final" 
d="M568 150l21 -7v-136l-21 -7h-320q-57 0 -88.5 -10t-44 -23.5t-12.5 -25.5q0 -15 47 -21.5t158 -6.5h169l-26 -146h-175q-133 0 -200 30t-67 109q0 43 16 86t49 79t83.5 57.5t118.5 21.5h292zM413 344l-9 -71q-58 -10 -98 -18t-86 -19l-22 60q22 6 43 11q-18 24 -18 60
q0 43 27.5 73.5t65.5 30.5q41 0 78 -27l-14 -50q-32 8 -55 8q-25 0 -39 -8t-14 -22q0 -16 22.5 -28t51.5 -12q9 0 22.5 2.5t44.5 9.5z" />
    <glyph glyph-name="uniFBE8" unicode="&#x649;" horiz-adv-x="311" arabic-form="initial" 
d="M-21 144l21 6h17q62 0 98.5 11.5t36.5 28.5q0 16 -8.5 55t-22 88.5t-27.5 93.5l124 43q15 -61 24 -122.5t9 -113.5q0 -64 -25.5 -117t-77 -85t-131.5 -32h-17l-21 7v137z" />
    <glyph glyph-name="uniFBE9" unicode="&#x649;" horiz-adv-x="363" arabic-form="medial" 
d="M384 7l-21 -7q-75 0 -122 16t-80 40q-28 -24 -68 -40t-93 -16l-21 7v137l21 6q69 0 96.5 13.5t29.5 46.5l11 154l112 -4l-11 -194q22 -8 58 -12t67 -4l21 -6v-137z" />
    <glyph glyph-name="uniFBFC" unicode="&#x6cc;" horiz-adv-x="715" arabic-form="isolated" 
d="M161 191q-13 -39 -18 -65.5t-5 -58.5q0 -66 52 -97t164 -31q62 0 114.5 8t84.5 20.5t32 27.5q0 10 -29 24.5t-101 39.5q-79 26 -109 52.5t-30 72.5q0 71 26.5 129.5t71 93t98.5 34.5q44 0 90 -26t74 -66l-61 -82q-22 17 -51.5 27.5t-58.5 10.5q-22 0 -46 -10.5
t-40.5 -25.5t-16.5 -29q0 -10 23 -22t87 -35q59 -20 94.5 -39.5t51 -43.5t15.5 -58q0 -81 -40 -137.5t-113 -85.5t-173 -29q-167 0 -242 60t-75 168q0 53 15 102.5t43 98.5z" />
    <glyph glyph-name="uniFBFD" unicode="&#x6cc;" horiz-adv-x="700" arabic-form="final" 
d="M635 -5q0 -48 -32.5 -95t-98 -78.5t-165.5 -31.5q-118 0 -185.5 30.5t-95.5 82t-28 115.5q0 53 15 102.5t43 98.5l73 -28q-14 -42 -18.5 -68.5t-4.5 -55.5q0 -67 51.5 -97.5t157.5 -30.5q96 0 148.5 19t52.5 40q0 12 -8 27t-32 38t-71 58l69 103l32 -20q36 -22 60 -33.5
t47.5 -16t54.5 -4.5l21 -6v-137l-21 -7q-39 0 -66 10q1 -7 1 -15z" />
    <glyph glyph-name="uniFBFE" unicode="&#x6cc;" horiz-adv-x="311" arabic-form="initial" 
d="M-21 144l21 6h17q62 0 98.5 11.5t36.5 28.5q0 16 -8.5 55t-22 88.5t-27.5 93.5l124 43q15 -61 24 -122.5t9 -113.5q0 -64 -25.5 -117t-77 -85t-131.5 -32h-17l-21 7v137zM-43 -147l72 72h10l72 -72v-10l-72 -72h-10l-72 72v10zM123 -147l72 72h10l72 -72v-10l-72 -72h-10
l-72 72v10z" />
    <glyph glyph-name="uniFBFF" unicode="&#x6cc;" horiz-adv-x="363" arabic-form="medial" 
d="M384 7l-21 -7q-75 0 -122 16t-80 40q-28 -24 -68 -40t-93 -16l-21 7v137l21 6q69 0 96.5 13.5t29.5 46.5l11 154l112 -4l-11 -194q22 -8 58 -12t67 -4l21 -6v-137zM-17 -147l72 72h10l72 -72v-10l-72 -72h-10l-72 72v10zM149 -147l72 72h10l72 -72v-10l-72 -72h-10
l-72 72v10z" />
    <glyph glyph-name="uniFC31" unicode="&#xfc31;" horiz-adv-x="733" arabic-form="isolated" 
d="M88 219l73 -28q-14 -42 -18.5 -68.5t-4.5 -55.5q0 -67 51.5 -97.5t157.5 -30.5q96 0 148.5 19t52.5 40q0 19 -20 39.5t-56.5 37.5t-87.5 23l8 113h38q86 0 121.5 11.5t35.5 30.5v44q-23 -12 -51 -19t-65 -7q-90 0 -135 38t-45 95q0 56 15 108t41.5 93t60 64.5t69.5 23.5
q63 0 108 -48t68.5 -128t23.5 -178q0 -84 -21 -135.5t-73 -77.5q33 -36 42.5 -66t9.5 -60q0 -51 -32.5 -99t-98 -79.5t-165.5 -31.5q-119 0 -186.5 30.5t-95 82t-27.5 115.5q0 53 15 102.5t43 98.5zM376 430q0 -17 26 -27.5t75 -10.5q25 0 50 2.5t51 9.5q-14 69 -46 106
t-65 37q-29 0 -49.5 -19t-31 -46t-10.5 -52zM462 775l-74 74v10l74 74h10l74 -74v-10l-74 -74h-10z" />
    <glyph glyph-name="uniFC35" unicode="&#xfc35;" horiz-adv-x="733" arabic-form="isolated" 
d="M88 219l73 -28q-14 -42 -18.5 -68.5t-4.5 -55.5q0 -67 51.5 -97.5t157.5 -30.5q96 0 148.5 19t52.5 40q0 19 -20 39.5t-56.5 37.5t-87.5 23l8 113h38q86 0 121.5 11.5t35.5 30.5v44q-23 -12 -51 -19t-65 -7q-90 0 -135 38t-45 95q0 56 15 108t41.5 93t60 64.5t69.5 23.5
q63 0 108 -48t68.5 -128t23.5 -178q0 -84 -21 -135.5t-73 -77.5q33 -36 42.5 -66t9.5 -60q0 -51 -32.5 -99t-98 -79.5t-165.5 -31.5q-119 0 -186.5 30.5t-95 82t-27.5 115.5q0 53 15 102.5t43 98.5zM376 430q0 -17 26 -27.5t75 -10.5q25 0 50 2.5t51 9.5q-14 69 -46 106
t-65 37q-29 0 -49.5 -19t-31 -46t-10.5 -52zM379 775l-72 72v10l72 72h10l72 -72v-10l-72 -72h-10zM545 775l-72 72v10l72 72h10l72 -72v-10l-72 -72h-10z" />
    <glyph glyph-name="uniFC36" unicode="&#xfc36;" horiz-adv-x="733" arabic-form="isolated" 
d="M88 219l73 -28q-14 -42 -18.5 -68.5t-4.5 -55.5q0 -67 51.5 -97.5t157.5 -30.5q96 0 148.5 19t52.5 40q0 19 -20 39.5t-56.5 37.5t-87.5 23l8 113h38q86 0 121.5 11.5t35.5 30.5v44q-23 -12 -51 -19t-65 -7q-90 0 -135 38t-45 95q0 56 15 108t41.5 93t60 64.5t69.5 23.5
q63 0 108 -48t68.5 -128t23.5 -178q0 -84 -21 -135.5t-73 -77.5q33 -36 42.5 -66t9.5 -60q0 -51 -32.5 -99t-98 -79.5t-165.5 -31.5q-119 0 -186.5 30.5t-95 82t-27.5 115.5q0 53 15 102.5t43 98.5zM376 430q0 -17 26 -27.5t75 -10.5q25 0 50 2.5t51 9.5q-14 69 -46 106
t-65 37q-29 0 -49.5 -19t-31 -46t-10.5 -52zM379 775l-72 72v10l72 72h10l72 -72v-10l-72 -72h-10zM545 775l-72 72v10l72 72h10l72 -72v-10l-72 -72h-10zM179 -352l72 72h10l72 -72v-10l-72 -72h-10l-72 72v10zM345 -352l72 72h10l72 -72v-10l-72 -72h-10l-72 72v10z" />
    <glyph glyph-name="uniFC42" unicode="&#xfc42;" horiz-adv-x="465" arabic-form="isolated" 
d="M381 -62q-55 29 -102 45.5t-112 16.5h-53v-303l-108 -28v303q0 43 20.5 83.5t53.5 67.5t70 27h63q-17 45 -17 97v442l112 23v-473q0 -33 15.5 -59.5t50 -53.5t90.5 -63z" />
    <glyph glyph-name="uniFC44" unicode="&#xfc44;" horiz-adv-x="720" arabic-form="isolated" 
d="M392 219h38q70 0 100.5 12.5t30.5 33.5v424l112 23v-406q0 -60 -20 -109.5t-68 -76.5q50 -56 50 -119q0 -50 -31.5 -98.5t-97 -80.5t-167.5 -32q-119 0 -186.5 30.5t-95 82t-27.5 115.5q0 53 15 102.5t43 98.5l73 -28q-14 -42 -18.5 -68.5t-4.5 -55.5q0 -67 51.5 -97.5
t157.5 -30.5q97 0 149 19t52 40q0 20 -20 41.5t-56.5 39t-87.5 23.5zM179 -352l72 72h10l72 -72v-10l-72 -72h-10l-72 72v10zM345 -352l72 72h10l72 -72v-10l-72 -72h-10l-72 72v10z" />
    <glyph glyph-name="uniFC86" unicode="&#xfc86;" horiz-adv-x="841" arabic-form="final" 
d="M392 219h38q83 0 119 12.5t36 33.5v424l112 23v-446q0 -48 38 -82t106 -34l21 -7v-136l-21 -7q-76 0 -126.5 32t-79.5 93q-20 -14 -42 -23q20 -26 29 -53t9 -54q0 -48 -32 -95t-97 -78.5t-163 -31.5q-119 0 -186.5 30.5t-95 82t-27.5 115.5q0 53 15 102.5t43 98.5l73 -28
q-14 -42 -18.5 -68.5t-4.5 -55.5q0 -67 51.5 -97.5t157.5 -30.5q96 0 148.5 19t52.5 40q0 20 -20 41.5t-56.5 39t-87.5 23.5z" />
    <glyph glyph-name="uniFC87" unicode="&#xfc87;" horiz-adv-x="841" arabic-form="final" 
d="M392 219h38q83 0 119 12.5t36 33.5v424l112 23v-446q0 -48 38 -82t106 -34l21 -7v-136l-21 -7q-76 0 -126.5 32t-79.5 93q-20 -14 -42 -23q20 -26 29 -53t9 -54q0 -48 -32 -95t-97 -78.5t-163 -31.5q-119 0 -186.5 30.5t-95 82t-27.5 115.5q0 53 15 102.5t43 98.5l73 -28
q-14 -42 -18.5 -68.5t-4.5 -55.5q0 -67 51.5 -97.5t157.5 -30.5q96 0 148.5 19t52.5 40q0 20 -20 41.5t-56.5 39t-87.5 23.5zM179 -352l72 72h10l72 -72v-10l-72 -72h-10l-72 72v10zM345 -352l72 72h10l72 -72v-10l-72 -72h-10l-72 72v10z" />
    <glyph glyph-name="uniFCCC" unicode="&#xfccc;" horiz-adv-x="382" arabic-form="initial" 
d="M298 -62q-55 29 -101.5 45.5t-110.5 16.5h-86l-21 7v136l21 7h130q-17 44 -17 98v441l112 23v-473q0 -33 15.5 -59.5t50 -53.5t90.5 -63z" />
    <glyph glyph-name="uniFDF2" unicode="&#xfdf2;" horiz-adv-x="1322" arabic-form="isolated" 
d="M1233 0h-92v689l112 23v-328q0 -23 -1 -61t-3 -83.5t-5 -91t-5.5 -84.5t-5.5 -64zM790 0q-62 0 -100.5 18.5t-62.5 51.5q-53 -70 -146 -70q-122 0 -163 67q-17 -6 -41.5 -9t-65.5 -3q-47 0 -86.5 13t-63 35t-23.5 49q0 52 8 87.5t25 63.5q25 39 62.5 71t81 59t84.5 48v35
l106 23v-347q0 -20 21 -31t55 -11q52 0 76.5 14.5t24.5 36.5v378l112 23v-413q0 -19 28 -29t68 -10q53 0 77 14.5t24 36.5v437l112 23v-390q0 -63 -15 -110.5t-41 -82.5q-26 -37 -66 -57.5t-91 -20.5zM127 237q0 -15 32.5 -25.5t79.5 -10.5q17 0 32 1t28 3v161
q-79 -39 -125.5 -74t-46.5 -55zM694 670q-38 0 -61 22q-20 -32 -63 -32q-32 0 -52.5 20t-20.5 52q0 21 5.5 46.5t13.5 44.5l42 -10q-4 -14 -6.5 -29.5t-2.5 -26.5q0 -24 33 -24q14 0 23 4t8 11l-5 72l46 6l6 -76q15 -7 33 -7q13 0 21 3.5t8 8.5t-3.5 20t-8 32.5t-9.5 29.5
l56 19q8 -22 13 -50t5 -45q0 -38 -23 -64.5t-58 -26.5zM663 881h-61v186l69 10v-85q0 -11 -1.5 -33l-3 -44t-3.5 -34z" />
    <glyph glyph-name="uniFE80" unicode="&#x621;" horiz-adv-x="473" arabic-form="isolated" 
d="M81 -9l-50 111q40 4 91 13q-23 23 -34.5 51.5t-11.5 58.5q0 47 24.5 89.5t66 70t92.5 27.5q41 0 75 -13t58 -34l-30 -81q-25 8 -47.5 11.5t-39.5 3.5q-48 0 -82.5 -18t-34.5 -41q0 -22 23 -39.5t57.5 -28t67.5 -10.5q27 0 62.5 8.5t68.5 18.5l-19 -122
q-42 -12 -78.5 -21.5t-74 -18t-82 -17t-102.5 -19.5z" />
    <glyph glyph-name="uniFE81" unicode="&#x622;" horiz-adv-x="253" arabic-form="isolated" 
d="M164 0h-92v613l112 23v-252q0 -23 -1 -61t-3 -83.5t-5 -91t-5.5 -84.5t-5.5 -64zM230 822l36 -18q-27 -99 -81 -99q-17 0 -31 3t-37 11q-39 14 -61 14q-8 0 -14.5 -6t-23.5 -32l-36 18q27 99 81 99q17 0 31 -3t37 -11t36.5 -11t24.5 -3q8 0 15 6.5t23 31.5z" />
    <glyph glyph-name="uniFE82" unicode="&#x622;" horiz-adv-x="305" arabic-form="final" 
d="M326 6l-21 -6q-121 0 -179 63t-59 196l-2 354l112 23v-447q0 -20 38 -29.5t90 -9.5l21 -6v-138zM223 822l36 -18q-27 -99 -81 -99q-17 0 -31 3t-37 11q-39 14 -61 14q-8 0 -14.5 -6t-23.5 -32l-36 18q27 99 81 99q17 0 31 -3t37 -11t36.5 -11t24.5 -3q8 0 15 6.5t23 31.5
z" />
    <glyph glyph-name="uniFE83" unicode="&#x623;" horiz-adv-x="253" arabic-form="isolated" 
d="M164 0h-92v613l112 23v-252q0 -23 -1 -61t-3 -83.5t-5 -91t-5.5 -84.5t-5.5 -64zM225 801l-9 -71q-58 -10 -98 -18t-86 -19l-22 60q22 6 43 11q-18 24 -18 60q0 43 27.5 73.5t65.5 30.5q41 0 78 -27l-14 -50q-32 8 -55 8q-25 0 -39 -8t-14 -22q0 -16 22.5 -28t51.5 -12
q9 0 22.5 2.5t44.5 9.5z" />
    <glyph glyph-name="uniFE84" unicode="&#x623;" horiz-adv-x="305" arabic-form="final" 
d="M326 6l-21 -6q-121 0 -179 63t-59 196l-2 354l112 23v-447q0 -20 38 -29.5t90 -9.5l21 -6v-138zM218 801l-9 -71q-58 -10 -98 -18t-86 -19l-22 60q22 6 43 11q-18 24 -18 60q0 43 27.5 73.5t65.5 30.5q41 0 78 -27l-14 -50q-32 8 -55 8q-25 0 -39 -8t-14 -22
q0 -16 22.5 -28t51.5 -12q9 0 22.5 2.5t44.5 9.5z" />
    <glyph glyph-name="uniFE85" unicode="&#x624;" horiz-adv-x="482" arabic-form="isolated" 
d="M16 -199l-5 106q105 9 172 25t103 39.5t51 52.5q-25 -12 -52.5 -17t-61.5 -5q-82 0 -130.5 35t-48.5 105q0 57 15 111.5t41 98.5t60.5 70t73.5 26q59 0 103.5 -45.5t69.5 -123t25 -174.5q0 -157 -77 -239t-211 -82q-35 0 -70 5t-58 12zM129 181q0 -17 26 -27.5t73 -10.5
q62 0 111 14q-14 61 -45.5 103t-69.5 42q-27 0 -48.5 -18t-34 -45.5t-12.5 -57.5zM328 641l-9 -71q-58 -10 -98 -18t-86 -19l-22 60q22 6 43 11q-18 24 -18 60q0 43 27.5 73.5t65.5 30.5q41 0 78 -27l-14 -50q-32 8 -55 8q-25 0 -39 -8t-14 -22q0 -16 22.5 -28t51.5 -12
q9 0 22.5 2.5t44.5 9.5z" />
    <glyph glyph-name="uniFE86" unicode="&#x624;" horiz-adv-x="495" arabic-form="final" 
d="M16 -199l-5 106q128 11 203 33.5t108 59.5h-62q-113 0 -162.5 40t-49.5 112q0 55 14 107.5t39 95t59 68t74 25.5q54 0 96 -39t68 -106.5t32 -152.5h65l21 -6v-137l-21 -7h-73q-23 -100 -92.5 -158t-185.5 -58q-35 0 -70 5t-58 12zM268 142h78q-8 44 -27 80t-44 58t-51 22
t-47 -17t-32.5 -42.5t-11.5 -53.5q0 -19 31.5 -33t103.5 -14zM328 641l-9 -71q-58 -10 -98 -18t-86 -19l-22 60q22 6 43 11q-18 24 -18 60q0 43 27.5 73.5t65.5 30.5q41 0 78 -27l-14 -50q-32 8 -55 8q-25 0 -39 -8t-14 -22q0 -16 22.5 -28t51.5 -12q9 0 22.5 2.5t44.5 9.5z
" />
    <glyph glyph-name="uniFE87" unicode="&#x625;" horiz-adv-x="253" arabic-form="isolated" 
d="M164 0h-92v689l112 23v-328q0 -23 -1 -61t-3 -83.5t-5 -91t-5.5 -84.5t-5.5 -64zM227 -213l-9 -71q-58 -10 -98 -18t-86 -19l-22 60q22 6 43 11q-18 24 -18 60q0 43 27.5 73.5t65.5 30.5q41 0 78 -27l-14 -50q-32 8 -55 8q-25 0 -39 -8t-14 -22q0 -16 22.5 -28t51.5 -12
q9 0 22.5 2.5t44.5 9.5z" />
    <glyph glyph-name="uniFE88" unicode="&#x625;" horiz-adv-x="305" arabic-form="final" 
d="M326 6l-21 -6q-121 0 -179 63t-59 196l-2 430l112 23v-523q0 -20 38 -29.5t90 -9.5l21 -6v-138zM265 -213l-9 -71q-58 -10 -98 -18t-86 -19l-22 60q22 6 43 11q-18 24 -18 60q0 43 27.5 73.5t65.5 30.5q41 0 78 -27l-14 -50q-32 8 -55 8q-25 0 -39 -8t-14 -22
q0 -16 22.5 -28t51.5 -12q9 0 22.5 2.5t44.5 9.5z" />
    <glyph glyph-name="uniFE89" unicode="&#x626;" horiz-adv-x="715" arabic-form="isolated" 
d="M161 191q-13 -39 -18 -65.5t-5 -58.5q0 -66 52 -97t164 -31q62 0 114.5 8t84.5 20.5t32 27.5q0 10 -29 24.5t-101 39.5q-79 26 -109 52.5t-30 72.5q0 71 26.5 129.5t71 93t98.5 34.5q44 0 90 -26t74 -66l-61 -82q-22 17 -51.5 27.5t-58.5 10.5q-22 0 -46 -10.5
t-40.5 -25.5t-16.5 -29q0 -10 23 -22t87 -35q59 -20 94.5 -39.5t51 -43.5t15.5 -58q0 -81 -40 -137.5t-113 -85.5t-173 -29q-167 0 -242 60t-75 168q0 53 15 102.5t43 98.5zM228 390l-9 -71q-58 -10 -98 -18t-86 -19l-22 60q22 6 43 11q-18 24 -18 60q0 43 27.5 73.5
t65.5 30.5q41 0 78 -27l-14 -50q-32 8 -55 8q-25 0 -39 -8t-14 -22q0 -16 22.5 -28t51.5 -12q9 0 22.5 2.5t44.5 9.5z" />
    <glyph glyph-name="uniFE8A" unicode="&#x626;" horiz-adv-x="700" arabic-form="final" 
d="M635 -5q0 -48 -32.5 -95t-98 -78.5t-165.5 -31.5q-118 0 -185.5 30.5t-95.5 82t-28 115.5q0 53 15 102.5t43 98.5l73 -28q-14 -42 -18.5 -68.5t-4.5 -55.5q0 -67 51.5 -97.5t157.5 -30.5q96 0 148.5 19t52.5 40q0 12 -8 27t-32 38t-71 58l69 103l32 -20q36 -22 60 -33.5
t47.5 -16t54.5 -4.5l21 -6v-137l-21 -7q-39 0 -66 10q1 -7 1 -15zM228 390l-9 -71q-58 -10 -98 -18t-86 -19l-22 60q22 6 43 11q-18 24 -18 60q0 43 27.5 73.5t65.5 30.5q41 0 78 -27l-14 -50q-32 8 -55 8q-25 0 -39 -8t-14 -22q0 -16 22.5 -28t51.5 -12q9 0 22.5 2.5
t44.5 9.5z" />
    <glyph glyph-name="uniFE8B" unicode="&#x626;" horiz-adv-x="311" arabic-form="initial" 
d="M-21 144l21 6h17q62 0 98.5 11.5t36.5 28.5q0 16 -8.5 55t-22 88.5t-27.5 93.5l124 43q15 -61 24 -122.5t9 -113.5q0 -64 -25.5 -117t-77 -85t-131.5 -32h-17l-21 7v137zM243 643l-9 -71q-58 -10 -98 -18t-86 -19l-22 60q22 6 43 11q-18 24 -18 60q0 43 27.5 73.5
t65.5 30.5q41 0 78 -27l-14 -50q-32 8 -55 8q-25 0 -39 -8t-14 -22q0 -16 22.5 -28t51.5 -12q9 0 22.5 2.5t44.5 9.5z" />
    <glyph glyph-name="uniFE8C" unicode="&#x626;" horiz-adv-x="363" arabic-form="medial" 
d="M384 7l-21 -7q-75 0 -122 16t-80 40q-28 -24 -68 -40t-93 -16l-21 7v137l21 6q69 0 96.5 13.5t29.5 46.5l11 154l112 -4l-11 -194q22 -8 58 -12t67 -4l21 -6v-137zM279 564l-9 -71q-58 -10 -98 -18t-86 -19l-22 60q22 6 43 11q-18 24 -18 60q0 43 27.5 73.5t65.5 30.5
q41 0 78 -27l-14 -50q-32 8 -55 8q-25 0 -39 -8t-14 -22q0 -16 22.5 -28t51.5 -12q9 0 22.5 2.5t44.5 9.5z" />
    <glyph glyph-name="uniFE8D" unicode="&#x627;" horiz-adv-x="253" arabic-form="isolated" 
d="M164 0h-92v689l112 23v-328q0 -23 -1 -61t-3 -83.5t-5 -91t-5.5 -84.5t-5.5 -64z" />
    <glyph glyph-name="uniFE8E" unicode="&#x627;" horiz-adv-x="305" arabic-form="final" 
d="M326 6l-21 -6q-121 0 -179 63t-59 196l-2 430l112 23v-523q0 -20 38 -29.5t90 -9.5l21 -6v-138z" />
    <glyph glyph-name="uniFE8F" unicode="&#x628;" horiz-adv-x="900" arabic-form="isolated" 
d="M432 0q-120 0 -195 18t-116 51.5t-56 79t-15 99.5q0 50 14.5 98.5t31.5 79.5l83 -30q-7 -23 -13 -52.5t-6 -60.5q0 -50 25 -79t86.5 -41.5t168.5 -12.5q158 0 231 18t73 42q0 17 -8 51.5t-20.5 77.5t-25.5 86l124 45q14 -55 23.5 -118.5t9.5 -116.5q0 -122 -106 -178.5
t-309 -56.5zM366 -149l74 74h10l74 -74v-10l-74 -74h-10l-74 74v10z" />
    <glyph glyph-name="uniFE90" unicode="&#x628;" horiz-adv-x="939" arabic-form="final" 
d="M712 364l112 -4l-11 -194q22 -8 58.5 -12t67.5 -4l21 -6v-137l-21 -7q-76 0 -124.5 16t-83.5 41q-20 -15 -43 -25.5t-55.5 -17.5t-81 -10.5t-120.5 -3.5q-118 0 -193 17.5t-116 50.5t-56.5 78.5t-15.5 100.5q0 47 13.5 95.5t32.5 83.5l83 -30q-7 -22 -13 -54t-6 -60
q0 -52 27.5 -80.5t88.5 -40t161 -11.5q84 0 136 4t79.5 12t37.5 19.5t11 26.5zM358 -149l74 74h10l74 -74v-10l-74 -74h-10l-74 74v10z" />
    <glyph glyph-name="uniFE91" unicode="&#x628;" horiz-adv-x="311" arabic-form="initial" 
d="M-21 144l21 6h17q62 0 98.5 11.5t36.5 28.5q0 16 -8.5 55t-22 88.5t-27.5 93.5l124 43q15 -61 24 -122.5t9 -113.5q0 -64 -25.5 -117t-77 -85t-131.5 -32h-17l-21 7v137zM38 -149l74 74h10l74 -74v-10l-74 -74h-10l-74 74v10z" />
    <glyph glyph-name="uniFE92" unicode="&#x628;" horiz-adv-x="363" arabic-form="medial" 
d="M384 7l-21 -7q-75 0 -122 16t-80 40q-28 -24 -68 -40t-93 -16l-21 7v137l21 6q69 0 96.5 13.5t29.5 46.5l11 154l112 -4l-11 -194q22 -8 58 -12t67 -4l21 -6v-137zM64 -149l74 74h10l74 -74v-10l-74 -74h-10l-74 74v10z" />
    <glyph glyph-name="uniFE93" unicode="&#x629;" horiz-adv-x="475" arabic-form="isolated" 
d="M394 59q-25 -34 -63.5 -52.5t-105.5 -18.5q-100 0 -144.5 43.5t-44.5 128.5q0 49 28.5 107t95.5 131q-17 13 -35 26l56 112q128 -85 189 -170t61 -163q0 -46 -7.5 -79t-29.5 -65zM117 191q0 -53 115 -53q61 0 89 12t28 24q0 30 -33.5 74.5t-93.5 96.5q-29 -29 -53 -59
t-38 -55t-14 -40zM133 603l-72 72v10l72 72h10l72 -72v-10l-72 -72h-10zM299 603l-72 72v10l72 72h10l72 -72v-10l-72 -72h-10z" />
    <glyph glyph-name="uniFE94" unicode="&#x629;" horiz-adv-x="490" arabic-form="final" 
d="M511 7l-21 -7q-131 0 -173 71q-17 -5 -41.5 -8.5t-64.5 -3.5q-47 0 -86.5 13t-63 35t-23.5 49q0 52 8 87.5t25 63.5q25 39 62.5 71t81 59t84.5 48v43l106 23v-359q0 -20 24 -31t61 -11l21 -6v-137zM127 241q0 -15 32.5 -25.5t79.5 -10.5q17 0 32 1t28 3v161
q-79 -39 -125.5 -74t-46.5 -55zM139 603l-72 72v10l72 72h10l72 -72v-10l-72 -72h-10zM305 603l-72 72v10l72 72h10l72 -72v-10l-72 -72h-10z" />
    <glyph glyph-name="uniFE95" unicode="&#x62a;" horiz-adv-x="900" arabic-form="isolated" 
d="M432 0q-120 0 -195 18t-116 51.5t-56 79t-15 99.5q0 50 14.5 98.5t31.5 79.5l83 -30q-7 -23 -13 -52.5t-6 -60.5q0 -50 25 -79t86.5 -41.5t168.5 -12.5q158 0 231 18t73 42q0 17 -8 51.5t-20.5 77.5t-25.5 86l124 45q14 -55 23.5 -118.5t9.5 -116.5q0 -122 -106 -178.5
t-309 -56.5zM349 468l-72 72v10l72 72h10l72 -72v-10l-72 -72h-10zM515 468l-72 72v10l72 72h10l72 -72v-10l-72 -72h-10z" />
    <glyph glyph-name="uniFE96" unicode="&#x62a;" horiz-adv-x="939" arabic-form="final" 
d="M712 364l112 -4l-11 -194q22 -8 58.5 -12t67.5 -4l21 -6v-137l-21 -7q-76 0 -124.5 16t-83.5 41q-20 -15 -43 -25.5t-55.5 -17.5t-81 -10.5t-120.5 -3.5q-118 0 -193 17.5t-116 50.5t-56.5 78.5t-15.5 100.5q0 47 13.5 95.5t32.5 83.5l83 -30q-7 -22 -13 -54t-6 -60
q0 -52 27.5 -80.5t88.5 -40t161 -11.5q84 0 136 4t79.5 12t37.5 19.5t11 26.5zM367 468l-72 72v10l72 72h10l72 -72v-10l-72 -72h-10zM533 468l-72 72v10l72 72h10l72 -72v-10l-72 -72h-10z" />
    <glyph glyph-name="uniFE97" unicode="&#x62a;" horiz-adv-x="311" arabic-form="initial" 
d="M-21 144l21 6h17q62 0 98.5 11.5t36.5 28.5q0 16 -8.5 55t-22 88.5t-27.5 93.5l124 43q15 -61 24 -122.5t9 -113.5q0 -64 -25.5 -117t-77 -85t-131.5 -32h-17l-21 7v137zM54 535l-72 72v10l72 72h10l72 -72v-10l-72 -72h-10zM220 535l-72 72v10l72 72h10l72 -72v-10
l-72 -72h-10z" />
    <glyph glyph-name="uniFE98" unicode="&#x62a;" horiz-adv-x="363" arabic-form="medial" 
d="M384 7l-21 -7q-75 0 -122 16t-80 40q-28 -24 -68 -40t-93 -16l-21 7v137l21 6q69 0 96.5 13.5t29.5 46.5l11 154l112 -4l-11 -194q22 -8 58 -12t67 -4l21 -6v-137zM90 456l-72 72v10l72 72h10l72 -72v-10l-72 -72h-10zM256 456l-72 72v10l72 72h10l72 -72v-10l-72 -72
h-10z" />
    <glyph glyph-name="uniFE99" unicode="&#x62b;" horiz-adv-x="900" arabic-form="isolated" 
d="M432 0q-120 0 -195 18t-116 51.5t-56 79t-15 99.5q0 50 14.5 98.5t31.5 79.5l83 -30q-7 -23 -13 -52.5t-6 -60.5q0 -50 25 -79t86.5 -41.5t168.5 -12.5q158 0 231 18t73 42q0 17 -8 51.5t-20.5 77.5t-25.5 86l124 45q14 -55 23.5 -118.5t9.5 -116.5q0 -122 -106 -178.5
t-309 -56.5zM432 604l-69 69v10l69 69h10l69 -69v-10l-69 -69h-10zM352 468l-69 69v10l69 69h10l69 -69v-10l-69 -69h-10zM512 468l-69 69v10l69 69h10l69 -69v-10l-69 -69h-10z" />
    <glyph glyph-name="uniFE9A" unicode="&#x62b;" horiz-adv-x="939" arabic-form="final" 
d="M712 364l112 -4l-11 -194q22 -8 58.5 -12t67.5 -4l21 -6v-137l-21 -7q-76 0 -124.5 16t-83.5 41q-20 -15 -43 -25.5t-55.5 -17.5t-81 -10.5t-120.5 -3.5q-118 0 -193 17.5t-116 50.5t-56.5 78.5t-15.5 100.5q0 47 13.5 95.5t32.5 83.5l83 -30q-7 -22 -13 -54t-6 -60
q0 -52 27.5 -80.5t88.5 -40t161 -11.5q84 0 136 4t79.5 12t37.5 19.5t11 26.5zM450 604l-69 69v10l69 69h10l69 -69v-10l-69 -69h-10zM370 468l-69 69v10l69 69h10l69 -69v-10l-69 -69h-10zM530 468l-69 69v10l69 69h10l69 -69v-10l-69 -69h-10z" />
    <glyph glyph-name="uniFE9B" unicode="&#x62b;" horiz-adv-x="311" arabic-form="initial" 
d="M-21 144l21 6h17q62 0 98.5 11.5t36.5 28.5q0 16 -8.5 55t-22 88.5t-27.5 93.5l124 43q15 -61 24 -122.5t9 -113.5q0 -64 -25.5 -117t-77 -85t-131.5 -32h-17l-21 7v137zM137 671l-69 69v10l69 69h10l69 -69v-10l-69 -69h-10zM57 535l-69 69v10l69 69h10l69 -69v-10
l-69 -69h-10zM217 535l-69 69v10l69 69h10l69 -69v-10l-69 -69h-10z" />
    <glyph glyph-name="uniFE9C" unicode="&#x62b;" horiz-adv-x="363" arabic-form="medial" 
d="M384 7l-21 -7q-75 0 -122 16t-80 40q-28 -24 -68 -40t-93 -16l-21 7v137l21 6q69 0 96.5 13.5t29.5 46.5l11 154l112 -4l-11 -194q22 -8 58 -12t67 -4l21 -6v-137zM173 592l-69 69v10l69 69h10l69 -69v-10l-69 -69h-10zM93 456l-69 69v10l69 69h10l69 -69v-10l-69 -69
h-10zM253 456l-69 69v10l69 69h10l69 -69v-10l-69 -69h-10z" />
    <glyph glyph-name="uniFE9D" unicode="&#x62c;" horiz-adv-x="653" arabic-form="isolated" 
d="M637 -212q-30 -26 -78 -49.5t-105 -38t-115 -14.5q-89 0 -156 28.5t-104 83t-37 133.5q0 66 27 120t73 96.5t103.5 73.5t118.5 50q-55 26 -101 43t-70 17q-22 0 -48 -15.5t-43 -32.5l-63 57q20 29 47 58.5t57 50t59 20.5q27 0 62.5 -11.5t73.5 -28.5t74 -35t65.5 -31.5
t47.5 -16.5q6 -1 25 -1.5t55 -0.5l-31 -139q-64 -7 -128.5 -24.5t-122 -42t-102.5 -54.5t-71 -62.5t-26 -66.5q0 -36 36 -62t93 -40t118 -14q62 0 119 11.5t106 31.5zM356 -78l-66 66v8l66 66h8l66 -66v-8l-66 -66h-8z" />
    <glyph glyph-name="uniFE9E" unicode="&#x62c;" horiz-adv-x="676" arabic-form="final" 
d="M576 -129l44 -96q-32 -24 -77.5 -44t-97.5 -32.5t-106 -12.5q-89 0 -156 28.5t-104 83t-37 133.5q0 66 27 120t73 96.5t103.5 73.5t118.5 50q-55 26 -101 43t-70 17q-22 0 -48 -15.5t-43 -32.5l-63 57q20 29 47 58.5t57 50t59 20.5q27 0 62.5 -11.5t73.5 -28.5t74 -35
t65.5 -31.5t47.5 -16.5q6 -1 25 -1.5t55 -0.5l-29 -132q-22 -3 -44 -7q22 -32 56 -43.5t88 -11.5l21 -6v-137l-21 -7q-99 0 -156 44t-87 138q-85 -25 -155 -61t-112 -79t-42 -87q0 -36 36 -62t93 -40t118 -14q55 0 107.5 8t97.5 24zM334 -78l-66 66v8l66 66h8l66 -66v-8
l-66 -66h-8z" />
    <glyph glyph-name="uniFE9F" unicode="&#x62c;" horiz-adv-x="645" arabic-form="initial" 
d="M526 179q-28 -4 -64.5 -23.5t-80.5 -45.5t-94.5 -51.5t-107.5 -42t-119 -16.5h-60l-21 7v137l21 6h55q91 0 174.5 25t143.5 65q-38 18 -75.5 34.5t-68 27t-48.5 10.5q-22 0 -46 -12t-42 -28l-56 59q22 33 49.5 59t56.5 41t53 15q38 0 82.5 -17.5t92 -41.5t94 -45
t86.5 -27q5 -1 24 -1h32l-25 -126zM183 -149l74 74h10l74 -74v-10l-74 -74h-10l-74 74v10z" />
    <glyph glyph-name="uniFEA0" unicode="&#x62c;" horiz-adv-x="668" arabic-form="medial" 
d="M668 0q-86 0 -138.5 36t-81.5 112q-36 -20 -79 -45t-91.5 -48.5t-103 -39t-114.5 -15.5h-60l-21 7v137l21 6h55q91 0 174.5 25t143.5 65q-38 18 -75.5 34.5t-68 27t-48.5 10.5q-22 0 -46 -12t-42 -28l-56 59q22 33 49.5 59t56.5 41t53 15q38 0 82.5 -17.5t92 -41.5
t94 -45t86.5 -27q5 -1 24 -1h32l-25 -126l-38 -6q20 -19 50 -25.5t74 -6.5l21 -6v-137zM183 -149l74 74h10l74 -74v-10l-74 -74h-10l-74 74v10z" />
    <glyph glyph-name="uniFEA1" unicode="&#x62d;" horiz-adv-x="653" arabic-form="isolated" 
d="M637 -212q-30 -26 -78 -49.5t-105 -38t-115 -14.5q-89 0 -156 28.5t-104 83t-37 133.5q0 66 27 120t73 96.5t103.5 73.5t118.5 50q-55 26 -101 43t-70 17q-22 0 -48 -15.5t-43 -32.5l-63 57q20 29 47 58.5t57 50t59 20.5q27 0 62.5 -11.5t73.5 -28.5t74 -35t65.5 -31.5
t47.5 -16.5q6 -1 25 -1.5t55 -0.5l-31 -139q-64 -7 -128.5 -24.5t-122 -42t-102.5 -54.5t-71 -62.5t-26 -66.5q0 -36 36 -62t93 -40t118 -14q62 0 119 11.5t106 31.5z" />
    <glyph glyph-name="uniFEA2" unicode="&#x62d;" horiz-adv-x="676" arabic-form="final" 
d="M576 -129l44 -96q-32 -24 -77.5 -44t-97.5 -32.5t-106 -12.5q-89 0 -156 28.5t-104 83t-37 133.5q0 66 27 120t73 96.5t103.5 73.5t118.5 50q-55 26 -101 43t-70 17q-22 0 -48 -15.5t-43 -32.5l-63 57q20 29 47 58.5t57 50t59 20.5q27 0 62.5 -11.5t73.5 -28.5t74 -35
t65.5 -31.5t47.5 -16.5q6 -1 25 -1.5t55 -0.5l-29 -132q-22 -3 -44 -7q22 -32 56 -43.5t88 -11.5l21 -6v-137l-21 -7q-99 0 -156 44t-87 138q-85 -25 -155 -61t-112 -79t-42 -87q0 -36 36 -62t93 -40t118 -14q55 0 107.5 8t97.5 24z" />
    <glyph glyph-name="uniFEA3" unicode="&#x62d;" horiz-adv-x="645" arabic-form="initial" 
d="M526 179q-28 -4 -64.5 -23.5t-80.5 -45.5t-94.5 -51.5t-107.5 -42t-119 -16.5h-60l-21 7v137l21 6h55q91 0 174.5 25t143.5 65q-38 18 -75.5 34.5t-68 27t-48.5 10.5q-22 0 -46 -12t-42 -28l-56 59q22 33 49.5 59t56.5 41t53 15q38 0 82.5 -17.5t92 -41.5t94 -45
t86.5 -27q5 -1 24 -1h32l-25 -126z" />
    <glyph glyph-name="uniFEA4" unicode="&#x62d;" horiz-adv-x="668" arabic-form="medial" 
d="M668 0q-86 0 -138.5 36t-81.5 112q-36 -20 -79 -45t-91.5 -48.5t-103 -39t-114.5 -15.5h-60l-21 7v137l21 6h55q91 0 174.5 25t143.5 65q-38 18 -75.5 34.5t-68 27t-48.5 10.5q-22 0 -46 -12t-42 -28l-56 59q22 33 49.5 59t56.5 41t53 15q38 0 82.5 -17.5t92 -41.5
t94 -45t86.5 -27q5 -1 24 -1h32l-25 -126l-38 -6q20 -19 50 -25.5t74 -6.5l21 -6v-137z" />
    <glyph glyph-name="uniFEA5" unicode="&#x62e;" horiz-adv-x="653" arabic-form="isolated" 
d="M637 -212q-30 -26 -78 -49.5t-105 -38t-115 -14.5q-89 0 -156 28.5t-104 83t-37 133.5q0 66 27 120t73 96.5t103.5 73.5t118.5 50q-55 26 -101 43t-70 17q-22 0 -48 -15.5t-43 -32.5l-63 57q20 29 47 58.5t57 50t59 20.5q27 0 62.5 -11.5t73.5 -28.5t74 -35t65.5 -31.5
t47.5 -16.5q6 -1 25 -1.5t55 -0.5l-31 -139q-64 -7 -128.5 -24.5t-122 -42t-102.5 -54.5t-71 -62.5t-26 -66.5q0 -36 36 -62t93 -40t118 -14q62 0 119 11.5t106 31.5zM302 536l-74 74v10l74 74h10l74 -74v-10l-74 -74h-10z" />
    <glyph glyph-name="uniFEA6" unicode="&#x62e;" horiz-adv-x="676" arabic-form="final" 
d="M576 -129l44 -96q-32 -24 -77.5 -44t-97.5 -32.5t-106 -12.5q-89 0 -156 28.5t-104 83t-37 133.5q0 66 27 120t73 96.5t103.5 73.5t118.5 50q-55 26 -101 43t-70 17q-22 0 -48 -15.5t-43 -32.5l-63 57q20 29 47 58.5t57 50t59 20.5q27 0 62.5 -11.5t73.5 -28.5t74 -35
t65.5 -31.5t47.5 -16.5q6 -1 25 -1.5t55 -0.5l-29 -132q-22 -3 -44 -7q22 -32 56 -43.5t88 -11.5l21 -6v-137l-21 -7q-99 0 -156 44t-87 138q-85 -25 -155 -61t-112 -79t-42 -87q0 -36 36 -62t93 -40t118 -14q55 0 107.5 8t97.5 24zM306 536l-74 74v10l74 74h10l74 -74v-10
l-74 -74h-10z" />
    <glyph glyph-name="uniFEA7" unicode="&#x62e;" horiz-adv-x="645" arabic-form="initial" 
d="M526 179q-28 -4 -64.5 -23.5t-80.5 -45.5t-94.5 -51.5t-107.5 -42t-119 -16.5h-60l-21 7v137l21 6h55q91 0 174.5 25t143.5 65q-38 18 -75.5 34.5t-68 27t-48.5 10.5q-22 0 -46 -12t-42 -28l-56 59q22 33 49.5 59t56.5 41t53 15q38 0 82.5 -17.5t92 -41.5t94 -45
t86.5 -27q5 -1 24 -1h32l-25 -126zM270 521l-74 74v10l74 74h10l74 -74v-10l-74 -74h-10z" />
    <glyph glyph-name="uniFEA8" unicode="&#x62e;" horiz-adv-x="668" arabic-form="medial" 
d="M668 0q-86 0 -138.5 36t-81.5 112q-36 -20 -79 -45t-91.5 -48.5t-103 -39t-114.5 -15.5h-60l-21 7v137l21 6h55q91 0 174.5 25t143.5 65q-38 18 -75.5 34.5t-68 27t-48.5 10.5q-22 0 -46 -12t-42 -28l-56 59q22 33 49.5 59t56.5 41t53 15q38 0 82.5 -17.5t92 -41.5
t94 -45t86.5 -27q5 -1 24 -1h32l-25 -126l-38 -6q20 -19 50 -25.5t74 -6.5l21 -6v-137zM270 521l-74 74v10l74 74h10l74 -74v-10l-74 -74h-10z" />
    <glyph glyph-name="uniFEA9" unicode="&#x62f;" horiz-adv-x="546" arabic-form="isolated" 
d="M265 144q141 0 141 33q0 8 -5.5 20t-21.5 40q-44 80 -80.5 140t-65.5 101l106 78q49 -74 85.5 -143t57 -125.5t20.5 -94.5q0 -88 -59 -143.5t-174 -55.5q-123 0 -179.5 41.5t-56.5 132.5q0 54 29 117l74 -28l-7.5 -30t-3.5 -28q0 -29 32.5 -42t107.5 -13z" />
    <glyph glyph-name="uniFEAA" unicode="&#x62f;" horiz-adv-x="607" arabic-form="final" 
d="M628 7l-21 -7q-57 0 -97.5 13t-69.5 46q-31 -30 -78 -47.5t-115 -17.5q-214 0 -214 174q0 54 29 117l74 -28l-7.5 -30t-3.5 -28q0 -28 31 -41.5t98 -13.5q45 0 76 5t52 15q-8 21 -15 47l-88 305l113 34l85 -296q12 -41 27.5 -64t39.5 -31.5t63 -8.5l21 -6v-137z" />
    <glyph glyph-name="uniFEAB" unicode="&#x630;" horiz-adv-x="546" arabic-form="isolated" 
d="M265 144q141 0 141 33q0 8 -5.5 20t-21.5 40q-44 80 -80.5 140t-65.5 101l106 78q49 -74 85.5 -143t57 -125.5t20.5 -94.5q0 -88 -59 -143.5t-174 -55.5q-123 0 -179.5 41.5t-56.5 132.5q0 54 29 117l74 -28l-7.5 -30t-3.5 -28q0 -29 32.5 -42t107.5 -13zM250 619l-74 74
v10l74 74h10l74 -74v-10l-74 -74h-10z" />
    <glyph glyph-name="uniFEAC" unicode="&#x630;" horiz-adv-x="607" arabic-form="final" 
d="M628 7l-21 -7q-57 0 -97.5 13t-69.5 46q-31 -30 -78 -47.5t-115 -17.5q-214 0 -214 174q0 54 29 117l74 -28l-7.5 -30t-3.5 -28q0 -28 31 -41.5t98 -13.5q45 0 76 5t52 15q-8 21 -15 47l-88 305l113 34l85 -296q12 -41 27.5 -64t39.5 -31.5t63 -8.5l21 -6v-137zM316 620
l-74 74v10l74 74h10l74 -74v-10l-74 -74h-10z" />
    <glyph glyph-name="uniFEAD" unicode="&#x631;" horiz-adv-x="420" arabic-form="isolated" 
d="M370 102q0 -97 -31.5 -168.5t-91 -110.5t-145.5 -39q-33 0 -55.5 4t-48.5 11l-5 106q280 45 280 165q0 6 -4 19.5t-15 40t-32 73.5t-55 121l121 59q23 -46 41.5 -99.5t29.5 -101.5t11 -80z" />
    <glyph glyph-name="uniFEAE" unicode="&#x631;" horiz-adv-x="469" arabic-form="final" 
d="M-2 -201l-5 106q53 8 102.5 21.5t89.5 32.5t63.5 44t23.5 57q0 11 -12.5 49.5t-31.5 92.5t-39 112l110 43l44 -134q14 -41 43.5 -57t82.5 -16l21 -6v-137l-21 -7q-69 0 -108 23q-10 -69 -42 -123t-86 -85t-131 -31q-33 0 -55.5 4t-48.5 11z" />
    <glyph glyph-name="uniFEAF" unicode="&#x632;" horiz-adv-x="420" arabic-form="isolated" 
d="M370 102q0 -97 -31.5 -168.5t-91 -110.5t-145.5 -39q-33 0 -55.5 4t-48.5 11l-5 106q280 45 280 165q0 6 -4 19.5t-15 40t-32 73.5t-55 121l121 59q23 -46 41.5 -99.5t29.5 -101.5t11 -80zM196 446l-74 74v10l74 74h10l74 -74v-10l-74 -74h-10z" />
    <glyph glyph-name="uniFEB0" unicode="&#x632;" horiz-adv-x="469" arabic-form="final" 
d="M-2 -201l-5 106q53 8 102.5 21.5t89.5 32.5t63.5 44t23.5 57q0 11 -12.5 49.5t-31.5 92.5t-39 112l110 43l44 -134q14 -41 43.5 -57t82.5 -16l21 -6v-137l-21 -7q-69 0 -108 23q-10 -69 -42 -123t-86 -85t-131 -31q-33 0 -55.5 4t-48.5 11zM208 426l-74 74v10l74 74h10
l74 -74v-10l-74 -74h-10z" />
    <glyph glyph-name="uniFEB1" unicode="&#x633;" horiz-adv-x="1172" arabic-form="isolated" 
d="M315 -210q-84 0 -139 18t-87 50t-45.5 73t-13.5 87q0 58 16.5 108.5t41.5 92.5l73 -28q-14 -42 -18.5 -68.5t-4.5 -55.5q0 -67 46.5 -97.5t137.5 -30.5q89 0 135.5 24.5t46.5 52.5q0 9 -6.5 36.5t-17 65t-22 78t-22.5 75.5l117 48q7 -24 18.5 -71.5t20.5 -94.5
q14 -4 29.5 -5.5t35.5 -1.5q44 0 65 8t22 30l11 140l108 -5l-12 -162q20 -6 41.5 -8.5t43.5 -2.5q40 0 57 7t17 14q0 15 -6 47.5t-15.5 75t-21.5 88.5l119 44q11 -46 17.5 -102t6.5 -98q0 -66 -21.5 -116t-61 -78t-93.5 -28q-48 0 -84 12t-70 37q-47 -49 -120 -49
q-32 0 -62 10q-7 -62 -38.5 -112t-91.5 -79t-153 -29z" />
    <glyph glyph-name="uniFEB2" unicode="&#x633;" horiz-adv-x="1216" arabic-form="final" 
d="M315 -210q-84 0 -139 18t-87 50t-45.5 73t-13.5 87q0 58 16.5 108.5t41.5 92.5l73 -28q-14 -42 -18.5 -68.5t-4.5 -55.5q0 -67 46.5 -97.5t137.5 -30.5q89 0 135.5 24.5t46.5 52.5q0 9 -6.5 36.5t-17 65t-22 78t-22.5 75.5l117 48q7 -24 18.5 -71.5t20.5 -94.5
q14 -4 29.5 -5.5t35.5 -1.5q44 0 65 8t22 30l11 140l108 -5l-12 -161q16 -6 34.5 -9t37.5 -3q35 0 52 9t18 28l13 176l113 -5l-13 -190q41 -14 110 -14l21 -6v-137l-21 -7q-66 0 -108.5 12t-72.5 35q-24 -25 -55.5 -36t-64.5 -11q-30 0 -64.5 9.5t-68.5 37.5
q-47 -47 -122 -47q-32 0 -62 10q-7 -62 -38.5 -112t-91.5 -79t-153 -29z" />
    <glyph glyph-name="uniFEB3" unicode="&#x633;" horiz-adv-x="809" arabic-form="initial" 
d="M381 184l11 140l108 -5l-12 -162q20 -6 41.5 -8.5t43.5 -2.5q40 0 57 7t17 14q0 15 -6 47.5t-15.5 75t-21.5 88.5l119 44q11 -46 17.5 -102t6.5 -98q0 -66 -21.5 -116t-61 -78t-93.5 -28q-48 0 -84.5 12t-69.5 37q-24 -23 -57 -36t-80 -13q-44 0 -82 15t-65 35
q-22 -23 -58.5 -36.5t-74.5 -13.5l-21 7v137l21 6q59 0 81 10.5t26 26.5l29 108l100 -22l-25 -113q35 -14 77 -14q46 0 69 8t24 30z" />
    <glyph glyph-name="uniFEB4" unicode="&#x633;" horiz-adv-x="853" arabic-form="medial" 
d="M853 150l21 -6v-137l-21 -7q-66 0 -108.5 12t-72.5 35q-24 -25 -55.5 -36t-64.5 -11q-31 0 -66 10t-69 39q-24 -23 -57 -36t-80 -13q-44 0 -82 15t-65 35q-22 -23 -58.5 -36.5t-74.5 -13.5l-21 7v137l21 6q59 0 81 10.5t26 26.5l29 108l100 -22l-25 -113q35 -14 77 -14
q46 0 69 8t24 30l11 140l108 -5l-12 -161q16 -6 34.5 -9t37.5 -3q35 0 52 9t18 28l13 176l113 -5l-13 -190q41 -14 110 -14z" />
    <glyph glyph-name="uniFEB5" unicode="&#x634;" horiz-adv-x="1172" arabic-form="isolated" 
d="M315 -210q-84 0 -139 18t-87 50t-45.5 73t-13.5 87q0 58 16.5 108.5t41.5 92.5l73 -28q-14 -42 -18.5 -68.5t-4.5 -55.5q0 -67 46.5 -97.5t137.5 -30.5q89 0 135.5 24.5t46.5 52.5q0 9 -6.5 36.5t-17 65t-22 78t-22.5 75.5l117 48q7 -24 18.5 -71.5t20.5 -94.5
q14 -4 29.5 -5.5t35.5 -1.5q44 0 65 8t22 30l11 140l108 -5l-12 -162q20 -6 41.5 -8.5t43.5 -2.5q40 0 57 7t17 14q0 15 -6 47.5t-15.5 75t-21.5 88.5l119 44q11 -46 17.5 -102t6.5 -98q0 -66 -21.5 -116t-61 -78t-93.5 -28q-48 0 -84 12t-70 37q-47 -49 -120 -49
q-32 0 -62 10q-7 -62 -38.5 -112t-91.5 -79t-153 -29zM773 558l-69 69v10l69 69h10l69 -69v-10l-69 -69h-10zM693 422l-69 69v10l69 69h10l69 -69v-10l-69 -69h-10zM853 422l-69 69v10l69 69h10l69 -69v-10l-69 -69h-10z" />
    <glyph glyph-name="uniFEB6" unicode="&#x634;" horiz-adv-x="1216" arabic-form="final" 
d="M315 -210q-84 0 -139 18t-87 50t-45.5 73t-13.5 87q0 58 16.5 108.5t41.5 92.5l73 -28q-14 -42 -18.5 -68.5t-4.5 -55.5q0 -67 46.5 -97.5t137.5 -30.5q89 0 135.5 24.5t46.5 52.5q0 9 -6.5 36.5t-17 65t-22 78t-22.5 75.5l117 48q7 -24 18.5 -71.5t20.5 -94.5
q14 -4 29.5 -5.5t35.5 -1.5q44 0 65 8t22 30l11 140l108 -5l-12 -161q16 -6 34.5 -9t37.5 -3q35 0 52 9t18 28l13 176l113 -5l-13 -190q41 -14 110 -14l21 -6v-137l-21 -7q-66 0 -108.5 12t-72.5 35q-24 -25 -55.5 -36t-64.5 -11q-30 0 -64.5 9.5t-68.5 37.5
q-47 -47 -122 -47q-32 0 -62 10q-7 -62 -38.5 -112t-91.5 -79t-153 -29zM773 558l-69 69v10l69 69h10l69 -69v-10l-69 -69h-10zM693 422l-69 69v10l69 69h10l69 -69v-10l-69 -69h-10zM853 422l-69 69v10l69 69h10l69 -69v-10l-69 -69h-10z" />
    <glyph glyph-name="uniFEB7" unicode="&#x634;" horiz-adv-x="809" arabic-form="initial" 
d="M381 184l11 140l108 -5l-12 -162q20 -6 41.5 -8.5t43.5 -2.5q40 0 57 7t17 14q0 15 -6 47.5t-15.5 75t-21.5 88.5l119 44q11 -46 17.5 -102t6.5 -98q0 -66 -21.5 -116t-61 -78t-93.5 -28q-48 0 -84.5 12t-69.5 37q-24 -23 -57 -36t-80 -13q-44 0 -82 15t-65 35
q-22 -23 -58.5 -36.5t-74.5 -13.5l-21 7v137l21 6q59 0 81 10.5t26 26.5l29 108l100 -22l-25 -113q35 -14 77 -14q46 0 69 8t24 30zM410 558l-69 69v10l69 69h10l69 -69v-10l-69 -69h-10zM330 422l-69 69v10l69 69h10l69 -69v-10l-69 -69h-10zM490 422l-69 69v10l69 69h10
l69 -69v-10l-69 -69h-10z" />
    <glyph glyph-name="uniFEB8" unicode="&#x634;" horiz-adv-x="853" arabic-form="medial" 
d="M853 150l21 -6v-137l-21 -7q-66 0 -108.5 12t-72.5 35q-24 -25 -55.5 -36t-64.5 -11q-31 0 -66 10t-69 39q-24 -23 -57 -36t-80 -13q-44 0 -82 15t-65 35q-22 -23 -58.5 -36.5t-74.5 -13.5l-21 7v137l21 6q59 0 81 10.5t26 26.5l29 108l100 -22l-25 -113q35 -14 77 -14
q46 0 69 8t24 30l11 140l108 -5l-12 -161q16 -6 34.5 -9t37.5 -3q35 0 52 9t18 28l13 176l113 -5l-13 -190q41 -14 110 -14zM410 558l-69 69v10l69 69h10l69 -69v-10l-69 -69h-10zM330 422l-69 69v10l69 69h10l69 -69v-10l-69 -69h-10zM490 422l-69 69v10l69 69h10l69 -69
v-10l-69 -69h-10z" />
    <glyph glyph-name="uniFEB9" unicode="&#x635;" horiz-adv-x="1228" arabic-form="isolated" 
d="M315 -210q-84 0 -139 18t-87 50t-45.5 73t-13.5 87q0 58 16.5 108.5t41.5 92.5l73 -28q-14 -42 -18.5 -68.5t-4.5 -55.5q0 -67 46.5 -97.5t137.5 -30.5q89 0 135.5 24.5t46.5 52.5q0 9 -6.5 36.5t-17 65t-22 78t-22.5 75.5l117 48q6 -22 17 -65.5t19 -88.5q13 -2 28 -4
q57 94 123.5 164t132.5 109t123 39q38 0 71 -19.5t59 -51.5t40.5 -72.5t14.5 -82.5q0 -133 -103 -190t-298 -57q-42 0 -91 4t-91 12q-5 -63 -36 -114.5t-92 -81.5t-155 -30zM970 323q-36 0 -74 -15t-83.5 -52t-103.5 -103q41 -3 74 -3q164 0 239.5 19t75.5 41q0 14 -11 33
t-29 37.5t-41 30.5t-47 12z" />
    <glyph glyph-name="uniFEBA" unicode="&#x635;" horiz-adv-x="1275" arabic-form="final" 
d="M315 -210q-84 0 -139 18t-87 50t-45.5 73t-13.5 87q0 58 16.5 108.5t41.5 92.5l73 -28q-14 -42 -18.5 -68.5t-4.5 -55.5q0 -67 46.5 -97.5t137.5 -30.5q89 0 135.5 24.5t46.5 52.5q0 9 -6.5 36.5t-17 65t-22 78t-22.5 75.5l117 48q6 -22 17 -65.5t19 -88.5q13 -2 28 -4
q57 94 123.5 164t132.5 109t123 39q38 0 71 -19.5t59 -51.5t40.5 -72.5t14.5 -82.5q0 -49 -14 -88q23 -5 49 -7t59 -2l21 -6v-137l-21 -7q-58 0 -109.5 14t-83.5 45q-50 -31 -126 -45t-176 -14q-42 0 -91 4t-91 12q-5 -63 -36 -114.5t-92 -81.5t-155 -30zM970 323
q-36 0 -74 -15t-83.5 -52t-103.5 -103q41 -3 74 -3q164 0 239.5 19t75.5 41q0 14 -11 33t-29 37.5t-41 30.5t-47 12z" />
    <glyph glyph-name="uniFEBB" unicode="&#x635;" horiz-adv-x="864" arabic-form="initial" 
d="M819 247q0 -133 -103.5 -190t-298.5 -57q-80 0 -131.5 5.5t-85 16.5t-58.5 28q-27 -25 -61.5 -37.5t-80.5 -12.5l-21 7v137l21 6q57 0 80.5 13.5t29.5 35.5l29 109l103 -22l-26 -113q8 -4 17.5 -7t21.5 -5q57 93 123 163.5t132 109.5t124 39q38 0 71 -19.5t59 -51.5
t40.5 -72.5t14.5 -82.5zM608 323q-36 0 -74 -15t-83.5 -52t-104.5 -105q32 -1 75 -1q164 0 239.5 19t75.5 41q0 14 -11 33t-29 37.5t-41 30.5t-47 12z" />
    <glyph glyph-name="uniFEBC" unicode="&#x635;" horiz-adv-x="913" arabic-form="medial" 
d="M819 247q0 -49 -14 -88q23 -5 49 -7t59 -2l21 -6v-137l-21 -7q-59 0 -110 14t-83 46q-51 -32 -127 -46t-176 -14q-80 0 -131.5 5.5t-85 16.5t-58.5 28q-27 -25 -61.5 -37.5t-80.5 -12.5l-21 7v137l21 6q57 0 80.5 13.5t29.5 35.5l29 109l103 -22l-26 -113q8 -4 17.5 -7
t21.5 -5q57 93 123 163.5t132 109.5t124 39q38 0 71 -19.5t59 -51.5t40.5 -72.5t14.5 -82.5zM608 323q-36 0 -74 -15t-83.5 -52t-104.5 -105q32 -1 75 -1q164 0 239.5 19t75.5 41q0 14 -11 33t-29 37.5t-41 30.5t-47 12z" />
    <glyph glyph-name="uniFEBD" unicode="&#x636;" horiz-adv-x="1228" arabic-form="isolated" 
d="M315 -210q-84 0 -139 18t-87 50t-45.5 73t-13.5 87q0 58 16.5 108.5t41.5 92.5l73 -28q-14 -42 -18.5 -68.5t-4.5 -55.5q0 -67 46.5 -97.5t137.5 -30.5q89 0 135.5 24.5t46.5 52.5q0 9 -6.5 36.5t-17 65t-22 78t-22.5 75.5l117 48q6 -22 17 -65.5t19 -88.5q13 -2 28 -4
q57 94 123.5 164t132.5 109t123 39q38 0 71 -19.5t59 -51.5t40.5 -72.5t14.5 -82.5q0 -133 -103 -190t-298 -57q-42 0 -91 4t-91 12q-5 -63 -36 -114.5t-92 -81.5t-155 -30zM970 323q-36 0 -74 -15t-83.5 -52t-103.5 -103q41 -3 74 -3q164 0 239.5 19t75.5 41q0 14 -11 33
t-29 37.5t-41 30.5t-47 12zM972 549l-74 74v10l74 74h10l74 -74v-10l-74 -74h-10z" />
    <glyph glyph-name="uniFEBE" unicode="&#x636;" horiz-adv-x="1275" arabic-form="final" 
d="M315 -210q-84 0 -139 18t-87 50t-45.5 73t-13.5 87q0 58 16.5 108.5t41.5 92.5l73 -28q-14 -42 -18.5 -68.5t-4.5 -55.5q0 -67 46.5 -97.5t137.5 -30.5q89 0 135.5 24.5t46.5 52.5q0 9 -6.5 36.5t-17 65t-22 78t-22.5 75.5l117 48q6 -22 17 -65.5t19 -88.5q13 -2 28 -4
q57 94 123.5 164t132.5 109t123 39q38 0 71 -19.5t59 -51.5t40.5 -72.5t14.5 -82.5q0 -49 -14 -88q23 -5 49 -7t59 -2l21 -6v-137l-21 -7q-58 0 -109.5 14t-83.5 45q-50 -31 -126 -45t-176 -14q-42 0 -91 4t-91 12q-5 -63 -36 -114.5t-92 -81.5t-155 -30zM970 323
q-36 0 -74 -15t-83.5 -52t-103.5 -103q41 -3 74 -3q164 0 239.5 19t75.5 41q0 14 -11 33t-29 37.5t-41 30.5t-47 12zM972 549l-74 74v10l74 74h10l74 -74v-10l-74 -74h-10z" />
    <glyph glyph-name="uniFEBF" unicode="&#x636;" horiz-adv-x="864" arabic-form="initial" 
d="M819 247q0 -133 -103.5 -190t-298.5 -57q-80 0 -131.5 5.5t-85 16.5t-58.5 28q-27 -25 -61.5 -37.5t-80.5 -12.5l-21 7v137l21 6q57 0 80.5 13.5t29.5 35.5l29 109l103 -22l-26 -113q8 -4 17.5 -7t21.5 -5q57 93 123 163.5t132 109.5t124 39q38 0 71 -19.5t59 -51.5
t40.5 -72.5t14.5 -82.5zM608 323q-36 0 -74 -15t-83.5 -52t-104.5 -105q32 -1 75 -1q164 0 239.5 19t75.5 41q0 14 -11 33t-29 37.5t-41 30.5t-47 12zM610 546l-74 74v10l74 74h10l74 -74v-10l-74 -74h-10z" />
    <glyph glyph-name="uniFEC0" unicode="&#x636;" horiz-adv-x="913" arabic-form="medial" 
d="M819 247q0 -49 -14 -88q23 -5 49 -7t59 -2l21 -6v-137l-21 -7q-59 0 -110 14t-83 46q-51 -32 -127 -46t-176 -14q-80 0 -131.5 5.5t-85 16.5t-58.5 28q-27 -25 -61.5 -37.5t-80.5 -12.5l-21 7v137l21 6q57 0 80.5 13.5t29.5 35.5l29 109l103 -22l-26 -113q8 -4 17.5 -7
t21.5 -5q57 93 123 163.5t132 109.5t124 39q38 0 71 -19.5t59 -51.5t40.5 -72.5t14.5 -82.5zM608 323q-36 0 -74 -15t-83.5 -52t-104.5 -105q32 -1 75 -1q164 0 239.5 19t75.5 41q0 14 -11 33t-29 37.5t-41 30.5t-47 12zM610 546l-74 74v10l74 74h10l74 -74v-10l-74 -74h-10
z" />
    <glyph glyph-name="uniFEC1" unicode="&#x637;" horiz-adv-x="748" arabic-form="isolated" 
d="M300 0q-41 0 -90 1.5t-95.5 3.5t-80.5 5l-13 149q20 -2 49 -3t62 -3q19 33 40 63q2 54 3.5 114t1.5 126v234l109 22v-206q0 -42 -3.5 -84.5t-9.5 -83.5q63 64 126.5 99.5t116.5 35.5q38 0 71 -19.5t59 -51.5t40.5 -72.5t14.5 -82.5q0 -133 -103 -190t-298 -57zM490 323
q-36 0 -74 -15t-84 -52.5t-105 -104.5q44 -1 76 -1q164 0 239.5 19t75.5 41q0 14 -11 33t-29 37.5t-41 30.5t-47 12z" />
    <glyph glyph-name="uniFEC2" unicode="&#x637;" horiz-adv-x="781" arabic-form="final" 
d="M300 0q-41 0 -90 1.5t-95.5 3.5t-80.5 5l-13 149q20 -2 49 -3t62 -3q19 33 40 63q2 54 3.5 114t1.5 126v234l109 22v-206q0 -42 -3.5 -84.5t-9.5 -83.5q63 64 126.5 99.5t116.5 35.5q38 0 71 -19.5t59 -51.5t40.5 -72.5t14.5 -82.5q0 -49 -14 -87q20 -6 43 -8t51 -2
l21 -6v-137l-21 -7q-54 0 -103 14t-76 45q-51 -31 -127 -45t-175 -14zM490 323q-36 0 -74 -15t-84 -52.5t-105 -104.5q44 -1 76 -1q164 0 239.5 19t75.5 41q0 14 -11 33t-29 37.5t-41 30.5t-47 12z" />
    <glyph glyph-name="uniFEC3" unicode="&#x637;" horiz-adv-x="674" arabic-form="initial" 
d="M-21 143l21 7h58q20 34 42 66q2 54 3.5 114t1.5 126v234l109 22v-206q0 -42 -3.5 -84.5t-9.5 -83.5q64 64 127.5 99.5t115.5 35.5q38 0 71 -19.5t59 -51.5t40.5 -72.5t14.5 -82.5q0 -133 -103 -190t-298 -57h-228l-21 7v136zM418 323q-36 0 -74 -15t-84 -52.5
t-106 -105.5h77q164 0 239.5 19t75.5 41q0 14 -11 33t-29 37.5t-41 30.5t-47 12z" />
    <glyph glyph-name="uniFEC4" unicode="&#x637;" horiz-adv-x="709" arabic-form="medial" 
d="M-21 143l21 7h58q20 34 42 66q2 54 3.5 114t1.5 126v234l109 22v-206q0 -42 -3.5 -84.5t-9.5 -83.5q64 64 127.5 99.5t115.5 35.5q38 0 71 -19.5t59 -51.5t40.5 -72.5t14.5 -82.5q0 -49 -14 -87q20 -6 43 -8t51 -2l21 -6v-137l-21 -7q-54 0 -103 14t-76 45
q-51 -31 -127 -45t-175 -14h-228l-21 7v136zM418 323q-36 0 -74 -15t-84 -52.5t-106 -105.5h77q164 0 239.5 19t75.5 41q0 14 -11 33t-29 37.5t-41 30.5t-47 12z" />
    <glyph glyph-name="uniFEC5" unicode="&#x638;" horiz-adv-x="748" arabic-form="isolated" 
d="M300 0q-41 0 -90 1.5t-95.5 3.5t-80.5 5l-13 149q20 -2 49 -3t62 -3q19 33 40 63q2 54 3.5 114t1.5 126v234l109 22v-206q0 -42 -3.5 -84.5t-9.5 -83.5q63 64 126.5 99.5t116.5 35.5q38 0 71 -19.5t59 -51.5t40.5 -72.5t14.5 -82.5q0 -133 -103 -190t-298 -57zM490 323
q-36 0 -74 -15t-84 -52.5t-105 -104.5q44 -1 76 -1q164 0 239.5 19t75.5 41q0 14 -11 33t-29 37.5t-41 30.5t-47 12zM492 546l-74 74v10l74 74h10l74 -74v-10l-74 -74h-10z" />
    <glyph glyph-name="uniFEC6" unicode="&#x638;" horiz-adv-x="781" arabic-form="final" 
d="M300 0q-41 0 -90 1.5t-95.5 3.5t-80.5 5l-13 149q20 -2 49 -3t62 -3q19 33 40 63q2 54 3.5 114t1.5 126v234l109 22v-206q0 -42 -3.5 -84.5t-9.5 -83.5q63 64 126.5 99.5t116.5 35.5q38 0 71 -19.5t59 -51.5t40.5 -72.5t14.5 -82.5q0 -49 -14 -87q20 -6 43 -8t51 -2
l21 -6v-137l-21 -7q-54 0 -103 14t-76 45q-51 -31 -127 -45t-175 -14zM490 323q-36 0 -74 -15t-84 -52.5t-105 -104.5q44 -1 76 -1q164 0 239.5 19t75.5 41q0 14 -11 33t-29 37.5t-41 30.5t-47 12zM492 546l-74 74v10l74 74h10l74 -74v-10l-74 -74h-10z" />
    <glyph glyph-name="uniFEC7" unicode="&#x638;" horiz-adv-x="674" arabic-form="initial" 
d="M-21 143l21 7h58q20 34 42 66q2 54 3.5 114t1.5 126v234l109 22v-206q0 -42 -3.5 -84.5t-9.5 -83.5q64 64 127.5 99.5t115.5 35.5q38 0 71 -19.5t59 -51.5t40.5 -72.5t14.5 -82.5q0 -133 -103 -190t-298 -57h-228l-21 7v136zM418 323q-36 0 -74 -15t-84 -52.5
t-106 -105.5h77q164 0 239.5 19t75.5 41q0 14 -11 33t-29 37.5t-41 30.5t-47 12zM420 546l-74 74v10l74 74h10l74 -74v-10l-74 -74h-10z" />
    <glyph glyph-name="uniFEC8" unicode="&#x638;" horiz-adv-x="709" arabic-form="medial" 
d="M-21 143l21 7h58q20 34 42 66q2 54 3.5 114t1.5 126v234l109 22v-206q0 -42 -3.5 -84.5t-9.5 -83.5q64 64 127.5 99.5t115.5 35.5q38 0 71 -19.5t59 -51.5t40.5 -72.5t14.5 -82.5q0 -49 -14 -87q20 -6 43 -8t51 -2l21 -6v-137l-21 -7q-54 0 -103 14t-76 45
q-51 -31 -127 -45t-175 -14h-228l-21 7v136zM418 323q-36 0 -74 -15t-84 -52.5t-106 -105.5h77q164 0 239.5 19t75.5 41q0 14 -11 33t-29 37.5t-41 30.5t-47 12zM420 546l-74 74v10l74 74h10l74 -74v-10l-74 -74h-10z" />
    <glyph glyph-name="uniFEC9" unicode="&#x639;" horiz-adv-x="562" arabic-form="isolated" 
d="M614 -222q-50 -39 -128 -65.5t-161 -26.5q-87 0 -154 29t-104.5 82.5t-37.5 125.5q0 82 39 145.5t107 109.5q-47 29 -71.5 72t-24.5 91q0 58 28 107t76 79t108 30q82 0 147 -48l-31 -100q-66 13 -101 13q-59 0 -100 -20.5t-41 -52.5q0 -27 26.5 -48t67 -32.5t80.5 -12.5
q34 8 73.5 17t82.5 16l-20 -146q-176 -26 -268 -78.5t-92 -118.5q0 -29 33 -53.5t87.5 -39t120.5 -14.5q63 0 114.5 10t103.5 28z" />
    <glyph glyph-name="uniFECA" unicode="&#x639;" horiz-adv-x="554" arabic-form="final" 
d="M11 -99q0 87 44.5 144t112.5 96q-38 36 -68 67t-66 69l31 127q47 29 107.5 47t116.5 18q104 0 156.5 -39.5t52.5 -106.5q0 -52 -23.5 -91t-80.5 -76q32 -4 67 -5t67 -1h26l21 -6v-137l-21 -7h-24q-98 0 -163 15.5t-121 56.5q-74 -37 -107.5 -68.5t-33.5 -69.5
q0 -31 27.5 -52.5t76.5 -32.5t111 -11q86 0 154 17l36 -99q-40 -31 -99 -50.5t-126 -19.5q-77 0 -139.5 26t-98.5 74t-36 115zM146 303q29 -29 62 -58.5t64 -51.5q69 33 105.5 56t36.5 40q0 15 -34.5 28t-95.5 13q-34 0 -72 -7.5t-66 -19.5z" />
    <glyph glyph-name="uniFECB" unicode="&#x639;" horiz-adv-x="503" arabic-form="initial" 
d="M62 275q0 58 28 107.5t76 79.5t108 30q83 0 148 -48l-32 -100q-30 6 -57 9.5t-44 3.5q-59 0 -100 -20.5t-41 -52.5q0 -25 26.5 -46t64 -33t70.5 -12q13 0 40 6t59.5 15.5t60.5 17.5l-22 -151q-56 -22 -130.5 -40.5t-156 -29.5t-160.5 -11l-21 7v137l21 6q31 0 57 1t52 3
q-47 53 -47 121z" />
    <glyph glyph-name="uniFECC" unicode="&#x639;" horiz-adv-x="567" arabic-form="medial" 
d="M567 150l21 -6v-137l-21 -7h-24q-84 0 -143 11t-108 39q-36 -19 -72 -30t-81 -15.5t-109 -4.5h-30l-21 7v137l21 6h30q35 0 69.5 1t66.5 4q-33 32 -60 59.5t-59 62.5l31 127q47 29 107.5 47t116.5 18q104 0 156.5 -40t52.5 -110q0 -42 -16.5 -82t-61.5 -84
q27 -2 54.5 -2.5t53.5 -0.5h26zM159 303q32 -31 68 -63.5t69 -54.5q29 12 59.5 29t51 35t20.5 33q0 17 -31.5 32.5t-103.5 15.5q-31 0 -68 -7.5t-65 -19.5z" />
    <glyph glyph-name="uniFECD" unicode="&#x63a;" horiz-adv-x="562" arabic-form="isolated" 
d="M614 -222q-50 -39 -128 -65.5t-161 -26.5q-87 0 -154 29t-104.5 82.5t-37.5 125.5q0 82 39 145.5t107 109.5q-47 29 -71.5 72t-24.5 91q0 58 28 107t76 79t108 30q82 0 147 -48l-31 -100q-66 13 -101 13q-59 0 -100 -20.5t-41 -52.5q0 -27 26.5 -48t67 -32.5t80.5 -12.5
q34 8 73.5 17t82.5 16l-20 -146q-176 -26 -268 -78.5t-92 -118.5q0 -29 33 -53.5t87.5 -39t120.5 -14.5q63 0 114.5 10t103.5 28zM267 633l-74 74v10l74 74h10l74 -74v-10l-74 -74h-10z" />
    <glyph glyph-name="uniFECE" unicode="&#x63a;" horiz-adv-x="554" arabic-form="final" 
d="M11 -99q0 87 44.5 144t112.5 96q-38 36 -68 67t-66 69l31 127q47 29 107.5 47t116.5 18q104 0 156.5 -39.5t52.5 -106.5q0 -52 -23.5 -91t-80.5 -76q32 -4 67 -5t67 -1h26l21 -6v-137l-21 -7h-24q-98 0 -163 15.5t-121 56.5q-74 -37 -107.5 -68.5t-33.5 -69.5
q0 -31 27.5 -52.5t76.5 -32.5t111 -11q86 0 154 17l36 -99q-40 -31 -99 -50.5t-126 -19.5q-77 0 -139.5 26t-98.5 74t-36 115zM146 303q29 -29 62 -58.5t64 -51.5q69 33 105.5 56t36.5 40q0 15 -34.5 28t-95.5 13q-34 0 -72 -7.5t-66 -19.5zM275 545l-74 74v10l74 74h10
l74 -74v-10l-74 -74h-10z" />
    <glyph glyph-name="uniFECF" unicode="&#x63a;" horiz-adv-x="503" arabic-form="initial" 
d="M62 275q0 58 28 107.5t76 79.5t108 30q83 0 148 -48l-32 -100q-30 6 -57 9.5t-44 3.5q-59 0 -100 -20.5t-41 -52.5q0 -25 26.5 -46t64 -33t70.5 -12q13 0 40 6t59.5 15.5t60.5 17.5l-22 -151q-56 -22 -130.5 -40.5t-156 -29.5t-160.5 -11l-21 7v137l21 6q31 0 57 1t52 3
q-47 53 -47 121zM242 568l-74 74v10l74 74h10l74 -74v-10l-74 -74h-10z" />
    <glyph glyph-name="uniFED0" unicode="&#x63a;" horiz-adv-x="567" arabic-form="medial" 
d="M567 150l21 -6v-137l-21 -7h-24q-84 0 -143 11t-108 39q-36 -19 -72 -30t-81 -15.5t-109 -4.5h-30l-21 7v137l21 6h30q35 0 69.5 1t66.5 4q-33 32 -60 59.5t-59 62.5l31 127q47 29 107.5 47t116.5 18q104 0 156.5 -40t52.5 -110q0 -42 -16.5 -82t-61.5 -84
q27 -2 54.5 -2.5t53.5 -0.5h26zM159 303q32 -31 68 -63.5t69 -54.5q29 12 59.5 29t51 35t20.5 33q0 17 -31.5 32.5t-103.5 15.5q-31 0 -68 -7.5t-65 -19.5zM288 545l-74 74v10l74 74h10l74 -74v-10l-74 -74h-10z" />
    <glyph glyph-name="uniFED1" unicode="&#x641;" horiz-adv-x="897" arabic-form="isolated" 
d="M438 0q-117 0 -193 16.5t-118.5 48.5t-59.5 78t-17 104q0 47 13.5 96t32.5 83l83 -30q-7 -24 -13 -55t-6 -59q0 -47 23.5 -76t86 -42.5t177.5 -13.5q113 0 179.5 7t95.5 21t29 33v30q-23 -12 -51 -19t-65 -7q-91 0 -135.5 38t-44.5 96q0 56 15 107.5t41.5 92.5t60 64.5
t69.5 23.5q63 0 108 -48t68.5 -128t23.5 -178q0 -70 -12.5 -122t-50.5 -85q-42 -37 -127 -56.5t-213 -19.5zM540 374q0 -17 26 -27.5t75 -10.5q25 0 50 2.5t51 9.5q-14 69 -46 106t-65 37q-29 0 -49.5 -19t-31 -46t-10.5 -52zM626 719l-74 74v10l74 74h10l74 -74v-10
l-74 -74h-10z" />
    <glyph glyph-name="uniFED2" unicode="&#x641;" horiz-adv-x="969" arabic-form="final" 
d="M969 150l21 -6v-137l-21 -7q-51 0 -91.5 3t-76 13.5t-73.5 32.5q-32 -16 -71.5 -27t-94 -16.5t-130.5 -5.5q-118 0 -192.5 17.5t-116 50.5t-57.5 78.5t-16 100.5q0 45 13.5 95t32.5 84l83 -30q-7 -24 -13 -54.5t-6 -59.5q0 -47 24 -76t84.5 -42.5t171.5 -13.5
q41 0 80.5 2t74.5 5q-19 25 -31.5 54.5t-12.5 65.5q0 44 14.5 85.5t40 74.5t58 52.5t69.5 19.5q50 0 91 -31.5t65.5 -84t24.5 -117.5q0 -34 -13.5 -65t-35.5 -57q47 -4 104 -4zM626 278q0 -10 15 -29t39.5 -38.5t52.5 -31.5q26 10 50 26.5t39.5 33t15.5 26.5
q0 20 -16.5 43.5t-42 40.5t-51.5 17q-25 0 -48.5 -16t-38.5 -36.5t-15 -35.5zM723 593l-74 74v10l74 74h10l74 -74v-10l-74 -74h-10z" />
    <glyph glyph-name="uniFED3" unicode="&#x641;" horiz-adv-x="489" arabic-form="initial" 
d="M0 150h95q84 0 134 4t74.5 12t32 19t7.5 26v30q-23 -12 -51 -19t-65 -7q-90 0 -135 38t-45 95q0 56 15 108t41.5 93t60 64.5t69.5 23.5q63 0 108 -48t68.5 -128t23.5 -178q0 -70 -12 -126.5t-49 -90.5q-34 -31 -98 -48.5t-177 -17.5h-97l-21 7v137zM132 374
q0 -17 26 -27.5t75 -10.5q25 0 50 2.5t51 9.5q-14 69 -46 106t-65 37q-29 0 -49.5 -19t-31 -46t-10.5 -52zM218 719l-74 74v10l74 74h10l74 -74v-10l-74 -74h-10z" />
    <glyph glyph-name="uniFED4" unicode="&#x641;" horiz-adv-x="482" arabic-form="medial" 
d="M482 150l21 -6v-137l-21 -7q-51 0 -90.5 3t-75 13.5t-73.5 32.5q-45 -24 -101 -36.5t-142 -12.5l-21 7v137l21 6q31 0 58.5 1.5t51.5 3.5q-20 25 -33 55.5t-13 66.5q0 44 14.5 85.5t40 74.5t58.5 52.5t70 19.5q49 0 90 -31.5t65.5 -84t24.5 -117.5q0 -34 -14 -65t-35 -57
q47 -4 104 -4zM139 278q0 -10 15 -29t40 -38.5t53 -31.5q26 9 49.5 26t39 33.5t15.5 26.5q0 20 -16.5 43.5t-41.5 40.5t-52 17q-25 0 -48.5 -16t-38.5 -36.5t-15 -35.5zM236 593l-74 74v10l74 74h10l74 -74v-10l-74 -74h-10z" />
    <glyph glyph-name="uniFED5" unicode="&#x642;" horiz-adv-x="721" arabic-form="isolated" 
d="M341 -210q-93 0 -153.5 18.5t-95 50.5t-48.5 75.5t-14 92.5q0 51 16.5 100.5t41.5 91.5l73 -28q-14 -42 -18.5 -68.5t-4.5 -55.5q0 -67 51 -97.5t160 -30.5q128 0 182.5 17t54.5 37v36q-27 -15 -57.5 -21t-69.5 -6q-80 0 -129.5 34.5t-49.5 105.5q0 58 15 113t41.5 98.5
t60.5 69t73 25.5q61 0 107.5 -47.5t72.5 -129t26 -184.5q0 -62 -6.5 -114t-31.5 -87q-40 -57 -118 -76.5t-179 -19.5zM365 181q0 -17 25.5 -27.5t73.5 -10.5q61 0 111 14q-9 39 -26 72t-39.5 53t-49.5 20t-48.5 -18t-34 -45.5t-12.5 -57.5zM375 533l-72 72v10l72 72h10
l72 -72v-10l-72 -72h-10zM541 533l-72 72v10l72 72h10l72 -72v-10l-72 -72h-10z" />
    <glyph glyph-name="uniFED6" unicode="&#x642;" horiz-adv-x="739" arabic-form="final" 
d="M341 -210q-93 0 -153.5 18.5t-95 50.5t-48.5 75.5t-14 92.5q0 51 16.5 100.5t41.5 91.5l73 -28q-14 -42 -18.5 -68.5t-4.5 -55.5q0 -67 51 -97.5t160 -30.5q128 0 182.5 17t54.5 37v7h-95q-112 0 -161.5 40t-49.5 112q0 47 14 98.5t39 96.5t60 73t77 28q55 0 98 -38.5
t70.5 -105.5t34.5 -154h66l21 -6v-137l-21 -7h-66q-3 -34 -11 -63t-24 -51q-40 -57 -118 -76.5t-179 -19.5zM500 142h78q-8 43 -25 79.5t-41 58.5t-52 22q-29 0 -50.5 -19.5t-33 -45.5t-11.5 -48q0 -20 32.5 -33.5t102.5 -13.5zM375 533l-72 72v10l72 72h10l72 -72v-10
l-72 -72h-10zM541 533l-72 72v10l72 72h10l72 -72v-10l-72 -72h-10z" />
    <glyph glyph-name="uniFED7" unicode="&#x642;" horiz-adv-x="489" arabic-form="initial" 
d="M0 150h95q84 0 134 4t74.5 12t32 19t7.5 26v30q-23 -12 -51 -19t-65 -7q-90 0 -135 38t-45 95q0 56 15 108t41.5 93t60 64.5t69.5 23.5q63 0 108 -48t68.5 -128t23.5 -178q0 -70 -12 -126.5t-49 -90.5q-34 -31 -98 -48.5t-177 -17.5h-97l-21 7v137zM132 374
q0 -17 26 -27.5t75 -10.5q25 0 50 2.5t51 9.5q-14 69 -46 106t-65 37q-29 0 -49.5 -19t-31 -46t-10.5 -52zM135 719l-72 72v10l72 72h10l72 -72v-10l-72 -72h-10zM301 719l-72 72v10l72 72h10l72 -72v-10l-72 -72h-10z" />
    <glyph glyph-name="uniFED8" unicode="&#x642;" horiz-adv-x="482" arabic-form="medial" 
d="M482 150l21 -6v-137l-21 -7q-51 0 -90.5 3t-75 13.5t-73.5 32.5q-45 -24 -101 -36.5t-142 -12.5l-21 7v137l21 6q31 0 58.5 1.5t51.5 3.5q-20 25 -33 55.5t-13 66.5q0 44 14.5 85.5t40 74.5t58.5 52.5t70 19.5q49 0 90 -31.5t65.5 -84t24.5 -117.5q0 -34 -14 -65t-35 -57
q47 -4 104 -4zM139 278q0 -10 15 -29t40 -38.5t53 -31.5q26 9 49.5 26t39 33.5t15.5 26.5q0 20 -16.5 43.5t-41.5 40.5t-52 17q-25 0 -48.5 -16t-38.5 -36.5t-15 -35.5zM153 593l-72 72v10l72 72h10l72 -72v-10l-72 -72h-10zM319 593l-72 72v10l72 72h10l72 -72v-10l-72 -72
h-10z" />
    <glyph glyph-name="uniFED9" unicode="&#x643;" horiz-adv-x="833" arabic-form="isolated" 
d="M160 282q0 -49 23 -78t79.5 -41.5t155.5 -12.5q122 0 180.5 16.5t58.5 38.5v484l112 23v-427q0 -82 -27 -145.5t-86 -96.5q-41 -22 -105.5 -32.5t-152.5 -10.5q-133 0 -209 27t-107.5 82t-31.5 139q0 44 13.5 95t32.5 83l83 -30q-7 -24 -13 -53t-6 -61zM406 403
q-34 13 -47.5 25.5t-13.5 31.5q0 49 41.5 77t111.5 46l17 -72q-64 -13 -83.5 -19.5t-19.5 -11.5q0 -3 10 -7t36 -15q33 -14 48.5 -27t15.5 -42q0 -54 -52 -78.5t-141 -24.5l-10 76q80 2 109 7t29 9q0 3 -8 7.5t-43 17.5z" />
    <glyph glyph-name="uniFEDA" unicode="&#x643;" horiz-adv-x="879" arabic-form="final" 
d="M398 0q-133 0 -209 27t-107.5 82t-31.5 139q0 44 13.5 95t32.5 83l83 -30q-7 -24 -13 -53t-6 -61q0 -48 23 -77t79 -42t156 -13q88 0 140 8.5t75.5 21t23.5 25.5v484l112 23v-523q0 -21 33.5 -30t76.5 -9l21 -6v-138l-22 -6q-73 0 -112 22t-67 60q-27 -25 -64.5 -43.5
t-94.5 -28.5t-142 -10zM406 403q-34 13 -47.5 25.5t-13.5 31.5q0 49 41.5 77t111.5 46l17 -72q-64 -13 -83.5 -19.5t-19.5 -11.5q0 -3 10 -7t36 -15q33 -14 48.5 -27t15.5 -42q0 -54 -52 -78.5t-141 -24.5l-10 76q80 2 109 7t29 9q0 3 -8 7.5t-43 17.5z" />
    <glyph glyph-name="uniFEDB" unicode="&#x643;" horiz-adv-x="461" arabic-form="initial" 
d="M0 0l-21 7v137l21 6h75q96 0 151 11.5t55 27.5q0 17 -23 43.5t-62 58t-86.5 63t-96.5 58.5l22 124l357 176l29 -121l-251 -124q92 -61 149 -120t57 -131q0 -102 -77 -159t-223 -57h-76z" />
    <glyph glyph-name="uniFEDC" unicode="&#x643;" horiz-adv-x="506" arabic-form="medial" 
d="M257 112q-10 -54 -68 -83t-157 -29h-32l-21 7v137l21 6h20q67 0 110 7t43 26q0 10 -9 24.5t-32 45.5l-114 153l23 130l357 176l29 -121l-284 -140l104 -140q48 -64 90.5 -99t83.5 -48.5t85 -13.5l21 -6v-137l-21 -7q-72 0 -135.5 25t-113.5 87z" />
    <glyph glyph-name="uniFEDD" unicode="&#x644;" horiz-adv-x="658" arabic-form="isolated" 
d="M310 -210q-108 0 -169 31.5t-86 83.5t-25 113q0 58 16.5 108.5t41.5 92.5l73 -28q-14 -42 -18.5 -68.5t-4.5 -55.5q0 -67 45 -97.5t132 -30.5q45 0 82.5 8.5t59.5 22.5t22 30l-4 689l112 23v-604q0 -80 -12 -129t-41 -89q-31 -43 -86 -71.5t-138 -28.5z" />
    <glyph glyph-name="uniFEDE" unicode="&#x644;" horiz-adv-x="715" arabic-form="final" 
d="M715 150l21 -6v-137l-21 -7q-45 0 -78 8.5t-57 24.5q-4 -47 -14.5 -81t-31.5 -62q-31 -43 -86 -71.5t-138 -28.5q-108 0 -169 31.5t-86 83.5t-25 113q0 58 16.5 108.5t41.5 92.5l73 -28q-14 -42 -18.5 -68.5t-4.5 -55.5q0 -67 45 -97.5t132 -30.5q45 0 82.5 8.5
t59.5 22.5t22 30l-4 689l112 23v-523q0 -19 38 -29t90 -10z" />
    <glyph glyph-name="uniFEDF" unicode="&#x644;" horiz-adv-x="307" arabic-form="initial" 
d="M0 150q69 0 99 14.5t30 36.5v488l112 23v-441q0 -63 -14.5 -110.5t-41.5 -82.5q-30 -37 -76.5 -57.5t-108.5 -20.5l-21 7v136z" />
    <glyph glyph-name="uniFEE0" unicode="&#x644;" horiz-adv-x="369" arabic-form="medial" 
d="M390 7l-21 -7q-75 0 -120.5 19.5t-73.5 55.5q-33 -42 -74.5 -58.5t-100.5 -16.5l-21 7v136l21 7q68 0 98.5 14.5t30.5 36.5v488l112 23v-523q0 -19 38 -29t90 -10l21 -6v-137z" />
    <glyph glyph-name="uniFEE1" unicode="&#x645;" horiz-adv-x="541" arabic-form="isolated" 
d="M114 -303l-108 -28v303q0 32 12.5 63.5t31.5 57t38 41t32 15.5h3q5 84 23 146.5t52 102.5q17 21 43 35.5t60 14.5q39 0 74 -22t62.5 -58.5t43.5 -81.5t16 -91q0 -36 -14 -72t-39.5 -66t-61 -48t-79.5 -18t-96 3t-93 7v-304zM286 302q-31 0 -56 -40.5t-33 -115.5
q44 -2 86 -5t62 -3q34 0 48.5 6t14.5 16q0 19 -10 43t-27.5 46.5t-39 37.5t-45.5 15z" />
    <glyph glyph-name="uniFEE2" unicode="&#x645;" horiz-adv-x="677" arabic-form="final" 
d="M381 448q44 0 77 -20.5t61.5 -66.5t59.5 -124q15 -38 28 -56.5t29.5 -24.5t40.5 -6l21 -6v-137l-21 -7q-85 0 -133 60q-31 -35 -75 -53.5t-94 -18.5q-56 0 -92 11t-59 33q-30 -4 -58 -10q-25 -5 -51 -13v-311l-109 -29v299q0 26 14 62t36 68.5t47 47.5q14 7 33 12.5
t44 10.5q2 41 17 89t41 91.5t62.5 71t80.5 27.5zM272 175q0 -13 16.5 -21.5t41.5 -12.5t51 -4q33 0 57 5t54 19q-2 3 -3.5 7t-3.5 7q-34 74 -59 100.5t-51 26.5q-22 0 -43 -13t-37 -41q-7 -13 -15 -33t-8 -40z" />
    <glyph glyph-name="uniFEE3" unicode="&#x645;" horiz-adv-x="537" arabic-form="initial" 
d="M493 199q0 -40 -15.5 -77.5t-43 -67.5t-63 -48t-74.5 -18q-47 0 -93.5 16t-83.5 46q-23 -25 -50.5 -37.5t-69.5 -12.5l-21 7v137l21 6q34 0 52.5 6t30.5 22.5t25 47.5q35 83 63.5 131.5t60 69.5t74.5 21q41 0 75 -22.5t59 -59t39 -80.5t14 -87zM300 302
q-25 0 -43.5 -11.5t-37 -40.5t-42.5 -82q32 -17 65 -24t70 -7q40 0 66 9t26 25q0 31 -16 61t-40 50t-48 20z" />
    <glyph glyph-name="uniFEE4" unicode="&#x645;" horiz-adv-x="600" arabic-form="medial" 
d="M600 0q-40 0 -73.5 14t-59.5 46q-30 -34 -73.5 -53t-95.5 -19q-42 0 -91 15t-87 47q-25 -27 -53 -38.5t-67 -11.5l-21 7v137l21 6q34 0 52.5 6t30.5 22.5t25 47.5q36 85 64 133.5t59 68.5t72 20q44 0 75.5 -16.5t60.5 -62t63 -132.5q21 -53 41.5 -70t56.5 -17l21 -6v-137
zM177 168q24 -15 58 -23t68 -8q32 0 55 4.5t56 19.5q-3 6 -6 13.5t-7 16.5q-25 60 -50 85.5t-57 25.5q-23 0 -41 -12.5t-35.5 -41.5t-40.5 -80z" />
    <glyph glyph-name="uniFEE5" unicode="&#x646;" horiz-adv-x="645" arabic-form="isolated" 
d="M600 60q0 -122 -69.5 -196t-215.5 -74q-84 0 -139.5 18t-87 50t-45 73t-13.5 87q0 58 17 109t41 92l73 -28q-14 -42 -18.5 -68.5t-4.5 -55.5q0 -67 46.5 -97.5t137.5 -30.5q87 0 133.5 27.5t46.5 57.5q0 8 -7.5 39t-18.5 71.5t-22.5 80t-19.5 64.5l117 48
q22 -82 35.5 -147t13.5 -120zM287 325l-74 74v10l74 74h10l74 -74v-10l-74 -74h-10z" />
    <glyph glyph-name="uniFEE6" unicode="&#x646;" horiz-adv-x="700" arabic-form="final" 
d="M721 7l-21 -7q-56 0 -103 15q-11 -103 -81 -164t-201 -61q-84 0 -139.5 18.5t-87 51t-45 75.5t-13.5 92q0 54 17 102.5t41 89.5l73 -28q-14 -42 -18.5 -68.5t-4.5 -55.5q0 -67 46.5 -97.5t137.5 -30.5q60 0 101 14t61.5 34.5t17.5 40.5q-2 13 -9.5 42.5t-17.5 67
t-21 75.5t-20 66l117 48q12 -46 22 -86.5t16 -75.5q25 -8 55.5 -11.5t55.5 -3.5l21 -6v-137zM287 325l-74 74v10l74 74h10l74 -74v-10l-74 -74h-10z" />
    <glyph glyph-name="uniFEE7" unicode="&#x646;" horiz-adv-x="311" arabic-form="initial" 
d="M-21 144l21 6h17q62 0 98.5 11.5t36.5 28.5q0 16 -8.5 55t-22 88.5t-27.5 93.5l124 43q15 -61 24 -122.5t9 -113.5q0 -64 -25.5 -117t-77 -85t-131.5 -32h-17l-21 7v137zM137 535l-74 74v10l74 74h10l74 -74v-10l-74 -74h-10z" />
    <glyph glyph-name="uniFEE8" unicode="&#x646;" horiz-adv-x="363" arabic-form="medial" 
d="M384 7l-21 -7q-75 0 -122 16t-80 40q-28 -24 -68 -40t-93 -16l-21 7v137l21 6q69 0 96.5 13.5t29.5 46.5l11 154l112 -4l-11 -194q22 -8 58 -12t67 -4l21 -6v-137zM173 456l-74 74v10l74 74h10l74 -74v-10l-74 -74h-10z" />
    <glyph glyph-name="uniFEE9" unicode="&#x647;" horiz-adv-x="475" arabic-form="isolated" 
d="M394 59q-25 -34 -63.5 -52.5t-105.5 -18.5q-100 0 -144.5 43.5t-44.5 128.5q0 49 28.5 107t95.5 131q-17 13 -35 26l56 112q128 -85 189 -170t61 -163q0 -46 -7.5 -79t-29.5 -65zM117 191q0 -53 115 -53q61 0 89 12t28 24q0 30 -33.5 74.5t-93.5 96.5q-29 -29 -53 -59
t-38 -55t-14 -40z" />
    <glyph glyph-name="uniFEEA" unicode="&#x647;" horiz-adv-x="490" arabic-form="final" 
d="M511 7l-21 -7q-131 0 -173 71q-17 -5 -41.5 -8.5t-64.5 -3.5q-47 0 -86.5 13t-63 35t-23.5 49q0 52 8 87.5t25 63.5q25 39 62.5 71t81 59t84.5 48v43l106 23v-359q0 -20 24 -31t61 -11l21 -6v-137zM127 241q0 -15 32.5 -25.5t79.5 -10.5q17 0 32 1t28 3v161
q-79 -39 -125.5 -74t-46.5 -55z" />
    <glyph glyph-name="uniFEEB" unicode="&#x647;" horiz-adv-x="660" arabic-form="initial" 
d="M616 190q0 -92 -49.5 -146t-132.5 -54q-60 0 -113 12t-96 35q-92 -37 -225 -37l-21 7v137l21 6q29 0 53.5 0.5t45.5 1.5q-33 58 -33 125q0 43 20 82t52.5 66.5t70.5 35.5l46 91q135 -75 214 -134t113 -113t34 -115zM135 279q0 -25 28 -51.5t70 -48.5q38 18 66.5 43.5
t28.5 44.5q0 21 -15 42t-37 34.5t-45 13.5q-20 0 -42.5 -12.5t-38 -30.5t-15.5 -35zM399 279q0 -36 -12.5 -73t-35.5 -70q52 -13 96 -13q47 0 68.5 5.5t21.5 18.5q0 26 -37.5 67.5t-102.5 89.5q2 -12 2 -25z" />
    <glyph glyph-name="uniFEEC" unicode="&#x647;" horiz-adv-x="518" arabic-form="medial" 
d="M470 -77q0 -36 -21 -68t-56 -51.5t-78 -19.5q-105 0 -170.5 55.5t-83.5 162.5q-29 -2 -61 -2l-21 6v138l21 6h60q9 67 32 128t55 108.5t67 75t67 27.5q31 0 61.5 -28.5t50.5 -77t20 -110.5q0 -69 -33 -123h138l21 -6v-138l-21 -6h-64q16 -39 16 -77zM267 352
q-18 0 -42 -29t-46 -74t-31 -94q52 6 94.5 20t68 33t25.5 40q0 19 -11 43.5t-27 42.5t-31 18zM393 -72q0 26 -33.5 63.5t-86.5 63.5q-50 -26 -115 -40q23 -51 72.5 -77t119.5 -26q43 0 43 16z" />
    <glyph glyph-name="uniFEED" unicode="&#x648;" horiz-adv-x="482" arabic-form="isolated" 
d="M16 -199l-5 106q105 9 172 25t103 39.5t51 52.5q-25 -12 -52.5 -17t-61.5 -5q-82 0 -130.5 35t-48.5 105q0 57 15 111.5t41 98.5t60.5 70t73.5 26q59 0 103.5 -45.5t69.5 -123t25 -174.5q0 -157 -77 -239t-211 -82q-35 0 -70 5t-58 12zM129 181q0 -17 26 -27.5t73 -10.5
q62 0 111 14q-14 61 -45.5 103t-69.5 42q-27 0 -48.5 -18t-34 -45.5t-12.5 -57.5z" />
    <glyph glyph-name="uniFEEE" unicode="&#x648;" horiz-adv-x="495" arabic-form="final" 
d="M16 -199l-5 106q128 11 203 33.5t108 59.5h-62q-113 0 -162.5 40t-49.5 112q0 55 14 107.5t39 95t59 68t74 25.5q54 0 96 -39t68 -106.5t32 -152.5h65l21 -6v-137l-21 -7h-73q-23 -100 -92.5 -158t-185.5 -58q-35 0 -70 5t-58 12zM268 142h78q-8 44 -27 80t-44 58t-51 22
t-47 -17t-32.5 -42.5t-11.5 -53.5q0 -19 31.5 -33t103.5 -14z" />
    <glyph glyph-name="uniFEEF" unicode="&#x649;" horiz-adv-x="715" arabic-form="isolated" 
d="M161 191q-13 -39 -18 -65.5t-5 -58.5q0 -66 52 -97t164 -31q62 0 114.5 8t84.5 20.5t32 27.5q0 10 -29 24.5t-101 39.5q-79 26 -109 52.5t-30 72.5q0 71 26.5 129.5t71 93t98.5 34.5q44 0 90 -26t74 -66l-61 -82q-22 17 -51.5 27.5t-58.5 10.5q-22 0 -46 -10.5
t-40.5 -25.5t-16.5 -29q0 -10 23 -22t87 -35q59 -20 94.5 -39.5t51 -43.5t15.5 -58q0 -81 -40 -137.5t-113 -85.5t-173 -29q-167 0 -242 60t-75 168q0 53 15 102.5t43 98.5z" />
    <glyph glyph-name="uniFEF0" unicode="&#x649;" horiz-adv-x="700" arabic-form="final" 
d="M635 -5q0 -48 -32.5 -95t-98 -78.5t-165.5 -31.5q-118 0 -185.5 30.5t-95.5 82t-28 115.5q0 53 15 102.5t43 98.5l73 -28q-14 -42 -18.5 -68.5t-4.5 -55.5q0 -67 51.5 -97.5t157.5 -30.5q96 0 148.5 19t52.5 40q0 12 -8 27t-32 38t-71 58l69 103l32 -20q36 -22 60 -33.5
t47.5 -16t54.5 -4.5l21 -6v-137l-21 -7q-39 0 -66 10q1 -7 1 -15z" />
    <glyph glyph-name="uniFEF1" unicode="&#x64a;" horiz-adv-x="715" arabic-form="isolated" 
d="M161 191q-13 -39 -18 -65.5t-5 -58.5q0 -66 52 -97t164 -31q62 0 114.5 8t84.5 20.5t32 27.5q0 10 -29 24.5t-101 39.5q-79 26 -109 52.5t-30 72.5q0 71 26.5 129.5t71 93t98.5 34.5q44 0 90 -26t74 -66l-61 -82q-22 17 -51.5 27.5t-58.5 10.5q-22 0 -46 -10.5
t-40.5 -25.5t-16.5 -29q0 -10 23 -22t87 -35q59 -20 94.5 -39.5t51 -43.5t15.5 -58q0 -81 -40 -137.5t-113 -85.5t-173 -29q-167 0 -242 60t-75 168q0 53 15 102.5t43 98.5zM190 -352l72 72h10l72 -72v-10l-72 -72h-10l-72 72v10zM356 -352l72 72h10l72 -72v-10l-72 -72h-10
l-72 72v10z" />
    <glyph glyph-name="uniFEF2" unicode="&#x64a;" horiz-adv-x="700" arabic-form="final" 
d="M635 -5q0 -48 -32.5 -95t-98 -78.5t-165.5 -31.5q-118 0 -185.5 30.5t-95.5 82t-28 115.5q0 53 15 102.5t43 98.5l73 -28q-14 -42 -18.5 -68.5t-4.5 -55.5q0 -67 51.5 -97.5t157.5 -30.5q96 0 148.5 19t52.5 40q0 12 -8 27t-32 38t-71 58l69 103l32 -20q36 -22 60 -33.5
t47.5 -16t54.5 -4.5l21 -6v-137l-21 -7q-39 0 -66 10q1 -7 1 -15zM179 -352l72 72h10l72 -72v-10l-72 -72h-10l-72 72v10zM345 -352l72 72h10l72 -72v-10l-72 -72h-10l-72 72v10z" />
    <glyph glyph-name="uniFEF3" unicode="&#x64a;" horiz-adv-x="311" arabic-form="initial" 
d="M-21 144l21 6h17q62 0 98.5 11.5t36.5 28.5q0 16 -8.5 55t-22 88.5t-27.5 93.5l124 43q15 -61 24 -122.5t9 -113.5q0 -64 -25.5 -117t-77 -85t-131.5 -32h-17l-21 7v137zM-43 -147l72 72h10l72 -72v-10l-72 -72h-10l-72 72v10zM123 -147l72 72h10l72 -72v-10l-72 -72h-10
l-72 72v10z" />
    <glyph glyph-name="uniFEF4" unicode="&#x64a;" horiz-adv-x="363" arabic-form="medial" 
d="M384 7l-21 -7q-75 0 -122 16t-80 40q-28 -24 -68 -40t-93 -16l-21 7v137l21 6q69 0 96.5 13.5t29.5 46.5l11 154l112 -4l-11 -194q22 -8 58 -12t67 -4l21 -6v-137zM-17 -147l72 72h10l72 -72v-10l-72 -72h-10l-72 72v10zM149 -147l72 72h10l72 -72v-10l-72 -72h-10
l-72 72v10z" />
    <glyph glyph-name=".notdef" horiz-adv-x="500" 
d="M450 0h-400v750h400v-750zM400 50v650h-300v-650h300z" />
    <glyph glyph-name="glyph1" 
 />
    <glyph glyph-name="glyph1" 
 />
    <glyph glyph-name="uni000D" unicode="&#xd;" horiz-adv-x="262" 
 />
    <glyph glyph-name="space" unicode=" " horiz-adv-x="262" 
 />
    <glyph glyph-name="exclam" unicode="!" horiz-adv-x="296" 
d="M206 231h-116l-22 460q40 19 80 19t80 -19zM148 -13q-40 0 -65 25t-25 65t25 65t65 25q41 0 65.5 -25t24.5 -65t-24.5 -65t-65.5 -25z" />
    <glyph glyph-name="quotedbl" unicode="&#x22;" horiz-adv-x="452" 
d="M174 432h-100l-18 258q31 17 68 17t68 -17zM378 432h-100l-18 258q31 17 68 17t68 -17z" />
    <glyph glyph-name="numbersign" unicode="#" horiz-adv-x="586" 
d="M176 0h-104l27 171h-83v96h98l25 162h-93v96h108l27 168h104l-27 -168h125l27 168h104l-27 -168h83v-96h-98l-25 -162h93v-96h-108l-27 -171h-104l27 171h-125zM243 429l-25 -162h125l25 162h-125z" />
    <glyph glyph-name="dollar" unicode="$" horiz-adv-x="586" 
d="M329 -130h-74v122q-52 4 -101 19.5t-90 41.5v112q66 -31 109.5 -46t81.5 -18v193l-40 15q-81 30 -120.5 73t-39.5 109q0 58 25.5 102t70.5 71t104 32v121h74v-122q37 -4 75.5 -16t75.5 -33v-112q-83 43 -151 52v-192l35 -13q87 -31 128 -73.5t41 -109.5
q0 -83 -55.5 -138.5t-148.5 -66.5v-123zM180 500q0 -31 19 -50.5t56 -34.5v172q-33 -4 -54 -26.5t-21 -60.5zM406 189q0 30 -18 49.5t-59 34.5v-171q32 4 54.5 28.5t22.5 58.5z" />
    <glyph glyph-name="percent" unicode="%" horiz-adv-x="940" 
d="M205 289q-84 0 -128.5 55.5t-44.5 149.5q0 99 45.5 153t127.5 54q84 0 128.5 -55t44.5 -150q0 -99 -45.5 -153t-127.5 -54zM205 373q65 0 65 121q0 123 -65 123t-65 -121q0 -123 65 -123zM735 -8q-84 0 -128.5 55.5t-44.5 149.5q0 99 45.5 153t127.5 54q84 0 128.5 -55
t44.5 -150q0 -99 -45.5 -153t-127.5 -54zM735 76q65 0 65 121q0 123 -65 123t-65 -121q0 -123 65 -123zM358 0h-108l332 693h108z" />
    <glyph glyph-name="ampersand" unicode="&#x26;" horiz-adv-x="744" 
d="M33 180q0 136 144 197q-33 40 -51 67.5t-25 51t-7 50.5q0 75 56.5 119.5t151.5 44.5t151.5 -40.5t56.5 -109.5q0 -55 -38.5 -105.5t-106.5 -84.5l-17 -9l142 -156q17 31 26.5 69.5t9.5 84.5v29h120v-39q0 -67 -19.5 -125t-54.5 -104q13 -9 31 -13.5t46 -4.5q15 0 33 1.5
l30 2.5v-95q-18 -8 -48 -13.5t-55 -5.5q-36 0 -65 11.5t-58 36.5q-88 -57 -203 -57q-119 0 -184.5 51.5t-65.5 145.5zM220 542q0 -18 5 -32t20 -33t45 -52l18 9q38 20 59 49.5t21 63.5q0 31 -23 49.5t-61 18.5q-39 0 -61.5 -19.5t-22.5 -53.5zM288 93q65 0 115 26l-167 192
q-69 -45 -69 -121q0 -97 121 -97z" />
    <glyph glyph-name="quotesingle" unicode="'" horiz-adv-x="248" 
d="M174 432h-100l-18 258q31 17 68 17t68 -17z" />
    <glyph glyph-name="parenleft" unicode="(" horiz-adv-x="351" 
d="M337 -144h-139q-67 95 -103.5 210.5t-36.5 238.5q0 122 36.5 238t103.5 211h139q-60 -92 -92.5 -208t-32.5 -241q0 -124 32.5 -240.5t92.5 -208.5z" />
    <glyph glyph-name="parenright" unicode=")" horiz-adv-x="351" 
d="M14 754h139q68 -95 104 -211t36 -238q0 -123 -36 -238.5t-104 -210.5h-139q60 92 92.5 208.5t32.5 240.5q0 125 -32.5 241t-92.5 208z" />
    <glyph glyph-name="asterisk" unicode="*" horiz-adv-x="404" 
d="M202 465l-62 -118q-28 4 -50 21t-36 42l92 90l-112 20q-2 10 -2 20q0 46 35 79l101 -55l-19 121q26 13 53 13t53 -13l-19 -121l101 55q35 -33 35 -79q0 -10 -2 -20l-112 -20l92 -90q-13 -25 -35.5 -42t-50.5 -21z" />
    <glyph glyph-name="plus" unicode="+" horiz-adv-x="586" 
d="M355 109h-124v182h-171v112h171v182h124v-182h171v-112h-171v-182z" />
    <glyph glyph-name="comma" unicode="," horiz-adv-x="284" 
d="M120 -159h-96l59 313h42q50 0 70.5 -12.5t20.5 -41.5q0 -12 -5 -29t-13 -37z" />
    <glyph glyph-name="hyphen" unicode="-" horiz-adv-x="402" 
d="M360 198h-318v120h318v-120z" />
    <glyph glyph-name="period" unicode="." horiz-adv-x="284" 
d="M142 -13q-40 0 -65 25t-25 65t25 65t65 25q41 0 65.5 -25t24.5 -65t-24.5 -65t-65.5 -25z" />
    <glyph glyph-name="slash" unicode="/" horiz-adv-x="516" 
d="M161 -144h-147l341 898h147z" />
    <glyph glyph-name="zero" unicode="0" horiz-adv-x="586" 
d="M293 -15q-127 0 -195 94t-68 269q0 174 68.5 268t194.5 94t194.5 -94t68.5 -268q0 -175 -68 -269t-195 -94zM293 105q61 0 87 56.5t26 186.5t-26 186t-87 56t-87 -56t-26 -186t26 -186.5t87 -56.5z" />
    <glyph glyph-name="one" unicode="1" horiz-adv-x="586" 
d="M419 0h-148v547l-178 -56v114l195 88h131v-693z" />
    <glyph glyph-name="two" unicode="2" horiz-adv-x="586" 
d="M73 511v119q56 43 109.5 61.5t118.5 18.5q64 0 111 -24t73 -67.5t26 -101.5q0 -50 -27.5 -105t-91 -126.5t-171.5 -169.5h318v-116h-484v108q92 92 151.5 156t92.5 108t46.5 76t13.5 59q0 38 -22.5 59.5t-62.5 21.5q-45 0 -97 -20.5t-104 -56.5z" />
    <glyph glyph-name="three" unicode="3" horiz-adv-x="586" 
d="M492 583l-176 -179q20 -1 37.5 -4t33.5 -8q65 -19 100 -66.5t35 -115.5t-33.5 -119t-94.5 -78.5t-144 -27.5q-46 0 -95 11t-94 30v113q112 -38 184 -38q64 0 97.5 28t33.5 80q0 92 -127 92q-8 0 -26 -1t-36.5 -2.5t-30.5 -3.5v92l179 193h-265v114h422v-110z" />
    <glyph glyph-name="four" unicode="4" horiz-adv-x="586" 
d="M472 0h-127v137h-323v107l314 449h136v-444h88v-112h-88v-137zM159 249h186v266z" />
    <glyph glyph-name="five" unicode="5" horiz-adv-x="586" 
d="M57 27v112q118 -38 198 -38q126 0 126 110q0 54 -31.5 79.5t-99.5 25.5q-37 0 -80 -2.5t-84 -7.5v90l18 297h393v-114h-270l-11 -164q22 5 43.5 7.5t42.5 2.5q69 0 120 -26t79 -73.5t28 -111.5q0 -68 -33.5 -120t-93.5 -80.5t-140 -28.5q-109 0 -205 42z" />
    <glyph glyph-name="six" unicode="6" horiz-adv-x="586" 
d="M355 596q-82 0 -122.5 -51t-46.5 -163q79 42 157 42q62 0 108.5 -25.5t72.5 -70.5t26 -106q0 -71 -31.5 -124.5t-88.5 -83t-134 -29.5q-255 0 -255 336q0 122 35 209t101.5 133.5t159.5 46.5q43 0 89 -10t79 -27v-104q-31 12 -73.5 19.5t-76.5 7.5zM295 314
q-49 0 -108 -25q2 -100 29.5 -145t85.5 -45q102 0 102 109q0 51 -28 78.5t-81 27.5z" />
    <glyph glyph-name="seven" unicode="7" horiz-adv-x="586" 
d="M285 0h-159l260 577h-347v116h495v-109z" />
    <glyph glyph-name="eight" unicode="8" horiz-adv-x="586" 
d="M523 525q0 -52 -29 -95t-79 -68q73 -34 103 -74t30 -98q0 -97 -67 -151t-189 -54q-118 0 -186 50t-68 137q0 59 33.5 108.5t92.5 76.5q-52 29 -75.5 67t-23.5 89q0 60 28.5 104t80 68.5t119.5 24.5q69 0 120.5 -23.5t80.5 -65t29 -96.5zM201 521q0 -35 23.5 -61.5
t74.5 -47.5l37 -16q51 48 51 111q0 48 -24.5 73.5t-71.5 25.5q-90 0 -90 -85zM286 302l-43 18q-32 -23 -48.5 -54t-16.5 -66q0 -105 116 -105q55 0 84.5 25t29.5 71q0 23 -10.5 40.5t-37 34t-74.5 36.5z" />
    <glyph glyph-name="nine" unicode="9" horiz-adv-x="586" 
d="M66 32v104q38 -16 86 -26.5t83 -10.5q78 0 115 45.5t44 152.5q-73 -41 -148 -41q-95 0 -151 58t-56 155q0 71 31.5 125.5t88 85t129.5 30.5q124 0 189 -85t65 -248q0 -191 -75 -291.5t-218 -100.5q-49 0 -99 12.5t-84 34.5zM291 366q24 0 50.5 5.5t54.5 18.5v1
q0 106 -27 155.5t-84 49.5q-47 0 -73.5 -30t-26.5 -83q0 -117 106 -117z" />
    <glyph glyph-name="colon" unicode=":" horiz-adv-x="284" 
d="M142 -13q-40 0 -65 25t-25 65t25 65t65 25q41 0 65.5 -25t24.5 -65t-24.5 -65t-65.5 -25zM142 342q-40 0 -65 25t-25 65t25 65t65 25q41 0 65.5 -25t24.5 -65t-24.5 -65t-65.5 -25z" />
    <glyph glyph-name="semicolon" unicode=";" horiz-adv-x="284" 
d="M120 -159h-96l59 313h42q50 0 70.5 -12.5t20.5 -41.5q0 -12 -5 -29t-13 -37zM142 342q-40 0 -65 25t-25 65t25 65t65 25q41 0 65.5 -25t24.5 -65t-24.5 -65t-65.5 -25z" />
    <glyph glyph-name="less" unicode="&#x3c;" horiz-adv-x="586" 
d="M518 102l-450 188v114l450 188v-128l-314 -116l314 -115v-131z" />
    <glyph glyph-name="equal" unicode="=" horiz-adv-x="586" 
d="M526 403h-466v112h466v-112zM526 182h-466v112h466v-112z" />
    <glyph glyph-name="greater" unicode="&#x3e;" horiz-adv-x="586" 
d="M68 592l450 -188v-114l-450 -188v128l314 116l-314 115v131z" />
    <glyph glyph-name="question" unicode="?" horiz-adv-x="444" 
d="M275 519q0 36 -22.5 55.5t-64.5 19.5q-70 0 -157 -42v111q86 47 184 47q95 0 148.5 -46.5t53.5 -129.5q0 -68 -39.5 -119.5t-130.5 -98.5v-85h-114l-12 135l52 28q56 29 79 58t23 67zM192 -13q-40 0 -65 25t-25 65t25 65t65 25q41 0 65.5 -25t24.5 -65t-24.5 -65
t-65.5 -25z" />
    <glyph glyph-name="at" unicode="@" horiz-adv-x="975" 
d="M437 -116q79 0 172 29v-94q-83 -37 -184 -37q-119 0 -204.5 46t-131 132t-45.5 206q0 110 37.5 203.5t105 162.5t159 107t199.5 38q121 0 207.5 -43.5t132.5 -125t46 -195.5q0 -95 -30 -168t-83 -114t-123 -41q-46 0 -80 17t-51 48q-26 -30 -65 -48.5t-78 -18.5
q-75 0 -115 47t-40 135q0 60 18 114t49 96t71.5 66t84.5 24q71 0 113 -53l15 38h102l-53 -310q-3 -19 -3 -27q0 -36 40 -36q33 0 59.5 30t41.5 82t15 118q0 128 -71.5 195.5t-206.5 67.5q-81 0 -149.5 -30.5t-119 -85t-78.5 -129t-28 -162.5q0 -137 70 -210.5t201 -73.5z
M468 84q45 0 81 44q0 11 3 33l33 195q-34 18 -67 18t-60 -26t-43.5 -69.5t-16.5 -96.5q0 -98 70 -98z" />
    <glyph glyph-name="A" unicode="A" horiz-adv-x="665" 
d="M659 0h-163l-49 158h-237l-47 -158h-157l244 693h165zM328 556l-86 -290h174z" />
    <glyph glyph-name="B" unicode="B" horiz-adv-x="632" 
d="M343 0h-263v693h249q67 0 117 -23t78 -64.5t28 -96.5q0 -104 -93 -144q64 -19 97.5 -62t33.5 -107q0 -90 -67 -143t-180 -53zM317 586h-95v-182h87q97 0 97 90q0 92 -89 92zM333 302h-111v-195h118q102 0 102 96q0 99 -109 99z" />
    <glyph glyph-name="C" unicode="C" horiz-adv-x="615" 
d="M584 136v-118q-41 -16 -87 -23.5t-94 -7.5q-169 0 -256 90.5t-87 265.5q0 173 91 268t256 95q88 0 167 -28v-118q-91 20 -149 20q-207 0 -207 -223v-23q0 -111 50 -166t153 -55q31 0 69.5 5.5t93.5 17.5z" />
    <glyph glyph-name="D" unicode="D" horiz-adv-x="711" 
d="M332 0h-252v693h249q148 0 235 -85t87 -261q0 -168 -84.5 -257.5t-234.5 -89.5zM315 577h-85v-461h86q181 0 181 221v20q0 220 -182 220z" />
    <glyph glyph-name="E" unicode="E" horiz-adv-x="578" 
d="M536 0h-456v693h456v-116h-306v-164h249v-116h-249v-181h306v-116z" />
    <glyph glyph-name="F" unicode="F" horiz-adv-x="540" 
d="M230 0h-150v693h436v-116h-286v-174h228v-116h-228v-287z" />
    <glyph glyph-name="G" unicode="G" horiz-adv-x="709" 
d="M429 107q17 0 36 1.5t38 3.5v169h-130v108h268v-347q-47 -25 -112 -39t-132 -14q-162 0 -249.5 91t-87.5 259q0 178 90.5 271.5t262.5 93.5q57 0 109 -10.5t94 -30.5v-114q-49 16 -98.5 24.5t-88.5 8.5q-111 0 -163 -55.5t-52 -174.5v-18q0 -118 51.5 -172.5t163.5 -54.5
z" />
    <glyph glyph-name="H" unicode="H" horiz-adv-x="736" 
d="M656 0h-150v295h-276v-295h-150v693h150v-282h276v282h150v-693z" />
    <glyph glyph-name="I" unicode="I" horiz-adv-x="318" 
d="M234 0h-150v693h150v-693z" />
    <glyph glyph-name="J" unicode="J" horiz-adv-x="455" 
d="M22 6v115q24 -6 54 -10t53 -4q54 0 77 26.5t23 89.5v470h150v-467q0 -243 -229 -243q-33 0 -62 5t-66 18z" />
    <glyph glyph-name="K" unicode="K" horiz-adv-x="672" 
d="M230 0h-150v693h150v-297l251 297h169l-282 -322l306 -371h-179l-265 329v-329z" />
    <glyph glyph-name="L" unicode="L" horiz-adv-x="543" 
d="M534 0h-454v693h150v-573h304v-120z" />
    <glyph glyph-name="M" unicode="M" horiz-adv-x="864" 
d="M784 0h-132v480l-153 -311h-134l-153 311v-480h-132v693h164l189 -394l190 394h161v-693z" />
    <glyph glyph-name="N" unicode="N" horiz-adv-x="734" 
d="M494 0l-282 481v-481h-132v693h160l282 -485v485h132v-693h-160z" />
    <glyph glyph-name="O" unicode="O" horiz-adv-x="796" 
d="M60 347q0 113 41 194.5t116.5 125t180.5 43.5t180.5 -43.5t116.5 -125t41 -194.5t-41 -194.5t-116.5 -125.5t-180.5 -44t-180.5 44t-116.5 125.5t-41 194.5zM214 347q0 -118 47 -180t137 -62t137 62t47 180q0 119 -47 180t-137 61t-137 -61t-47 -180z" />
    <glyph glyph-name="P" unicode="P" horiz-adv-x="619" 
d="M345 253h-119v-253h-146v693h265q106 0 170 -58t64 -162q0 -103 -64 -161.5t-170 -58.5zM226 581v-216h102q50 0 76.5 27.5t26.5 80.5t-26.5 80.5t-76.5 27.5h-102z" />
    <glyph glyph-name="Q" unicode="Q" horiz-adv-x="796" 
d="M60 347q0 113 41 194.5t116.5 125t180.5 43.5t180.5 -43.5t116.5 -125t41 -194.5q0 -134 -57 -223.5t-160 -122.5q44 -24 91.5 -36t111.5 -17v-122q-97 11 -185 55t-152 103q-101 3 -174 47t-112 124.5t-39 191.5zM214 347q0 -118 47 -180t137 -62t137 62t47 180
q0 119 -47 180t-137 61t-137 -61t-47 -180z" />
    <glyph glyph-name="R" unicode="R" horiz-adv-x="637" 
d="M224 0h-144v693h267q106 0 170 -56t64 -156q0 -64 -35 -110.5t-91 -72.5l172 -298h-155l-150 269h-98v-269zM224 583v-210h104q50 0 77.5 25.5t27.5 80.5q0 53 -26.5 78.5t-76.5 25.5h-106z" />
    <glyph glyph-name="S" unicode="S" horiz-adv-x="585" 
d="M291 275l-76 28q-88 32 -127.5 79.5t-39.5 121.5q0 63 31.5 109.5t89 71.5t135.5 25q48 0 97.5 -9.5t94.5 -26.5v-114q-97 30 -180 30q-118 0 -118 -76q0 -28 20.5 -46t76.5 -38l74 -27q93 -34 132.5 -79.5t39.5 -118.5q0 -103 -74 -162.5t-203 -59.5q-56 0 -112 10.5
t-96 28.5v114q50 -15 107 -24t103 -9q59 0 91 21.5t32 61.5q0 32 -19.5 49.5t-78.5 39.5z" />
    <glyph glyph-name="T" unicode="T" horiz-adv-x="596" 
d="M373 0h-150v573h-211v120h572v-120h-211v-573z" />
    <glyph glyph-name="U" unicode="U" horiz-adv-x="724" 
d="M498 248v445h150v-439q0 -130 -74.5 -200.5t-211.5 -70.5t-211.5 71t-74.5 201v438h150v-445q0 -70 35 -106.5t101 -36.5t101 36.5t35 106.5z" />
    <glyph glyph-name="V" unicode="V" horiz-adv-x="663" 
d="M411 0h-159l-246 693h166l162 -546l161 546h162z" />
    <glyph glyph-name="W" unicode="W" horiz-adv-x="954" 
d="M749 0h-164l-110 489l-106 -489h-163l-192 693h166l110 -530l110 513h158l112 -511l108 528h162z" />
    <glyph glyph-name="X" unicode="X" horiz-adv-x="630" 
d="M626 0h-169l-145 256l-143 -256h-165l225 360l-208 333h169l127 -225l127 225h165l-211 -331z" />
    <glyph glyph-name="Y" unicode="Y" horiz-adv-x="630" 
d="M387 0h-148v256l-229 437h165l142 -324l146 324h157l-233 -439v-254z" />
    <glyph glyph-name="Z" unicode="Z" horiz-adv-x="598" 
d="M560 0h-522v108l357 469h-339v116h501v-108l-355 -469h358v-116z" />
    <glyph glyph-name="bracketleft" unicode="[" horiz-adv-x="370" 
d="M354 -144h-274v898h274v-110h-124v-678h124v-110z" />
    <glyph glyph-name="backslash" unicode="\" horiz-adv-x="516" 
d="M502 -144h-147l-341 898h147z" />
    <glyph glyph-name="bracketright" unicode="]" horiz-adv-x="370" 
d="M290 -144h-274v110h124v678h-124v110h274v-898z" />
    <glyph glyph-name="asciicircum" unicode="^" horiz-adv-x="586" 
d="M552 284h-141l-118 283l-121 -283h-138l200 409h118z" />
    <glyph glyph-name="underscore" unicode="_" horiz-adv-x="500" 
d="M500 -168h-500v114h500v-114z" />
    <glyph glyph-name="grave" unicode="`" horiz-adv-x="612" 
d="M432 600h-118l-134 169h156z" />
    <glyph glyph-name="a" unicode="a" horiz-adv-x="546" 
d="M478 0h-115l-12 45q-31 -28 -71.5 -44.5t-78.5 -16.5q-74 0 -118.5 42t-44.5 112q0 74 54.5 118.5t144.5 44.5q48 0 106 -13v50q0 46 -19 63t-70 17q-38 0 -85.5 -8t-95.5 -23v97q37 20 93 31t114 11q103 0 150.5 -41.5t47.5 -130.5v-354zM242 82q52 0 101 41v87
q-19 3 -40 5t-39 2q-87 0 -87 -70q0 -31 17 -48t48 -17z" />
    <glyph glyph-name="b" unicode="b" horiz-adv-x="615" 
d="M191 0h-121v740h146v-268q29 25 67.5 39.5t77.5 14.5q97 0 153.5 -70.5t56.5 -192.5q0 -81 -27 -143t-75 -96.5t-112 -34.5q-46 0 -86 16t-67 45zM314 416q-25 0 -51.5 -7.5t-46.5 -19.5v-263q44 -27 98 -27q56 0 82.5 38t26.5 120q0 83 -26 121t-83 38z" />
    <glyph glyph-name="c" unicode="c" horiz-adv-x="473" 
d="M439 119v-97q-27 -16 -65 -24.5t-79 -8.5q-121 0 -186 68t-65 196q0 127 68 198t189 71q36 0 71 -8.5t64 -23.5v-97q-59 17 -108 17q-70 0 -103 -35.5t-33 -112.5v-14q0 -76 32.5 -111.5t100.5 -35.5q24 0 54 5t60 13z" />
    <glyph glyph-name="d" unicode="d" horiz-adv-x="612" 
d="M542 0h-127l-12 45q-62 -56 -147 -56q-64 0 -112 32.5t-74 92t-26 139.5q0 83 26.5 144t75 95t113.5 34q79 0 137 -45v259h146v-740zM304 99q48 0 92 28v264q-43 25 -99 25q-105 0 -105 -159q0 -158 112 -158z" />
    <glyph glyph-name="e" unicode="e" horiz-adv-x="541" 
d="M489 220h-310q4 -66 40.5 -95.5t112.5 -29.5q67 0 156 25v-97q-35 -18 -83.5 -28t-100.5 -10q-127 0 -193.5 69t-66.5 202q0 128 65.5 199t183.5 71q99 0 152.5 -54.5t53.5 -155.5q0 -23 -3 -51t-7 -45zM288 425q-49 0 -77 -29.5t-33 -85.5h196v17q0 98 -86 98z" />
    <glyph glyph-name="f" unicode="f" horiz-adv-x="388" 
d="M241 0h-146v403h-81v90l81 15v46q0 200 188 200q27 0 56 -5.5t51 -14.5v-99q-40 6 -68 6q-46 0 -63.5 -15t-17.5 -53v-62h143v-108h-143v-403z" />
    <glyph glyph-name="g" unicode="g" horiz-adv-x="596" 
d="M382 22v40q-57 -51 -134 -51q-62 0 -108 31.5t-71 89t-25 134.5q0 79 25.5 137.5t72 90.5t108.5 32q86 0 145 -59l11 44h120v-471q0 -121 -67.5 -189.5t-188.5 -68.5q-97 0 -184 43v98q48 -15 91 -23t80 -8q66 0 95.5 30.5t29.5 99.5zM293 119q23 0 46.5 7.5t42.5 20.5
v246q-41 25 -96 25q-96 0 -96 -148q0 -77 25.5 -114t77.5 -37z" />
    <glyph glyph-name="h" unicode="h" horiz-adv-x="612" 
d="M544 0h-146v335q0 79 -73 79q-55 0 -109 -34v-380h-146v740h146v-275q86 61 180 61q71 0 109.5 -38.5t38.5 -109.5v-378z" />
    <glyph glyph-name="i" unicode="i" horiz-adv-x="294" 
d="M147 590q-38 0 -61 21t-23 57t23 57t61 21t61 -21t23 -57t-23 -57t-61 -21zM220 0h-146v511h146v-511z" />
    <glyph glyph-name="j" unicode="j" horiz-adv-x="294" 
d="M147 590q-38 0 -61 21t-23 57t23 57t61 21t61 -21t23 -57t-23 -57t-61 -21zM74 -58v569h146v-565q0 -164 -154 -164q-53 0 -101 16v99q30 -3 57 -3q28 0 40 11.5t12 36.5z" />
    <glyph glyph-name="k" unicode="k" horiz-adv-x="582" 
d="M215 0h-145v740h145v-447l177 218h174l-211 -244l227 -267h-178l-189 233v-233z" />
    <glyph glyph-name="l" unicode="l" horiz-adv-x="325" 
d="M295 108v-98q-42 -17 -90 -17q-135 0 -135 151v596h146v-584q0 -28 9.5 -39.5t31.5 -11.5q14 0 38 3z" />
    <glyph glyph-name="m" unicode="m" horiz-adv-x="917" 
d="M849 0h-146v346q0 68 -61 68q-54 0 -109 -26v-388h-146v346q0 68 -61 68q-27 0 -54 -6.5t-56 -20.5v-387h-146v511h120l13 -49q52 34 94.5 49t88.5 15q90 0 127 -64q51 34 96 49t93 15q70 0 108.5 -38.5t38.5 -109.5v-378z" />
    <glyph glyph-name="n" unicode="n" horiz-adv-x="612" 
d="M544 0h-146v335q0 79 -73 79q-55 0 -109 -34v-380h-146v511h120l14 -55q90 70 192 70q71 0 109.5 -38.5t38.5 -109.5v-378z" />
    <glyph glyph-name="o" unicode="o" horiz-adv-x="594" 
d="M297 -15q-117 0 -185 70.5t-68 200.5q0 129 68 199.5t185 70.5t185 -70.5t68 -199.5q0 -130 -68 -200.5t-185 -70.5zM297 97q50 0 77.5 37.5t27.5 121.5q0 83 -27.5 120.5t-77.5 37.5q-49 0 -77 -37.5t-28 -120.5q0 -84 28 -121.5t77 -37.5z" />
    <glyph glyph-name="p" unicode="p" horiz-adv-x="615" 
d="M216 -206h-146v717h120l12 -48q30 29 72.5 46t86.5 17q97 0 153.5 -70.5t56.5 -192.5q0 -81 -27 -143t-75 -96.5t-112 -34.5q-40 0 -77.5 13t-63.5 36v-244zM314 416q-25 0 -51.5 -7.5t-46.5 -19.5v-263q44 -27 98 -27q56 0 82.5 38t26.5 120q0 83 -26 121t-83 38z" />
    <glyph glyph-name="q" unicode="q" horiz-adv-x="612" 
d="M542 -206h-146v245q-61 -50 -140 -50q-64 0 -112 32.5t-74 92t-26 139.5q0 83 26.5 144.5t74.5 95t113 33.5q91 0 153 -59l11 44h120v-717zM304 99q48 0 92 28v264q-43 25 -99 25q-105 0 -105 -159q0 -158 112 -158z" />
    <glyph glyph-name="r" unicode="r" horiz-adv-x="405" 
d="M216 0h-146v511h120l18 -76q32 35 68 58t83 23q19 0 40 -3v-135q-28 6 -62 6q-31 0 -63 -6t-58 -17v-361z" />
    <glyph glyph-name="s" unicode="s" horiz-adv-x="445" 
d="M287 141q0 20 -11.5 31t-46.5 24l-78 31q-61 24 -88 59t-27 89q0 68 54.5 109.5t145.5 41.5q42 0 81.5 -8.5t73.5 -24.5v-97q-76 23 -142 23q-41 0 -60 -10t-19 -32q0 -17 11.5 -27.5t48.5 -25.5l76 -31q63 -25 89 -58t26 -86q0 -74 -56.5 -119.5t-148.5 -45.5
q-50 0 -97 11t-85 30v97q53 -16 95.5 -23.5t85.5 -7.5q72 0 72 50z" />
    <glyph glyph-name="t" unicode="t" horiz-adv-x="394" 
d="M374 111v-98q-54 -21 -121 -21q-85 0 -125.5 40t-40.5 124v247h-77v90l81 16l22 140h120v-138h138v-108h-138v-240q0 -32 16 -45t54 -13q15 0 35.5 2t35.5 4z" />
    <glyph glyph-name="u" unicode="u" horiz-adv-x="600" 
d="M530 0h-120l-14 54q-46 -36 -92 -52.5t-94 -16.5q-68 0 -106 40.5t-38 111.5v374h146v-333q0 -81 70 -81q52 0 102 32v382h146v-511z" />
    <glyph glyph-name="v" unicode="v" horiz-adv-x="534" 
d="M337 0h-139l-194 511h155l109 -380l111 380h151z" />
    <glyph glyph-name="w" unicode="w" horiz-adv-x="798" 
d="M628 0h-141l-88 359l-89 -359h-141l-163 511h154l85 -369l92 369h131l94 -370l80 370h150z" />
    <glyph glyph-name="x" unicode="x" horiz-adv-x="506" 
d="M502 0h-157l-97 162l-93 -162h-151l171 258l-169 253h157l93 -155l87 155h151l-167 -245z" />
    <glyph glyph-name="y" unicode="y" horiz-adv-x="536" 
d="M203 -19l3 11l-202 519h155l114 -382l108 382h151l-216 -580q-29 -79 -70.5 -114t-106.5 -35q-50 0 -97 16v99q16 -1 28.5 -2t28.5 -1q42 0 65 19.5t39 67.5z" />
    <glyph glyph-name="z" unicode="z" horiz-adv-x="493" 
d="M461 0h-429v104l263 299h-253v108h414v-104l-266 -299h271v-108z" />
    <glyph glyph-name="braceleft" unicode="{" horiz-adv-x="396" 
d="M380 -37v-98q-37 -17 -90 -17q-83 0 -131 51t-48 140v149q0 33 -14.5 47.5t-49.5 14.5h-21v110h21q35 0 49.5 14.5t14.5 47.5v149q0 89 48 140t131 51q53 0 90 -17v-98q-30 5 -60 5q-59 0 -59 -67v-160q0 -49 -23.5 -77.5t-76.5 -42.5q53 -14 76.5 -42.5t23.5 -77.5v-160
q0 -67 59 -67q30 0 60 5z" />
    <glyph glyph-name="bar" unicode="|" horiz-adv-x="320" 
d="M234 -206h-148v960h148v-960z" />
    <glyph glyph-name="braceright" unicode="}" horiz-adv-x="396" 
d="M16 647v98q37 17 90 17q83 0 131 -51t48 -140v-149q0 -33 15 -47.5t49 -14.5h21v-110h-21q-34 0 -49 -14.5t-15 -47.5v-149q0 -89 -48 -140t-131 -51q-53 0 -90 17v98q30 -5 60 -5q59 0 59 67v160q0 49 23 77.5t77 42.5q-54 14 -77 42.5t-23 77.5v160q0 67 -59 67
q-30 0 -60 -5z" />
    <glyph glyph-name="asciitilde" unicode="~" horiz-adv-x="586" 
d="M150 253h-100q-4 20 -5.5 35.5t-1.5 24.5q0 62 36 98t98 36q33 0 66.5 -13.5t68.5 -39.5q28 -20 45 -29t35 -9q38 0 41 41l3 44h100q4 -20 5.5 -35.5t1.5 -24.5q0 -62 -36 -98t-98 -36q-33 0 -66.5 14t-68.5 39q-28 20 -45 29t-35 9q-38 0 -41 -41z" />
    <glyph glyph-name="uni00A0" unicode="&#xa0;" horiz-adv-x="262" 
 />
    <glyph glyph-name="cent" unicode="&#xa2;" horiz-adv-x="586" 
d="M394 -130h-74v149q-114 6 -173 72.5t-59 188.5q0 116 61.5 185.5t170.5 77.5v150h74v-152q29 -4 56.5 -11t51.5 -18v-97q-28 7 -55.5 11t-52.5 5v-300q24 2 53 6.5t58 11.5v-97q-46 -24 -111 -31v-151zM226 275q0 -60 22.5 -94t71.5 -45v290q-49 -10 -71.5 -44t-22.5 -93
v-14z" />
    <glyph glyph-name="sterling" unicode="&#xa3;" horiz-adv-x="586" 
d="M225 116h319v-116h-467v104q45 32 61 74.5t16 88.5v9.5t-1 9.5h-100v108h85q-7 32 -12.5 60.5t-5.5 52.5q0 61 29 105.5t82 69.5t124 25q53 0 100 -13.5t81 -37.5v-110q-31 14 -77.5 27.5t-88.5 13.5q-43 0 -74.5 -20.5t-31.5 -79.5q0 -22 3.5 -45.5t7.5 -47.5h193v-108
h-176q1 -4 1 -8.5v-9.5q0 -40 -14 -78.5t-54 -73.5z" />
    <glyph glyph-name="currency" unicode="&#xa4;" horiz-adv-x="586" 
d="M293 114q-29 0 -56 6t-51 16l-79 -84l-86 76l77 79q-19 27 -29.5 60.5t-10.5 72.5q0 38 10.5 72t29.5 61l-77 79l86 76l79 -84q24 11 51 16.5t56 5.5q57 0 106 -22l80 84l86 -76l-78 -79q20 -27 30.5 -61t10.5 -72q0 -39 -10.5 -72.5t-30.5 -60.5l78 -79l-86 -76l-80 84
q-49 -22 -106 -22zM293 212q53 0 81 33.5t28 94.5q0 62 -28 95t-81 33t-81 -33t-28 -95q0 -61 28 -94.5t81 -33.5z" />
    <glyph glyph-name="yen" unicode="&#xa5;" horiz-adv-x="586" 
d="M362 0h-142v142h-162v86h162v26l-24 49h-138v86h97l-147 304h163l121 -326l129 326h157l-149 -304h95v-86h-137l-25 -52v-23h162v-86h-162v-142z" />
    <glyph glyph-name="section" unicode="&#xa7;" horiz-adv-x="482" 
d="M32 295q0 47 27.5 81.5t71.5 47.5q-43 23 -62.5 55t-19.5 80q0 45 24.5 79t68.5 53t102 19q47 0 88.5 -9.5t78.5 -26.5v-97q-44 13 -82.5 19.5t-71.5 6.5q-76 0 -76 -46q0 -18 12 -30t42 -24l85 -35q68 -28 99 -61.5t31 -82.5q0 -103 -91 -139q36 -23 54.5 -52.5
t18.5 -68.5q0 -79 -54 -119.5t-149 -40.5q-52 0 -99.5 11t-86.5 30v97q51 -16 94 -23.5t87 -7.5q76 0 76 51q0 24 -20 36.5t-58 27.5l-75 29q-61 23 -88 55.5t-27 84.5zM164 316q0 -26 14 -41.5t53 -32.5l40 -17q47 20 47 77q0 49 -71 76l-19 7q-31 -7 -47.5 -25t-16.5 -44z
" />
    <glyph glyph-name="dieresis" unicode="&#xa8;" horiz-adv-x="612" 
d="M190 587q-36 0 -57.5 19.5t-21.5 53.5t21.5 53.5t57.5 19.5t57.5 -19.5t21.5 -53.5t-21.5 -53.5t-57.5 -19.5zM422 587q-36 0 -57.5 19.5t-21.5 53.5t21.5 53.5t57.5 19.5t57.5 -19.5t21.5 -53.5t-21.5 -53.5t-57.5 -19.5z" />
    <glyph glyph-name="copyright" unicode="&#xa9;" horiz-adv-x="782" 
d="M391 -17q-107 0 -190.5 46t-131 127.5t-47.5 188.5q0 80 27.5 146.5t77.5 114.5t117.5 74.5t146.5 26.5q108 0 191 -46t130.5 -127.5t47.5 -188.5t-47.5 -188.5t-130.5 -127.5t-191 -46zM391 63q83 0 144 35t95 98.5t34 148.5q0 86 -34 149t-95 98t-144 35
q-82 0 -143.5 -35t-95.5 -98.5t-34 -148.5t34 -148.5t95.5 -98.5t143.5 -35zM514 245v-82q-21 -10 -46 -16t-54 -6q-94 0 -144.5 53t-50.5 153q0 97 52 151.5t144 54.5q22 0 48 -4.5t46 -14.5v-79q-46 10 -81 10q-49 0 -73 -28t-24 -78v-22q0 -49 23.5 -77.5t78.5 -28.5
q15 0 38 4t43 10z" />
    <glyph glyph-name="ordfeminine" unicode="&#xaa;" horiz-adv-x="410" 
d="M350 346h-89l-11 34q-25 -21 -53 -32.5t-59 -11.5q-45 0 -76.5 26t-31.5 76q0 53 38 84t101 31q36 0 77 -10v39q0 23 -11.5 35.5t-40.5 12.5q-28 0 -60.5 -4t-79.5 -17v71q40 17 79 23.5t76 6.5q73 0 107 -29.5t34 -86.5v-248zM179 409q28 0 67 23v52q-33 6 -60 6
q-24 0 -38 -11t-14 -31q0 -22 12 -30.5t33 -8.5zM37 276h313v-82h-313v82z" />
    <glyph glyph-name="guillemotleft" unicode="&#xab;" horiz-adv-x="611" 
d="M318 51h-140l-136 208l136 208h140l-122 -208zM563 51h-140l-136 208l136 208h140l-122 -208z" />
    <glyph glyph-name="logicalnot" unicode="&#xac;" horiz-adv-x="586" 
d="M526 203h-124v175h-342v112h466v-287z" />
    <glyph glyph-name="registered" unicode="&#xae;" horiz-adv-x="534" 
d="M267 271q-72 0 -127.5 31t-86.5 85.5t-31 124.5q0 71 31 125.5t86.5 85.5t127.5 31t127.5 -31t86.5 -85t31 -125t-31 -125.5t-86.5 -85.5t-127.5 -31zM267 319q83 0 135 53t52 141q0 89 -51.5 141t-135.5 52q-83 0 -135 -52.5t-52 -141.5q0 -88 51.5 -140.5t135.5 -52.5z
M231 384h-60v262h104q44 0 68.5 -22t24.5 -64q0 -25 -13 -42.5t-35 -27.5l66 -106h-68l-55 95h-32v-95zM231 593v-64h33q17 0 28 7t11 23q0 17 -10 25.5t-26 8.5h-36z" />
    <glyph glyph-name="degree" unicode="&#xb0;" horiz-adv-x="382" 
d="M191 413q-62 0 -103.5 37t-41.5 107q0 71 41.5 107.5t103.5 36.5t103.5 -36.5t41.5 -107.5q0 -70 -41.5 -107t-103.5 -37zM191 491q25 0 41 16.5t16 49.5t-16 49.5t-41 16.5t-41 -16.5t-16 -49.5t16 -49.5t41 -16.5z" />
    <glyph glyph-name="plusminus" unicode="&#xb1;" horiz-adv-x="586" 
d="M355 178h-124v182h-171v112h171v182h124v-182h171v-112h-171v-182zM526 0h-466v112h466v-112z" />
    <glyph glyph-name="uni00B2" unicode="&#xb2;" horiz-adv-x="410" 
d="M67 664v85q32 22 68.5 33.5t71.5 11.5q61 0 97.5 -32t36.5 -85q0 -37 -38 -85.5t-121 -117.5h173v-84h-296v72q66 59 103.5 97.5t53 64t15.5 45.5q0 18 -13 28.5t-35 10.5q-21 0 -52.5 -12t-63.5 -32z" />
    <glyph glyph-name="uni00B3" unicode="&#xb3;" horiz-adv-x="410" 
d="M189 382q-71 0 -120 25v78q29 -9 57 -14t53 -5q37 0 58 12.5t21 34.5q0 44 -75 44q-8 0 -24.5 -1t-33.5 -3v50l103 101h-155v82h263v-72l-100 -98h7q53 0 84 -27t31 -74q0 -64 -44 -98.5t-125 -34.5z" />
    <glyph glyph-name="acute" unicode="&#xb4;" horiz-adv-x="612" 
d="M298 600h-118l96 169h156z" />
    <glyph glyph-name="paragraph" unicode="&#xb6;" horiz-adv-x="624" 
d="M540 -104h-111v693h-84v-795h-111v434q-96 16 -149 72.5t-53 147.5q0 117 75.5 181t209.5 64h223v-797z" />
    <glyph glyph-name="periodcentered" unicode="&#xb7;" horiz-adv-x="284" 
d="M142 168q-40 0 -65 25t-25 65t25 65t65 25q41 0 65.5 -25t24.5 -65t-24.5 -65t-65.5 -25z" />
    <glyph glyph-name="cedilla" unicode="&#xb8;" horiz-adv-x="612" 
d="M298 -59q44 0 70.5 -21t26.5 -56q0 -46 -30 -82t-96 -71l-53 48q37 21 57 42t20 39q0 22 -33 22q-11 0 -32 -3v71q33 11 70 11z" />
    <glyph glyph-name="uni00B9" unicode="&#xb9;" horiz-adv-x="410" 
d="M293 390h-106v294l-119 -37v81l129 58h96v-396z" />
    <glyph glyph-name="ordmasculine" unicode="&#xba;" horiz-adv-x="428" 
d="M214 328q-84 0 -131 50t-47 140q0 89 47 140.5t131 51.5t131 -51.5t47 -140.5q0 -90 -47 -140t-131 -50zM214 412q36 0 53 25t17 81t-17.5 82t-52.5 26t-52.5 -26t-17.5 -82t17 -81t53 -25zM51 276h326v-82h-326v82z" />
    <glyph glyph-name="guillemotright" unicode="&#xbb;" horiz-adv-x="611" 
d="M48 467h140l136 -208l-136 -208h-140l122 208zM293 467h140l136 -208l-136 -208h-140l122 208z" />
    <glyph glyph-name="onequarter" unicode="&#xbc;" horiz-adv-x="940" 
d="M293 297h-106v294l-119 -37v81l129 58h96v-396zM852 0h-92v77h-194v74l184 251h102v-250h54v-75h-54v-77zM760 290l-101 -138h101v138zM364 0h-108l332 693h108z" />
    <glyph glyph-name="onehalf" unicode="&#xbd;" horiz-adv-x="940" 
d="M293 297h-106v294l-119 -37v81l129 58h96v-396zM597 274v85q32 22 68.5 33.5t71.5 11.5q61 0 97.5 -32t36.5 -85q0 -37 -38 -85.5t-121 -117.5h173v-84h-296v72q66 59 103.5 97.5t53 64t15.5 45.5q0 18 -13 28.5t-35 10.5q-21 0 -52.5 -12t-63.5 -32zM345 0h-108l332 693
h108z" />
    <glyph glyph-name="threequarters" unicode="&#xbe;" horiz-adv-x="940" 
d="M189 289q-71 0 -120 25v78q29 -9 57 -14t53 -5q37 0 58 12.5t21 34.5q0 44 -75 44q-8 0 -24.5 -1t-33.5 -3v50l103 101h-155v82h263v-72l-100 -98h7q53 0 84 -27t31 -74q0 -64 -44 -98.5t-125 -34.5zM852 0h-92v77h-194v74l184 251h102v-250h54v-75h-54v-77zM760 290
l-101 -138h101v138zM381 0h-108l332 693h108z" />
    <glyph glyph-name="Agrave" unicode="&#xc0;" horiz-adv-x="665" 
d="M659 0h-163l-49 158h-237l-47 -158h-157l244 693h165zM328 556l-86 -290h174zM390 769h-122l-133 129h154z" />
    <glyph glyph-name="Acircumflex" unicode="&#xc2;" horiz-adv-x="665" 
d="M659 0h-163l-49 158h-237l-47 -158h-157l244 693h165zM328 556l-86 -290h174zM532 769h-128l-76 75l-76 -75h-128l130 141h148z" />
    <glyph glyph-name="AE" unicode="&#xc6;" horiz-adv-x="971" 
d="M929 0h-456v158h-220l-79 -158h-168l376 693h547v-116h-306v-164h249v-116h-249v-181h306v-116zM463 577l-156 -311h166v311h-10z" />
    <glyph glyph-name="Ccedilla" unicode="&#xc7;" horiz-adv-x="615" 
d="M584 136v-118q-41 -16 -87 -23.5t-94 -7.5q-169 0 -256 90.5t-87 265.5q0 173 91 268t256 95q88 0 167 -28v-118q-91 20 -149 20q-207 0 -207 -223v-23q0 -111 50 -166t153 -55q31 0 69.5 5.5t93.5 17.5zM381 -59q44 0 70.5 -21t26.5 -56q0 -46 -30 -82t-96 -71l-54 49
q36 20 56 41.5t20 38.5q0 20 -31 20q-11 0 -32 -3v73q33 11 70 11z" />
    <glyph glyph-name="Egrave" unicode="&#xc8;" horiz-adv-x="578" 
d="M536 0h-456v693h456v-116h-306v-164h249v-116h-249v-181h306v-116zM369 769h-122l-133 129h154z" />
    <glyph glyph-name="Eacute" unicode="&#xc9;" horiz-adv-x="578" 
d="M536 0h-456v693h456v-116h-306v-164h249v-116h-249v-181h306v-116zM369 769h-122l101 129h154z" />
    <glyph glyph-name="Ecircumflex" unicode="&#xca;" horiz-adv-x="578" 
d="M536 0h-456v693h456v-116h-306v-164h249v-116h-249v-181h306v-116zM511 769h-128l-76 75l-76 -75h-128l130 141h148z" />
    <glyph glyph-name="Edieresis" unicode="&#xcb;" horiz-adv-x="578" 
d="M536 0h-456v693h456v-116h-306v-164h249v-116h-249v-181h306v-116zM194 770q-37 0 -59 20t-22 54q0 35 22 55t59 20t59 -20t22 -55q0 -34 -22 -54t-59 -20zM422 770q-37 0 -59 20t-22 54q0 35 22 55t59 20t59 -20t22 -55q0 -34 -22 -54t-59 -20z" />
    <glyph glyph-name="Icircumflex" unicode="&#xce;" horiz-adv-x="318" 
d="M234 0h-150v693h150v-693zM362 769h-128l-76 75l-76 -75h-128l130 141h148z" />
    <glyph glyph-name="Idieresis" unicode="&#xcf;" horiz-adv-x="318" 
d="M234 0h-150v693h150v-693zM45 770q-37 0 -59 20t-22 54q0 35 22 55t59 20t59 -20t22 -55q0 -34 -22 -54t-59 -20zM273 770q-37 0 -59 20t-22 54q0 35 22 55t59 20t59 -20t22 -55q0 -34 -22 -54t-59 -20z" />
    <glyph glyph-name="Ocircumflex" unicode="&#xd4;" horiz-adv-x="796" 
d="M60 347q0 113 41 194.5t116.5 125t180.5 43.5t180.5 -43.5t116.5 -125t41 -194.5t-41 -194.5t-116.5 -125.5t-180.5 -44t-180.5 44t-116.5 125.5t-41 194.5zM214 347q0 -118 47 -180t137 -62t137 62t47 180q0 119 -47 180t-137 61t-137 -61t-47 -180zM601 769h-128
l-76 75l-76 -75h-128l130 141h148z" />
    <glyph glyph-name="multiply" unicode="&#xd7;" horiz-adv-x="586" 
d="M293 268l-140 -148l-75 75l139 145l-137 144l77 77l136 -142l136 142l77 -77l-137 -144l139 -145l-75 -75z" />
    <glyph glyph-name="Ugrave" unicode="&#xd9;" horiz-adv-x="724" 
d="M498 248v445h150v-439q0 -130 -74.5 -200.5t-211.5 -70.5t-211.5 71t-74.5 201v438h150v-445q0 -70 35 -106.5t101 -36.5t101 36.5t35 106.5zM423 769h-122l-133 129h154z" />
    <glyph glyph-name="Ucircumflex" unicode="&#xdb;" horiz-adv-x="724" 
d="M498 248v445h150v-439q0 -130 -74.5 -200.5t-211.5 -70.5t-211.5 71t-74.5 201v438h150v-445q0 -70 35 -106.5t101 -36.5t101 36.5t35 106.5zM565 769h-128l-76 75l-76 -75h-128l130 141h148z" />
    <glyph glyph-name="Udieresis" unicode="&#xdc;" horiz-adv-x="724" 
d="M498 248v445h150v-439q0 -130 -74.5 -200.5t-211.5 -70.5t-211.5 71t-74.5 201v438h150v-445q0 -70 35 -106.5t101 -36.5t101 36.5t35 106.5zM248 770q-37 0 -59 20t-22 54q0 35 22 55t59 20t59 -20t22 -55q0 -34 -22 -54t-59 -20zM476 770q-37 0 -59 20t-22 54
q0 35 22 55t59 20t59 -20t22 -55q0 -34 -22 -54t-59 -20z" />
    <glyph glyph-name="agrave" unicode="&#xe0;" horiz-adv-x="546" 
d="M478 0h-115l-12 45q-31 -28 -71.5 -44.5t-78.5 -16.5q-74 0 -118.5 42t-44.5 112q0 74 54.5 118.5t144.5 44.5q48 0 106 -13v50q0 46 -19 63t-70 17q-38 0 -85.5 -8t-95.5 -23v97q37 20 93 31t114 11q103 0 150.5 -41.5t47.5 -130.5v-354zM242 82q52 0 101 41v87
q-19 3 -40 5t-39 2q-87 0 -87 -70q0 -31 17 -48t48 -17zM324 600h-118l-134 169h156z" />
    <glyph glyph-name="acircumflex" unicode="&#xe2;" horiz-adv-x="546" 
d="M478 0h-115l-12 45q-31 -28 -71.5 -44.5t-78.5 -16.5q-74 0 -118.5 42t-44.5 112q0 74 54.5 118.5t144.5 44.5q48 0 106 -13v50q0 46 -19 63t-70 17q-38 0 -85.5 -8t-95.5 -23v97q37 20 93 31t114 11q103 0 150.5 -41.5t47.5 -130.5v-354zM242 82q52 0 101 41v87
q-19 3 -40 5t-39 2q-87 0 -87 -70q0 -31 17 -48t48 -17zM464 600h-114l-85 98l-85 -98h-114l127 170h144z" />
    <glyph glyph-name="ae" unicode="&#xe6;" horiz-adv-x="851" 
d="M267 526q57 0 100 -19t67 -52q32 34 74.5 52.5t91.5 18.5q101 0 155 -54t54 -156q0 -23 -2.5 -53.5t-7.5 -50.5h-315q6 -62 43.5 -89.5t114.5 -27.5q65 0 156 25v-97q-35 -18 -83.5 -28t-100.5 -10q-143 0 -205 83q-22 -24 -56 -43t-71.5 -30t-72.5 -11q-79 0 -125 41.5
t-46 111.5q0 77 55 123.5t144 46.5q32 0 64 -2.5t59 -7.5v26q0 95 -106 95q-38 0 -86 -8.5t-95 -22.5v97q21 12 54 21.5t70.5 15t69.5 5.5zM595 425q-51 0 -80 -32t-32 -91h201v17q0 55 -21.5 80.5t-67.5 25.5zM243 82q32 0 68 17t61 43q-5 17 -8 36.5t-5 41.5
q-22 2 -46.5 2.5t-48.5 0.5q-87 0 -87 -75q0 -66 66 -66z" />
    <glyph glyph-name="ccedilla" unicode="&#xe7;" horiz-adv-x="473" 
d="M439 119v-97q-27 -16 -65 -24.5t-79 -8.5q-121 0 -186 68t-65 196q0 127 68 198t189 71q36 0 71 -8.5t64 -23.5v-97q-59 17 -108 17q-70 0 -103 -35.5t-33 -112.5v-14q0 -76 32.5 -111.5t100.5 -35.5q24 0 54 5t60 13zM283 -59q44 0 70.5 -21t26.5 -56q0 -46 -30 -82
t-96 -71l-53 48q37 21 57 42t20 39q0 22 -33 22q-11 0 -32 -3v71q33 11 70 11z" />
    <glyph glyph-name="egrave" unicode="&#xe8;" horiz-adv-x="541" 
d="M489 220h-310q4 -66 40.5 -95.5t112.5 -29.5q67 0 156 25v-97q-35 -18 -83.5 -28t-100.5 -10q-127 0 -193.5 69t-66.5 202q0 128 65.5 199t183.5 71q99 0 152.5 -54.5t53.5 -155.5q0 -23 -3 -51t-7 -45zM288 425q-49 0 -77 -29.5t-33 -85.5h196v17q0 98 -86 98zM343 600
h-118l-134 169h156z" />
    <glyph glyph-name="eacute" unicode="&#xe9;" horiz-adv-x="541" 
d="M489 220h-310q4 -66 40.5 -95.5t112.5 -29.5q67 0 156 25v-97q-35 -18 -83.5 -28t-100.5 -10q-127 0 -193.5 69t-66.5 202q0 128 65.5 199t183.5 71q99 0 152.5 -54.5t53.5 -155.5q0 -23 -3 -51t-7 -45zM288 425q-49 0 -77 -29.5t-33 -85.5h196v17q0 98 -86 98zM343 600
h-118l96 169h156z" />
    <glyph glyph-name="ecircumflex" unicode="&#xea;" horiz-adv-x="541" 
d="M489 220h-310q4 -66 40.5 -95.5t112.5 -29.5q67 0 156 25v-97q-35 -18 -83.5 -28t-100.5 -10q-127 0 -193.5 69t-66.5 202q0 128 65.5 199t183.5 71q99 0 152.5 -54.5t53.5 -155.5q0 -23 -3 -51t-7 -45zM288 425q-49 0 -77 -29.5t-33 -85.5h196v17q0 98 -86 98zM483 600
h-114l-85 98l-85 -98h-114l127 170h144z" />
    <glyph glyph-name="edieresis" unicode="&#xeb;" horiz-adv-x="541" 
d="M489 220h-310q4 -66 40.5 -95.5t112.5 -29.5q67 0 156 25v-97q-35 -18 -83.5 -28t-100.5 -10q-127 0 -193.5 69t-66.5 202q0 128 65.5 199t183.5 71q99 0 152.5 -54.5t53.5 -155.5q0 -23 -3 -51t-7 -45zM288 425q-49 0 -77 -29.5t-33 -85.5h196v17q0 98 -86 98zM168 587
q-36 0 -57.5 19.5t-21.5 53.5t21.5 53.5t57.5 19.5t57.5 -19.5t21.5 -53.5t-21.5 -53.5t-57.5 -19.5zM400 587q-36 0 -57.5 19.5t-21.5 53.5t21.5 53.5t57.5 19.5t57.5 -19.5t21.5 -53.5t-21.5 -53.5t-57.5 -19.5z" />
    <glyph glyph-name="icircumflex" unicode="&#xee;" horiz-adv-x="294" 
d="M220 0h-146v511h146v-511zM346 600h-114l-85 98l-85 -98h-114l127 170h144z" />
    <glyph glyph-name="idieresis" unicode="&#xef;" horiz-adv-x="294" 
d="M220 0h-146v511h146v-511zM31 587q-36 0 -57.5 19.5t-21.5 53.5t21.5 53.5t57.5 19.5t57.5 -19.5t21.5 -53.5t-21.5 -53.5t-57.5 -19.5zM263 587q-36 0 -57.5 19.5t-21.5 53.5t21.5 53.5t57.5 19.5t57.5 -19.5t21.5 -53.5t-21.5 -53.5t-57.5 -19.5z" />
    <glyph glyph-name="ocircumflex" unicode="&#xf4;" horiz-adv-x="594" 
d="M297 -15q-117 0 -185 70.5t-68 200.5q0 129 68 199.5t185 70.5t185 -70.5t68 -199.5q0 -130 -68 -200.5t-185 -70.5zM297 97q50 0 77.5 37.5t27.5 121.5q0 83 -27.5 120.5t-77.5 37.5q-49 0 -77 -37.5t-28 -120.5q0 -84 28 -121.5t77 -37.5zM496 600h-114l-85 98l-85 -98
h-114l127 170h144z" />
    <glyph glyph-name="divide" unicode="&#xf7;" horiz-adv-x="586" 
d="M293 457q-34 0 -55 21t-21 54q0 34 21 55t55 21t55 -21t21 -55q0 -33 -21 -54t-55 -21zM526 291h-466v112h466v-112zM293 86q-34 0 -55 21t-21 54q0 34 21 55t55 21t55 -21t21 -55q0 -33 -21 -54t-55 -21z" />
    <glyph glyph-name="ugrave" unicode="&#xf9;" horiz-adv-x="600" 
d="M530 0h-120l-14 54q-46 -36 -92 -52.5t-94 -16.5q-68 0 -106 40.5t-38 111.5v374h146v-333q0 -81 70 -81q52 0 102 32v382h146v-511zM357 600h-118l-134 169h156z" />
    <glyph glyph-name="ucircumflex" unicode="&#xfb;" horiz-adv-x="600" 
d="M530 0h-120l-14 54q-46 -36 -92 -52.5t-94 -16.5q-68 0 -106 40.5t-38 111.5v374h146v-333q0 -81 70 -81q52 0 102 32v382h146v-511zM497 600h-114l-85 98l-85 -98h-114l127 170h144z" />
    <glyph glyph-name="udieresis" unicode="&#xfc;" horiz-adv-x="600" 
d="M530 0h-120l-14 54q-46 -36 -92 -52.5t-94 -16.5q-68 0 -106 40.5t-38 111.5v374h146v-333q0 -81 70 -81q52 0 102 32v382h146v-511zM182 587q-36 0 -57.5 19.5t-21.5 53.5t21.5 53.5t57.5 19.5t57.5 -19.5t21.5 -53.5t-21.5 -53.5t-57.5 -19.5zM414 587
q-36 0 -57.5 19.5t-21.5 53.5t21.5 53.5t57.5 19.5t57.5 -19.5t21.5 -53.5t-21.5 -53.5t-57.5 -19.5z" />
    <glyph glyph-name="ydieresis" unicode="&#xff;" horiz-adv-x="536" 
d="M203 -19l3 11l-202 519h155l114 -382l108 382h151l-216 -580q-29 -79 -70.5 -114t-106.5 -35q-50 0 -97 16v99q16 -1 28.5 -2t28.5 -1q42 0 65 19.5t39 67.5zM157 587q-36 0 -57.5 19.5t-21.5 53.5t21.5 53.5t57.5 19.5t57.5 -19.5t21.5 -53.5t-21.5 -53.5t-57.5 -19.5z
M389 587q-36 0 -57.5 19.5t-21.5 53.5t21.5 53.5t57.5 19.5t57.5 -19.5t21.5 -53.5t-21.5 -53.5t-57.5 -19.5z" />
    <glyph glyph-name="dotlessi" unicode="&#x131;" horiz-adv-x="294" 
d="M220 0h-146v511h146v-511z" />
    <glyph glyph-name="OE" unicode="&#x152;" horiz-adv-x="1072" 
d="M1030 0h-448v75q-72 -92 -210 -92q-97 0 -167 43.5t-107.5 125t-37.5 195.5q0 113 37.5 194.5t107.5 125t167 43.5q138 0 210 -92v75h448v-116h-308v-164h251v-116h-251v-181h308v-116zM214 347q0 -118 46.5 -180t134.5 -62q89 0 138 63t49 177v4q0 113 -49.5 176
t-137.5 63t-134.5 -61.5t-46.5 -179.5z" />
    <glyph glyph-name="oe" unicode="&#x153;" horiz-adv-x="921" 
d="M687 -15q-150 0 -207 104q-54 -104 -191 -104q-114 0 -179.5 72.5t-65.5 198.5t65.5 198t179.5 72q134 0 191 -104q57 104 194 104q98 0 151.5 -54.5t53.5 -155.5q0 -21 -3 -49.5t-7 -46.5h-316q5 -65 43 -95t116 -30q65 0 156 25v-97q-34 -17 -82.5 -27.5t-98.5 -10.5z
M668 425q-50 0 -80 -30.5t-35 -84.5h201v17q0 98 -86 98zM302 97q106 0 106 159q0 158 -106 158q-110 0 -110 -158q0 -159 110 -159z" />
    <glyph glyph-name="Ydieresis" unicode="&#x178;" horiz-adv-x="630" 
d="M387 0h-148v256l-229 437h165l142 -324l146 324h157l-233 -439v-254zM205 770q-37 0 -59 20t-22 54q0 35 22 55t59 20t59 -20t22 -55q0 -34 -22 -54t-59 -20zM433 770q-37 0 -59 20t-22 54q0 35 22 55t59 20t59 -20t22 -55q0 -34 -22 -54t-59 -20z" />
    <glyph glyph-name="circumflex" unicode="&#x2c6;" horiz-adv-x="612" 
d="M505 600h-114l-85 98l-85 -98h-114l127 170h144z" />
    <glyph glyph-name="uni02CA" unicode="&#x2ca;" horiz-adv-x="612" 
d="M298 600h-118l96 169h156z" />
    <glyph glyph-name="uni02CB" unicode="&#x2cb;" horiz-adv-x="612" 
d="M432 600h-118l-134 169h156z" />
    <glyph glyph-name="gravecomb" unicode="&#x300;" 
d="M59 600h-118l-134 169h156z" />
    <glyph glyph-name="acutecomb" unicode="&#x301;" 
d="M59 600h-118l96 169h156z" />
    <glyph glyph-name="uni0302" unicode="&#x302;" 
d="M199 600h-114l-85 98l-85 -98h-114l127 170h144z" />
    <glyph glyph-name="uni0308" unicode="&#x308;" 
d="M-116 587q-36 0 -57.5 19.5t-21.5 53.5t21.5 53.5t57.5 19.5t57.5 -19.5t21.5 -53.5t-21.5 -53.5t-57.5 -19.5zM116 587q-36 0 -57.5 19.5t-21.5 53.5t21.5 53.5t57.5 19.5t57.5 -19.5t21.5 -53.5t-21.5 -53.5t-57.5 -19.5z" />
    <glyph glyph-name="uni0327" unicode="&#x327;" 
d="M-16 -59q44 0 70.5 -21t26.5 -56q0 -46 -30 -82t-96 -71l-53 48q37 21 57 42t20 39q0 22 -33 22q-11 0 -32 -3v71q33 11 70 11z" />
    <glyph glyph-name="uni060C" unicode="&#x60c;" horiz-adv-x="277" 
d="M224 41l-22 -18q-22 -18 -39.5 -25.5t-32.5 -7.5q-17 0 -31 5.5t-27 22.5t-19.5 39.5t-6.5 54.5q0 44 28 91.5t100 110.5l53 -51q-26 -29 -39.5 -48t-18.5 -33t-5 -31q0 -14 4 -28t17 -33t39 -49z" />
    <glyph glyph-name="uni0615" unicode="&#x615;" 
d="M121 612q0 -49 -32.5 -71t-103.5 -22q-31 0 -56.5 1.5t-43.5 3.5l-3 67q14 -2 44 -4q1 23 2 50.5t1 53.5v41l51 12v-45q0 -21 -5 -49q19 27 37.5 41.5t34.5 14.5q30 0 52 -29t22 -65zM40 638q-19 0 -35.5 -12t-34.5 -41h18q39 0 64.5 5.5t25.5 12.5t-11 21t-27 14z" />
    <glyph glyph-name="uni061B" unicode="&#x61b;" horiz-adv-x="294" 
d="M228 376l-22 -18q-22 -18 -39.5 -25.5t-32.5 -7.5q-17 0 -31 5.5t-27 22.5t-19.5 39.5t-6.5 54.5q0 44 28 91.5t100 110.5l53 -51q-26 -29 -39.5 -48t-18.5 -33t-5 -31q0 -14 4 -28t17 -33t39 -49zM142 -25l-96 96v10l96 96h10l96 -96v-10l-96 -96h-10z" />
    <glyph glyph-name="uni061F" unicode="&#x61f;" horiz-adv-x="429" 
d="M299 230h-88v25q0 35 -10 56.5t-37 35.5l-50 26q-46 24 -63 53t-17 78q0 60 29.5 106t77.5 72.5t103 26.5q52 0 95 -26t73 -64l-49 -72q-28 20 -58.5 32.5t-61.5 12.5q-53 0 -87 -20t-34 -42q0 -16 11.5 -25.5t44.5 -26.5l44 -22q28 -14 43.5 -26.5t25.5 -28.5t14 -36.5
t4 -43.5q0 -28 -2.5 -49t-7.5 -42zM242 -25l-96 96v10l96 96h10l96 -96v-10l-96 -96h-10z" />
    <glyph glyph-name="uni0621" unicode="&#x621;" horiz-adv-x="473" 
d="M81 -9l-50 111q40 4 91 13q-23 23 -34.5 51.5t-11.5 58.5q0 47 24.5 89.5t66 70t92.5 27.5q41 0 75 -13t58 -34l-30 -81q-25 8 -47.5 11.5t-39.5 3.5q-48 0 -82.5 -18t-34.5 -41q0 -22 23 -39.5t57.5 -28t67.5 -10.5q27 0 62.5 8.5t68.5 18.5l-19 -122
q-42 -12 -78.5 -21.5t-74 -18t-82 -17t-102.5 -19.5z" />
    <glyph glyph-name="uni0622" unicode="&#x622;" horiz-adv-x="253" 
d="M164 0h-92v613l112 23v-252q0 -23 -1 -61t-3 -83.5t-5 -91t-5.5 -84.5t-5.5 -64zM230 822l36 -18q-27 -99 -81 -99q-17 0 -31 3t-37 11q-39 14 -61 14q-8 0 -14.5 -6t-23.5 -32l-36 18q27 99 81 99q17 0 31 -3t37 -11t36.5 -11t24.5 -3q8 0 15 6.5t23 31.5z" />
    <glyph glyph-name="uni0623" unicode="&#x623;" horiz-adv-x="253" 
d="M164 0h-92v613l112 23v-252q0 -23 -1 -61t-3 -83.5t-5 -91t-5.5 -84.5t-5.5 -64zM225 801l-9 -71q-58 -10 -98 -18t-86 -19l-22 60q22 6 43 11q-18 24 -18 60q0 43 27.5 73.5t65.5 30.5q41 0 78 -27l-14 -50q-32 8 -55 8q-25 0 -39 -8t-14 -22q0 -16 22.5 -28t51.5 -12
q9 0 22.5 2.5t44.5 9.5z" />
    <glyph glyph-name="uni0624" unicode="&#x624;" horiz-adv-x="482" 
d="M16 -199l-5 106q105 9 172 25t103 39.5t51 52.5q-25 -12 -52.5 -17t-61.5 -5q-82 0 -130.5 35t-48.5 105q0 57 15 111.5t41 98.5t60.5 70t73.5 26q59 0 103.5 -45.5t69.5 -123t25 -174.5q0 -157 -77 -239t-211 -82q-35 0 -70 5t-58 12zM129 181q0 -17 26 -27.5t73 -10.5
q62 0 111 14q-14 61 -45.5 103t-69.5 42q-27 0 -48.5 -18t-34 -45.5t-12.5 -57.5zM328 641l-9 -71q-58 -10 -98 -18t-86 -19l-22 60q22 6 43 11q-18 24 -18 60q0 43 27.5 73.5t65.5 30.5q41 0 78 -27l-14 -50q-32 8 -55 8q-25 0 -39 -8t-14 -22q0 -16 22.5 -28t51.5 -12
q9 0 22.5 2.5t44.5 9.5z" />
    <glyph glyph-name="uni0625" unicode="&#x625;" horiz-adv-x="253" 
d="M164 0h-92v689l112 23v-328q0 -23 -1 -61t-3 -83.5t-5 -91t-5.5 -84.5t-5.5 -64zM227 -213l-9 -71q-58 -10 -98 -18t-86 -19l-22 60q22 6 43 11q-18 24 -18 60q0 43 27.5 73.5t65.5 30.5q41 0 78 -27l-14 -50q-32 8 -55 8q-25 0 -39 -8t-14 -22q0 -16 22.5 -28t51.5 -12
q9 0 22.5 2.5t44.5 9.5z" />
    <glyph glyph-name="uni0626" unicode="&#x626;" horiz-adv-x="715" 
d="M161 191q-13 -39 -18 -65.5t-5 -58.5q0 -66 52 -97t164 -31q62 0 114.5 8t84.5 20.5t32 27.5q0 10 -29 24.5t-101 39.5q-79 26 -109 52.5t-30 72.5q0 71 26.5 129.5t71 93t98.5 34.5q44 0 90 -26t74 -66l-61 -82q-22 17 -51.5 27.5t-58.5 10.5q-22 0 -46 -10.5
t-40.5 -25.5t-16.5 -29q0 -10 23 -22t87 -35q59 -20 94.5 -39.5t51 -43.5t15.5 -58q0 -81 -40 -137.5t-113 -85.5t-173 -29q-167 0 -242 60t-75 168q0 53 15 102.5t43 98.5zM228 390l-9 -71q-58 -10 -98 -18t-86 -19l-22 60q22 6 43 11q-18 24 -18 60q0 43 27.5 73.5
t65.5 30.5q41 0 78 -27l-14 -50q-32 8 -55 8q-25 0 -39 -8t-14 -22q0 -16 22.5 -28t51.5 -12q9 0 22.5 2.5t44.5 9.5z" />
    <glyph glyph-name="uni0627" unicode="&#x627;" horiz-adv-x="253" 
d="M164 0h-92v689l112 23v-328q0 -23 -1 -61t-3 -83.5t-5 -91t-5.5 -84.5t-5.5 -64z" />
    <glyph glyph-name="uni0628" unicode="&#x628;" horiz-adv-x="900" 
d="M432 0q-120 0 -195 18t-116 51.5t-56 79t-15 99.5q0 50 14.5 98.5t31.5 79.5l83 -30q-7 -23 -13 -52.5t-6 -60.5q0 -50 25 -79t86.5 -41.5t168.5 -12.5q158 0 231 18t73 42q0 17 -8 51.5t-20.5 77.5t-25.5 86l124 45q14 -55 23.5 -118.5t9.5 -116.5q0 -122 -106 -178.5
t-309 -56.5zM366 -149l74 74h10l74 -74v-10l-74 -74h-10l-74 74v10z" />
    <glyph glyph-name="uni0629" unicode="&#x629;" horiz-adv-x="475" 
d="M394 59q-25 -34 -63.5 -52.5t-105.5 -18.5q-100 0 -144.5 43.5t-44.5 128.5q0 49 28.5 107t95.5 131q-17 13 -35 26l56 112q128 -85 189 -170t61 -163q0 -46 -7.5 -79t-29.5 -65zM117 191q0 -53 115 -53q61 0 89 12t28 24q0 30 -33.5 74.5t-93.5 96.5q-29 -29 -53 -59
t-38 -55t-14 -40zM133 603l-72 72v10l72 72h10l72 -72v-10l-72 -72h-10zM299 603l-72 72v10l72 72h10l72 -72v-10l-72 -72h-10z" />
    <glyph glyph-name="uni062A" unicode="&#x62a;" horiz-adv-x="900" 
d="M432 0q-120 0 -195 18t-116 51.5t-56 79t-15 99.5q0 50 14.5 98.5t31.5 79.5l83 -30q-7 -23 -13 -52.5t-6 -60.5q0 -50 25 -79t86.5 -41.5t168.5 -12.5q158 0 231 18t73 42q0 17 -8 51.5t-20.5 77.5t-25.5 86l124 45q14 -55 23.5 -118.5t9.5 -116.5q0 -122 -106 -178.5
t-309 -56.5zM349 468l-72 72v10l72 72h10l72 -72v-10l-72 -72h-10zM515 468l-72 72v10l72 72h10l72 -72v-10l-72 -72h-10z" />
    <glyph glyph-name="uni062B" unicode="&#x62b;" horiz-adv-x="900" 
d="M432 0q-120 0 -195 18t-116 51.5t-56 79t-15 99.5q0 50 14.5 98.5t31.5 79.5l83 -30q-7 -23 -13 -52.5t-6 -60.5q0 -50 25 -79t86.5 -41.5t168.5 -12.5q158 0 231 18t73 42q0 17 -8 51.5t-20.5 77.5t-25.5 86l124 45q14 -55 23.5 -118.5t9.5 -116.5q0 -122 -106 -178.5
t-309 -56.5zM432 604l-69 69v10l69 69h10l69 -69v-10l-69 -69h-10zM352 468l-69 69v10l69 69h10l69 -69v-10l-69 -69h-10zM512 468l-69 69v10l69 69h10l69 -69v-10l-69 -69h-10z" />
    <glyph glyph-name="uni062C" unicode="&#x62c;" horiz-adv-x="653" 
d="M637 -212q-30 -26 -78 -49.5t-105 -38t-115 -14.5q-89 0 -156 28.5t-104 83t-37 133.5q0 66 27 120t73 96.5t103.5 73.5t118.5 50q-55 26 -101 43t-70 17q-22 0 -48 -15.5t-43 -32.5l-63 57q20 29 47 58.5t57 50t59 20.5q27 0 62.5 -11.5t73.5 -28.5t74 -35t65.5 -31.5
t47.5 -16.5q6 -1 25 -1.5t55 -0.5l-31 -139q-64 -7 -128.5 -24.5t-122 -42t-102.5 -54.5t-71 -62.5t-26 -66.5q0 -36 36 -62t93 -40t118 -14q62 0 119 11.5t106 31.5zM356 -78l-66 66v8l66 66h8l66 -66v-8l-66 -66h-8z" />
    <glyph glyph-name="uni062D" unicode="&#x62d;" horiz-adv-x="653" 
d="M637 -212q-30 -26 -78 -49.5t-105 -38t-115 -14.5q-89 0 -156 28.5t-104 83t-37 133.5q0 66 27 120t73 96.5t103.5 73.5t118.5 50q-55 26 -101 43t-70 17q-22 0 -48 -15.5t-43 -32.5l-63 57q20 29 47 58.5t57 50t59 20.5q27 0 62.5 -11.5t73.5 -28.5t74 -35t65.5 -31.5
t47.5 -16.5q6 -1 25 -1.5t55 -0.5l-31 -139q-64 -7 -128.5 -24.5t-122 -42t-102.5 -54.5t-71 -62.5t-26 -66.5q0 -36 36 -62t93 -40t118 -14q62 0 119 11.5t106 31.5z" />
    <glyph glyph-name="uni062E" unicode="&#x62e;" horiz-adv-x="653" 
d="M637 -212q-30 -26 -78 -49.5t-105 -38t-115 -14.5q-89 0 -156 28.5t-104 83t-37 133.5q0 66 27 120t73 96.5t103.5 73.5t118.5 50q-55 26 -101 43t-70 17q-22 0 -48 -15.5t-43 -32.5l-63 57q20 29 47 58.5t57 50t59 20.5q27 0 62.5 -11.5t73.5 -28.5t74 -35t65.5 -31.5
t47.5 -16.5q6 -1 25 -1.5t55 -0.5l-31 -139q-64 -7 -128.5 -24.5t-122 -42t-102.5 -54.5t-71 -62.5t-26 -66.5q0 -36 36 -62t93 -40t118 -14q62 0 119 11.5t106 31.5zM302 536l-74 74v10l74 74h10l74 -74v-10l-74 -74h-10z" />
    <glyph glyph-name="uni062F" unicode="&#x62f;" horiz-adv-x="546" 
d="M265 144q141 0 141 33q0 8 -5.5 20t-21.5 40q-44 80 -80.5 140t-65.5 101l106 78q49 -74 85.5 -143t57 -125.5t20.5 -94.5q0 -88 -59 -143.5t-174 -55.5q-123 0 -179.5 41.5t-56.5 132.5q0 54 29 117l74 -28l-7.5 -30t-3.5 -28q0 -29 32.5 -42t107.5 -13z" />
    <glyph glyph-name="uni0630" unicode="&#x630;" horiz-adv-x="546" 
d="M265 144q141 0 141 33q0 8 -5.5 20t-21.5 40q-44 80 -80.5 140t-65.5 101l106 78q49 -74 85.5 -143t57 -125.5t20.5 -94.5q0 -88 -59 -143.5t-174 -55.5q-123 0 -179.5 41.5t-56.5 132.5q0 54 29 117l74 -28l-7.5 -30t-3.5 -28q0 -29 32.5 -42t107.5 -13zM250 619l-74 74
v10l74 74h10l74 -74v-10l-74 -74h-10z" />
    <glyph glyph-name="uni0631" unicode="&#x631;" horiz-adv-x="420" 
d="M370 102q0 -97 -31.5 -168.5t-91 -110.5t-145.5 -39q-33 0 -55.5 4t-48.5 11l-5 106q280 45 280 165q0 6 -4 19.5t-15 40t-32 73.5t-55 121l121 59q23 -46 41.5 -99.5t29.5 -101.5t11 -80z" />
    <glyph glyph-name="uni0632" unicode="&#x632;" horiz-adv-x="420" 
d="M370 102q0 -97 -31.5 -168.5t-91 -110.5t-145.5 -39q-33 0 -55.5 4t-48.5 11l-5 106q280 45 280 165q0 6 -4 19.5t-15 40t-32 73.5t-55 121l121 59q23 -46 41.5 -99.5t29.5 -101.5t11 -80zM196 446l-74 74v10l74 74h10l74 -74v-10l-74 -74h-10z" />
    <glyph glyph-name="uni0633" unicode="&#x633;" horiz-adv-x="1172" 
d="M315 -210q-84 0 -139 18t-87 50t-45.5 73t-13.5 87q0 58 16.5 108.5t41.5 92.5l73 -28q-14 -42 -18.5 -68.5t-4.5 -55.5q0 -67 46.5 -97.5t137.5 -30.5q89 0 135.5 24.5t46.5 52.5q0 9 -6.5 36.5t-17 65t-22 78t-22.5 75.5l117 48q7 -24 18.5 -71.5t20.5 -94.5
q14 -4 29.5 -5.5t35.5 -1.5q44 0 65 8t22 30l11 140l108 -5l-12 -162q20 -6 41.5 -8.5t43.5 -2.5q40 0 57 7t17 14q0 15 -6 47.5t-15.5 75t-21.5 88.5l119 44q11 -46 17.5 -102t6.5 -98q0 -66 -21.5 -116t-61 -78t-93.5 -28q-48 0 -84 12t-70 37q-47 -49 -120 -49
q-32 0 -62 10q-7 -62 -38.5 -112t-91.5 -79t-153 -29z" />
    <glyph glyph-name="uni0634" unicode="&#x634;" horiz-adv-x="1172" 
d="M315 -210q-84 0 -139 18t-87 50t-45.5 73t-13.5 87q0 58 16.5 108.5t41.5 92.5l73 -28q-14 -42 -18.5 -68.5t-4.5 -55.5q0 -67 46.5 -97.5t137.5 -30.5q89 0 135.5 24.5t46.5 52.5q0 9 -6.5 36.5t-17 65t-22 78t-22.5 75.5l117 48q7 -24 18.5 -71.5t20.5 -94.5
q14 -4 29.5 -5.5t35.5 -1.5q44 0 65 8t22 30l11 140l108 -5l-12 -162q20 -6 41.5 -8.5t43.5 -2.5q40 0 57 7t17 14q0 15 -6 47.5t-15.5 75t-21.5 88.5l119 44q11 -46 17.5 -102t6.5 -98q0 -66 -21.5 -116t-61 -78t-93.5 -28q-48 0 -84 12t-70 37q-47 -49 -120 -49
q-32 0 -62 10q-7 -62 -38.5 -112t-91.5 -79t-153 -29zM773 558l-69 69v10l69 69h10l69 -69v-10l-69 -69h-10zM693 422l-69 69v10l69 69h10l69 -69v-10l-69 -69h-10zM853 422l-69 69v10l69 69h10l69 -69v-10l-69 -69h-10z" />
    <glyph glyph-name="uni0635" unicode="&#x635;" horiz-adv-x="1228" 
d="M315 -210q-84 0 -139 18t-87 50t-45.5 73t-13.5 87q0 58 16.5 108.5t41.5 92.5l73 -28q-14 -42 -18.5 -68.5t-4.5 -55.5q0 -67 46.5 -97.5t137.5 -30.5q89 0 135.5 24.5t46.5 52.5q0 9 -6.5 36.5t-17 65t-22 78t-22.5 75.5l117 48q6 -22 17 -65.5t19 -88.5q13 -2 28 -4
q57 94 123.5 164t132.5 109t123 39q38 0 71 -19.5t59 -51.5t40.5 -72.5t14.5 -82.5q0 -133 -103 -190t-298 -57q-42 0 -91 4t-91 12q-5 -63 -36 -114.5t-92 -81.5t-155 -30zM970 323q-36 0 -74 -15t-83.5 -52t-103.5 -103q41 -3 74 -3q164 0 239.5 19t75.5 41q0 14 -11 33
t-29 37.5t-41 30.5t-47 12z" />
    <glyph glyph-name="uni0636" unicode="&#x636;" horiz-adv-x="1228" 
d="M315 -210q-84 0 -139 18t-87 50t-45.5 73t-13.5 87q0 58 16.5 108.5t41.5 92.5l73 -28q-14 -42 -18.5 -68.5t-4.5 -55.5q0 -67 46.5 -97.5t137.5 -30.5q89 0 135.5 24.5t46.5 52.5q0 9 -6.5 36.5t-17 65t-22 78t-22.5 75.5l117 48q6 -22 17 -65.5t19 -88.5q13 -2 28 -4
q57 94 123.5 164t132.5 109t123 39q38 0 71 -19.5t59 -51.5t40.5 -72.5t14.5 -82.5q0 -133 -103 -190t-298 -57q-42 0 -91 4t-91 12q-5 -63 -36 -114.5t-92 -81.5t-155 -30zM970 323q-36 0 -74 -15t-83.5 -52t-103.5 -103q41 -3 74 -3q164 0 239.5 19t75.5 41q0 14 -11 33
t-29 37.5t-41 30.5t-47 12zM972 549l-74 74v10l74 74h10l74 -74v-10l-74 -74h-10z" />
    <glyph glyph-name="uni0637" unicode="&#x637;" horiz-adv-x="748" 
d="M300 0q-41 0 -90 1.5t-95.5 3.5t-80.5 5l-13 149q20 -2 49 -3t62 -3q19 33 40 63q2 54 3.5 114t1.5 126v234l109 22v-206q0 -42 -3.5 -84.5t-9.5 -83.5q63 64 126.5 99.5t116.5 35.5q38 0 71 -19.5t59 -51.5t40.5 -72.5t14.5 -82.5q0 -133 -103 -190t-298 -57zM490 323
q-36 0 -74 -15t-84 -52.5t-105 -104.5q44 -1 76 -1q164 0 239.5 19t75.5 41q0 14 -11 33t-29 37.5t-41 30.5t-47 12z" />
    <glyph glyph-name="uni0638" unicode="&#x638;" horiz-adv-x="748" 
d="M300 0q-41 0 -90 1.5t-95.5 3.5t-80.5 5l-13 149q20 -2 49 -3t62 -3q19 33 40 63q2 54 3.5 114t1.5 126v234l109 22v-206q0 -42 -3.5 -84.5t-9.5 -83.5q63 64 126.5 99.5t116.5 35.5q38 0 71 -19.5t59 -51.5t40.5 -72.5t14.5 -82.5q0 -133 -103 -190t-298 -57zM490 323
q-36 0 -74 -15t-84 -52.5t-105 -104.5q44 -1 76 -1q164 0 239.5 19t75.5 41q0 14 -11 33t-29 37.5t-41 30.5t-47 12zM492 546l-74 74v10l74 74h10l74 -74v-10l-74 -74h-10z" />
    <glyph glyph-name="uni0639" unicode="&#x639;" horiz-adv-x="562" 
d="M614 -222q-50 -39 -128 -65.5t-161 -26.5q-87 0 -154 29t-104.5 82.5t-37.5 125.5q0 82 39 145.5t107 109.5q-47 29 -71.5 72t-24.5 91q0 58 28 107t76 79t108 30q82 0 147 -48l-31 -100q-66 13 -101 13q-59 0 -100 -20.5t-41 -52.5q0 -27 26.5 -48t67 -32.5t80.5 -12.5
q34 8 73.5 17t82.5 16l-20 -146q-176 -26 -268 -78.5t-92 -118.5q0 -29 33 -53.5t87.5 -39t120.5 -14.5q63 0 114.5 10t103.5 28z" />
    <glyph glyph-name="uni063A" unicode="&#x63a;" horiz-adv-x="562" 
d="M614 -222q-50 -39 -128 -65.5t-161 -26.5q-87 0 -154 29t-104.5 82.5t-37.5 125.5q0 82 39 145.5t107 109.5q-47 29 -71.5 72t-24.5 91q0 58 28 107t76 79t108 30q82 0 147 -48l-31 -100q-66 13 -101 13q-59 0 -100 -20.5t-41 -52.5q0 -27 26.5 -48t67 -32.5t80.5 -12.5
q34 8 73.5 17t82.5 16l-20 -146q-176 -26 -268 -78.5t-92 -118.5q0 -29 33 -53.5t87.5 -39t120.5 -14.5q63 0 114.5 10t103.5 28zM267 633l-74 74v10l74 74h10l74 -74v-10l-74 -74h-10z" />
    <glyph glyph-name="uni0640" unicode="&#x640;" horiz-adv-x="348" 
d="M0 150h348l21 -7v-136l-21 -7h-348l-21 7v136z" />
    <glyph glyph-name="uni0641" unicode="&#x641;" horiz-adv-x="897" 
d="M438 0q-117 0 -193 16.5t-118.5 48.5t-59.5 78t-17 104q0 47 13.5 96t32.5 83l83 -30q-7 -24 -13 -55t-6 -59q0 -47 23.5 -76t86 -42.5t177.5 -13.5q113 0 179.5 7t95.5 21t29 33v30q-23 -12 -51 -19t-65 -7q-91 0 -135.5 38t-44.5 96q0 56 15 107.5t41.5 92.5t60 64.5
t69.5 23.5q63 0 108 -48t68.5 -128t23.5 -178q0 -70 -12.5 -122t-50.5 -85q-42 -37 -127 -56.5t-213 -19.5zM540 374q0 -17 26 -27.5t75 -10.5q25 0 50 2.5t51 9.5q-14 69 -46 106t-65 37q-29 0 -49.5 -19t-31 -46t-10.5 -52zM626 719l-74 74v10l74 74h10l74 -74v-10
l-74 -74h-10z" />
    <glyph glyph-name="uni0642" unicode="&#x642;" horiz-adv-x="721" 
d="M341 -210q-93 0 -153.5 18.5t-95 50.5t-48.5 75.5t-14 92.5q0 51 16.5 100.5t41.5 91.5l73 -28q-14 -42 -18.5 -68.5t-4.5 -55.5q0 -67 51 -97.5t160 -30.5q128 0 182.5 17t54.5 37v36q-27 -15 -57.5 -21t-69.5 -6q-80 0 -129.5 34.5t-49.5 105.5q0 58 15 113t41.5 98.5
t60.5 69t73 25.5q61 0 107.5 -47.5t72.5 -129t26 -184.5q0 -62 -6.5 -114t-31.5 -87q-40 -57 -118 -76.5t-179 -19.5zM365 181q0 -17 25.5 -27.5t73.5 -10.5q61 0 111 14q-9 39 -26 72t-39.5 53t-49.5 20t-48.5 -18t-34 -45.5t-12.5 -57.5zM375 533l-72 72v10l72 72h10
l72 -72v-10l-72 -72h-10zM541 533l-72 72v10l72 72h10l72 -72v-10l-72 -72h-10z" />
    <glyph glyph-name="uni0643" unicode="&#x643;" horiz-adv-x="833" 
d="M160 282q0 -49 23 -78t79.5 -41.5t155.5 -12.5q122 0 180.5 16.5t58.5 38.5v484l112 23v-427q0 -82 -27 -145.5t-86 -96.5q-41 -22 -105.5 -32.5t-152.5 -10.5q-133 0 -209 27t-107.5 82t-31.5 139q0 44 13.5 95t32.5 83l83 -30q-7 -24 -13 -53t-6 -61zM406 403
q-34 13 -47.5 25.5t-13.5 31.5q0 49 41.5 77t111.5 46l17 -72q-64 -13 -83.5 -19.5t-19.5 -11.5q0 -3 10 -7t36 -15q33 -14 48.5 -27t15.5 -42q0 -54 -52 -78.5t-141 -24.5l-10 76q80 2 109 7t29 9q0 3 -8 7.5t-43 17.5z" />
    <glyph glyph-name="uni0644" unicode="&#x644;" horiz-adv-x="658" 
d="M310 -210q-108 0 -169 31.5t-86 83.5t-25 113q0 58 16.5 108.5t41.5 92.5l73 -28q-14 -42 -18.5 -68.5t-4.5 -55.5q0 -67 45 -97.5t132 -30.5q45 0 82.5 8.5t59.5 22.5t22 30l-4 689l112 23v-604q0 -80 -12 -129t-41 -89q-31 -43 -86 -71.5t-138 -28.5z" />
    <glyph glyph-name="uni0645" unicode="&#x645;" horiz-adv-x="541" 
d="M114 -303l-108 -28v303q0 32 12.5 63.5t31.5 57t38 41t32 15.5h3q5 84 23 146.5t52 102.5q17 21 43 35.5t60 14.5q39 0 74 -22t62.5 -58.5t43.5 -81.5t16 -91q0 -36 -14 -72t-39.5 -66t-61 -48t-79.5 -18t-96 3t-93 7v-304zM286 302q-31 0 -56 -40.5t-33 -115.5
q44 -2 86 -5t62 -3q34 0 48.5 6t14.5 16q0 19 -10 43t-27.5 46.5t-39 37.5t-45.5 15z" />
    <glyph glyph-name="uni0646" unicode="&#x646;" horiz-adv-x="645" 
d="M600 60q0 -122 -69.5 -196t-215.5 -74q-84 0 -139.5 18t-87 50t-45 73t-13.5 87q0 58 17 109t41 92l73 -28q-14 -42 -18.5 -68.5t-4.5 -55.5q0 -67 46.5 -97.5t137.5 -30.5q87 0 133.5 27.5t46.5 57.5q0 8 -7.5 39t-18.5 71.5t-22.5 80t-19.5 64.5l117 48
q22 -82 35.5 -147t13.5 -120zM287 325l-74 74v10l74 74h10l74 -74v-10l-74 -74h-10z" />
    <glyph glyph-name="uni0647" unicode="&#x647;" horiz-adv-x="475" 
d="M394 59q-25 -34 -63.5 -52.5t-105.5 -18.5q-100 0 -144.5 43.5t-44.5 128.5q0 49 28.5 107t95.5 131q-17 13 -35 26l56 112q128 -85 189 -170t61 -163q0 -46 -7.5 -79t-29.5 -65zM117 191q0 -53 115 -53q61 0 89 12t28 24q0 30 -33.5 74.5t-93.5 96.5q-29 -29 -53 -59
t-38 -55t-14 -40z" />
    <glyph glyph-name="uni0648" unicode="&#x648;" horiz-adv-x="482" 
d="M16 -199l-5 106q105 9 172 25t103 39.5t51 52.5q-25 -12 -52.5 -17t-61.5 -5q-82 0 -130.5 35t-48.5 105q0 57 15 111.5t41 98.5t60.5 70t73.5 26q59 0 103.5 -45.5t69.5 -123t25 -174.5q0 -157 -77 -239t-211 -82q-35 0 -70 5t-58 12zM129 181q0 -17 26 -27.5t73 -10.5
q62 0 111 14q-14 61 -45.5 103t-69.5 42q-27 0 -48.5 -18t-34 -45.5t-12.5 -57.5z" />
    <glyph glyph-name="uni0649" unicode="&#x649;" horiz-adv-x="715" 
d="M161 191q-13 -39 -18 -65.5t-5 -58.5q0 -66 52 -97t164 -31q62 0 114.5 8t84.5 20.5t32 27.5q0 10 -29 24.5t-101 39.5q-79 26 -109 52.5t-30 72.5q0 71 26.5 129.5t71 93t98.5 34.5q44 0 90 -26t74 -66l-61 -82q-22 17 -51.5 27.5t-58.5 10.5q-22 0 -46 -10.5
t-40.5 -25.5t-16.5 -29q0 -10 23 -22t87 -35q59 -20 94.5 -39.5t51 -43.5t15.5 -58q0 -81 -40 -137.5t-113 -85.5t-173 -29q-167 0 -242 60t-75 168q0 53 15 102.5t43 98.5z" />
    <glyph glyph-name="uni064A" unicode="&#x64a;" horiz-adv-x="715" 
d="M161 191q-13 -39 -18 -65.5t-5 -58.5q0 -66 52 -97t164 -31q62 0 114.5 8t84.5 20.5t32 27.5q0 10 -29 24.5t-101 39.5q-79 26 -109 52.5t-30 72.5q0 71 26.5 129.5t71 93t98.5 34.5q44 0 90 -26t74 -66l-61 -82q-22 17 -51.5 27.5t-58.5 10.5q-22 0 -46 -10.5
t-40.5 -25.5t-16.5 -29q0 -10 23 -22t87 -35q59 -20 94.5 -39.5t51 -43.5t15.5 -58q0 -81 -40 -137.5t-113 -85.5t-173 -29q-167 0 -242 60t-75 168q0 53 15 102.5t43 98.5zM190 -352l72 72h10l72 -72v-10l-72 -72h-10l-72 72v10zM356 -352l72 72h10l72 -72v-10l-72 -72h-10
l-72 72v10z" />
    <glyph glyph-name="uni064B" unicode="&#x64b;" 
d="M112 628v-66q-41 -8 -95.5 -21t-128.5 -32v63q66 19 123.5 34t100.5 22zM112 743v-66q-41 -8 -95.5 -21t-128.5 -32v63q66 19 123.5 34t100.5 22z" />
    <glyph glyph-name="uni064C" unicode="&#x64c;" 
d="M143 648q0 -39 -23.5 -69t-63.5 -47t-92 -17h-20.5t-17.5 1l-24 56q11 14 11 29q0 24 -24 24q-15 0 -32 -13l-19 29q13 16 30.5 28.5t36.5 12.5q26 0 42 -18.5t16 -44.5q0 -21 -6 -45h3q31 0 56 4q-13 12 -18.5 29t-5.5 36q0 40 26 64t54 24q32 0 51.5 -24t19.5 -59z
M33 650q0 -13 10.5 -27.5t37.5 -20.5q15 12 15 29q0 22 -13 33t-24 11t-18.5 -7t-7.5 -18z" />
    <glyph glyph-name="uni064D" unicode="&#x64d;" 
d="M112 -87v-66q-41 -8 -95.5 -21t-128.5 -32v63q66 19 123.5 34t100.5 22zM112 -202v-66q-41 -8 -95.5 -21t-128.5 -32v63q66 19 123.5 34t100.5 22z" />
    <glyph glyph-name="uni064E" unicode="&#x64e;" 
d="M112 628v-66q-41 -8 -95.5 -21t-128.5 -32v63q66 19 123.5 34t100.5 22z" />
    <glyph glyph-name="uni064F" unicode="&#x64f;" 
d="M100 632q0 -32 -19 -60.5t-54 -46t-83 -17.5q-28 0 -45 4l-10 59q9 -2 20 -2.5t24 -0.5q17 0 33 1q-22 23 -22 60q0 39 24.5 68t61.5 29q28 0 49 -22t21 -72zM-15 640q0 -14 14.5 -28.5t39.5 -19.5q17 13 17 30q0 20 -12.5 32.5t-28.5 12.5q-12 0 -21 -6.5t-9 -20.5z" />
    <glyph glyph-name="uni0650" unicode="&#x650;" 
d="M112 -87v-66q-41 -8 -95.5 -21t-128.5 -32v63q66 19 123.5 34t100.5 22z" />
    <glyph glyph-name="uni0651" unicode="&#x651;" 
d="M57 525q-38 0 -61 22q-20 -32 -63 -32q-32 0 -52.5 20t-20.5 52q0 21 5.5 46.5t13.5 44.5l42 -10q-4 -14 -6.5 -29.5t-2.5 -26.5q0 -24 33 -24q14 0 23 4t8 11l-5 72l46 6l6 -76q15 -7 33 -7q13 0 21 3.5t8 8.5t-3.5 20t-8 32.5t-9.5 29.5l56 19q8 -22 13 -50t5 -45
q0 -38 -23 -64.5t-58 -26.5z" />
    <glyph glyph-name="uni0652" unicode="&#x652;" 
d="M85 616q0 -101 -89 -101q-37 0 -59 25t-22 71q0 32 12.5 59.5t32.5 44t43 16.5q25 0 43.5 -16.5t28.5 -42.5t10 -56zM44 604q0 23 -12 41t-32 18q-21 0 -32.5 -13.5t-11.5 -33.5q0 -15 12 -24t32 -9q18 0 31 5.5t13 15.5z" />
    <glyph glyph-name="uni0653" unicode="&#x653;" 
d="M106 636l36 -18q-27 -99 -81 -99q-17 0 -31 3t-37 11q-39 14 -61 14q-8 0 -14.5 -6t-23.5 -32l-36 18q27 99 81 99q17 0 31 -3t37 -11t36.5 -11t24.5 -3q8 0 15 6.5t23 31.5z" />
    <glyph glyph-name="uni0654" unicode="&#x654;" 
d="M101 615l-9 -71q-58 -10 -98 -18t-86 -19l-22 60q22 6 43 11q-18 24 -18 60q0 43 27.5 73.5t65.5 30.5q41 0 78 -27l-14 -50q-32 8 -55 8q-25 0 -39 -8t-14 -22q0 -16 22.5 -28t51.5 -12q9 0 22.5 2.5t44.5 9.5z" />
    <glyph glyph-name="uni0655" unicode="&#x655;" 
d="M103 -226l-9 -71q-58 -10 -98 -18t-86 -19l-22 60q22 6 43 11q-18 24 -18 60q0 43 27.5 73.5t65.5 30.5q41 0 78 -27l-14 -50q-32 8 -55 8q-25 0 -39 -8t-14 -22q0 -16 22.5 -28t51.5 -12q9 0 22.5 2.5t44.5 9.5z" />
    <glyph glyph-name="uni0656" unicode="&#x656;" 
d="M26 -300h-61v186l69 10v-85q0 -11 -1.5 -33l-3 -44t-3.5 -34z" />
    <glyph glyph-name="uni0658" unicode="&#x658;" 
d="M58 663l56 -10q0 -138 -114 -138q-58 0 -86 38t-28 100l56 10q0 -37 11.5 -54.5t46.5 -17.5q33 0 45.5 17.5t12.5 54.5z" />
    <glyph glyph-name="uni065C" unicode="&#x65c;" 
d="M-79 -165l74 74h10l74 -74v-10l-74 -74h-10l-74 74v10z" />
    <glyph glyph-name="uni0660" unicode="&#x660;" horiz-adv-x="586" 
d="M267 171l-98 98v11l98 98h11l98 -98v-11l-98 -98h-11z" />
    <glyph glyph-name="uni0661" unicode="&#x661;" horiz-adv-x="586" 
d="M253 0q-1 101 -11 210.5t-27.5 215.5t-41.5 193l120 44q18 -68 31.5 -142.5t22 -147.5t12.5 -137t4 -112q0 -39 -2 -73t-4 -51h-104z" />
    <glyph glyph-name="uni0662" unicode="&#x662;" horiz-adv-x="586" 
d="M161 0q-1 106 -11.5 217t-28 215t-40.5 187l120 44q18 -61 31 -97t24.5 -54t26 -23.5t36.5 -5.5q85 0 110 178l88 -15q-14 -161 -62 -233.5t-141 -72.5q-32 0 -57 10q7 -60 10.5 -118.5t3.5 -107.5q0 -42 -1.5 -74.5t-4.5 -49.5h-104z" />
    <glyph glyph-name="uni0663" unicode="&#x663;" horiz-adv-x="586" 
d="M104 0q-1 106 -11.5 217.5t-28 215.5t-40.5 187l120 42q21 -74 34.5 -111.5t26.5 -49.5t32 -12q23 0 37 12.5t15 34.5l2 119l90 3l-2 -149q13 -4 24 -4q36 0 53 36.5t21 120.5l90 -7v-17q0 -77 -20.5 -137.5t-56.5 -94.5t-84 -34q-43 0 -78 22q-39 -44 -101 -44
q-13 0 -27 3q7 -61 10.5 -120.5t3.5 -108.5q0 -34 -1.5 -69t-4.5 -55h-104z" />
    <glyph glyph-name="uni0664" unicode="&#x664;" horiz-adv-x="586" 
d="M499 11q-40 -10 -79.5 -14t-86.5 -4q-111 0 -174 43t-63 119q0 46 28 86.5t81 68.5q-55 17 -85.5 51t-30.5 79q0 58 44 106t122 80.5t181 42.5l-18 -140q-121 -13 -179.5 -31.5t-58.5 -44.5t63.5 -42t175.5 -19l-6 -110q-106 -19 -165.5 -46t-59.5 -55q0 -25 43.5 -38.5
t123.5 -13.5q39 0 83.5 5t78.5 13z" />
    <glyph glyph-name="uni0665" unicode="&#x665;" horiz-adv-x="586" 
d="M520 254q0 -103 -61.5 -161.5t-171.5 -58.5q-115 0 -169 47t-54 147q0 83 18 157t49.5 130.5t72.5 89t87 32.5q48 0 89.5 -29.5t73 -82.5t49 -122t17.5 -149zM427 221q0 76 -19.5 138.5t-51.5 100t-71 37.5t-69 -30.5t-47.5 -84.5t-17.5 -124q0 -84 146 -84q56 0 93 13.5
t37 33.5z" />
    <glyph glyph-name="uni0666" unicode="&#x666;" horiz-adv-x="586" 
d="M350 0q-17 81 -25 206.5t-8 313.5q-7 -1 -13 -1h-25q-59 0 -122.5 5t-113.5 14l19 128q49 -7 94 -11t94 -6t109 -2h73v-59q0 -343 43 -588h-125z" />
    <glyph glyph-name="uni0667" unicode="&#x667;" horiz-adv-x="586" 
d="M246 0q-57 176 -112.5 325.5t-119.5 286.5l123 53q46 -112 87.5 -231t80.5 -245q24 92 47.5 170.5t49 152.5t57.5 153l114 -44q-31 -80 -58 -150.5t-52 -142t-50 -151t-54 -177.5h-113z" />
    <glyph glyph-name="uni0668" unicode="&#x668;" horiz-adv-x="586" 
d="M228 654h113q57 -175 112.5 -325t119.5 -287l-123 -53q-46 112 -87.5 231t-80.5 245q-24 -92 -47.5 -170.5t-49 -152.5t-57.5 -153l-114 44q31 80 58 150.5t52 142t50.5 151t53.5 177.5z" />
    <glyph glyph-name="uni0669" unicode="&#x669;" horiz-adv-x="586" 
d="M387 0q-5 31 -9.5 74.5t-8.5 90t-8 86.5q-25 -12 -56 -19.5t-74 -7.5q-93 0 -137 37t-44 119q0 79 27 143.5t72.5 103t100.5 38.5q84 0 142.5 -79t73.5 -243q8 -80 14 -138t13 -106.5t16 -98.5h-122zM135 406q0 -21 29 -31t76 -10q27 0 55 4t53 10q-12 71 -40.5 108
t-70.5 37q-31 0 -54 -17.5t-35.5 -44.5t-12.5 -56z" />
    <glyph glyph-name="uni066A" unicode="&#x66a;" horiz-adv-x="749" 
d="M144 -18l-79 70l528 635l79 -70zM157 502l-85 85v9l85 86h9l86 -86v-9l-86 -85h-9zM571 -14l-85 85v9l85 86h9l86 -86v-9l-86 -85h-9z" />
    <glyph glyph-name="uni066B" unicode="&#x66b;" horiz-adv-x="269" 
d="M45 101l22 18q40 33 72 33q37 0 58 -28q26 -35 26 -94q0 -47 -30 -95t-98 -107l-53 51q26 30 39.5 48.5t18.5 33t5 30.5q0 26 -12.5 48.5t-47.5 61.5z" />
    <glyph glyph-name="uni066C" unicode="&#x66c;" horiz-adv-x="277" 
d="M224 41l-22 -18q-22 -18 -39.5 -25.5t-32.5 -7.5q-17 0 -31 5.5t-27 22.5t-19.5 39.5t-6.5 54.5q0 44 28 91.5t100 110.5l53 -51q-26 -29 -39.5 -48t-18.5 -33t-5 -31q0 -14 4 -28t17 -33t39 -49z" />
    <glyph glyph-name="uni066D" unicode="&#x66d;" horiz-adv-x="411" 
d="M329 320l-30 -18l-92 84l-90 -84l-34 20l51 117l-105 56l10 41l122 -12l24 122h44l25 -120l117 7l11 -36l-104 -57z" />
    <glyph glyph-name="uni066E" unicode="&#x66e;" horiz-adv-x="900" 
d="M432 0q-120 0 -195 18t-116 51.5t-56 79t-15 99.5q0 50 14.5 98.5t31.5 79.5l83 -30q-7 -23 -13 -52.5t-6 -60.5q0 -50 25 -79t86.5 -41.5t168.5 -12.5q158 0 231 18t73 42q0 17 -8 51.5t-20.5 77.5t-25.5 86l124 45q14 -55 23.5 -118.5t9.5 -116.5q0 -122 -106 -178.5
t-309 -56.5z" />
    <glyph glyph-name="uni066F" unicode="&#x66f;" horiz-adv-x="721" 
d="M341 -210q-93 0 -153.5 18.5t-95 50.5t-48.5 75.5t-14 92.5q0 51 16.5 100.5t41.5 91.5l73 -28q-14 -42 -18.5 -68.5t-4.5 -55.5q0 -67 51 -97.5t160 -30.5q128 0 182.5 17t54.5 37v36q-27 -15 -57.5 -21t-69.5 -6q-80 0 -129.5 34.5t-49.5 105.5q0 58 15 113t41.5 98.5
t60.5 69t73 25.5q61 0 107.5 -47.5t72.5 -129t26 -184.5q0 -62 -6.5 -114t-31.5 -87q-40 -57 -118 -76.5t-179 -19.5zM365 181q0 -17 25.5 -27.5t73.5 -10.5q61 0 111 14q-9 39 -26 72t-39.5 53t-49.5 20t-48.5 -18t-34 -45.5t-12.5 -57.5z" />
    <glyph glyph-name="uni0670" unicode="&#x670;" 
d="M26 519h-61v186l69 10v-85q0 -11 -1.5 -33l-3 -44t-3.5 -34z" />
    <glyph glyph-name="uni0671" unicode="&#x671;" horiz-adv-x="253" 
d="M164 0h-92v613l112 23v-252q0 -23 -1 -61t-3 -83.5t-5 -91t-5.5 -84.5t-5.5 -64zM150 705q-34 0 -55 11t-43 11q-5 0 -11 -5.5t-20 -24.5l-38 18q11 38 31 59.5t46 21.5h1q26 46 55.5 74t54.5 28q30 0 52 -29t22 -67q0 -45 -25.5 -71t-69.5 -26zM164 830q-33 0 -62 -47
q12 -5 26 -8.5t29 -3.5q45 0 45 18q0 12 -11.5 26.5t-26.5 14.5z" />
    <glyph glyph-name="uni0679" unicode="&#x679;" horiz-adv-x="900" 
d="M432 0q-120 0 -195 18t-116 51.5t-56 79t-15 99.5q0 50 14.5 98.5t31.5 79.5l83 -30q-7 -23 -13 -52.5t-6 -60.5q0 -50 25 -79t86.5 -41.5t168.5 -12.5q158 0 231 18t73 42q0 17 -8 51.5t-20.5 77.5t-25.5 86l124 45q14 -55 23.5 -118.5t9.5 -116.5q0 -122 -106 -178.5
t-309 -56.5zM558 573q0 -49 -32.5 -71t-103.5 -22q-31 0 -56.5 1.5t-43.5 3.5l-3 67q14 -2 44 -4q1 23 2 50.5t1 53.5v41l51 12v-45q0 -21 -5 -49q19 27 37.5 41.5t34.5 14.5q30 0 52 -29t22 -65zM477 599q-19 0 -35.5 -12t-34.5 -41h18q39 0 64.5 5.5t25.5 12.5t-11 21
t-27 14z" />
    <glyph glyph-name="uni067E" unicode="&#x67e;" horiz-adv-x="900" 
d="M432 0q-120 0 -195 18t-116 51.5t-56 79t-15 99.5q0 50 14.5 98.5t31.5 79.5l83 -30q-7 -23 -13 -52.5t-6 -60.5q0 -50 25 -79t86.5 -41.5t168.5 -12.5q158 0 231 18t73 42q0 17 -8 51.5t-20.5 77.5t-25.5 86l124 45q14 -55 23.5 -118.5t9.5 -116.5q0 -122 -106 -178.5
t-309 -56.5zM291 -144l69 69h10l69 -69v-10l-69 -69h-10l-69 69v10zM451 -144l69 69h10l69 -69v-10l-69 -69h-10l-69 69v10zM371 -280l69 69h10l69 -69v-10l-69 -69h-10l-69 69v10z" />
    <glyph glyph-name="uni0686" unicode="&#x686;" horiz-adv-x="653" 
d="M637 -212q-30 -26 -78 -49.5t-105 -38t-115 -14.5q-89 0 -156 28.5t-104 83t-37 133.5q0 66 27 120t73 96.5t103.5 73.5t118.5 50q-55 26 -101 43t-70 17q-22 0 -48 -15.5t-43 -32.5l-63 57q20 29 47 58.5t57 50t59 20.5q27 0 62.5 -11.5t73.5 -28.5t74 -35t65.5 -31.5
t47.5 -16.5q6 -1 25 -1.5t55 -0.5l-31 -139q-64 -7 -128.5 -24.5t-122 -42t-102.5 -54.5t-71 -62.5t-26 -66.5q0 -36 36 -62t93 -40t118 -14q62 0 119 11.5t106 31.5zM295 -26l-49 49v8l49 49h9l49 -49v-8l-49 -49h-9zM414 -26l-49 49v8l49 49h9l49 -49v-8l-49 -49h-9z
M355 -129l-49 49v8l49 49h9l49 -49v-8l-49 -49h-9z" />
    <glyph glyph-name="uni0688" unicode="&#x688;" horiz-adv-x="546" 
d="M265 144q141 0 141 33q0 8 -5.5 20t-21.5 40q-44 80 -80.5 140t-65.5 101l106 78q49 -74 85.5 -143t57 -125.5t20.5 -94.5q0 -88 -59 -143.5t-174 -55.5q-123 0 -179.5 41.5t-56.5 132.5q0 54 29 117l74 -28l-7.5 -30t-3.5 -28q0 -29 32.5 -42t107.5 -13zM376 724
q0 -49 -32.5 -71t-103.5 -22q-31 0 -56.5 1.5t-43.5 3.5l-3 67q14 -2 44 -4q1 23 2 50.5t1 53.5v41l51 12v-45q0 -21 -5 -49q19 27 37.5 41.5t34.5 14.5q30 0 52 -29t22 -65zM295 750q-19 0 -35.5 -12t-34.5 -41h18q39 0 64.5 5.5t25.5 12.5t-11 21t-27 14z" />
    <glyph glyph-name="uni0691" unicode="&#x691;" horiz-adv-x="420" 
d="M370 102q0 -97 -31.5 -168.5t-91 -110.5t-145.5 -39q-33 0 -55.5 4t-48.5 11l-5 106q280 45 280 165q0 6 -4 19.5t-15 40t-32 73.5t-55 121l121 59q23 -46 41.5 -99.5t29.5 -101.5t11 -80zM322 551q0 -49 -32.5 -71t-103.5 -22q-31 0 -56.5 1.5t-43.5 3.5l-3 67
q14 -2 44 -4q1 23 2 50.5t1 53.5v41l51 12v-45q0 -21 -5 -49q19 27 37.5 41.5t34.5 14.5q30 0 52 -29t22 -65zM241 577q-19 0 -35.5 -12t-34.5 -41h18q39 0 64.5 5.5t25.5 12.5t-11 21t-27 14z" />
    <glyph glyph-name="uni0698" unicode="&#x698;" horiz-adv-x="420" 
d="M370 102q0 -97 -31.5 -168.5t-91 -110.5t-145.5 -39q-33 0 -55.5 4t-48.5 11l-5 106q280 45 280 165q0 6 -4 19.5t-15 40t-32 73.5t-55 121l121 59q23 -46 41.5 -99.5t29.5 -101.5t11 -80zM196 582l-69 69v10l69 69h10l69 -69v-10l-69 -69h-10zM116 446l-69 69v10l69 69
h10l69 -69v-10l-69 -69h-10zM276 446l-69 69v10l69 69h10l69 -69v-10l-69 -69h-10z" />
    <glyph glyph-name="uni06A1" unicode="&#x6a1;" horiz-adv-x="897" 
d="M438 0q-117 0 -193 16.5t-118.5 48.5t-59.5 78t-17 104q0 47 13.5 96t32.5 83l83 -30q-7 -24 -13 -55t-6 -59q0 -47 23.5 -76t86 -42.5t177.5 -13.5q113 0 179.5 7t95.5 21t29 33v30q-23 -12 -51 -19t-65 -7q-91 0 -135.5 38t-44.5 96q0 56 15 107.5t41.5 92.5t60 64.5
t69.5 23.5q63 0 108 -48t68.5 -128t23.5 -178q0 -70 -12.5 -122t-50.5 -85q-42 -37 -127 -56.5t-213 -19.5zM540 374q0 -17 26 -27.5t75 -10.5q25 0 50 2.5t51 9.5q-14 69 -46 106t-65 37q-29 0 -49.5 -19t-31 -46t-10.5 -52z" />
    <glyph glyph-name="uni06A4" unicode="&#x6a4;" horiz-adv-x="897" 
d="M438 0q-117 0 -193 16.5t-118.5 48.5t-59.5 78t-17 104q0 47 13.5 96t32.5 83l83 -30q-7 -24 -13 -55t-6 -59q0 -47 23.5 -76t86 -42.5t177.5 -13.5q113 0 179.5 7t95.5 21t29 33v30q-23 -12 -51 -19t-65 -7q-91 0 -135.5 38t-44.5 96q0 56 15 107.5t41.5 92.5t60 64.5
t69.5 23.5q63 0 108 -48t68.5 -128t23.5 -178q0 -70 -12.5 -122t-50.5 -85q-42 -37 -127 -56.5t-213 -19.5zM540 374q0 -17 26 -27.5t75 -10.5q25 0 50 2.5t51 9.5q-14 69 -46 106t-65 37q-29 0 -49.5 -19t-31 -46t-10.5 -52zM626 855l-69 69v10l69 69h10l69 -69v-10
l-69 -69h-10zM546 719l-69 69v10l69 69h10l69 -69v-10l-69 -69h-10zM706 719l-69 69v10l69 69h10l69 -69v-10l-69 -69h-10z" />
    <glyph glyph-name="uni06A9" unicode="&#x6a9;" horiz-adv-x="834" 
d="M405 0q-136 0 -213.5 27t-109.5 82t-32 139q0 44 13.5 95t32.5 83l83 -30q-7 -24 -13 -53t-6 -61q0 -49 22.5 -78t77 -41.5t148.5 -12.5q126 0 186 11.5t60 27.5q0 17 -23 43.5t-61.5 58t-86 63t-97.5 58.5l22 124l357 176l29 -121l-251 -124q60 -40 106.5 -79.5t73 -82
t26.5 -88.5q0 -64 -34.5 -113t-110 -76.5t-199.5 -27.5z" />
    <glyph glyph-name="uni06AF" unicode="&#x6af;" horiz-adv-x="834" 
d="M405 0q-136 0 -213.5 27t-109.5 82t-32 139q0 44 13.5 95t32.5 83l83 -30q-7 -24 -13 -53t-6 -61q0 -49 22.5 -78t77 -41.5t148.5 -12.5q126 0 186 11.5t60 27.5q0 17 -23 43.5t-61.5 58t-86 63t-97.5 58.5l22 124l357 176l29 -121l-251 -124q60 -40 106.5 -79.5t73 -82
t26.5 -88.5q0 -64 -34.5 -113t-110 -76.5t-199.5 -27.5zM370 681l349 173l19 -85l-330 -163z" />
    <glyph glyph-name="uni06BA" unicode="&#x6ba;" horiz-adv-x="645" 
d="M600 60q0 -122 -69.5 -196t-215.5 -74q-84 0 -139.5 18t-87 50t-45 73t-13.5 87q0 58 17 109t41 92l73 -28q-14 -42 -18.5 -68.5t-4.5 -55.5q0 -67 46.5 -97.5t137.5 -30.5q87 0 133.5 27.5t46.5 57.5q0 8 -7.5 39t-18.5 71.5t-22.5 80t-19.5 64.5l117 48
q22 -82 35.5 -147t13.5 -120z" />
    <glyph glyph-name="uni06BE" unicode="&#x6be;" horiz-adv-x="770" 
d="M132 148q47 0 78 2q-34 59 -34 127q0 43 20 82t52.5 66.5t70.5 35.5l46 91q135 -75 214 -134t113 -113t34 -115q0 -92 -49.5 -146t-132.5 -54q-59 0 -111.5 12t-95.5 33q-40 -19 -84 -28t-110 -9q-31 0 -58 2.5t-42 5.5l-23 149q20 -4 53.5 -5.5t58.5 -1.5zM245 279
q0 -25 28 -51.5t70 -48.5q38 18 66.5 43.5t28.5 44.5q0 21 -15 42t-37 34.5t-45 13.5q-20 0 -42.5 -12.5t-38 -30.5t-15.5 -35zM509 279q0 -36 -12.5 -73t-35.5 -70q52 -13 96 -13q47 0 68.5 5.5t21.5 18.5q0 26 -37.5 67.5t-102.5 89.5q2 -12 2 -25z" />
    <glyph glyph-name="uni06C0" unicode="&#x6c0;" horiz-adv-x="475" 
d="M394 59q-25 -34 -63.5 -52.5t-105.5 -18.5q-100 0 -144.5 43.5t-44.5 128.5q0 49 28.5 107t95.5 131q-17 13 -35 26l56 112q128 -85 189 -170t61 -163q0 -46 -7.5 -79t-29.5 -65zM117 191q0 -53 115 -53q61 0 89 12t28 24q0 30 -33.5 74.5t-93.5 96.5q-29 -29 -53 -59
t-38 -55t-14 -40zM322 711l-9 -71q-58 -10 -98 -18t-86 -19l-22 60q22 6 43 11q-18 24 -18 60q0 43 27.5 73.5t65.5 30.5q41 0 78 -27l-14 -50q-32 8 -55 8q-25 0 -39 -8t-14 -22q0 -16 22.5 -28t51.5 -12q9 0 22.5 2.5t44.5 9.5z" />
    <glyph glyph-name="uni06C1" unicode="&#x6c1;" horiz-adv-x="475" 
d="M394 59q-25 -34 -63.5 -52.5t-105.5 -18.5q-100 0 -144.5 43.5t-44.5 128.5q0 49 28.5 107t95.5 131q-17 13 -35 26l56 112q128 -85 189 -170t61 -163q0 -46 -7.5 -79t-29.5 -65zM117 191q0 -53 115 -53q61 0 89 12t28 24q0 30 -33.5 74.5t-93.5 96.5q-29 -29 -53 -59
t-38 -55t-14 -40z" />
    <glyph glyph-name="uni06C2" unicode="&#x6c2;" horiz-adv-x="475" 
d="M394 59q-25 -34 -63.5 -52.5t-105.5 -18.5q-100 0 -144.5 43.5t-44.5 128.5q0 49 28.5 107t95.5 131q-17 13 -35 26l56 112q128 -85 189 -170t61 -163q0 -46 -7.5 -79t-29.5 -65zM117 191q0 -53 115 -53q61 0 89 12t28 24q0 30 -33.5 74.5t-93.5 96.5q-29 -29 -53 -59
t-38 -55t-14 -40zM322 711l-9 -71q-58 -10 -98 -18t-86 -19l-22 60q22 6 43 11q-18 24 -18 60q0 43 27.5 73.5t65.5 30.5q41 0 78 -27l-14 -50q-32 8 -55 8q-25 0 -39 -8t-14 -22q0 -16 22.5 -28t51.5 -12q9 0 22.5 2.5t44.5 9.5z" />
    <glyph glyph-name="uni06C3" unicode="&#x6c3;" horiz-adv-x="475" 
d="M394 59q-25 -34 -63.5 -52.5t-105.5 -18.5q-100 0 -144.5 43.5t-44.5 128.5q0 49 28.5 107t95.5 131q-17 13 -35 26l56 112q128 -85 189 -170t61 -163q0 -46 -7.5 -79t-29.5 -65zM117 191q0 -53 115 -53q61 0 89 12t28 24q0 30 -33.5 74.5t-93.5 96.5q-29 -29 -53 -59
t-38 -55t-14 -40zM133 603l-72 72v10l72 72h10l72 -72v-10l-72 -72h-10zM299 603l-72 72v10l72 72h10l72 -72v-10l-72 -72h-10z" />
    <glyph glyph-name="uni06CC" unicode="&#x6cc;" horiz-adv-x="715" 
d="M161 191q-13 -39 -18 -65.5t-5 -58.5q0 -66 52 -97t164 -31q62 0 114.5 8t84.5 20.5t32 27.5q0 10 -29 24.5t-101 39.5q-79 26 -109 52.5t-30 72.5q0 71 26.5 129.5t71 93t98.5 34.5q44 0 90 -26t74 -66l-61 -82q-22 17 -51.5 27.5t-58.5 10.5q-22 0 -46 -10.5
t-40.5 -25.5t-16.5 -29q0 -10 23 -22t87 -35q59 -20 94.5 -39.5t51 -43.5t15.5 -58q0 -81 -40 -137.5t-113 -85.5t-173 -29q-167 0 -242 60t-75 168q0 53 15 102.5t43 98.5z" />
    <glyph glyph-name="uni06D2" unicode="&#x6d2;" horiz-adv-x="733" 
d="M697 174l-35 -150q-81 -11 -160.5 -17.5t-146.5 -6.5q-124 0 -195.5 11t-101.5 37.5t-30 72.5q0 43 22.5 92.5t59.5 98t82 88.5t91 64t86 24q36 0 63 -36t56 -122l-80 -44q-21 29 -32.5 39.5t-24.5 10.5q-19 0 -48 -12.5t-60.5 -33t-59 -43t-44.5 -43t-17 -33.5
q0 -8 20 -12.5t70.5 -6.5t142.5 -2q47 0 106.5 3t121.5 8.5t114 12.5z" />
    <glyph glyph-name="uni06D3" unicode="&#x6d3;" horiz-adv-x="733" 
d="M697 174l-35 -150q-81 -11 -160.5 -17.5t-146.5 -6.5q-124 0 -195.5 11t-101.5 37.5t-30 72.5q0 43 22.5 92.5t59.5 98t82 88.5t91 64t86 24q36 0 63 -36t56 -122l-80 -44q-21 29 -32.5 39.5t-24.5 10.5q-19 0 -48 -12.5t-60.5 -33t-59 -43t-44.5 -43t-17 -33.5
q0 -8 20 -12.5t70.5 -6.5t142.5 -2q47 0 106.5 3t121.5 8.5t114 12.5zM413 671l-9 -71q-58 -10 -98 -18t-86 -19l-22 60q22 6 43 11q-18 24 -18 60q0 43 27.5 73.5t65.5 30.5q41 0 78 -27l-14 -50q-32 8 -55 8q-25 0 -39 -8t-14 -22q0 -16 22.5 -28t51.5 -12q9 0 22.5 2.5
t44.5 9.5z" />
    <glyph glyph-name="uni06D4" unicode="&#x6d4;" horiz-adv-x="412" 
d="M31 150h318v-150h-267z" />
    <glyph glyph-name="uni06D5" unicode="&#x6d5;" horiz-adv-x="475" 
d="M394 59q-25 -34 -63.5 -52.5t-105.5 -18.5q-100 0 -144.5 43.5t-44.5 128.5q0 49 28.5 107t95.5 131q-17 13 -35 26l56 112q128 -85 189 -170t61 -163q0 -46 -7.5 -79t-29.5 -65zM117 191q0 -53 115 -53q61 0 89 12t28 24q0 30 -33.5 74.5t-93.5 96.5q-29 -29 -53 -59
t-38 -55t-14 -40z" />
    <glyph glyph-name="uni06F0" unicode="&#x6f0;" horiz-adv-x="586" 
d="M267 171l-98 98v11l98 98h11l98 -98v-11l-98 -98h-11z" />
    <glyph glyph-name="uni06F1" unicode="&#x6f1;" horiz-adv-x="586" 
d="M253 0q-1 101 -11 210.5t-27.5 215.5t-41.5 193l120 44q18 -68 31.5 -142.5t22 -147.5t12.5 -137t4 -112q0 -39 -2 -73t-4 -51h-104z" />
    <glyph glyph-name="uni06F2" unicode="&#x6f2;" horiz-adv-x="586" 
d="M161 0q-1 106 -11.5 217t-28 215t-40.5 187l120 44q18 -61 31 -97t24.5 -54t26 -23.5t36.5 -5.5q85 0 110 178l88 -15q-14 -161 -62 -233.5t-141 -72.5q-32 0 -57 10q7 -60 10.5 -118.5t3.5 -107.5q0 -42 -1.5 -74.5t-4.5 -49.5h-104z" />
    <glyph glyph-name="uni06F3" unicode="&#x6f3;" horiz-adv-x="586" 
d="M104 0q-1 106 -11.5 217.5t-28 215.5t-40.5 187l120 42q21 -74 34.5 -111.5t26.5 -49.5t32 -12q23 0 37 12.5t15 34.5l2 119l90 3l-2 -149q13 -4 24 -4q36 0 53 36.5t21 120.5l90 -7v-17q0 -77 -20.5 -137.5t-56.5 -94.5t-84 -34q-43 0 -78 22q-39 -44 -101 -44
q-13 0 -27 3q7 -61 10.5 -120.5t3.5 -108.5q0 -34 -1.5 -69t-4.5 -55h-104z" />
    <glyph glyph-name="uni06F4" unicode="&#x6f4;" horiz-adv-x="586" 
d="M115 0q-1 106 -11.5 217t-28 215t-40.5 187l120 44q15 -51 28 -116t21 -124q12 -1 24.5 -1.5t29.5 -0.5h15q-20 32 -20 69q0 47 22.5 87t60 64t81.5 24q34 0 68.5 -11.5t60.5 -31.5l-28 -83q-23 7 -43.5 10t-45.5 3q-40 0 -70.5 -14t-30.5 -33q0 -17 19 -32.5t50 -24.5
t67 -9q35 0 97 13l-22 -123q-63 -17 -136 -26t-149 -9q-15 0 -37 2q4 -46 6 -88.5t2 -83.5q0 -34 -1.5 -68.5t-4.5 -55.5h-104z" />
    <glyph glyph-name="uni06F5" unicode="&#x6f5;" horiz-adv-x="586" 
d="M186 0q-69 0 -106 40t-37 115q0 106 44.5 214t126.5 201l45 108q61 -42 112.5 -99t90 -121.5t60 -130.5t21.5 -126q0 -59 -20 -104.5t-56 -71t-83 -25.5q-66 0 -105 38q-19 -18 -43.5 -28t-49.5 -10zM334 244v-109q21 -8 55 -8q27 0 45 11.5t18 28.5q0 49 -23.5 108.5
t-63.5 117t-88 101.5q-45 -49 -78.5 -104.5t-52 -109.5t-18.5 -99q0 -54 66 -54q26 0 41 7t15 19v91h84z" />
    <glyph glyph-name="uni06F6" unicode="&#x6f6;" horiz-adv-x="586" 
d="M61 0q69 174 182 288q-129 62 -129 181q0 55 27 99t73.5 70.5t103.5 26.5q41 0 79 -10.5t64 -30.5l-31 -95q-26 6 -52.5 9.5t-49.5 3.5q-58 0 -94.5 -17.5t-36.5 -45.5q0 -20 24 -40t62 -35t81 -20q66 39 138 58l-26 -151q-66 -24 -126.5 -68.5t-108 -101.5t-75.5 -121
h-105z" />
    <glyph glyph-name="uni06F7" unicode="&#x6f7;" horiz-adv-x="586" 
d="M246 0q-57 176 -112.5 325.5t-119.5 286.5l123 53q46 -112 87.5 -231t80.5 -245q24 92 47.5 170.5t49 152.5t57.5 153l114 -44q-31 -80 -58 -150.5t-52 -142t-50 -151t-54 -177.5h-113z" />
    <glyph glyph-name="uni06F8" unicode="&#x6f8;" horiz-adv-x="586" 
d="M228 654h113q57 -175 112.5 -325t119.5 -287l-123 -53q-46 112 -87.5 231t-80.5 245q-24 -92 -47.5 -170.5t-49 -152.5t-57.5 -153l-114 44q31 80 58 150.5t52 142t50.5 151t53.5 177.5z" />
    <glyph glyph-name="uni06F9" unicode="&#x6f9;" horiz-adv-x="586" 
d="M387 0q-5 31 -9.5 74.5t-8.5 90t-8 86.5q-25 -12 -56 -19.5t-74 -7.5q-93 0 -137 37t-44 119q0 79 27 143.5t72.5 103t100.5 38.5q84 0 142.5 -79t73.5 -243q8 -80 14 -138t13 -106.5t16 -98.5h-122zM135 406q0 -21 29 -31t76 -10q27 0 55 4t53 10q-12 71 -40.5 108
t-70.5 37q-31 0 -54 -17.5t-35.5 -44.5t-12.5 -56z" />
    <glyph glyph-name="uni2000" unicode="&#x2000;" horiz-adv-x="500" 
 />
    <glyph glyph-name="uni2001" unicode="&#x2001;" horiz-adv-x="1000" 
 />
    <glyph glyph-name="uni2002" unicode="&#x2002;" horiz-adv-x="500" 
 />
    <glyph glyph-name="uni2003" unicode="&#x2003;" horiz-adv-x="1000" 
 />
    <glyph glyph-name="uni2004" unicode="&#x2004;" horiz-adv-x="333" 
 />
    <glyph glyph-name="uni2005" unicode="&#x2005;" horiz-adv-x="250" 
 />
    <glyph glyph-name="uni2006" unicode="&#x2006;" horiz-adv-x="166" 
 />
    <glyph glyph-name="uni2007" unicode="&#x2007;" horiz-adv-x="586" 
 />
    <glyph glyph-name="uni2008" unicode="&#x2008;" horiz-adv-x="284" 
 />
    <glyph glyph-name="uni2009" unicode="&#x2009;" horiz-adv-x="200" 
 />
    <glyph glyph-name="uni200A" unicode="&#x200a;" horiz-adv-x="50" 
 />
    <glyph glyph-name="uni200B" unicode="&#x200b;" 
 />
    <glyph glyph-name="uni200C" unicode="&#x200c;" 
d="M20 -217h-39v793h39v-793z" />
    <glyph glyph-name="uni200D" unicode="&#x200d;" 
d="M19 -217h-39v718l-50 -51l-28 28l69 69l-69 70l29 29l69 -70l69 70l29 -29l-70 -70l70 -69l-28 -28l-51 50v-717z" />
    <glyph glyph-name="uni200E" unicode="&#x200e;" 
d="M-120 -217h-39v789h255l-127 121h54l137 -130v-18l-138 -133h-53l127 121h-216v-750z" />
    <glyph glyph-name="uni200F" unicode="&#x200f;" 
d="M160 -217h-39v750h-216l127 -121h-53l-138 133v18l137 130h54l-127 -121h255v-789z" />
    <glyph glyph-name="uni2010" unicode="&#x2010;" horiz-adv-x="402" 
d="M360 198h-318v120h318v-120z" />
    <glyph glyph-name="endash" unicode="&#x2013;" horiz-adv-x="500" 
d="M500 201h-500v114h500v-114z" />
    <glyph glyph-name="emdash" unicode="&#x2014;" horiz-adv-x="1000" 
d="M1000 201h-1000v114h1000v-114z" />
    <glyph glyph-name="quoteleft" unicode="&#x2018;" horiz-adv-x="284" 
d="M137 693h96l-45 -292h-56q-81 0 -81 53q0 21 18 68z" />
    <glyph glyph-name="quoteright" unicode="&#x2019;" horiz-adv-x="284" 
d="M147 401h-96l45 292h56q81 0 81 -53q0 -21 -18 -68z" />
    <glyph glyph-name="quotesinglbase" unicode="&#x201a;" horiz-adv-x="284" 
d="M147 -159h-96l45 292h56q81 0 81 -53q0 -21 -18 -68z" />
    <glyph glyph-name="quotedblleft" unicode="&#x201c;" horiz-adv-x="505" 
d="M137 693h96l-45 -292h-56q-81 0 -81 53q0 21 18 68zM358 693h96l-45 -292h-56q-81 0 -81 53q0 21 18 68z" />
    <glyph glyph-name="quotedblright" unicode="&#x201d;" horiz-adv-x="505" 
d="M147 401h-96l45 292h56q81 0 81 -53q0 -21 -18 -68zM368 401h-96l45 292h56q81 0 81 -53q0 -21 -18 -68z" />
    <glyph glyph-name="quotedblbase" unicode="&#x201e;" horiz-adv-x="505" 
d="M147 -159h-96l45 292h56q81 0 81 -53q0 -21 -18 -68zM368 -159h-96l45 292h56q81 0 81 -53q0 -21 -18 -68z" />
    <glyph glyph-name="dagger" unicode="&#x2020;" horiz-adv-x="530" 
d="M510 414l-182 7l12 -547h-150l12 547l-182 -7v110l182 -7l-12 223h150l-12 -223l182 7v-110z" />
    <glyph glyph-name="daggerdbl" unicode="&#x2021;" horiz-adv-x="530" 
d="M340 -126h-150l12 223l-182 -7v110l182 -7l-10 114l10 114l-182 -7v110l182 -7l-12 223h150l-12 -223l182 7v-110l-182 7l10 -114l-10 -114l182 7v-110l-182 7z" />
    <glyph glyph-name="bullet" unicode="&#x2022;" horiz-adv-x="390" 
d="M195 103q-43 0 -78.5 20.5t-56 55.5t-20.5 79t20.5 79t56 55.5t78.5 20.5q44 0 79 -20.5t55.5 -55.5t20.5 -79t-20.5 -79t-55.5 -55.5t-79 -20.5z" />
    <glyph glyph-name="uni202A" unicode="&#x202a;" 
d="M160 545l-138 -133h-53l127 121h-109v39h109l-127 121h54l137 -130v-18zM-120 -217h-39v789h56v-39h-17v-750z" />
    <glyph glyph-name="uni202B" unicode="&#x202b;" 
d="M32 412h-53l-138 133v18l137 130h54l-127 -121h109v-39h-109zM160 -217h-39v750h-17v39h56v-789z" />
    <glyph glyph-name="uni202C" unicode="&#x202c;" 
d="M20 -217h-39v835l-121 -127v54l130 137h18l133 -138v-53l-121 127v-835z" />
    <glyph glyph-name="uni202D" unicode="&#x202d;" 
d="M-161 -217h-39v789h225l-127 121h54l137 -130v-18l-138 -133h-53l127 121h-186v-750zM201 545l-138 -133h-53l147 141l-147 140h54l137 -130v-18z" />
    <glyph glyph-name="uni202E" unicode="&#x202e;" 
d="M201 -217h-39v750h-186l127 -121h-53l-138 133v18l137 130h54l-127 -121h225v-789zM-9 412h-53l-138 133v18l137 130h54l-147 -140z" />
    <glyph glyph-name="perthousand" unicode="&#x2030;" horiz-adv-x="1339" 
d="M1134 -8q-84 0 -128.5 55.5t-44.5 149.5q0 99 45.5 153t127.5 54q84 0 128.5 -55t44.5 -150q0 -99 -45.5 -153t-127.5 -54zM1134 76q65 0 65 121q0 123 -65 123t-65 -121q0 -123 65 -123zM205 289q-84 0 -128.5 55.5t-44.5 149.5q0 99 45.5 153t127.5 54q84 0 128.5 -55
t44.5 -150q0 -99 -45.5 -153t-127.5 -54zM205 373q65 0 65 121q0 123 -65 123t-65 -121q0 -123 65 -123zM735 -8q-84 0 -128.5 55.5t-44.5 149.5q0 99 45.5 153t127.5 54q84 0 128.5 -55t44.5 -150q0 -99 -45.5 -153t-127.5 -54zM735 76q65 0 65 121q0 123 -65 123t-65 -121
q0 -123 65 -123zM358 0h-108l332 693h108z" />
    <glyph glyph-name="guilsinglleft" unicode="&#x2039;" horiz-adv-x="366" 
d="M318 51h-140l-136 208l136 208h140l-122 -208z" />
    <glyph glyph-name="guilsinglright" unicode="&#x203a;" horiz-adv-x="366" 
d="M48 467h140l136 -208l-136 -208h-140l122 208z" />
    <glyph glyph-name="fraction" unicode="&#x2044;" 
d="M-112 0h-108l332 693h108z" />
    <glyph glyph-name="uni2070" unicode="&#x2070;" horiz-adv-x="410" 
d="M205 382q-84 0 -128.5 55.5t-44.5 149.5q0 99 45.5 153t127.5 54q84 0 128.5 -55t44.5 -150q0 -99 -45.5 -153t-127.5 -54zM205 466q65 0 65 121q0 123 -65 123t-65 -121q0 -123 65 -123z" />
    <glyph glyph-name="uni2074" unicode="&#x2074;" horiz-adv-x="410" 
d="M322 390h-92v77h-194v74l184 251h102v-250h54v-75h-54v-77zM230 680l-101 -138h101v138z" />
    <glyph glyph-name="uni2075" unicode="&#x2075;" horiz-adv-x="410" 
d="M190 382q-63 0 -119 23v78q39 -10 64.5 -13.5t51.5 -3.5q32 0 50.5 12.5t18.5 34.5q0 45 -71 45q-23 0 -46 -1t-54 -4v55l11 178h241v-82h-156l-5 -79q23 3 46 3q64 0 99 -30.5t35 -85.5q0 -61 -44.5 -95.5t-121.5 -34.5z" />
    <glyph glyph-name="uni2076" unicode="&#x2076;" horiz-adv-x="410" 
d="M244 714q-98 0 -101 -101q46 24 100 24q58 0 93.5 -32.5t35.5 -85.5q0 -61 -45 -99t-117 -38q-168 0 -168 194q0 103 50.5 160.5t141.5 57.5q26 0 57.5 -6t51.5 -15v-73q-44 14 -99 14zM213 563q-34 0 -68 -14q2 -46 18 -66.5t51 -20.5q56 0 56 51q0 23 -15.5 36.5
t-41.5 13.5z" />
    <glyph glyph-name="uni2077" unicode="&#x2077;" horiz-adv-x="410" 
d="M206 390h-116l172 312h-213v84h323v-78z" />
    <glyph glyph-name="uni2078" unicode="&#x2078;" horiz-adv-x="410" 
d="M347 690q0 -31 -17 -55t-47 -38q44 -19 62 -41.5t18 -55.5q0 -55 -43 -86.5t-117 -31.5q-70 0 -113 29t-43 77q0 34 20.5 62t54.5 43q-60 31 -60 86q0 53 39.5 84t104.5 31q62 0 101.5 -29t39.5 -75zM154 682q0 -33 44 -50l29 -11q28 24 28 55q0 46 -50 46q-23 0 -37 -11
t-14 -29zM227 545l-54 21q-30 -27 -30 -58q0 -54 61 -54q29 0 46 12.5t17 34.5q0 29 -40 44z" />
    <glyph glyph-name="uni2079" unicode="&#x2079;" horiz-adv-x="410" 
d="M60 407v73q50 -18 109 -18q50 0 72 22.5t22 71.5q-19 -10 -45.5 -16.5t-49.5 -6.5q-58 0 -93 32t-35 86q0 63 44.5 103t114.5 40q81 0 124 -51t43 -148q0 -100 -49.5 -156.5t-138.5 -56.5q-31 0 -64 7t-54 18zM194 607q40 0 69 13v4q0 90 -66 90q-56 0 -56 -55
q0 -25 14 -38.5t39 -13.5z" />
    <glyph glyph-name="uni2080" unicode="&#x2080;" horiz-adv-x="410" 
d="M205 -112q-84 0 -128.5 55.5t-44.5 149.5q0 99 45.5 153t127.5 54q84 0 128.5 -55t44.5 -150q0 -99 -45.5 -153t-127.5 -54zM205 -28q65 0 65 121q0 123 -65 123t-65 -121q0 -123 65 -123z" />
    <glyph glyph-name="uni2081" unicode="&#x2081;" horiz-adv-x="410" 
d="M293 -104h-106v294l-119 -37v81l129 58h96v-396z" />
    <glyph glyph-name="uni2082" unicode="&#x2082;" horiz-adv-x="410" 
d="M67 170v85q32 22 68.5 33.5t71.5 11.5q61 0 97.5 -32t36.5 -85q0 -37 -38 -85.5t-121 -117.5h173v-84h-296v72q66 59 103.5 97.5t53 64t15.5 45.5q0 18 -13 28.5t-35 10.5q-21 0 -52.5 -12t-63.5 -32z" />
    <glyph glyph-name="uni2083" unicode="&#x2083;" horiz-adv-x="410" 
d="M189 -112q-71 0 -120 25v78q29 -9 57 -14t53 -5q37 0 58 12.5t21 34.5q0 44 -75 44q-8 0 -24.5 -1t-33.5 -3v50l103 101h-155v82h263v-72l-100 -98h7q53 0 84 -27t31 -74q0 -64 -44 -98.5t-125 -34.5z" />
    <glyph glyph-name="uni2084" unicode="&#x2084;" horiz-adv-x="410" 
d="M322 -104h-92v77h-194v74l184 251h102v-250h54v-75h-54v-77zM230 186l-101 -138h101v138z" />
    <glyph glyph-name="uni2085" unicode="&#x2085;" horiz-adv-x="410" 
d="M190 -112q-63 0 -119 23v78q39 -10 64.5 -13.5t51.5 -3.5q32 0 50.5 12.5t18.5 34.5q0 45 -71 45q-23 0 -46 -1t-54 -4v55l11 178h241v-82h-156l-5 -79q23 3 46 3q64 0 99 -30.5t35 -85.5q0 -61 -44.5 -95.5t-121.5 -34.5z" />
    <glyph glyph-name="uni2086" unicode="&#x2086;" horiz-adv-x="410" 
d="M244 220q-98 0 -101 -101q46 24 100 24q58 0 93.5 -32.5t35.5 -85.5q0 -61 -45 -99t-117 -38q-168 0 -168 194q0 103 50.5 160.5t141.5 57.5q26 0 57.5 -6t51.5 -15v-73q-44 14 -99 14zM213 69q-34 0 -68 -14q2 -46 18 -66.5t51 -20.5q56 0 56 51q0 23 -15.5 36.5
t-41.5 13.5z" />
    <glyph glyph-name="uni2087" unicode="&#x2087;" horiz-adv-x="410" 
d="M206 -104h-116l172 312h-213v84h323v-78z" />
    <glyph glyph-name="uni2088" unicode="&#x2088;" horiz-adv-x="410" 
d="M347 196q0 -31 -17 -55t-47 -38q44 -19 62 -41.5t18 -55.5q0 -55 -43 -86.5t-117 -31.5q-70 0 -113 29t-43 77q0 34 20.5 62t54.5 43q-60 31 -60 86q0 53 39.5 84t104.5 31q62 0 101.5 -29t39.5 -75zM154 188q0 -33 44 -50l29 -11q28 24 28 55q0 46 -50 46q-23 0 -37 -11
t-14 -29zM227 51l-54 21q-30 -27 -30 -58q0 -54 61 -54q29 0 46 12.5t17 34.5q0 29 -40 44z" />
    <glyph glyph-name="uni2089" unicode="&#x2089;" horiz-adv-x="410" 
d="M60 -87v73q50 -18 109 -18q50 0 72 22.5t22 71.5q-19 -10 -45.5 -16.5t-49.5 -6.5q-58 0 -93 32t-35 86q0 63 44.5 103t114.5 40q81 0 124 -51t43 -148q0 -100 -49.5 -156.5t-138.5 -56.5q-31 0 -64 7t-54 18zM194 113q40 0 69 13v4q0 90 -66 90q-56 0 -56 -55
q0 -25 14 -38.5t39 -13.5z" />
    <glyph glyph-name="Euro" unicode="&#x20ac;" horiz-adv-x="586" 
d="M490 381h-252v-75h234l-24 -86h-198q17 -58 59 -85.5t109 -27.5q35 0 75 5t79 16v-110q-38 -16 -82.5 -23.5t-88.5 -7.5q-121 0 -195.5 59t-99.5 174h-82v86h71q-1 8 -1 17v18v20t1 20h-71v86h83q27 113 104 174.5t198 61.5q40 0 82 -7t77 -21v-110q-35 10 -72 14t-69 4
q-140 0 -177 -116h264z" />
    <glyph glyph-name="uni20B9" unicode="&#x20b9;" horiz-adv-x="586" 
d="M493 0h-176l-237 262v88h106q68 0 104 18.5t46 61.5h-255v88h253q-24 79 -143 79h-111v96h500l-19 -96h-150q40 -29 52 -79h82l-18 -88h-63q-12 -74 -66 -117.5t-145 -50.5l-13 -1z" />
    <glyph glyph-name="uni20BA" unicode="&#x20ba;" horiz-adv-x="586" 
d="M408 351l-159 -75v-158h12q91 0 130.5 42.5t39.5 125.5v9h132v-18q0 -85 -38 -147t-109 -96t-172 -34h-137v209l-90 -42v92l90 42v84l-90 -42v92l90 42v216h142v-149l159 75v-92l-159 -75v-84l159 75v-92z" />
    <glyph glyph-name="uni2113" unicode="&#x2113;" horiz-adv-x="451" 
d="M24 113v106l76 50v294q0 88 44.5 139.5t119.5 51.5q77 0 121 -52.5t44 -144.5q0 -89 -53 -172.5t-148 -143.5v-81q0 -73 66 -73q18 0 42.5 5.5t50.5 15.5v-95q-57 -30 -132 -30q-73 0 -114 42.5t-41 119.5v16zM228 570v-214q35 33 57 91.5t22 122.5q0 80 -39 80
q-21 0 -30.5 -19t-9.5 -61z" />
    <glyph glyph-name="trademark" unicode="&#x2122;" horiz-adv-x="861" 
d="M813 309h-92v242l-66 -151h-93l-66 151v-242h-92v384h109l96 -209l97 209h107v-384zM232 309h-104v302h-116v82h336v-82h-116v-302z" />
    <glyph glyph-name="estimated" unicode="&#x212e;" horiz-adv-x="882" 
d="M198 134q0 -12 9 -22q84 -96 234 -96q74 0 138 28t107 80h62q-49 -63 -130 -98t-177 -35q-113 0 -200.5 45t-137 125t-49.5 183q0 77 28.5 142.5t80.5 114t122.5 75t154.5 26.5q85 0 156 -26t123 -73t80.5 -111t28.5 -141v-15h-624q-6 0 -6 -6v-196zM679 358q6 0 6 6v194
q0 12 -9 24q-45 45 -107 70t-129 25q-146 0 -234 -98q-8 -10 -8 -25v-190q0 -6 6 -6h475z" />
    <glyph glyph-name="onethird" unicode="&#x2153;" horiz-adv-x="940" 
d="M293 297h-106v294l-119 -37v81l129 58h96v-396zM719 -8q-71 0 -120 25v78q29 -9 57 -14t53 -5q37 0 58 12.5t21 34.5q0 44 -75 44q-8 0 -24.5 -1t-33.5 -3v50l103 101h-155v82h263v-72l-100 -98h7q53 0 84 -27t31 -74q0 -64 -44 -98.5t-125 -34.5zM338 0h-108l332 693
h108z" />
    <glyph glyph-name="twothirds" unicode="&#x2154;" horiz-adv-x="940" 
d="M67 571v85q32 22 68.5 33.5t71.5 11.5q61 0 97.5 -32t36.5 -85q0 -37 -38 -85.5t-121 -117.5h173v-84h-296v72q66 59 103.5 97.5t53 64t15.5 45.5q0 18 -13 28.5t-35 10.5q-21 0 -52.5 -12t-63.5 -32zM719 -8q-71 0 -120 25v78q29 -9 57 -14t53 -5q37 0 58 12.5t21 34.5
q0 44 -75 44q-8 0 -24.5 -1t-33.5 -3v50l103 101h-155v82h263v-72l-100 -98h7q53 0 84 -27t31 -74q0 -64 -44 -98.5t-125 -34.5zM367 0h-108l332 693h108z" />
    <glyph glyph-name="minus" unicode="&#x2212;" horiz-adv-x="586" 
d="M526 291h-466v112h466v-112z" />
    <glyph glyph-name="uni25CC" unicode="&#x25cc;" horiz-adv-x="663" 
d="M363 532q0 -15 -9.5 -23.5t-23.5 -8.5t-23 8.5t-9 23.5t9 24t23 9t23.5 -9t9.5 -24zM264 515q0 -15 -9.5 -23.5t-23.5 -8.5t-23 8.5t-9 23.5t9 24t23 9t23.5 -9t9.5 -24zM463 515q0 -15 -9.5 -23.5t-23.5 -8.5t-23 8.5t-9 23.5t9 24t23 9t23.5 -9t9.5 -24zM178 459
q0 -15 -9.5 -23.5t-23.5 -8.5t-23 8.5t-9 23.5t9 24t23 9t23.5 -9t9.5 -24zM548 459q0 -15 -9.5 -23.5t-23.5 -8.5t-23 8.5t-9 23.5t9 24t23 9t23.5 -9t9.5 -24zM127 371q0 -15 -9.5 -23.5t-23.5 -8.5t-23 8.5t-9 23.5t9 24t23 9t23.5 -9t9.5 -24zM602 371q0 -15 -9.5 -23.5
t-23.5 -8.5t-23 8.5t-9 23.5t9 24t23 9t23.5 -9t9.5 -24zM110 276q0 -15 -9.5 -23.5t-23.5 -8.5t-23 8.5t-9 23.5t9 24t23 9t23.5 -9t9.5 -24zM618 276q0 -15 -9.5 -23.5t-23.5 -8.5t-23 8.5t-9 23.5t9 24t23 9t23.5 -9t9.5 -24zM127 184q0 -15 -9.5 -23.5t-23.5 -8.5
t-23 8.5t-9 23.5t9 24t23 9t23.5 -9t9.5 -24zM602 184q0 -15 -9.5 -23.5t-23.5 -8.5t-23 8.5t-9 23.5t9 24t23 9t23.5 -9t9.5 -24zM178 94q0 -15 -9.5 -23.5t-23.5 -8.5t-23 8.5t-9 23.5t9 24t23 9t23.5 -9t9.5 -24zM548 94q0 -15 -9.5 -23.5t-23.5 -8.5t-23 8.5t-9 23.5
t9 24t23 9t23.5 -9t9.5 -24zM264 39q0 -15 -9.5 -23.5t-23.5 -8.5t-23 8.5t-9 23.5t9 24t23 9t23.5 -9t9.5 -24zM463 39q0 -15 -9.5 -23.5t-23.5 -8.5t-23 8.5t-9 23.5t9 24t23 9t23.5 -9t9.5 -24zM363 22q0 -15 -9.5 -23.5t-23.5 -8.5t-23 8.5t-9 23.5t9 24t23 9t23.5 -9
t9.5 -24z" />
    <glyph glyph-name="uni274A" unicode="&#x274a;" horiz-adv-x="404" 
d="M202 465l-62 -118q-28 4 -50 21t-36 42l92 90l-112 20q-2 10 -2 20q0 46 35 79l101 -55l-19 121q26 13 53 13t53 -13l-19 -121l101 55q35 -33 35 -79q0 -10 -2 -20l-112 -20l92 -90q-13 -25 -35.5 -42t-50.5 -21z" />
    <glyph glyph-name="uniFD3E" unicode="&#xfd3e;" horiz-adv-x="341" 
d="M207 382l-68 75l-83 -63q14 121 52 210t99 171l101 -52q-24 -46 -40.5 -83t-28 -73.5t-19 -80.5t-13.5 -104zM41 306l90 91l91 -91l-91 -89zM139 156l68 75q6 -60 13.5 -104t19 -80.5t28 -73t40.5 -83.5l-101 -52q-61 83 -99 171.5t-52 209.5z" />
    <glyph glyph-name="uniFD3F" unicode="&#xfd3f;" horiz-adv-x="341" 
d="M202 457l-68 -75q-6 60 -13.5 104t-19 80.5t-28 73.5t-40.5 83l101 52q62 -82 100 -171t51 -210zM210 397l90 -91l-90 -89l-91 89zM134 231l68 -75l83 63q-13 -121 -51 -209.5t-100 -171.5l-101 52q24 47 40.5 83.5t28 73t19 80.5t13.5 104z" />
    <glyph glyph-name="uniFEFF" unicode="&#xfeff;" 
 />
    <glyph glyph-name="uniFFFD" unicode="&#xfffd;" horiz-adv-x="1000" 
d="M500 -131l-471 471l471 471l471 -471zM609 456q0 -39 -27 -70t-86 -59l-47 -22l9 -136h78v103q85 38 125 85t40 108q0 74 -48 115t-132 41q-43 0 -85.5 -11.5t-79.5 -34.5v-74q44 23 80 32.5t70 9.5q53 0 78 -22.5t25 -64.5zM500 -6q25 0 40.5 16t15.5 41
q0 26 -15.5 41.5t-40.5 15.5t-40.5 -15.5t-15.5 -41.5q0 -25 15.5 -41t40.5 -16z" />
    <glyph glyph-name="zero.pnum" horiz-adv-x="602" 
d="M301 -15q-127 0 -195 94t-68 269q0 174 68.5 268t194.5 94t194.5 -94t68.5 -268q0 -175 -68 -269t-195 -94zM301 105q61 0 87 56.5t26 186.5t-26 186t-87 56t-87 -56t-26 -186t26 -186.5t87 -56.5z" />
    <glyph glyph-name="one.pnum" horiz-adv-x="449" 
d="M352 0h-148v547l-178 -56v114l195 88h131v-693z" />
    <glyph glyph-name="two.pnum" horiz-adv-x="551" 
d="M46 511v119q56 43 109.5 61.5t118.5 18.5q64 0 111 -24t73 -67.5t26 -101.5q0 -50 -27.5 -105t-91 -126.5t-171.5 -169.5h318v-116h-484v108q92 92 151.5 156t92.5 108t46.5 76t13.5 59q0 38 -22.5 59.5t-62.5 21.5q-45 0 -97 -20.5t-104 -56.5z" />
    <glyph glyph-name="three.pnum" horiz-adv-x="529" 
d="M459 583l-176 -179q20 -1 37.5 -4t33.5 -8q65 -19 100 -66.5t35 -115.5t-33.5 -119t-94.5 -78.5t-144 -27.5q-46 0 -95 11t-94 30v113q112 -38 184 -38q64 0 97.5 28t33.5 80q0 92 -127 92q-8 0 -26 -1t-36.5 -2.5t-30.5 -3.5v92l179 193h-265v114h422v-110z" />
    <glyph glyph-name="four.pnum" horiz-adv-x="590" 
d="M476 0h-127v137h-323v107l314 449h136v-444h88v-112h-88v-137zM163 249h186v266z" />
    <glyph glyph-name="five.pnum" horiz-adv-x="536" 
d="M30 27v112q118 -38 198 -38q126 0 126 110q0 54 -31.5 79.5t-99.5 25.5q-37 0 -80 -2.5t-84 -7.5v90l18 297h393v-114h-270l-11 -164q22 5 43.5 7.5t42.5 2.5q69 0 120 -26t79 -73.5t28 -111.5q0 -68 -33.5 -120t-93.5 -80.5t-140 -28.5q-109 0 -205 42z" />
    <glyph glyph-name="six.pnum" horiz-adv-x="585" 
d="M356 596q-82 0 -122.5 -51t-46.5 -163q79 42 157 42q62 0 108.5 -25.5t72.5 -70.5t26 -106q0 -71 -31.5 -124.5t-88.5 -83t-134 -29.5q-255 0 -255 336q0 122 35 209t101.5 133.5t159.5 46.5q43 0 89 -10t79 -27v-104q-31 12 -73.5 19.5t-76.5 7.5zM296 314
q-49 0 -108 -25q2 -100 29.5 -145t85.5 -45q102 0 102 109q0 51 -28 78.5t-81 27.5z" />
    <glyph glyph-name="seven.pnum" horiz-adv-x="549" 
d="M262 0h-159l260 577h-347v116h495v-109z" />
    <glyph glyph-name="eight.pnum" horiz-adv-x="598" 
d="M529 525q0 -52 -29 -95t-79 -68q73 -34 103 -74t30 -98q0 -97 -67 -151t-189 -54q-118 0 -186 50t-68 137q0 59 33.5 108.5t92.5 76.5q-52 29 -75.5 67t-23.5 89q0 60 28.5 104t80 68.5t119.5 24.5q69 0 120.5 -23.5t80.5 -65t29 -96.5zM207 521q0 -35 23.5 -61.5
t74.5 -47.5l37 -16q51 48 51 111q0 48 -24.5 73.5t-71.5 25.5q-90 0 -90 -85zM292 302l-43 18q-32 -23 -48.5 -54t-16.5 -66q0 -105 116 -105q55 0 84.5 25t29.5 71q0 23 -10.5 40.5t-37 34t-74.5 36.5z" />
    <glyph glyph-name="nine.pnum" horiz-adv-x="579" 
d="M61 32v104q38 -16 86 -26.5t83 -10.5q78 0 115 45.5t44 152.5q-73 -41 -148 -41q-95 0 -151 58t-56 155q0 71 31.5 125.5t88 85t129.5 30.5q124 0 189 -85t65 -248q0 -191 -75 -291.5t-218 -100.5q-49 0 -99 12.5t-84 34.5zM286 366q24 0 50.5 5.5t54.5 18.5v1
q0 106 -27 155.5t-84 49.5q-47 0 -73.5 -30t-26.5 -83q0 -117 106 -117z" />
    <glyph glyph-name="glyph192" 
d="M-11 -59q44 0 70.5 -21t26.5 -56q0 -46 -30 -82t-96 -71l-54 49q36 20 56 41.5t20 38.5q0 20 -31 20q-11 0 -32 -3v73q33 11 70 11z" />
    <glyph glyph-name="glyph195" 
d="M61 769h-122l101 129h154z" />
    <glyph glyph-name="glyph199" 
d="M61 769h-122l-133 129h154z" />
    <glyph glyph-name="glyph203" 
d="M203 769h-128l-76 75l-76 -75h-128l130 141h148z" />
    <glyph glyph-name="glyph206" 
d="M-114 770q-37 0 -59 20t-22 54q0 35 22 55t59 20t59 -20t22 -55q0 -34 -22 -54t-59 -20zM114 770q-37 0 -59 20t-22 54q0 35 22 55t59 20t59 -20t22 -55q0 -34 -22 -54t-59 -20z" />
    <glyph glyph-name="glyph238" 
d="M0 1030l-25 50h50zM-25 -434l25 50l25 -50h-50z" />
    <glyph glyph-name="glyph239" 
 />
    <glyph glyph-name="glyph260" horiz-adv-x="305" 
d="M326 6l-21 -6q-121 0 -179 63t-59 196l-2 354l112 23v-447q0 -20 38 -29.5t90 -9.5l21 -6v-138z" />
    <glyph glyph-name="glyph261" horiz-adv-x="253" 
d="M164 0h-92v613l112 23v-252q0 -23 -1 -61t-3 -83.5t-5 -91t-5.5 -84.5t-5.5 -64z" />
    <glyph glyph-name="glyph262" horiz-adv-x="536" 
d="M0 150h536l21 -7v-136l-21 -7h-536l-21 7v136z" />
    <glyph glyph-name="glyph263" horiz-adv-x="117" 
d="M0 150h117l21 -7v-136l-21 -7h-117l-21 7v136z" />
    <glyph glyph-name="glyph265" 
d="M-177 475l349 173l19 -85l-330 -163z" />
    <glyph glyph-name="glyph266" 
d="M-5 643l-69 69v10l69 69h10l69 -69v-10l-69 -69h-10zM-85 507l-69 69v10l69 69h10l69 -69v-10l-69 -69h-10zM75 507l-69 69v10l69 69h10l69 -69v-10l-69 -69h-10z" />
    <glyph glyph-name="glyph267" 
d="M-88 507l-72 72v10l72 72h10l72 -72v-10l-72 -72h-10zM78 507l-72 72v10l72 72h10l72 -72v-10l-72 -72h-10z" />
    <glyph glyph-name="glyph268" 
d="M-5 507l-74 74v10l74 74h10l74 -74v-10l-74 -74h-10z" />
    <glyph glyph-name="glyph269" 
d="M97 247l-9 -71q-58 -10 -98 -18t-86 -19l-22 60q22 6 43 11q-18 24 -18 60q0 43 27.5 73.5t65.5 30.5q41 0 78 -27l-14 -50q-32 8 -55 8q-25 0 -39 -8t-14 -22q0 -16 22.5 -28t51.5 -12q9 0 22.5 2.5t44.5 9.5z" />
    <glyph glyph-name="glyph270" 
d="M-65 244l-49 49v8l49 49h9l49 -49v-8l-49 -49h-9zM54 244l-49 49v8l49 49h9l49 -49v-8l-49 -49h-9zM-5 141l-49 49v8l49 49h9l49 -49v-8l-49 -49h-9z" />
    <glyph glyph-name="glyph271" 
d="M-4 192l-66 66v8l66 66h8l66 -66v-8l-66 -66h-8z" />
    <glyph glyph-name="glyph272" 
d="M75 -284l-20 -17q-25 -21 -48 -21q-13 0 -24 4.5t-20 14.5q-24 27 -24 70q0 28 19.5 66t71.5 81l43 -40q-25 -26 -34 -45.5t-9 -36.5q0 -13 9 -29.5t36 -46.5z" />
    <glyph glyph-name="glyph273" 
d="M-154 -160l69 69h10l69 -69v-10l-69 -69h-10l-69 69v10zM6 -160l69 69h10l69 -69v-10l-69 -69h-10l-69 69v10zM-74 -296l69 69h10l69 -69v-10l-69 -69h-10l-69 69v10z" />
    <glyph glyph-name="glyph274" 
d="M-160 -163l72 72h10l72 -72v-10l-72 -72h-10l-72 72v10zM6 -163l72 72h10l72 -72v-10l-72 -72h-10l-72 72v10z" />
    <glyph glyph-name="uni0654_uni064C.ccmp" 
d="M101 615l-9 -71q-58 -10 -98 -18t-86 -19l-22 60q22 6 43 11q-18 24 -18 60q0 43 27.5 73.5t65.5 30.5q41 0 78 -27l-14 -50q-32 8 -55 8q-25 0 -39 -8t-14 -22q0 -16 22.5 -28t51.5 -12q9 0 22.5 2.5t44.5 9.5zM139 920q0 -39 -23.5 -69t-63.5 -47t-92 -17h-20.5
t-17.5 1l-24 56q11 14 11 29q0 24 -24 24q-15 0 -32 -13l-19 29q13 16 30.5 28.5t36.5 12.5q26 0 42 -18.5t16 -44.5q0 -21 -6 -45h3q31 0 56 4q-13 12 -18.5 29t-5.5 36q0 40 26 64t54 24q32 0 51.5 -24t19.5 -59zM29 922q0 -13 10.5 -27.5t37.5 -20.5q15 12 15 29
q0 22 -13 33t-24 11t-18.5 -7t-7.5 -18z" />
    <glyph glyph-name="uni0654_uni064B.ccmp" 
d="M101 615l-9 -71q-58 -10 -98 -18t-86 -19l-22 60q22 6 43 11q-18 24 -18 60q0 43 27.5 73.5t65.5 30.5q41 0 78 -27l-14 -50q-32 8 -55 8q-25 0 -39 -8t-14 -22q0 -16 22.5 -28t51.5 -12q9 0 22.5 2.5t44.5 9.5zM108 900v-66q-41 -8 -95.5 -21t-128.5 -32v63
q66 19 123.5 34t100.5 22zM108 1015v-66q-41 -8 -95.5 -21t-128.5 -32v63q66 19 123.5 34t100.5 22z" />
    <glyph glyph-name="uni0654_uni0652.ccmp" 
d="M101 615l-9 -71q-58 -10 -98 -18t-86 -19l-22 60q22 6 43 11q-18 24 -18 60q0 43 27.5 73.5t65.5 30.5q41 0 78 -27l-14 -50q-32 8 -55 8q-25 0 -39 -8t-14 -22q0 -16 22.5 -28t51.5 -12q9 0 22.5 2.5t44.5 9.5zM81 888q0 -101 -89 -101q-37 0 -59 25t-22 71
q0 32 12.5 59.5t32.5 44t43 16.5q25 0 43.5 -16.5t28.5 -42.5t10 -56zM40 876q0 23 -12 41t-32 18q-21 0 -32.5 -13.5t-11.5 -33.5q0 -15 12 -24t32 -9q18 0 31 5.5t13 15.5z" />
    <glyph glyph-name="uni0654_uni064F.ccmp" 
d="M101 615l-9 -71q-58 -10 -98 -18t-86 -19l-22 60q22 6 43 11q-18 24 -18 60q0 43 27.5 73.5t65.5 30.5q41 0 78 -27l-14 -50q-32 8 -55 8q-25 0 -39 -8t-14 -22q0 -16 22.5 -28t51.5 -12q9 0 22.5 2.5t44.5 9.5zM96 904q0 -32 -19 -60.5t-54 -46t-83 -17.5q-28 0 -45 4
l-10 59q9 -2 20 -2.5t24 -0.5q17 0 33 1q-22 23 -22 60q0 39 24.5 68t61.5 29q28 0 49 -22t21 -72zM-19 912q0 -14 14.5 -28.5t39.5 -19.5q17 13 17 30q0 20 -12.5 32.5t-28.5 12.5q-12 0 -21 -6.5t-9 -20.5z" />
    <glyph glyph-name="uni0654_uni064E.ccmp" 
d="M101 615l-9 -71q-58 -10 -98 -18t-86 -19l-22 60q22 6 43 11q-18 24 -18 60q0 43 27.5 73.5t65.5 30.5q41 0 78 -27l-14 -50q-32 8 -55 8q-25 0 -39 -8t-14 -22q0 -16 22.5 -28t51.5 -12q9 0 22.5 2.5t44.5 9.5zM108 900v-66q-41 -8 -95.5 -21t-128.5 -32v63
q66 19 123.5 34t100.5 22z" />
    </font>
</defs>
</svg>
